<svg width="960" height="513" viewBox="0 0 960 513" fill="none" xmlns="http://www.w3.org/2000/svg">
<rect width="960" height="513" fill="white"/>
<path d="M275.5 0.5H435L0.5 299.5V189.5L275.5 0.5Z" fill="#0F1932" stroke="#0F1932"/>
<path d="M266.765 104.357L263.285 99.3008L265.772 97.5892L269.252 102.645L266.765 104.357Z" fill="#FF1999"/>
<path d="M129.625 158.341L132.449 156.397L141.508 189.774L139.022 191.485L125.231 181.285L129.876 197.78L127.389 199.492L99.4487 179.111L102.23 177.196L126.252 194.952L121.954 180.044L110.611 171.504L113.182 169.735L121.964 176.539L118.787 165.877L121.316 164.136L125.284 177.752L137.674 187.091L129.625 158.341ZM163.86 175.151C162.286 176.234 160.577 176.878 158.731 177.084C156.861 177.256 154.997 177.044 153.138 176.448C151.254 175.818 149.452 174.854 147.73 173.555C146.036 172.237 144.527 170.615 143.201 168.689C141.473 166.178 140.351 163.555 139.834 160.818C139.345 158.063 139.503 155.496 140.309 153.117C141.091 150.703 142.536 148.771 144.643 147.321C146.806 145.832 149.127 145.172 151.604 145.342C154.11 145.493 156.548 146.299 158.919 147.758C161.267 149.184 163.293 151.135 164.997 153.611C165.187 153.886 165.376 154.162 165.566 154.437C165.731 154.678 165.847 154.876 165.914 155.033L147.117 167.971C148.583 169.8 150.202 171.22 151.974 172.231C153.751 173.187 155.537 173.707 157.332 173.789C159.132 173.817 160.735 173.348 162.14 172.381C163.573 171.395 164.614 170.019 165.262 168.255C165.939 166.471 166.034 164.683 165.545 162.89L168.6 162.004C169.026 163.586 169.131 165.212 168.914 166.882C168.697 168.552 168.157 170.114 167.295 171.57C166.438 172.971 165.293 174.164 163.86 175.151ZM145.292 165.501L161.519 154.333C160.057 152.45 158.438 151.03 156.661 150.073C154.913 149.097 153.15 148.612 151.374 148.618C149.602 148.57 148 149.04 146.567 150.026C145.134 151.012 144.123 152.341 143.535 154.013C142.923 155.651 142.759 157.488 143.041 159.523C143.329 161.505 144.079 163.497 145.292 165.501ZM189.86 157.255C188.146 158.435 186.192 158.994 183.997 158.934C181.778 158.839 179.693 158.246 177.742 157.156L181.329 162.367L178.758 164.136L152.837 126.475L155.703 124.502L166.994 140.908C166.723 138.409 166.897 136.135 167.516 134.086C168.112 132.004 169.323 130.334 171.149 129.077C172.695 128.013 174.343 127.462 176.096 127.421C177.877 127.361 179.664 127.702 181.458 128.444C183.229 129.151 184.919 130.193 186.529 131.569C188.115 132.91 189.511 134.458 190.719 136.212C192.021 138.104 192.973 140.059 193.575 142.077C194.206 144.076 194.493 146.058 194.437 148.023C194.358 149.953 193.946 151.731 193.203 153.358C192.463 154.931 191.349 156.23 189.86 157.255ZM187.055 154.624C188.235 153.812 189.13 152.765 189.739 151.484C190.348 150.203 190.663 148.796 190.683 147.261C190.703 145.726 190.472 144.187 189.99 142.644C189.484 141.066 188.757 139.59 187.81 138.214C186.508 136.322 184.952 134.783 183.141 133.596C181.335 132.356 179.499 131.643 177.632 131.457C175.77 131.219 174.052 131.641 172.479 132.724C171.355 133.497 170.514 134.532 169.957 135.828C169.428 137.105 169.139 138.52 169.091 140.074C169.047 141.574 169.2 143.09 169.551 144.623L175.303 152.981C176.055 153.832 176.953 154.506 177.999 155.003C179.021 155.465 180.085 155.747 181.19 155.848C182.322 155.93 183.401 155.872 184.424 155.674C185.448 155.477 186.325 155.127 187.055 154.624ZM197.673 139.713C196.513 138.028 195.913 136.312 195.871 134.567C195.805 132.787 196.236 131.097 197.163 129.496C198.094 127.841 199.473 126.385 201.3 125.128C202.367 124.393 203.548 123.732 204.842 123.146C206.136 122.559 207.375 122.163 208.558 121.957L206.996 119.687C205.434 117.417 203.643 115.988 201.624 115.401C199.605 114.814 197.626 115.188 195.687 116.522C194.507 117.334 193.53 118.412 192.757 119.755C191.988 121.045 191.341 122.631 190.815 124.513L188.015 122.791C188.619 120.601 189.408 118.74 190.383 117.208C191.333 115.641 192.525 114.364 193.958 113.378C196.656 111.522 199.442 110.998 202.317 111.806C205.192 112.615 207.779 114.688 210.075 118.024L218.632 130.457C218.964 130.939 219.297 131.242 219.631 131.367C219.942 131.457 220.291 131.394 220.68 131.177L222.598 133.962C222.312 134.21 222.069 134.428 221.868 134.617C221.667 134.806 221.498 134.922 221.362 134.965C220.636 135.414 219.913 135.506 219.193 135.242C218.472 134.977 217.897 134.562 217.466 133.997L216.075 132.066C216.157 134.29 215.706 136.374 214.725 138.317C213.72 140.225 212.402 141.74 210.773 142.862C209.368 143.829 207.841 144.348 206.192 144.418C204.547 144.435 202.975 144.047 201.477 143.253C199.983 142.406 198.715 141.226 197.673 139.713ZM213.803 131.653C213.78 130.958 213.7 130.329 213.561 129.766C213.421 129.203 213.234 128.75 212.997 128.406L210.298 124.485C209.035 124.695 207.801 125.038 206.596 125.513C205.418 125.968 204.31 126.554 203.27 127.269C201.219 128.681 199.905 130.321 199.327 132.188C198.749 134.056 199.052 135.849 200.235 137.569C200.922 138.567 201.784 139.367 202.821 139.971C203.834 140.541 204.949 140.838 206.166 140.862C207.36 140.852 208.505 140.469 209.601 139.715C210.977 138.767 212.031 137.561 212.761 136.095C213.519 134.61 213.867 133.129 213.803 131.653ZM246.196 117.721L243.33 119.693L232.997 104.68C230.819 101.516 228.854 99.4725 227.102 98.5497C225.324 97.5937 223.621 97.6762 221.992 98.7972C220.868 99.5712 219.994 100.679 219.373 102.12C218.727 103.528 218.384 105.107 218.347 106.856C218.313 108.552 218.622 110.265 219.276 111.996L230.603 128.453L227.736 130.426L209.236 103.547L211.849 101.749L216.039 107.837C215.729 106.124 215.721 104.457 216.014 102.836C216.282 101.181 216.831 99.6628 217.661 98.2807C218.491 96.8986 219.551 95.7634 220.844 94.8737C222.052 94.042 223.268 93.6108 224.489 93.5815C225.711 93.5511 226.93 93.8783 228.146 94.562C229.338 95.2111 230.543 96.181 231.763 97.4706C232.957 98.7267 234.158 100.231 235.366 101.986L246.196 117.721ZM261.751 105.114C261.597 105.372 261.375 105.803 261.087 106.407C260.799 107.011 260.389 107.648 259.857 108.318C259.325 108.988 258.665 109.595 257.878 110.136C257.063 110.697 256.161 111.04 255.169 111.164C254.206 111.27 253.254 111.088 252.312 110.622C251.347 110.12 250.473 109.303 249.692 108.168L236.447 88.9242L233.412 91.0135L231.494 88.2276L234.53 86.1384L228.28 77.0583L231.146 75.0858L237.396 84.1659L242.453 80.6849L244.371 83.4707L239.313 86.9517L251.883 105.215C252.601 106.14 253.379 106.669 254.217 106.802C255.082 106.916 255.852 106.741 256.526 106.277C257.313 105.735 257.923 105.087 258.356 104.333C258.766 103.544 258.994 103.033 259.039 102.799L261.751 105.114ZM268.793 67.1176C266.93 68.5017 265.693 70.3155 265.085 72.559C264.504 74.7841 264.664 77.1829 265.565 79.7557L277.07 96.4711L274.204 98.4436L255.704 71.5649L258.402 69.7081L262.84 76.1568C262.296 73.7435 262.24 71.5263 262.673 69.5056C263.132 67.4662 264.017 65.8936 265.326 64.7899C265.585 64.5613 265.811 64.3804 266.008 64.2451C266.233 64.0901 266.427 63.9817 266.592 63.9189L268.793 67.1176ZM296.542 83.8294C294.743 85.0673 292.823 85.8565 290.781 86.1974C288.738 86.5394 286.647 86.357 284.504 85.6518L283.98 82.3634C286.187 82.9221 288.133 83.1036 289.82 82.9057C291.51 82.6548 293.058 82.0453 294.462 81.0793C296.176 79.8993 297.283 78.5291 297.782 76.9691C298.258 75.3747 297.952 73.7857 296.863 72.2037C296.129 71.1375 295.307 70.5126 294.393 70.3302C293.485 70.0937 292.422 70.1413 291.202 70.4742C289.985 70.754 288.561 71.1509 286.929 71.666C285.056 72.1948 283.411 72.5415 281.992 72.7072C280.579 72.8179 279.308 72.6283 278.183 72.1351C277.062 71.5891 276.015 70.6116 275.045 69.2016C273.837 67.4474 273.195 65.7605 273.117 64.142C273.041 62.4705 273.421 60.9167 274.256 59.4804C275.094 57.9915 276.286 56.7148 277.83 55.6516C279.518 54.4902 281.23 53.793 282.973 53.5569C284.715 53.3207 286.397 53.5062 288.017 54.1146L288.259 57.445C286.714 56.8871 285.217 56.7261 283.766 56.9643C282.32 57.1488 280.936 57.6955 279.615 58.6048C278.716 59.2237 277.966 59.9679 277.364 60.8386C276.738 61.6747 276.395 62.6201 276.336 63.6749C276.28 64.6766 276.653 65.7626 277.458 66.9321C278.121 67.8949 278.839 68.5164 279.611 68.796C280.359 69.0411 281.257 69.0821 282.304 68.9191C283.327 68.7215 284.558 68.4319 285.994 68.0521C288.03 67.4618 289.868 67.0327 291.506 66.767C293.122 66.4659 294.574 66.5311 295.863 66.9614C297.154 67.3906 298.355 68.4147 299.467 70.0312C301.195 72.5419 301.772 75.0339 301.198 77.5073C300.622 79.9817 299.071 82.0884 296.542 83.8294Z" fill="white"/>
<path d="M59.5491 160.512C57.609 161.079 56.0179 162.052 56.3129 163.36C56.6371 164.798 59.537 163.994 60.7495 162.256C61.9621 160.517 61.3307 159.991 59.5491 160.512Z" fill="#FF1999" stroke="#FF1999" stroke-width="2"/>
<path d="M65.5907 165.223C63.4712 165.53 61.8518 166.462 62.4996 168.283C63.2116 170.284 66.3899 169.884 67.3913 167.839C68.3928 165.794 67.537 164.942 65.5907 165.223Z" fill="#FF1999" stroke="#FF1999" stroke-width="2"/>
<path d="M98.1778 192.172C84.2716 183.487 61.0395 189.56 56.7525 201.061C52.4655 212.562 59.3513 223.952 74.9034 227.433C90.4557 230.914 107.25 210.443 108.526 207.207C109.803 203.971 112.084 200.857 98.1778 192.172Z" fill="#FF1999" stroke="#FF1999" stroke-width="2"/>
<path d="M56.3749 199.932C42.1946 180.988 43.3946 173.465 56.5096 163.763" stroke="#FF1999" stroke-width="2" stroke-linecap="round"/>
<path d="M58.3303 196.871C53.4177 182.293 54.649 176.381 63.2195 169.455" stroke="#FF1999" stroke-width="2" stroke-linecap="round"/>
<path d="M68.2456 192.027C63.7198 193.802 61.9531 198.968 63.9098 204.38C66.4469 211.398 76.6222 215.028 80.8749 210.376C84.5814 206.321 83.3797 198.621 78.4602 194.366C75.0999 191.459 71.7394 190.655 68.2456 192.027Z" fill="white" stroke="#1E263F" stroke-width="2"/>
<path d="M72.4183 197.436C71.6899 200.678 71.2759 200.736 68.1612 198.688C63.531 208.526 71.4269 214.385 76.903 211.389C78.6657 210.425 79.1569 210.263 80.0067 208.462C82.2984 203.606 79.8676 199.109 72.4183 197.436Z" fill="#1E263F" stroke="#1E263F" stroke-width="2"/>
<g filter="url(#filter0_i_1246_722)">
<path d="M90.4688 219.706C89.6973 219.395 88.9631 218.937 88.2405 218.316C88.957 218.634 89.7236 218.855 90.5527 218.984C93.1508 219.385 96.311 218.862 100.38 217.674L99.0218 218.941C95.2734 220.327 92.6604 220.588 90.4688 219.706Z" fill="#1E263F" stroke="black"/>
</g>
<path d="M630.313 288.679C650.202 246.927 643.273 156.469 556.764 231.032C506.968 277.348 483.217 322.48 457.374 366.203C431.532 409.927 461.366 485.487 532.911 413.91C604.456 342.334 610.425 330.431 630.313 288.679Z" fill="#FDE4BA" stroke="#FDE4BA"/>
<path d="M509.818 126.977L320.977 218.416C419.448 351.042 442.693 347.378 481.989 335.696C516.041 325.13 519.663 271.845 509.818 126.977Z" fill="#F8D3BB" stroke="#F8D3BB"/>
<path d="M453.225 282.025L447.412 267.089H428.286L422.541 282.025H416.391L435.247 233.566H440.721L459.51 282.025H453.225ZM440.181 247.083C440.045 246.723 439.82 246.07 439.505 245.124C439.19 244.177 438.874 243.208 438.559 242.217C438.288 241.181 438.063 240.393 437.883 239.852C437.657 240.753 437.41 241.677 437.139 242.623C436.914 243.524 436.666 244.357 436.396 245.124C436.17 245.89 435.968 246.543 435.788 247.083L430.313 261.682H445.588L440.181 247.083ZM479.426 233.769C483.436 233.769 486.725 234.287 489.293 235.324C491.907 236.315 493.844 237.824 495.105 239.852C496.367 241.879 496.998 244.425 496.998 247.489C496.998 250.057 496.525 252.197 495.578 253.91C494.632 255.622 493.416 256.996 491.929 258.032C490.487 259.023 488.955 259.812 487.333 260.398L500.58 282.025H493.483L481.791 262.087H472.194V282.025H466.111V233.769H479.426ZM479.088 239.041H472.194V256.951H479.426C482.039 256.951 484.179 256.613 485.846 255.937C487.513 255.216 488.73 254.18 489.496 252.828C490.307 251.477 490.712 249.787 490.712 247.759C490.712 245.642 490.284 243.952 489.428 242.69C488.617 241.429 487.356 240.505 485.643 239.919C483.931 239.334 481.746 239.041 479.088 239.041ZM523.428 282.025H517.346V239.108H502.274V233.769H538.432V239.108H523.428V282.025ZM575.176 282.025H541.721V277.429L567.133 239.176H542.532V233.769H574.5V238.365L549.088 276.618H575.176V282.025Z" fill="#261919"/>
<path d="M479.436 321.782H477.289V313.839H468.559V321.782H466.412V304.751H468.559V311.954H477.289V304.751H479.436V321.782ZM498.954 313.243C498.954 314.562 498.787 315.763 498.453 316.844C498.119 317.91 497.618 318.832 496.95 319.611C496.298 320.391 495.479 320.987 494.493 321.401C493.523 321.814 492.394 322.021 491.106 322.021C489.77 322.021 488.609 321.814 487.623 321.401C486.637 320.971 485.818 320.375 485.166 319.611C484.514 318.832 484.029 317.902 483.711 316.821C483.393 315.739 483.234 314.539 483.234 313.219C483.234 311.469 483.52 309.943 484.093 308.639C484.665 307.335 485.532 306.317 486.693 305.586C487.87 304.854 489.349 304.488 491.13 304.488C492.831 304.488 494.262 304.854 495.423 305.586C496.584 306.301 497.459 307.319 498.047 308.639C498.652 309.943 498.954 311.477 498.954 313.243ZM485.5 313.243C485.5 314.674 485.699 315.906 486.097 316.94C486.494 317.974 487.106 318.769 487.933 319.325C488.776 319.882 489.834 320.16 491.106 320.16C492.394 320.16 493.443 319.882 494.254 319.325C495.081 318.769 495.694 317.974 496.091 316.94C496.489 315.906 496.688 314.674 496.688 313.243C496.688 311.096 496.242 309.418 495.352 308.209C494.461 306.985 493.054 306.373 491.13 306.373C489.842 306.373 488.776 306.651 487.933 307.208C487.106 307.748 486.494 308.535 486.097 309.569C485.699 310.587 485.5 311.811 485.5 313.243ZM510.242 321.782L504.637 306.85H504.541C504.573 307.168 504.597 307.573 504.613 308.066C504.645 308.559 504.669 309.1 504.685 309.688C504.7 310.261 504.708 310.849 504.708 311.454V321.782H502.729V304.751H505.901L511.149 318.705H511.244L516.587 304.751H519.736V321.782H517.613V311.31C517.613 310.754 517.621 310.205 517.637 309.665C517.653 309.108 517.677 308.591 517.709 308.114C517.74 307.621 517.764 307.208 517.78 306.874H517.685L512.008 321.782H510.242ZM533.887 321.782H524.369V304.751H533.887V306.635H526.516V311.954H533.457V313.815H526.516V319.898H533.887V321.782Z" fill="#261919"/>
<defs>
<filter id="filter0_i_1246_722" x="83.1895" y="212.402" width="19.1191" height="12.3164" filterUnits="userSpaceOnUse" color-interpolation-filters="sRGB">
<feFlood flood-opacity="0" result="BackgroundImageFix"/>
<feBlend mode="normal" in="SourceGraphic" in2="BackgroundImageFix" result="shape"/>
<feColorMatrix in="SourceAlpha" type="matrix" values="0 0 0 0 0 0 0 0 0 0 0 0 0 0 0 0 0 0 127 0" result="hardAlpha"/>
<feOffset dy="4"/>
<feGaussianBlur stdDeviation="2"/>
<feComposite in2="hardAlpha" operator="arithmetic" k2="-1" k3="1"/>
<feColorMatrix type="matrix" values="0 0 0 0 0 0 0 0 0 0 0 0 0 0 0 0 0 0 0.25 0"/>
<feBlend mode="normal" in2="shape" result="effect1_innerShadow_1246_722"/>
</filter>
</defs>
</svg>
