<svg width="960" height="513" viewBox="0 0 960 513" fill="none" xmlns="http://www.w3.org/2000/svg">
<rect width="960" height="513" fill="white"/>
<path d="M275.5 0.5H435L0.5 299.5V189.5L275.5 0.5Z" fill="#0F1932" stroke="#0F1932"/>
<path d="M266.765 104.357L263.285 99.3008L265.772 97.5892L269.252 102.645L266.765 104.357Z" fill="#FF1999"/>
<path d="M129.625 158.341L132.449 156.397L141.508 189.774L139.022 191.485L125.231 181.285L129.876 197.78L127.389 199.492L99.4487 179.111L102.23 177.196L126.252 194.952L121.954 180.044L110.611 171.504L113.182 169.735L121.964 176.539L118.787 165.877L121.316 164.136L125.284 177.752L137.674 187.091L129.625 158.341ZM163.86 175.151C162.286 176.234 160.577 176.878 158.731 177.084C156.861 177.256 154.997 177.044 153.138 176.448C151.254 175.818 149.452 174.854 147.73 173.555C146.036 172.237 144.527 170.615 143.201 168.689C141.473 166.178 140.351 163.555 139.834 160.818C139.345 158.063 139.503 155.496 140.309 153.117C141.091 150.703 142.536 148.771 144.643 147.321C146.806 145.832 149.127 145.172 151.604 145.342C154.11 145.493 156.548 146.299 158.919 147.758C161.267 149.184 163.293 151.135 164.997 153.611C165.187 153.886 165.376 154.162 165.566 154.437C165.731 154.678 165.847 154.876 165.914 155.033L147.117 167.971C148.583 169.8 150.202 171.22 151.974 172.231C153.751 173.187 155.537 173.707 157.332 173.789C159.132 173.817 160.735 173.348 162.14 172.381C163.573 171.395 164.614 170.019 165.262 168.255C165.939 166.471 166.034 164.683 165.545 162.89L168.6 162.004C169.026 163.586 169.131 165.212 168.914 166.882C168.697 168.552 168.157 170.114 167.295 171.57C166.438 172.971 165.293 174.164 163.86 175.151ZM145.292 165.501L161.519 154.333C160.057 152.45 158.438 151.03 156.661 150.073C154.913 149.097 153.15 148.612 151.374 148.618C149.602 148.57 148 149.04 146.567 150.026C145.134 151.012 144.123 152.341 143.535 154.013C142.923 155.651 142.759 157.488 143.041 159.523C143.329 161.505 144.079 163.497 145.292 165.501ZM189.86 157.255C188.146 158.435 186.192 158.994 183.997 158.934C181.778 158.839 179.693 158.246 177.742 157.156L181.329 162.367L178.758 164.136L152.837 126.475L155.703 124.502L166.994 140.908C166.723 138.409 166.897 136.135 167.516 134.086C168.112 132.004 169.323 130.334 171.149 129.077C172.695 128.013 174.343 127.462 176.096 127.421C177.877 127.361 179.664 127.702 181.458 128.444C183.229 129.151 184.919 130.193 186.529 131.569C188.115 132.91 189.511 134.458 190.719 136.212C192.021 138.104 192.973 140.059 193.575 142.077C194.206 144.076 194.493 146.058 194.437 148.023C194.358 149.953 193.946 151.731 193.203 153.358C192.463 154.931 191.349 156.23 189.86 157.255ZM187.055 154.624C188.235 153.812 189.13 152.765 189.739 151.484C190.348 150.203 190.663 148.796 190.683 147.261C190.703 145.726 190.472 144.187 189.99 142.644C189.484 141.066 188.757 139.59 187.81 138.214C186.508 136.322 184.952 134.783 183.141 133.596C181.335 132.356 179.499 131.643 177.632 131.457C175.77 131.219 174.052 131.641 172.479 132.724C171.355 133.497 170.514 134.532 169.957 135.828C169.428 137.105 169.139 138.52 169.091 140.074C169.047 141.574 169.2 143.09 169.551 144.623L175.303 152.981C176.055 153.832 176.953 154.506 177.999 155.003C179.021 155.465 180.085 155.747 181.19 155.848C182.322 155.93 183.401 155.872 184.424 155.674C185.448 155.477 186.325 155.127 187.055 154.624ZM197.673 139.713C196.513 138.028 195.913 136.312 195.871 134.567C195.805 132.787 196.236 131.097 197.163 129.496C198.094 127.841 199.473 126.385 201.3 125.128C202.367 124.393 203.548 123.732 204.842 123.146C206.136 122.559 207.375 122.163 208.558 121.957L206.996 119.687C205.434 117.417 203.643 115.988 201.624 115.401C199.605 114.814 197.626 115.188 195.687 116.522C194.507 117.334 193.53 118.412 192.757 119.755C191.988 121.045 191.341 122.631 190.815 124.513L188.015 122.791C188.619 120.601 189.408 118.74 190.383 117.208C191.333 115.641 192.525 114.364 193.958 113.378C196.656 111.522 199.442 110.998 202.317 111.806C205.192 112.615 207.779 114.688 210.075 118.024L218.632 130.457C218.964 130.939 219.297 131.242 219.631 131.367C219.942 131.457 220.291 131.394 220.68 131.177L222.598 133.962C222.312 134.21 222.069 134.428 221.868 134.617C221.667 134.806 221.498 134.922 221.362 134.965C220.636 135.414 219.913 135.506 219.193 135.242C218.472 134.977 217.897 134.562 217.466 133.997L216.075 132.066C216.157 134.29 215.706 136.374 214.725 138.317C213.72 140.225 212.402 141.74 210.773 142.862C209.368 143.829 207.841 144.348 206.192 144.418C204.547 144.435 202.975 144.047 201.477 143.253C199.983 142.406 198.715 141.226 197.673 139.713ZM213.803 131.653C213.78 130.958 213.7 130.329 213.561 129.766C213.421 129.203 213.234 128.75 212.997 128.406L210.298 124.485C209.035 124.695 207.801 125.038 206.596 125.513C205.418 125.968 204.31 126.554 203.27 127.269C201.219 128.681 199.905 130.321 199.327 132.188C198.749 134.056 199.052 135.849 200.235 137.569C200.922 138.567 201.784 139.367 202.821 139.971C203.834 140.541 204.949 140.838 206.166 140.862C207.36 140.852 208.505 140.469 209.601 139.715C210.977 138.767 212.031 137.561 212.761 136.095C213.519 134.61 213.867 133.129 213.803 131.653ZM246.196 117.721L243.33 119.693L232.997 104.68C230.819 101.516 228.854 99.4725 227.102 98.5497C225.324 97.5937 223.621 97.6762 221.992 98.7972C220.868 99.5712 219.994 100.679 219.373 102.12C218.727 103.528 218.384 105.107 218.347 106.856C218.313 108.552 218.622 110.265 219.276 111.996L230.603 128.453L227.736 130.426L209.236 103.547L211.849 101.749L216.039 107.837C215.729 106.124 215.721 104.457 216.014 102.836C216.282 101.181 216.831 99.6628 217.661 98.2807C218.491 96.8986 219.551 95.7634 220.844 94.8737C222.052 94.042 223.268 93.6108 224.489 93.5815C225.711 93.5511 226.93 93.8783 228.146 94.562C229.338 95.2111 230.543 96.181 231.763 97.4706C232.957 98.7267 234.158 100.231 235.366 101.986L246.196 117.721ZM261.751 105.114C261.597 105.372 261.375 105.803 261.087 106.407C260.799 107.011 260.389 107.648 259.857 108.318C259.325 108.988 258.665 109.595 257.878 110.136C257.063 110.697 256.161 111.04 255.169 111.164C254.206 111.27 253.254 111.088 252.312 110.622C251.347 110.12 250.473 109.303 249.692 108.168L236.447 88.9242L233.412 91.0135L231.494 88.2276L234.53 86.1384L228.28 77.0583L231.146 75.0858L237.396 84.1659L242.453 80.6849L244.371 83.4707L239.313 86.9517L251.883 105.215C252.601 106.14 253.379 106.669 254.217 106.802C255.082 106.916 255.852 106.741 256.526 106.277C257.313 105.735 257.923 105.087 258.356 104.333C258.766 103.544 258.994 103.033 259.039 102.799L261.751 105.114ZM268.793 67.1176C266.93 68.5017 265.693 70.3155 265.085 72.559C264.504 74.7841 264.664 77.1829 265.565 79.7557L277.07 96.4711L274.204 98.4436L255.704 71.5649L258.402 69.7081L262.84 76.1568C262.296 73.7435 262.24 71.5263 262.673 69.5056C263.132 67.4662 264.017 65.8936 265.326 64.7899C265.585 64.5613 265.811 64.3804 266.008 64.2451C266.233 64.0901 266.427 63.9817 266.592 63.9189L268.793 67.1176ZM296.542 83.8294C294.743 85.0673 292.823 85.8565 290.781 86.1974C288.738 86.5394 286.647 86.357 284.504 85.6518L283.98 82.3634C286.187 82.9221 288.133 83.1036 289.82 82.9057C291.51 82.6548 293.058 82.0453 294.462 81.0793C296.176 79.8993 297.283 78.5291 297.782 76.9691C298.258 75.3747 297.952 73.7857 296.863 72.2037C296.129 71.1375 295.307 70.5126 294.393 70.3302C293.485 70.0937 292.422 70.1413 291.202 70.4742C289.985 70.754 288.561 71.1509 286.929 71.666C285.056 72.1948 283.411 72.5415 281.992 72.7072C280.579 72.8179 279.308 72.6283 278.183 72.1351C277.062 71.5891 276.015 70.6116 275.045 69.2016C273.837 67.4474 273.195 65.7605 273.117 64.142C273.041 62.4705 273.421 60.9167 274.256 59.4804C275.094 57.9915 276.286 56.7148 277.83 55.6516C279.518 54.4902 281.23 53.793 282.973 53.5569C284.715 53.3207 286.397 53.5062 288.017 54.1146L288.259 57.445C286.714 56.8871 285.217 56.7261 283.766 56.9643C282.32 57.1488 280.936 57.6955 279.615 58.6048C278.716 59.2237 277.966 59.9679 277.364 60.8386C276.738 61.6747 276.395 62.6201 276.336 63.6749C276.28 64.6766 276.653 65.7626 277.458 66.9321C278.121 67.8949 278.839 68.5164 279.611 68.796C280.359 69.0411 281.257 69.0821 282.304 68.9191C283.327 68.7215 284.558 68.4319 285.994 68.0521C288.03 67.4618 289.868 67.0327 291.506 66.767C293.122 66.4659 294.574 66.5311 295.863 66.9614C297.154 67.3906 298.355 68.4147 299.467 70.0312C301.195 72.5419 301.772 75.0339 301.198 77.5073C300.622 79.9817 299.071 82.0884 296.542 83.8294Z" fill="white"/>
<path d="M59.5491 160.512C57.609 161.079 56.0179 162.052 56.3129 163.36C56.6371 164.798 59.537 163.994 60.7495 162.256C61.9621 160.517 61.3307 159.991 59.5491 160.512Z" fill="#FF1999" stroke="#FF1999" stroke-width="2"/>
<path d="M65.5907 165.223C63.4712 165.53 61.8518 166.462 62.4996 168.283C63.2116 170.284 66.3899 169.884 67.3913 167.839C68.3928 165.794 67.537 164.942 65.5907 165.223Z" fill="#FF1999" stroke="#FF1999" stroke-width="2"/>
<path d="M98.1778 192.172C84.2716 183.487 61.0395 189.56 56.7525 201.061C52.4655 212.562 59.3513 223.952 74.9034 227.433C90.4557 230.914 107.25 210.443 108.526 207.207C109.803 203.971 112.084 200.857 98.1778 192.172Z" fill="#FF1999" stroke="#FF1999" stroke-width="2"/>
<path d="M56.3749 199.932C42.1946 180.988 43.3946 173.465 56.5096 163.763" stroke="#FF1999" stroke-width="2" stroke-linecap="round"/>
<path d="M58.3303 196.871C53.4177 182.293 54.649 176.381 63.2195 169.455" stroke="#FF1999" stroke-width="2" stroke-linecap="round"/>
<path d="M68.2456 192.027C63.7198 193.802 61.9531 198.968 63.9098 204.38C66.4469 211.398 76.6222 215.028 80.8749 210.376C84.5814 206.321 83.3797 198.621 78.4602 194.366C75.0999 191.459 71.7394 190.655 68.2456 192.027Z" fill="white" stroke="#1E263F" stroke-width="2"/>
<path d="M72.4183 197.436C71.6899 200.678 71.2759 200.736 68.1612 198.688C63.531 208.526 71.4269 214.385 76.903 211.389C78.6657 210.425 79.1569 210.263 80.0067 208.462C82.2984 203.606 79.8676 199.109 72.4183 197.436Z" fill="#1E263F" stroke="#1E263F" stroke-width="2"/>
<g filter="url(#filter0_i_1246_723)">
<path d="M90.4688 219.706C89.6973 219.395 88.9631 218.937 88.2405 218.316C88.957 218.634 89.7236 218.855 90.5527 218.984C93.1508 219.385 96.311 218.862 100.38 217.674L99.0218 218.941C95.2734 220.327 92.6604 220.588 90.4688 219.706Z" fill="#1E263F" stroke="black"/>
</g>
<path d="M605.082 255.877C616.82 255.877 626.336 246.223 626.336 234.314C626.336 222.404 616.82 212.75 605.082 212.75C593.344 212.75 583.828 222.404 583.828 234.314C583.828 246.223 593.344 255.877 605.082 255.877Z" fill="#2098D9" fill-opacity="0.85"/>
<path d="M593.494 229.411C597.895 220.723 601.43 218.778 608.951 218.629" stroke="white" stroke-opacity="0.85" stroke-width="2" stroke-linecap="round"/>
<path d="M575.074 317.873C586.812 317.873 596.328 308.219 596.328 296.31C596.328 284.4 586.812 274.746 575.074 274.746C563.336 274.746 553.82 284.4 553.82 296.31C553.82 308.219 563.336 317.873 575.074 317.873Z" fill="#2098D9" fill-opacity="0.85"/>
<path d="M563.482 291.407C567.883 282.719 571.418 280.775 578.939 280.625" stroke="white" stroke-opacity="0.85" stroke-width="2" stroke-linecap="round"/>
<path d="M541.322 313.23C556.512 313.23 568.827 299.955 568.827 283.58C568.827 267.204 556.512 253.93 541.322 253.93C526.131 253.93 513.816 267.204 513.816 283.58C513.816 299.955 526.131 313.23 541.322 313.23Z" fill="#2098D9" fill-opacity="0.85"/>
<path d="M521.312 276.844C527.009 264.899 531.583 262.225 541.315 262.02" stroke="white" stroke-width="2" stroke-linecap="round"/>
<path d="M578.954 284.961C583.17 293.422 592.95 296.596 600.799 292.051C608.648 287.506 611.592 276.963 607.376 268.503C603.16 260.042 593.38 256.868 585.531 261.413C577.683 265.958 574.738 276.501 578.954 284.961Z" fill="#2098D9" fill-opacity="0.85"/>
<path d="M590.846 263.719C598.153 263.576 600.703 265.382 603.503 270.745" stroke="white" stroke-opacity="0.85" stroke-width="2" stroke-linecap="round"/>
<path d="M550.932 269.303C554.86 277.186 563.973 280.144 571.285 275.909C578.598 271.675 581.342 261.851 577.413 253.969C573.485 246.086 564.373 243.128 557.06 247.363C549.747 251.597 547.004 261.42 550.932 269.303Z" fill="#2098D9" fill-opacity="0.85"/>
<path d="M562.008 249.511C568.814 249.378 571.191 251.061 573.799 256.058" stroke="white" stroke-opacity="0.85" stroke-width="2" stroke-linecap="round"/>
<path d="M570.7 377H333V227.074L383.157 191.498V138.135H413.841V167.993L470.489 135L570.7 214.937L560.541 227.074L470.489 173.075L363.094 246.768V339.769H570.7V377Z" fill="white" stroke="#2A98D2" stroke-opacity="0.937255"/>
<path d="M430.525 317.774V307.014V317.774ZM440.654 317.774V307.014V317.774ZM450.793 307.014V300.458C450.793 300.012 450.59 299.584 450.228 299.269C449.866 298.954 449.375 298.776 448.864 298.776H439.391V292.438C439.391 292.215 439.289 292.002 439.108 291.844C438.927 291.686 438.682 291.598 438.426 291.598H435.59C435.09 291.597 434.595 291.682 434.134 291.848C433.672 292.014 433.253 292.258 432.899 292.565C432.546 292.873 432.266 293.239 432.076 293.641C431.885 294.043 431.788 294.474 431.789 294.91V298.81H422.287C421.775 298.81 421.284 298.987 420.923 299.302C420.561 299.618 420.357 300.045 420.357 300.491V307.014H450.793ZM420.386 307.014V323.574C420.386 323.797 420.488 324.011 420.669 324.168C420.85 324.326 421.095 324.415 421.351 324.415H422.933C424.934 324.372 426.839 323.661 428.254 322.427C429.669 321.194 430.486 319.534 430.535 317.791V323.591C430.535 323.814 430.636 324.028 430.817 324.185C430.998 324.343 431.244 324.431 431.499 324.431H433.072C435.088 324.431 437.022 323.734 438.447 322.491C439.873 321.249 440.674 319.564 440.674 317.808V323.608C440.674 323.831 440.775 324.045 440.956 324.202C441.137 324.36 441.382 324.448 441.638 324.448H443.23C444.228 324.448 445.217 324.277 446.139 323.944C447.061 323.611 447.899 323.123 448.605 322.508C449.311 321.893 449.871 321.163 450.253 320.359C450.635 319.556 450.832 318.694 450.832 317.824V307.014H420.386Z" stroke="#2A98D2" stroke-linecap="round" stroke-linejoin="round"/>
<path d="M450.832 247.793H420.357V280.644H450.832V247.793Z" stroke="#41A7DF" stroke-width="2" stroke-linecap="round"/>
<path d="M408.17 291.598H377.695V324.448H408.17V291.598Z" stroke="#41A7DF" stroke-width="2" stroke-linecap="round"/>
<path d="M408.17 247.793H377.695V280.644H408.17V247.793Z" stroke="#41A7DF" stroke-width="2" stroke-linecap="round"/>
<path d="M352.514 360.494H354.228C354.139 361.381 353.904 362.172 353.523 362.872C353.142 363.571 352.603 364.127 351.907 364.537C351.21 364.942 350.341 365.143 349.3 365.143C348.538 365.143 347.844 364.99 347.219 364.681C346.6 364.373 346.068 363.937 345.621 363.372C345.175 362.802 344.83 362.119 344.586 361.322C344.348 360.52 344.229 359.629 344.229 358.648V357.251C344.229 356.269 344.348 355.38 344.586 354.585C344.83 353.784 345.178 353.096 345.63 352.527C346.089 351.955 346.639 351.515 347.282 351.207C347.925 350.899 348.648 350.745 349.451 350.745C350.433 350.745 351.264 350.944 351.942 351.342C352.621 351.74 353.148 352.292 353.523 352.998C353.904 353.696 354.139 354.509 354.228 355.433H352.514C352.43 354.778 352.276 354.217 352.05 353.749C351.823 353.273 351.502 352.908 351.085 352.651C350.669 352.395 350.124 352.266 349.451 352.266C348.874 352.266 348.365 352.384 347.925 352.623C347.49 352.86 347.124 353.197 346.827 353.633C346.535 354.068 346.315 354.592 346.166 355.201C346.017 355.812 345.943 356.488 345.943 357.233V358.648C345.943 359.333 346.008 359.977 346.139 360.582C346.276 361.184 346.481 361.714 346.755 362.169C347.029 362.625 347.377 362.984 347.8 363.247C348.222 363.503 348.722 363.632 349.3 363.632C350.032 363.632 350.615 363.508 351.05 363.258C351.484 363.006 351.811 362.647 352.032 362.178C352.258 361.712 352.419 361.149 352.514 360.494ZM357.978 356.173V364.951H356.326V354.537H357.933L357.978 356.173ZM360.995 354.48L360.986 356.136C360.85 356.103 360.718 356.083 360.594 356.077C360.474 356.064 360.338 356.057 360.183 356.057C359.802 356.057 359.466 356.123 359.174 356.25C358.882 356.379 358.635 356.559 358.433 356.788C358.231 357.021 358.07 357.297 357.951 357.616C357.838 357.932 357.763 358.278 357.728 358.657L357.264 358.946C357.264 358.317 357.32 357.726 357.433 357.174C357.552 356.622 357.734 356.136 357.978 355.711C358.222 355.282 358.531 354.949 358.906 354.71C359.287 354.467 359.739 354.344 360.263 354.344C360.382 354.344 360.519 354.362 360.674 354.393C360.829 354.419 360.936 354.447 360.995 354.48ZM361.906 359.859V359.638C361.906 358.887 362.007 358.192 362.209 357.551C362.412 356.902 362.704 356.34 363.085 355.866C363.465 355.385 363.927 355.012 364.468 354.75C365.01 354.48 365.617 354.344 366.29 354.344C366.968 354.344 367.578 354.48 368.12 354.75C368.667 355.012 369.132 355.385 369.513 355.866C369.9 356.34 370.194 356.902 370.397 357.551C370.599 358.192 370.7 358.887 370.7 359.638V359.859C370.7 360.61 370.599 361.307 370.397 361.948C370.194 362.59 369.9 363.151 369.513 363.632C369.132 364.108 368.67 364.48 368.129 364.749C367.593 365.012 366.986 365.143 366.307 365.143C365.629 365.143 365.019 365.012 364.477 364.749C363.936 364.48 363.471 364.108 363.085 363.632C362.704 363.151 362.412 362.59 362.209 361.948C362.007 361.307 361.906 360.61 361.906 359.859ZM363.558 359.638V359.859C363.558 360.38 363.614 360.871 363.727 361.333C363.84 361.788 364.01 362.191 364.236 362.544C364.468 362.897 364.757 363.177 365.102 363.383C365.447 363.582 365.849 363.681 366.307 363.681C366.76 363.681 367.156 363.582 367.495 363.383C367.84 363.177 368.126 362.897 368.352 362.544C368.578 362.191 368.748 361.788 368.861 361.333C368.98 360.871 369.039 360.38 369.039 359.859V359.638C369.039 359.125 368.98 358.641 368.861 358.186C368.748 357.724 368.575 357.316 368.343 356.964C368.117 356.602 367.831 356.322 367.486 356.116C367.147 355.91 366.748 355.807 366.29 355.807C365.837 355.807 365.439 355.91 365.093 356.116C364.754 356.322 364.468 356.602 364.236 356.964C364.01 357.316 363.84 357.724 363.727 358.186C363.614 358.641 363.558 359.125 363.558 359.638ZM374.414 356.607V364.951H372.754V354.537H374.325L374.414 356.607ZM374.075 359.349L373.307 359.32C373.313 358.608 373.399 357.951 373.566 357.347C373.733 356.738 373.98 356.208 374.307 355.759C374.634 355.31 375.042 354.964 375.53 354.721C376.018 354.469 376.584 354.344 377.226 354.344C377.679 354.344 378.096 354.414 378.476 354.557C378.857 354.69 379.188 354.907 379.467 355.201C379.747 355.496 379.964 355.875 380.119 356.337C380.274 356.799 380.351 357.358 380.351 358.013V364.951H378.7V358.098C378.7 357.553 378.613 357.117 378.441 356.788C378.274 356.462 378.036 356.226 377.726 356.077C377.417 355.923 377.054 355.847 376.637 355.847C376.149 355.847 375.742 355.939 375.414 356.125C375.087 356.311 374.825 356.567 374.628 356.896C374.432 357.222 374.289 357.599 374.2 358.021C374.117 358.438 374.075 358.882 374.075 359.349ZM380.333 358.368L379.226 358.733C379.232 358.162 379.319 357.614 379.485 357.089C379.658 356.561 379.905 356.094 380.226 355.682C380.554 355.273 380.955 354.949 381.432 354.71C381.908 354.467 382.452 354.344 383.065 354.344C383.583 354.344 384.041 354.419 384.44 354.566C384.845 354.715 385.184 354.942 385.458 355.249C385.738 355.551 385.949 355.939 386.092 356.414C386.235 356.889 386.306 357.454 386.306 358.107V364.951H384.646V358.089C384.646 357.505 384.559 357.053 384.387 356.732C384.22 356.405 383.982 356.177 383.673 356.048C383.369 355.915 383.006 355.847 382.583 355.847C382.22 355.847 381.899 355.915 381.619 356.048C381.339 356.184 381.104 356.37 380.914 356.607C380.723 356.837 380.577 357.104 380.476 357.406C380.381 357.706 380.333 358.028 380.333 358.368ZM394.502 363.17V357.809C394.502 357.399 394.425 357.043 394.27 356.74C394.121 356.434 393.895 356.195 393.592 356.029C393.288 355.862 392.913 355.779 392.467 355.779C392.05 355.779 391.684 355.856 391.369 356.009C391.059 356.164 390.815 356.366 390.636 356.615C390.464 356.867 390.377 357.137 390.377 357.424H388.726C388.726 357.053 388.815 356.683 388.994 356.318C389.172 355.952 389.428 355.621 389.762 355.326C390.101 355.025 390.505 354.787 390.976 354.614C391.452 354.434 391.981 354.344 392.565 354.344C393.267 354.344 393.886 354.474 394.422 354.73C394.963 354.986 395.386 355.374 395.69 355.895C395.999 356.407 396.154 357.053 396.154 357.829V362.68C396.154 363.026 396.181 363.396 396.234 363.786C396.294 364.178 396.38 364.515 396.493 364.797V364.951H394.77C394.687 364.745 394.621 364.473 394.574 364.132C394.526 363.786 394.502 363.466 394.502 363.17ZM394.788 358.637L394.806 359.887H393.136C392.666 359.887 392.246 359.931 391.877 360.014C391.508 360.091 391.199 360.209 390.949 360.369C390.699 360.529 390.508 360.733 390.377 360.976C390.246 361.212 390.181 361.493 390.181 361.812C390.181 362.141 390.25 362.439 390.386 362.708C390.523 362.978 390.729 363.192 391.002 363.354C391.282 363.508 391.624 363.584 392.029 363.584C392.535 363.584 392.981 363.468 393.368 363.238C393.755 363.006 394.062 362.724 394.288 362.391C394.52 362.058 394.645 361.734 394.663 361.418L395.368 362.275C395.327 362.544 395.213 362.844 395.029 363.17C394.844 363.497 394.597 363.812 394.288 364.114C393.984 364.408 393.621 364.655 393.199 364.854C392.782 365.047 392.312 365.143 391.788 365.143C391.133 365.143 390.559 365.006 390.065 364.73C389.577 364.454 389.196 364.084 388.922 363.624C388.654 363.155 388.52 362.632 388.52 362.053C388.52 361.495 388.622 361.004 388.824 360.582C389.026 360.152 389.318 359.795 389.699 359.513C390.08 359.224 390.538 359.007 391.074 358.858C391.609 358.711 392.208 358.637 392.868 358.637H394.788ZM400.412 350.168V364.951H398.752V350.168H400.412ZM406.314 354.537L402.1 359.397L399.743 362.034L399.609 360.139L401.296 357.965L404.296 354.537H406.314ZM404.805 364.951L401.359 359.984L402.216 358.396L406.751 364.951H404.805ZM422.411 357.973V363.102C422.251 363.359 421.995 363.648 421.643 363.97C421.292 364.283 420.807 364.559 420.188 364.797C419.575 365.027 418.783 365.143 417.813 365.143C417.022 365.143 416.292 364.997 415.626 364.701C414.965 364.399 414.391 363.963 413.903 363.391C413.421 362.813 413.046 362.115 412.778 361.293C412.516 360.466 412.385 359.528 412.385 358.484V357.395C412.385 356.35 412.498 355.415 412.724 354.594C412.956 353.773 413.296 353.079 413.742 352.507C414.188 351.929 414.736 351.493 415.385 351.198C416.034 350.896 416.778 350.745 417.617 350.745C418.611 350.745 419.441 350.931 420.108 351.304C420.78 351.669 421.304 352.176 421.679 352.824C422.06 353.473 422.304 354.211 422.411 355.039H420.688C420.611 354.531 420.456 354.068 420.224 353.652C419.998 353.234 419.673 352.901 419.251 352.651C418.828 352.395 418.283 352.266 417.617 352.266C417.016 352.266 416.495 352.384 416.054 352.623C415.614 352.86 415.251 353.199 414.965 353.641C414.68 354.086 414.465 354.62 414.322 355.249C414.185 355.877 414.117 356.587 414.117 357.378V358.484C414.117 359.292 414.203 360.014 414.376 360.65C414.555 361.285 414.808 361.826 415.135 362.275C415.462 362.717 415.852 363.054 416.304 363.286C416.763 363.516 417.269 363.632 417.822 363.632C418.435 363.632 418.932 363.578 419.313 363.468C419.694 363.354 419.992 363.218 420.206 363.065C420.42 362.903 420.584 362.754 420.697 362.612V359.476H417.688V357.973H422.411ZM429.027 365.143C428.354 365.143 427.744 365.021 427.197 364.778C426.655 364.528 426.188 364.178 425.795 363.729C425.408 363.28 425.11 362.748 424.902 362.13C424.694 361.515 424.59 360.842 424.59 360.111V359.706C424.59 358.858 424.706 358.105 424.938 357.443C425.17 356.778 425.485 356.213 425.884 355.75C426.283 355.288 426.735 354.938 427.241 354.701C427.747 354.463 428.271 354.344 428.812 354.344C429.503 354.344 430.098 354.474 430.598 354.73C431.104 354.986 431.518 355.345 431.839 355.807C432.161 356.263 432.399 356.802 432.553 357.424C432.708 358.041 432.786 358.714 432.786 359.445V360.244H425.572V358.79H431.134V358.657C431.11 358.194 431.021 357.746 430.866 357.31C430.717 356.874 430.479 356.513 430.152 356.232C429.824 355.95 429.378 355.807 428.812 355.807C428.438 355.807 428.092 355.895 427.777 356.068C427.461 356.234 427.191 356.484 426.965 356.819C426.738 357.152 426.563 357.559 426.438 358.041C426.313 358.521 426.25 359.077 426.25 359.706V360.111C426.25 360.604 426.313 361.07 426.438 361.506C426.569 361.935 426.756 362.314 427 362.64C427.25 362.969 427.551 363.225 427.902 363.411C428.259 363.597 428.664 363.689 429.116 363.689C429.7 363.689 430.193 363.562 430.598 363.306C431.003 363.048 431.357 362.706 431.661 362.275L432.661 363.131C432.452 363.472 432.187 363.797 431.866 364.103C431.545 364.412 431.149 364.662 430.679 364.854C430.214 365.047 429.664 365.143 429.027 365.143ZM434.705 350.168H436.366V362.929L436.223 364.951H434.705V350.168ZM442.892 359.657V359.859C442.892 360.617 442.809 361.32 442.642 361.968C442.475 362.61 442.231 363.168 441.91 363.641C441.589 364.116 441.196 364.486 440.731 364.749C440.267 365.012 439.734 365.143 439.133 365.143C438.52 365.143 437.982 365.032 437.517 364.806C437.059 364.576 436.672 364.246 436.357 363.814C436.041 363.385 435.788 362.866 435.598 362.257C435.413 361.646 435.285 360.961 435.214 360.196V359.311C435.285 358.541 435.413 357.851 435.598 357.242C435.788 356.633 436.041 356.112 436.357 355.682C436.672 355.247 437.059 354.916 437.517 354.69C437.976 354.46 438.508 354.344 439.115 354.344C439.722 354.344 440.261 354.474 440.731 354.73C441.202 354.979 441.594 355.339 441.91 355.807C442.231 356.276 442.475 356.837 442.642 357.491C442.809 358.14 442.892 358.862 442.892 359.657ZM441.231 359.859V359.657C441.231 359.138 441.187 358.65 441.097 358.194C441.008 357.732 440.865 357.329 440.669 356.981C440.473 356.629 440.214 356.353 439.892 356.153C439.571 355.95 439.175 355.847 438.705 355.847C438.288 355.847 437.925 355.923 437.616 356.077C437.312 356.232 437.053 356.44 436.839 356.703C436.624 356.959 436.449 357.255 436.312 357.588C436.181 357.916 436.083 358.256 436.017 358.608V360.928C436.113 361.377 436.268 361.81 436.482 362.226C436.702 362.638 436.994 362.975 437.357 363.238C437.726 363.501 438.181 363.632 438.723 363.632C439.169 363.632 439.55 363.536 439.866 363.343C440.187 363.144 440.446 362.872 440.642 362.526C440.845 362.178 440.993 361.777 441.089 361.322C441.184 360.866 441.231 360.38 441.231 359.859ZM450.677 363.17V357.809C450.677 357.399 450.6 357.043 450.445 356.74C450.296 356.434 450.07 356.195 449.767 356.029C449.463 355.862 449.088 355.779 448.642 355.779C448.225 355.779 447.859 355.856 447.544 356.009C447.234 356.164 446.99 356.366 446.811 356.615C446.639 356.867 446.553 357.137 446.553 357.424H444.901C444.901 357.053 444.99 356.683 445.169 356.318C445.347 355.952 445.603 355.621 445.936 355.326C446.276 355.025 446.681 354.787 447.151 354.614C447.627 354.434 448.157 354.344 448.74 354.344C449.442 354.344 450.061 354.474 450.597 354.73C451.139 354.986 451.561 355.374 451.865 355.895C452.174 356.407 452.329 357.053 452.329 357.829V362.68C452.329 363.026 452.356 363.396 452.409 363.786C452.469 364.178 452.555 364.515 452.668 364.797V364.951H450.945C450.862 364.745 450.796 364.473 450.749 364.132C450.701 363.786 450.677 363.466 450.677 363.17ZM450.963 358.637L450.981 359.887H449.311C448.841 359.887 448.421 359.931 448.052 360.014C447.683 360.091 447.374 360.209 447.124 360.369C446.874 360.529 446.683 360.733 446.553 360.976C446.422 361.212 446.356 361.493 446.356 361.812C446.356 362.141 446.425 362.439 446.562 362.708C446.698 362.978 446.904 363.192 447.178 363.354C447.457 363.508 447.799 363.584 448.204 363.584C448.71 363.584 449.157 363.468 449.543 363.238C449.93 363.006 450.237 362.724 450.463 362.391C450.695 362.058 450.82 361.734 450.838 361.418L451.543 362.275C451.502 362.544 451.388 362.844 451.204 363.17C451.02 363.497 450.772 363.812 450.463 364.114C450.16 364.408 449.796 364.655 449.374 364.854C448.957 365.047 448.487 365.143 447.963 365.143C447.308 365.143 446.734 365.006 446.24 364.73C445.752 364.454 445.371 364.084 445.097 363.624C444.829 363.155 444.695 362.632 444.695 362.053C444.695 361.495 444.797 361.004 444.999 360.582C445.201 360.152 445.493 359.795 445.874 359.513C446.255 359.224 446.713 359.007 447.249 358.858C447.785 358.711 448.383 358.637 449.043 358.637H450.963ZM446.044 351.756C446.044 351.467 446.127 351.223 446.294 351.024C446.46 350.826 446.701 350.726 447.017 350.726C447.338 350.726 447.582 350.826 447.749 351.024C447.916 351.223 447.999 351.467 447.999 351.756C447.999 352.032 447.916 352.268 447.749 352.468C447.582 352.66 447.338 352.757 447.017 352.757C446.701 352.757 446.46 352.66 446.294 352.468C446.127 352.268 446.044 352.032 446.044 351.756ZM449.892 351.775C449.892 351.487 449.972 351.243 450.133 351.044C450.299 350.845 450.543 350.745 450.865 350.745C451.18 350.745 451.421 350.845 451.588 351.044C451.76 351.243 451.847 351.487 451.847 351.775C451.847 352.051 451.76 352.288 451.588 352.487C451.421 352.68 451.18 352.776 450.865 352.776C450.543 352.776 450.299 352.68 450.133 352.487C449.972 352.288 449.892 352.051 449.892 351.775ZM460.837 362.544V354.537H462.498V364.951H460.918L460.837 362.544ZM461.15 360.349L461.837 360.332C461.837 361.024 461.769 361.666 461.632 362.257C461.501 362.84 461.287 363.348 460.989 363.777C460.691 364.206 460.302 364.543 459.819 364.787C459.337 365.025 458.751 365.143 458.061 365.143C457.591 365.143 457.159 365.069 456.766 364.922C456.379 364.773 456.046 364.546 455.766 364.239C455.486 363.93 455.269 363.529 455.114 363.034C454.966 362.542 454.891 361.948 454.891 361.254V354.537H456.543V361.274C456.543 361.742 456.591 362.13 456.686 362.439C456.787 362.741 456.921 362.982 457.088 363.162C457.26 363.335 457.451 363.455 457.659 363.527C457.873 363.597 458.093 363.632 458.32 363.632C459.022 363.632 459.579 363.488 459.989 363.199C460.4 362.903 460.695 362.509 460.873 362.016C461.058 361.515 461.15 360.961 461.15 360.349ZM471.105 362.929V350.168H472.765V364.951H471.247L471.105 362.929ZM464.605 359.859V359.657C464.605 358.862 464.694 358.14 464.873 357.491C465.057 356.837 465.316 356.276 465.65 355.807C465.989 355.339 466.391 354.979 466.855 354.73C467.325 354.474 467.849 354.344 468.426 354.344C469.033 354.344 469.563 354.46 470.015 354.69C470.474 354.916 470.861 355.247 471.176 355.682C471.497 356.112 471.75 356.633 471.935 357.242C472.119 357.851 472.247 358.541 472.319 359.311V360.196C472.253 360.961 472.125 361.646 471.935 362.257C471.75 362.866 471.497 363.385 471.176 363.814C470.861 364.246 470.474 364.576 470.015 364.806C469.557 365.032 469.021 365.143 468.408 365.143C467.843 365.143 467.325 365.012 466.855 364.749C466.391 364.486 465.989 364.116 465.65 363.641C465.316 363.168 465.057 362.61 464.873 361.968C464.694 361.32 464.605 360.617 464.605 359.859ZM466.266 359.657V359.859C466.266 360.38 466.313 360.866 466.408 361.322C466.51 361.777 466.664 362.178 466.873 362.526C467.081 362.872 467.346 363.144 467.667 363.343C467.989 363.536 468.373 363.632 468.819 363.632C469.367 363.632 469.816 363.508 470.167 363.258C470.524 363.006 470.81 362.675 471.024 362.266C471.238 361.854 471.405 361.409 471.524 360.928V358.608C471.453 358.256 471.349 357.916 471.212 357.588C471.081 357.255 470.908 356.959 470.694 356.703C470.485 356.44 470.227 356.232 469.917 356.077C469.614 355.923 469.254 355.847 468.837 355.847C468.385 355.847 467.995 355.95 467.667 356.153C467.346 356.353 467.081 356.629 466.873 356.981C466.664 357.329 466.51 357.732 466.408 358.194C466.313 358.65 466.266 359.138 466.266 359.657ZM479.345 365.143C478.673 365.143 478.062 365.021 477.515 364.778C476.973 364.528 476.506 364.178 476.113 363.729C475.726 363.28 475.429 362.748 475.22 362.13C475.012 361.515 474.908 360.842 474.908 360.111V359.706C474.908 358.858 475.024 358.105 475.256 357.443C475.488 356.778 475.804 356.213 476.202 355.75C476.601 355.288 477.054 354.938 477.56 354.701C478.065 354.463 478.589 354.344 479.131 354.344C479.821 354.344 480.416 354.474 480.916 354.73C481.422 354.986 481.836 355.345 482.158 355.807C482.479 356.263 482.717 356.802 482.872 357.424C483.026 358.041 483.104 358.714 483.104 359.445V360.244H475.89V358.79H481.452V358.657C481.428 358.194 481.339 357.746 481.184 357.31C481.035 356.874 480.797 356.513 480.47 356.232C480.143 355.95 479.696 355.807 479.131 355.807C478.756 355.807 478.411 355.895 478.095 356.068C477.78 356.234 477.509 356.484 477.283 356.819C477.057 357.152 476.881 357.559 476.756 358.041C476.631 358.521 476.569 359.077 476.569 359.706V360.111C476.569 360.604 476.631 361.07 476.756 361.506C476.887 361.935 477.074 362.314 477.318 362.64C477.569 362.969 477.869 363.225 478.22 363.411C478.577 363.597 478.982 363.689 479.434 363.689C480.018 363.689 480.512 363.562 480.916 363.306C481.321 363.048 481.675 362.706 481.979 362.275L482.979 363.131C482.771 363.472 482.506 363.797 482.184 364.103C481.863 364.412 481.467 364.662 480.997 364.854C480.532 365.047 479.982 365.143 479.345 365.143ZM486.684 356.173V364.951H485.032V354.537H486.639L486.684 356.173ZM489.702 354.48L489.693 356.136C489.556 356.103 489.425 356.083 489.3 356.077C489.181 356.064 489.044 356.057 488.889 356.057C488.508 356.057 488.172 356.123 487.88 356.25C487.589 356.379 487.342 356.559 487.139 356.788C486.937 357.021 486.776 357.297 486.657 357.616C486.544 357.932 486.47 358.278 486.434 358.657L485.97 358.946C485.97 358.317 486.026 357.726 486.139 357.174C486.258 356.622 486.44 356.136 486.684 355.711C486.928 355.282 487.237 354.949 487.612 354.71C487.993 354.467 488.446 354.344 488.97 354.344C489.089 354.344 489.226 354.362 489.38 354.393C489.535 354.419 489.642 354.447 489.702 354.48ZM495.059 365.143C494.386 365.143 493.776 365.021 493.228 364.778C492.687 364.528 492.219 364.178 491.826 363.729C491.44 363.28 491.142 362.748 490.934 362.13C490.725 361.515 490.621 360.842 490.621 360.111V359.706C490.621 358.858 490.737 358.105 490.97 357.443C491.202 356.778 491.517 356.213 491.916 355.75C492.315 355.288 492.767 354.938 493.273 354.701C493.779 354.463 494.303 354.344 494.844 354.344C495.535 354.344 496.13 354.474 496.63 354.73C497.136 354.986 497.549 355.345 497.871 355.807C498.192 356.263 498.43 356.802 498.585 357.424C498.74 358.041 498.817 358.714 498.817 359.445V360.244H491.603V358.79H497.166V358.657C497.142 358.194 497.052 357.746 496.898 357.31C496.749 356.874 496.511 356.513 496.183 356.232C495.856 355.95 495.41 355.807 494.844 355.807C494.469 355.807 494.124 355.895 493.808 356.068C493.493 356.234 493.222 356.484 492.996 356.819C492.77 357.152 492.594 357.559 492.469 358.041C492.344 358.521 492.282 359.077 492.282 359.706V360.111C492.282 360.604 492.344 361.07 492.469 361.506C492.6 361.935 492.788 362.314 493.032 362.64C493.282 362.969 493.582 363.225 493.933 363.411C494.291 363.597 494.695 363.689 495.148 363.689C495.731 363.689 496.225 363.562 496.63 363.306C497.035 363.048 497.389 362.706 497.692 362.275L498.692 363.131C498.484 363.472 498.219 363.797 497.898 364.103C497.576 364.412 497.18 364.662 496.71 364.854C496.246 365.047 495.695 365.143 495.059 365.143ZM502.54 354.537V364.951H500.88V354.537H502.54ZM500.755 351.775C500.755 351.487 500.835 351.243 500.996 351.044C501.162 350.845 501.406 350.745 501.728 350.745C502.043 350.745 502.284 350.845 502.451 351.044C502.624 351.243 502.71 351.487 502.71 351.775C502.71 352.051 502.624 352.288 502.451 352.487C502.284 352.68 502.043 352.776 501.728 352.776C501.406 352.776 501.162 352.68 500.996 352.487C500.835 352.288 500.755 352.051 500.755 351.775ZM506.843 356.76V364.951H505.192V354.537H506.754L506.843 356.76ZM506.451 359.349L505.763 359.32C505.769 358.608 505.867 357.951 506.058 357.347C506.248 356.738 506.516 356.208 506.861 355.759C507.206 355.31 507.617 354.964 508.093 354.721C508.576 354.469 509.108 354.344 509.691 354.344C510.168 354.344 510.596 354.414 510.977 354.557C511.358 354.69 511.682 354.909 511.95 355.212C512.224 355.512 512.432 355.904 512.575 356.386C512.718 356.861 512.79 357.441 512.79 358.127V364.951H511.129V358.107C511.129 357.562 511.055 357.126 510.906 356.799C510.757 356.464 510.54 356.226 510.254 356.077C509.968 355.923 509.617 355.847 509.2 355.847C508.79 355.847 508.415 355.939 508.076 356.125C507.742 356.311 507.453 356.567 507.209 356.896C506.971 357.222 506.784 357.599 506.647 358.021C506.516 358.438 506.451 358.882 506.451 359.349ZM517.093 354.537V364.951H515.432V354.537H517.093ZM515.307 351.775C515.307 351.487 515.388 351.243 515.548 351.044C515.715 350.845 515.959 350.745 516.28 350.745C516.596 350.745 516.837 350.845 517.003 351.044C517.176 351.243 517.262 351.487 517.262 351.775C517.262 352.051 517.176 352.288 517.003 352.487C516.837 352.68 516.596 352.776 516.28 352.776C515.959 352.776 515.715 352.68 515.548 352.487C515.388 352.288 515.307 352.051 515.307 351.775ZM526.003 354.537H527.503V364.73C527.503 365.647 527.33 366.429 526.985 367.077C526.64 367.726 526.158 368.216 525.539 368.551C524.926 368.891 524.217 369.059 523.414 369.059C523.08 369.059 522.688 369.002 522.235 368.886C521.789 368.779 521.349 368.588 520.914 368.319C520.485 368.056 520.125 367.699 519.834 367.25L520.7 366.193C521.105 366.718 521.527 367.084 521.968 367.29C522.414 367.496 522.854 367.596 523.289 367.596C523.813 367.596 524.265 367.491 524.646 367.279C525.027 367.069 525.321 366.753 525.53 366.337C525.744 365.925 525.851 365.419 525.851 364.815V356.828L526.003 354.537ZM519.352 359.859V359.657C519.352 358.862 519.438 358.14 519.61 357.491C519.789 356.837 520.042 356.276 520.369 355.807C520.703 355.339 521.105 354.979 521.575 354.73C522.045 354.474 522.575 354.344 523.164 354.344C523.771 354.344 524.301 354.46 524.753 354.69C525.211 354.916 525.598 355.247 525.914 355.682C526.235 356.112 526.488 356.633 526.673 357.242C526.857 357.851 526.985 358.541 527.056 359.311V360.196C526.991 360.961 526.863 361.646 526.673 362.257C526.488 362.866 526.235 363.385 525.914 363.814C525.598 364.246 525.211 364.576 524.753 364.806C524.295 365.032 523.759 365.143 523.146 365.143C522.569 365.143 522.045 365.012 521.575 364.749C521.11 364.486 520.712 364.116 520.378 363.641C520.045 363.168 519.789 362.61 519.61 361.968C519.438 361.32 519.352 360.617 519.352 359.859ZM521.003 359.657V359.859C521.003 360.38 521.051 360.866 521.146 361.322C521.247 361.777 521.399 362.178 521.601 362.526C521.81 362.872 522.075 363.144 522.396 363.343C522.717 363.536 523.101 363.632 523.548 363.632C524.095 363.632 524.548 363.508 524.905 363.258C525.262 363.006 525.545 362.675 525.753 362.266C525.967 361.854 526.134 361.409 526.253 360.928V358.608C526.187 358.256 526.086 357.916 525.949 357.588C525.818 357.255 525.646 356.959 525.431 356.703C525.223 356.44 524.964 356.232 524.655 356.077C524.345 355.923 523.982 355.847 523.566 355.847C523.113 355.847 522.723 355.95 522.396 356.153C522.075 356.353 521.81 356.629 521.601 356.981C521.399 357.329 521.247 357.732 521.146 358.194C521.051 358.65 521.003 359.138 521.003 359.657ZM535.921 362.544V354.537H537.583V364.951H536.003L535.921 362.544ZM536.234 360.349L536.923 360.332C536.923 361.024 536.854 361.666 536.716 362.257C536.586 362.84 536.372 363.348 536.074 363.777C535.777 364.206 535.387 364.543 534.903 364.787C534.422 365.025 533.836 365.143 533.145 365.143C532.675 365.143 532.244 365.069 531.851 364.922C531.464 364.773 531.131 364.546 530.851 364.239C530.571 363.93 530.354 363.529 530.199 363.034C530.05 362.542 529.976 361.948 529.976 361.254V354.537H531.628V361.274C531.628 361.742 531.675 362.13 531.771 362.439C531.872 362.741 532.006 362.982 532.172 363.162C532.345 363.335 532.535 363.455 532.744 363.527C532.958 363.597 533.178 363.632 533.404 363.632C534.107 363.632 534.664 363.488 535.074 363.199C535.485 362.903 535.779 362.509 535.958 362.016C536.143 361.515 536.234 360.961 536.234 360.349ZM541.752 356.76V364.951H540.1V354.537H541.663L541.752 356.76ZM541.36 359.349L540.671 359.32C540.677 358.608 540.775 357.951 540.966 357.347C541.157 356.738 541.425 356.208 541.77 355.759C542.116 355.31 542.526 354.964 543.002 354.721C543.483 354.469 544.017 354.344 544.6 354.344C545.076 354.344 545.504 354.414 545.886 354.557C546.266 354.69 546.591 354.909 546.86 355.212C547.132 355.512 547.341 355.904 547.483 356.386C547.628 356.861 547.699 357.441 547.699 358.127V364.951H546.037V358.107C546.037 357.562 545.964 357.126 545.813 356.799C545.665 356.464 545.448 356.226 545.163 356.077C544.877 355.923 544.525 355.847 544.109 355.847C543.698 355.847 543.323 355.939 542.983 356.125C542.65 356.311 542.362 356.567 542.118 356.896C541.88 357.222 541.693 357.599 541.555 358.021C541.425 358.438 541.36 358.882 541.36 359.349ZM556.465 354.537H557.964V364.73C557.964 365.647 557.792 366.429 557.448 367.077C557.103 367.726 556.619 368.216 556.002 368.551C555.388 368.891 554.679 369.059 553.877 369.059C553.544 369.059 553.149 369.002 552.698 368.886C552.251 368.779 551.811 368.588 551.376 368.319C550.947 368.056 550.588 367.699 550.297 367.25L551.163 366.193C551.567 366.718 551.989 367.084 552.43 367.29C552.877 367.496 553.316 367.596 553.751 367.596C554.275 367.596 554.728 367.491 555.108 367.279C555.49 367.069 555.784 366.753 555.992 366.337C556.207 365.925 556.313 365.419 556.313 364.815V356.828L556.465 354.537ZM549.814 359.859V359.657C549.814 358.862 549.901 358.14 550.074 357.491C550.252 356.837 550.504 356.276 550.831 355.807C551.165 355.339 551.567 354.979 552.036 354.73C552.507 354.474 553.038 354.344 553.627 354.344C554.234 354.344 554.763 354.46 555.216 354.69C555.673 354.916 556.061 355.247 556.376 355.682C556.697 356.112 556.951 356.633 557.136 357.242C557.32 357.851 557.448 358.541 557.519 359.311V360.196C557.452 360.961 557.324 361.646 557.136 362.257C556.951 362.866 556.697 363.385 556.376 363.814C556.061 364.246 555.673 364.576 555.216 364.806C554.756 365.032 554.222 365.143 553.609 365.143C553.032 365.143 552.507 365.012 552.036 364.749C551.573 364.486 551.175 364.116 550.842 363.641C550.508 363.168 550.252 362.61 550.074 361.968C549.901 361.32 549.814 360.617 549.814 359.859ZM551.465 359.657V359.859C551.465 360.38 551.514 360.866 551.61 361.322C551.709 361.777 551.861 362.178 552.065 362.526C552.272 362.872 552.538 363.144 552.859 363.343C553.18 363.536 553.564 363.632 554.011 363.632C554.557 363.632 555.01 363.508 555.368 363.258C555.724 363.006 556.008 362.675 556.215 362.266C556.431 361.854 556.597 361.409 556.715 360.928V358.608C556.65 358.256 556.548 357.916 556.412 357.588C556.28 357.255 556.107 356.959 555.894 356.703C555.685 356.44 555.427 356.232 555.118 356.077C554.807 355.923 554.446 355.847 554.027 355.847C553.576 355.847 553.186 355.95 552.859 356.153C552.538 356.353 552.272 356.629 552.065 356.981C551.861 357.329 551.709 357.732 551.61 358.194C551.514 358.65 551.465 359.138 551.465 359.657Z" fill="#2A98D2"/>
<defs>
<filter id="filter0_i_1246_723" x="83.1895" y="212.402" width="19.1191" height="12.3164" filterUnits="userSpaceOnUse" color-interpolation-filters="sRGB">
<feFlood flood-opacity="0" result="BackgroundImageFix"/>
<feBlend mode="normal" in="SourceGraphic" in2="BackgroundImageFix" result="shape"/>
<feColorMatrix in="SourceAlpha" type="matrix" values="0 0 0 0 0 0 0 0 0 0 0 0 0 0 0 0 0 0 127 0" result="hardAlpha"/>
<feOffset dy="4"/>
<feGaussianBlur stdDeviation="2"/>
<feComposite in2="hardAlpha" operator="arithmetic" k2="-1" k3="1"/>
<feColorMatrix type="matrix" values="0 0 0 0 0 0 0 0 0 0 0 0 0 0 0 0 0 0 0.25 0"/>
<feBlend mode="normal" in2="shape" result="effect1_innerShadow_1246_723"/>
</filter>
</defs>
</svg>
