<svg width="12070" height="12070" viewBox="0 0 12070 12070" fill="none" xmlns="http://www.w3.org/2000/svg">
<path d="M6886.46 234.794C6579.98 106.236 6282.6 85.9005 6202.99 338.782C6115.48 616.733 6569.66 816.189 6886.46 664.927C7203.27 513.662 7167.89 352.841 6886.46 234.794Z" fill="#FF1999" stroke="#FF1999" stroke-width="80"/>
<path d="M7283.46 1260.8C6976.98 1132.23 6679.6 1111.9 6599.99 1364.78C6512.48 1642.73 6966.66 1842.19 7283.46 1690.93C7600.27 1539.66 7564.89 1378.84 7283.46 1260.8Z" fill="#FF1999" stroke="#FF1999" stroke-width="80"/>
<path d="M9338.63 6683C8228.41 4643 4389.83 3534.94 2681.1 4490.35C972.359 5445.77 838.83 7248.05 2681.1 8833.15C4523.35 10418.2 8847.99 9422.34 9338.63 9158.98C9829.31 8895.61 10448.9 8722.96 9338.63 6683Z" fill="#FF1999" stroke="#FF1999" stroke-width="80"/>
<path d="M2653.03 4492C2491.6 1259.32 3393.4 505.095 6192 429" stroke="#FF1999" stroke-width="80" stroke-linecap="round"/>
<path d="M3276 4233C3990.03 2158.73 4729.18 1573.71 6589 1455" stroke="#FF1999" stroke-width="80" stroke-linecap="round"/>
<path d="M5053.08 4348.47C4244.91 4196.4 3496.62 4645.01 3248 5412.69C2925.64 6408.08 4004.98 7615.84 5053.08 7419.9C5966.6 7249.12 6542.81 6280.56 6262.91 5412.69C6071.75 4819.85 5676.98 4465.88 5053.08 4348.47Z" fill="white" stroke="#1E263F" stroke-width="80"/>
<path d="M5309.82 5283.24C4895.27 5615.22 4831.71 5587.71 4592.86 5080C2996.02 5885.56 3537.12 7253.54 4592.86 7347.25C4932.75 7377.38 5017.19 7398.66 5309.82 7251.37C6098.92 6854.24 6191.91 6106.93 5309.82 5283.24Z" fill="#1E263F" stroke="#1E263F" stroke-width="80"/>
<g filter="url(#filter0_i_1145_257)">
<path d="M5205.23 7835.18C5140.65 8834.4 5748 9210.88 7475.84 9628.38L6787.24 9710.23C5448.49 9441.72 5112.56 9003.06 5205.23 7835.18C5207.97 7792.94 5211.89 7749.59 5216.98 7705.05C5212.54 7749.4 5208.58 7792.78 5205.23 7835.18Z" fill="#1E263F"/>
</g>
<path d="M8721 11928V11640H8941V11928H8721Z" fill="#FF1999"/>
<path d="M2767 10860H3021L2583 11908H2359L2183 11458L2011 11908H1785L1349 10860H1601L1913 11652L2035 11310L1853 10862H2075L2183 11182L2293 10862H2515L2333 11310L2457 11652L2767 10860ZM3595.58 11928C3511.58 11928 3435.58 11914 3367.58 11886C3299.58 11856.7 3241.58 11817.3 3193.58 11768C3145.58 11717.3 3108.24 11660 3081.58 11596C3056.24 11530.7 3043.58 11462 3043.58 11390C3043.58 11290 3065.58 11198.7 3109.58 11116C3154.91 11033.3 3218.91 10967.3 3301.58 10918C3385.58 10867.3 3484.24 10842 3597.58 10842C3712.24 10842 3810.24 10867.3 3891.58 10918C3972.91 10967.3 4034.91 11033.3 4077.58 11116C4121.58 11197.3 4143.58 11285.3 4143.58 11380C4143.58 11396 4142.91 11412.7 4141.58 11430C4140.24 11446 4138.91 11459.3 4137.58 11470H3327.58C3332.91 11523.3 3348.24 11570 3373.58 11610C3400.24 11650 3433.58 11680.7 3473.58 11702C3514.91 11722 3558.91 11732 3605.58 11732C3658.91 11732 3708.91 11719.3 3755.58 11694C3803.58 11667.3 3836.24 11632.7 3853.58 11590L4083.58 11654C4058.24 11707.3 4021.58 11754.7 3973.58 11796C3926.91 11837.3 3871.58 11870 3807.58 11894C3743.58 11916.7 3672.91 11928 3595.58 11928ZM3321.58 11300H3869.58C3864.24 11246.7 3848.91 11200.7 3823.58 11162C3799.58 11122 3767.58 11091.3 3727.58 11070C3687.58 11047.3 3642.91 11036 3593.58 11036C3545.58 11036 3501.58 11047.3 3461.58 11070C3422.91 11091.3 3390.91 11122 3365.58 11162C3341.58 11200.7 3326.91 11246.7 3321.58 11300ZM4902.84 11928C4822.84 11928 4751.51 11910 4688.84 11874C4626.18 11838 4576.84 11788.7 4540.84 11726V11908H4306.84V10448H4574.84V11044C4612.18 10981.3 4660.84 10932 4720.84 10896C4782.18 10860 4853.51 10842 4934.84 10842C5002.84 10842 5064.84 10856.7 5120.84 10886C5176.84 10914 5224.84 10953.3 5264.84 11004C5306.18 11054.7 5337.51 11112.7 5358.84 11178C5381.51 11243.3 5392.84 11313.3 5392.84 11388C5392.84 11462.7 5380.18 11532.7 5354.84 11598C5330.84 11663.3 5296.84 11721.3 5252.84 11772C5208.84 11821.3 5156.84 11860 5096.84 11888C5038.18 11914.7 4973.51 11928 4902.84 11928ZM4828.84 11700C4871.51 11700 4910.18 11692 4944.84 11676C4980.84 11658.7 5011.51 11636 5036.84 11608C5063.51 11580 5083.51 11547.3 5096.84 11510C5111.51 11471.3 5118.84 11431.3 5118.84 11390C5118.84 11332.7 5106.84 11280 5082.84 11232C5060.18 11182.7 5028.18 11143.3 4986.84 11114C4946.84 11084.7 4899.51 11070 4844.84 11070C4806.18 11070 4768.84 11079.3 4732.84 11098C4698.18 11115.3 4666.84 11139.3 4638.84 11170C4612.18 11200.7 4590.84 11235.3 4574.84 11274V11524C4582.84 11550.7 4595.51 11574.7 4612.84 11596C4631.51 11617.3 4652.84 11636 4676.84 11652C4700.84 11666.7 4725.51 11678.7 4750.84 11688C4777.51 11696 4803.51 11700 4828.84 11700ZM5502.42 11598C5502.42 11530 5521.09 11470.7 5558.42 11420C5597.09 11368 5650.42 11328 5718.42 11300C5786.42 11272 5864.42 11258 5952.42 11258C5996.42 11258 6041.09 11261.3 6086.42 11268C6131.76 11274.7 6171.09 11285.3 6204.42 11300V11244C6204.42 11177.3 6184.42 11126 6144.42 11090C6105.76 11054 6047.76 11036 5970.42 11036C5913.09 11036 5858.42 11046 5806.42 11066C5754.42 11086 5699.76 11115.3 5642.42 11154L5556.42 10978C5625.76 10932.7 5696.42 10898.7 5768.42 10876C5841.76 10853.3 5918.42 10842 5998.42 10842C6147.76 10842 6263.76 10879.3 6346.42 10954C6430.42 11028.7 6472.42 11135.3 6472.42 11274V11608C6472.42 11636 6477.09 11656 6486.42 11668C6497.09 11680 6513.76 11687.3 6536.42 11690V11908C6512.42 11912 6490.42 11915.3 6470.42 11918C6451.76 11920.7 6435.76 11922 6422.42 11922C6369.09 11922 6328.42 11910 6300.42 11886C6273.76 11862 6257.09 11832.7 6250.42 11798L6244.42 11744C6199.09 11802.7 6142.42 11848 6074.42 11880C6006.42 11912 5937.09 11928 5866.42 11928C5797.09 11928 5734.42 11914 5678.42 11886C5623.76 11856.7 5580.42 11817.3 5548.42 11768C5517.76 11717.3 5502.42 11660.7 5502.42 11598ZM6154.42 11652C6169.09 11636 6181.09 11620 6190.42 11604C6199.76 11588 6204.42 11573.3 6204.42 11560V11454C6172.42 11440.7 6137.76 11430.7 6100.42 11424C6063.09 11416 6027.76 11412 5994.42 11412C5925.09 11412 5867.76 11427.3 5822.42 11458C5778.42 11487.3 5756.42 11526.7 5756.42 11576C5756.42 11602.7 5763.76 11628 5778.42 11652C5793.09 11676 5814.42 11695.3 5842.42 11710C5870.42 11724.7 5903.76 11732 5942.42 11732C5982.42 11732 6021.76 11724.7 6060.42 11710C6099.09 11694 6130.42 11674.7 6154.42 11652ZM7696.86 11908H7428.86V11320C7428.86 11236 7414.19 11174.7 7384.86 11136C7355.53 11097.3 7314.86 11078 7262.86 11078C7226.86 11078 7190.19 11087.3 7152.86 11106C7116.86 11124.7 7084.19 11150.7 7054.86 11184C7025.53 11216 7004.19 11253.3 6990.86 11296V11908H6722.86V10860H6964.86V11054C6991.53 11008.7 7025.53 10970.7 7066.86 10940C7108.19 10908 7155.53 10884 7208.86 10868C7263.53 10850.7 7320.86 10842 7380.86 10842C7446.19 10842 7499.53 10854 7540.86 10878C7583.53 10900.7 7615.53 10932 7636.86 10972C7659.53 11010.7 7674.86 11054.7 7682.86 11104C7692.19 11153.3 7696.86 11203.3 7696.86 11254V11908ZM8552.03 11854C8529.36 11863.3 8502.03 11874 8470.03 11886C8438.03 11898 8403.36 11907.3 8366.03 11914C8330.03 11922 8293.36 11926 8256.03 11926C8206.7 11926 8161.36 11917.3 8120.03 11900C8078.7 11882.7 8045.36 11855.3 8020.03 11818C7996.03 11779.3 7984.03 11729.3 7984.03 11668V11066H7846.03V10860H7984.03V10520H8252.03V10860H8472.03V11066H8252.03V11578C8253.36 11614 8263.36 11640 8282.03 11656C8300.7 11672 8324.03 11680 8352.03 11680C8380.03 11680 8407.36 11675.3 8434.03 11666C8460.7 11656.7 8482.03 11648.7 8498.03 11642L8552.03 11854ZM9764.83 11092C9683.49 11092 9610.83 11108 9546.83 11140C9482.83 11170.7 9436.83 11215.3 9408.83 11274V11908H9140.83V10860H9386.83V11084C9424.16 11012 9471.49 10955.3 9528.83 10914C9586.16 10872.7 9646.83 10850 9710.83 10846C9725.49 10846 9736.83 10846 9744.83 10846C9752.83 10846 9759.49 10846.7 9764.83 10848V11092ZM10300.3 11928C10210.9 11928 10125.6 11913.3 10044.3 11884C9962.93 11854.7 9892.93 11811.3 9834.27 11754L9930.27 11580C9992.93 11630.7 10054.3 11668 10114.3 11692C10175.6 11716 10234.3 11728 10290.3 11728C10342.3 11728 10383.6 11718.7 10414.3 11700C10446.3 11681.3 10462.3 11653.3 10462.3 11616C10462.3 11590.7 10453.6 11571.3 10436.3 11558C10418.9 11543.3 10393.6 11530.7 10360.3 11520C10328.3 11509.3 10288.9 11497.3 10242.3 11484C10164.9 11458.7 10100.3 11434 10048.3 11410C9996.27 11386 9956.93 11356 9930.27 11320C9904.93 11282.7 9892.27 11235.3 9892.27 11178C9892.27 11108.7 9909.6 11049.3 9944.27 11000C9980.27 10949.3 10029.6 10910 10092.3 10882C10156.3 10854 10230.9 10840 10316.3 10840C10390.9 10840 10461.6 10852 10528.3 10876C10594.9 10898.7 10655.6 10936 10710.3 10988L10602.3 11158C10548.9 11116.7 10498.3 11086.7 10450.3 11068C10402.3 11048 10353.6 11038 10304.3 11038C10276.3 11038 10249.6 11041.3 10224.3 11048C10200.3 11054.7 10180.3 11066 10164.3 11082C10149.6 11096.7 10142.3 11118 10142.3 11146C10142.3 11171.3 10148.9 11191.3 10162.3 11206C10176.9 11219.3 10198.3 11231.3 10226.3 11242C10255.6 11252.7 10290.9 11264.7 10332.3 11278C10416.3 11302 10486.9 11326.7 10544.3 11352C10602.9 11377.3 10646.9 11408.7 10676.3 11446C10705.6 11482 10720.3 11532 10720.3 11596C10720.3 11700 10682.3 11781.3 10606.3 11840C10530.3 11898.7 10428.3 11928 10300.3 11928Z" fill="white"/>
<defs>
<filter id="filter0_i_1145_257" x="5190.86" y="7705.05" width="2284.98" height="2009.18" filterUnits="userSpaceOnUse" color-interpolation-filters="sRGB">
<feFlood flood-opacity="0" result="BackgroundImageFix"/>
<feBlend mode="normal" in="SourceGraphic" in2="BackgroundImageFix" result="shape"/>
<feColorMatrix in="SourceAlpha" type="matrix" values="0 0 0 0 0 0 0 0 0 0 0 0 0 0 0 0 0 0 127 0" result="hardAlpha"/>
<feOffset dy="4"/>
<feGaussianBlur stdDeviation="2"/>
<feComposite in2="hardAlpha" operator="arithmetic" k2="-1" k3="1"/>
<feColorMatrix type="matrix" values="0 0 0 0 0 0 0 0 0 0 0 0 0 0 0 0 0 0 0.25 0"/>
<feBlend mode="normal" in2="shape" result="effect1_innerShadow_1145_257"/>
</filter>
</defs>
</svg>
