<svg width="960" height="513" viewBox="0 0 960 513" fill="none" xmlns="http://www.w3.org/2000/svg">
<rect width="960" height="513" fill="white"/>
<path d="M275.5 0.5H435L0.5 299.5V189.5L275.5 0.5Z" fill="#0F1932" stroke="#0F1932"/>
<path d="M266.765 104.357L263.285 99.3008L265.772 97.5892L269.252 102.645L266.765 104.357Z" fill="#FF1999"/>
<path d="M129.625 158.341L132.449 156.397L141.508 189.774L139.022 191.485L125.231 181.285L129.876 197.78L127.389 199.492L99.4487 179.111L102.23 177.196L126.252 194.952L121.954 180.044L110.611 171.504L113.182 169.735L121.964 176.539L118.787 165.877L121.316 164.136L125.284 177.752L137.674 187.091L129.625 158.341ZM163.86 175.151C162.286 176.234 160.577 176.878 158.731 177.084C156.861 177.256 154.997 177.044 153.138 176.448C151.254 175.818 149.452 174.854 147.73 173.555C146.036 172.237 144.527 170.615 143.201 168.689C141.473 166.178 140.351 163.555 139.834 160.818C139.345 158.063 139.503 155.496 140.309 153.117C141.091 150.703 142.536 148.771 144.643 147.321C146.806 145.832 149.127 145.172 151.604 145.342C154.11 145.493 156.548 146.299 158.919 147.758C161.267 149.184 163.293 151.135 164.997 153.611C165.187 153.886 165.376 154.162 165.566 154.437C165.731 154.678 165.847 154.876 165.914 155.033L147.117 167.971C148.583 169.8 150.202 171.22 151.974 172.231C153.751 173.187 155.537 173.707 157.332 173.789C159.132 173.817 160.735 173.348 162.14 172.381C163.573 171.395 164.614 170.019 165.262 168.255C165.939 166.471 166.034 164.683 165.545 162.89L168.6 162.004C169.026 163.586 169.131 165.212 168.914 166.882C168.697 168.552 168.157 170.114 167.295 171.57C166.438 172.971 165.293 174.164 163.86 175.151ZM145.292 165.501L161.519 154.333C160.057 152.45 158.438 151.03 156.661 150.073C154.913 149.097 153.15 148.612 151.374 148.618C149.602 148.57 148 149.04 146.567 150.026C145.134 151.012 144.123 152.341 143.535 154.013C142.923 155.651 142.759 157.488 143.041 159.523C143.329 161.505 144.079 163.497 145.292 165.501ZM189.86 157.255C188.146 158.435 186.192 158.994 183.997 158.934C181.778 158.839 179.693 158.246 177.742 157.156L181.329 162.367L178.758 164.136L152.837 126.475L155.703 124.502L166.994 140.908C166.723 138.409 166.897 136.135 167.516 134.086C168.112 132.004 169.323 130.334 171.149 129.077C172.695 128.013 174.343 127.462 176.096 127.421C177.877 127.361 179.664 127.702 181.458 128.444C183.229 129.151 184.919 130.193 186.529 131.569C188.115 132.91 189.511 134.458 190.719 136.212C192.021 138.104 192.973 140.059 193.575 142.077C194.206 144.076 194.493 146.058 194.437 148.023C194.358 149.953 193.946 151.731 193.203 153.358C192.463 154.931 191.349 156.23 189.86 157.255ZM187.055 154.624C188.235 153.812 189.13 152.765 189.739 151.484C190.348 150.203 190.663 148.796 190.683 147.261C190.703 145.726 190.472 144.187 189.99 142.644C189.484 141.066 188.757 139.59 187.81 138.214C186.508 136.322 184.952 134.783 183.141 133.596C181.335 132.356 179.499 131.643 177.632 131.457C175.77 131.219 174.052 131.641 172.479 132.724C171.355 133.497 170.514 134.532 169.957 135.828C169.428 137.105 169.139 138.52 169.091 140.074C169.047 141.574 169.2 143.09 169.551 144.623L175.303 152.981C176.055 153.832 176.953 154.506 177.999 155.003C179.021 155.465 180.085 155.747 181.19 155.848C182.322 155.93 183.401 155.872 184.424 155.674C185.448 155.477 186.325 155.127 187.055 154.624ZM197.673 139.713C196.513 138.028 195.913 136.312 195.871 134.567C195.805 132.787 196.236 131.097 197.163 129.496C198.094 127.841 199.473 126.385 201.3 125.128C202.367 124.393 203.548 123.732 204.842 123.146C206.136 122.559 207.375 122.163 208.558 121.957L206.996 119.687C205.434 117.417 203.643 115.988 201.624 115.401C199.605 114.814 197.626 115.188 195.687 116.522C194.507 117.334 193.53 118.412 192.757 119.755C191.988 121.045 191.341 122.631 190.815 124.513L188.015 122.791C188.619 120.601 189.408 118.74 190.383 117.208C191.333 115.641 192.525 114.364 193.958 113.378C196.656 111.522 199.442 110.998 202.317 111.806C205.192 112.615 207.779 114.688 210.075 118.024L218.632 130.457C218.964 130.939 219.297 131.242 219.631 131.367C219.942 131.457 220.291 131.394 220.68 131.177L222.598 133.962C222.312 134.21 222.069 134.428 221.868 134.617C221.667 134.806 221.498 134.922 221.362 134.965C220.636 135.414 219.913 135.506 219.193 135.242C218.472 134.977 217.897 134.562 217.466 133.997L216.075 132.066C216.157 134.29 215.706 136.374 214.725 138.317C213.72 140.225 212.402 141.74 210.773 142.862C209.368 143.829 207.841 144.348 206.192 144.418C204.547 144.435 202.975 144.047 201.477 143.253C199.983 142.406 198.715 141.226 197.673 139.713ZM213.803 131.653C213.78 130.958 213.7 130.329 213.561 129.766C213.421 129.203 213.234 128.75 212.997 128.406L210.298 124.485C209.035 124.695 207.801 125.038 206.596 125.513C205.418 125.968 204.31 126.554 203.27 127.269C201.219 128.681 199.905 130.321 199.327 132.188C198.749 134.056 199.052 135.849 200.235 137.569C200.922 138.567 201.784 139.367 202.821 139.971C203.834 140.541 204.949 140.838 206.166 140.862C207.36 140.852 208.505 140.469 209.601 139.715C210.977 138.767 212.031 137.561 212.761 136.095C213.519 134.61 213.867 133.129 213.803 131.653ZM246.196 117.721L243.33 119.693L232.997 104.68C230.819 101.516 228.854 99.4725 227.102 98.5497C225.324 97.5937 223.621 97.6762 221.992 98.7972C220.868 99.5712 219.994 100.679 219.373 102.12C218.727 103.528 218.384 105.107 218.347 106.856C218.313 108.552 218.622 110.265 219.276 111.996L230.603 128.453L227.736 130.426L209.236 103.547L211.849 101.749L216.039 107.837C215.729 106.124 215.721 104.457 216.014 102.836C216.282 101.181 216.831 99.6628 217.661 98.2807C218.491 96.8986 219.551 95.7634 220.844 94.8737C222.052 94.042 223.268 93.6108 224.489 93.5815C225.711 93.5511 226.93 93.8783 228.146 94.562C229.338 95.2111 230.543 96.181 231.763 97.4706C232.957 98.7267 234.158 100.231 235.366 101.986L246.196 117.721ZM261.751 105.114C261.597 105.372 261.375 105.803 261.087 106.407C260.799 107.011 260.389 107.648 259.857 108.318C259.325 108.988 258.665 109.595 257.878 110.136C257.063 110.697 256.161 111.04 255.169 111.164C254.206 111.27 253.254 111.088 252.312 110.622C251.347 110.12 250.473 109.303 249.692 108.168L236.447 88.9242L233.412 91.0135L231.494 88.2276L234.53 86.1384L228.28 77.0583L231.146 75.0858L237.396 84.1659L242.453 80.6849L244.371 83.4707L239.313 86.9517L251.883 105.215C252.601 106.14 253.379 106.669 254.217 106.802C255.082 106.916 255.852 106.741 256.526 106.277C257.313 105.735 257.923 105.087 258.356 104.333C258.766 103.544 258.994 103.033 259.039 102.799L261.751 105.114ZM268.793 67.1176C266.93 68.5017 265.693 70.3155 265.085 72.559C264.504 74.7841 264.664 77.1829 265.565 79.7557L277.07 96.4711L274.204 98.4436L255.704 71.5649L258.402 69.7081L262.84 76.1568C262.296 73.7435 262.24 71.5263 262.673 69.5056C263.132 67.4662 264.017 65.8936 265.326 64.7899C265.585 64.5613 265.811 64.3804 266.008 64.2451C266.233 64.0901 266.427 63.9817 266.592 63.9189L268.793 67.1176ZM296.542 83.8294C294.743 85.0673 292.823 85.8565 290.781 86.1974C288.738 86.5394 286.647 86.357 284.504 85.6518L283.98 82.3634C286.187 82.9221 288.133 83.1036 289.82 82.9057C291.51 82.6548 293.058 82.0453 294.462 81.0793C296.176 79.8993 297.283 78.5291 297.782 76.9691C298.258 75.3747 297.952 73.7857 296.863 72.2037C296.129 71.1375 295.307 70.5126 294.393 70.3302C293.485 70.0937 292.422 70.1413 291.202 70.4742C289.985 70.754 288.561 71.1509 286.929 71.666C285.056 72.1948 283.411 72.5415 281.992 72.7072C280.579 72.8179 279.308 72.6283 278.183 72.1351C277.062 71.5891 276.015 70.6116 275.045 69.2016C273.837 67.4474 273.195 65.7605 273.117 64.142C273.041 62.4705 273.421 60.9167 274.256 59.4804C275.094 57.9915 276.286 56.7148 277.83 55.6516C279.518 54.4902 281.23 53.793 282.973 53.5569C284.715 53.3207 286.397 53.5062 288.017 54.1146L288.259 57.445C286.714 56.8871 285.217 56.7261 283.766 56.9643C282.32 57.1488 280.936 57.6955 279.615 58.6048C278.716 59.2237 277.966 59.9679 277.364 60.8386C276.738 61.6747 276.395 62.6201 276.336 63.6749C276.28 64.6766 276.653 65.7626 277.458 66.9321C278.121 67.8949 278.839 68.5164 279.611 68.796C280.359 69.0411 281.257 69.0821 282.304 68.9191C283.327 68.7215 284.558 68.4319 285.994 68.0521C288.03 67.4618 289.868 67.0327 291.506 66.767C293.122 66.4659 294.574 66.5311 295.863 66.9614C297.154 67.3906 298.355 68.4147 299.467 70.0312C301.195 72.5419 301.772 75.0339 301.198 77.5073C300.622 79.9817 299.071 82.0884 296.542 83.8294Z" fill="white"/>
<path d="M59.5491 160.512C57.609 161.079 56.0179 162.052 56.3129 163.36C56.6371 164.798 59.537 163.994 60.7495 162.256C61.9621 160.517 61.3307 159.991 59.5491 160.512Z" fill="#FF1999" stroke="#FF1999" stroke-width="2"/>
<path d="M65.5907 165.223C63.4712 165.53 61.8518 166.462 62.4996 168.283C63.2116 170.284 66.3899 169.884 67.3913 167.839C68.3928 165.794 67.537 164.942 65.5907 165.223Z" fill="#FF1999" stroke="#FF1999" stroke-width="2"/>
<path d="M98.1778 192.172C84.2716 183.487 61.0395 189.56 56.7525 201.061C52.4655 212.562 59.3513 223.952 74.9034 227.433C90.4557 230.914 107.25 210.443 108.526 207.207C109.803 203.971 112.084 200.857 98.1778 192.172Z" fill="#FF1999" stroke="#FF1999" stroke-width="2"/>
<path d="M56.3749 199.932C42.1946 180.988 43.3946 173.465 56.5096 163.763" stroke="#FF1999" stroke-width="2" stroke-linecap="round"/>
<path d="M58.3303 196.871C53.4177 182.293 54.649 176.381 63.2195 169.455" stroke="#FF1999" stroke-width="2" stroke-linecap="round"/>
<path d="M68.2456 192.027C63.7198 193.802 61.9531 198.968 63.9098 204.38C66.4469 211.398 76.6222 215.028 80.8749 210.376C84.5814 206.321 83.3797 198.621 78.4602 194.366C75.0999 191.459 71.7394 190.655 68.2456 192.027Z" fill="white" stroke="#1E263F" stroke-width="2"/>
<path d="M72.4183 197.436C71.6899 200.678 71.2759 200.736 68.1612 198.688C63.531 208.526 71.4269 214.385 76.903 211.389C78.6657 210.425 79.1569 210.263 80.0067 208.462C82.2984 203.606 79.8676 199.109 72.4183 197.436Z" fill="#1E263F" stroke="#1E263F" stroke-width="2"/>
<g filter="url(#filter0_i_1247_769)">
<path d="M90.4688 219.706C89.6973 219.395 88.9631 218.937 88.2405 218.316C88.957 218.634 89.7236 218.855 90.5527 218.984C93.1508 219.385 96.311 218.862 100.38 217.674L99.0218 218.941C95.2734 220.327 92.6604 220.588 90.4688 219.706Z" fill="#1E263F" stroke="black"/>
</g>
<path d="M650.264 299.249V290.238H655.711V299.249H650.264Z" fill="#FF1999"/>
<path d="M391.176 250.381H397.363L376.68 298.284H371.233L361.169 274.47L351.198 298.284H345.75L325.068 250.381H331.162L348.705 291.848L357.568 270.241L349.443 250.472H355.076L361.169 266.011L367.355 250.472H372.895L364.862 270.241L373.726 291.848L391.176 250.381ZM424.868 299.203C421.42 299.203 418.22 298.559 415.266 297.272C412.311 295.924 409.756 294.115 407.602 291.848C405.447 289.518 403.754 286.852 402.524 283.848C401.354 280.845 400.77 277.627 400.77 274.194C400.77 269.72 401.785 265.613 403.817 261.873C405.909 258.135 408.771 255.162 412.403 252.955C416.034 250.687 420.159 249.553 424.776 249.553C429.515 249.553 433.639 250.687 437.148 252.955C440.717 255.223 443.518 258.226 445.55 261.966C447.581 265.643 448.596 269.689 448.596 274.102C448.596 274.593 448.596 275.083 448.596 275.574C448.596 276.003 448.565 276.34 448.504 276.585H407.325C407.632 280.018 408.587 283.082 410.187 285.779C411.849 288.415 413.973 290.53 416.558 292.124C419.204 293.656 422.067 294.422 425.145 294.422C428.284 294.422 431.239 293.625 434.008 292.032C436.84 290.438 438.809 288.354 439.917 285.779L445.365 287.25C444.38 289.518 442.872 291.572 440.841 293.41C438.809 295.249 436.409 296.69 433.639 297.732C430.93 298.713 428.007 299.203 424.868 299.203ZM407.14 272.079H442.687C442.441 268.586 441.487 265.521 439.825 262.885C438.224 260.249 436.101 258.196 433.454 256.725C430.869 255.192 428.007 254.426 424.868 254.426C421.729 254.426 418.866 255.192 416.281 256.725C413.696 258.196 411.572 260.28 409.91 262.977C408.31 265.613 407.386 268.647 407.14 272.079ZM481.827 299.203C478.072 299.203 474.595 298.253 471.394 296.353C468.193 294.391 465.7 291.939 463.915 288.997V298.284H458.283V231.164H464.562V260.402C466.715 257.154 469.301 254.549 472.317 252.587C475.333 250.564 478.842 249.553 482.843 249.553C486.228 249.553 489.244 250.258 491.891 251.668C494.599 253.077 496.907 254.978 498.815 257.368C500.724 259.697 502.17 262.364 503.155 265.368C504.14 268.31 504.633 271.344 504.633 274.47C504.633 277.841 504.048 280.998 502.878 283.94C501.77 286.883 500.17 289.518 498.077 291.848C495.984 294.115 493.553 295.924 490.783 297.272C488.075 298.559 485.089 299.203 481.827 299.203ZM480.35 293.686C482.935 293.686 485.335 293.166 487.551 292.124C489.767 291.081 491.675 289.641 493.276 287.802C494.876 285.963 496.107 283.91 496.969 281.642C497.831 279.313 498.262 276.922 498.262 274.47C498.262 271.099 497.523 267.942 496.046 265C494.63 261.996 492.63 259.606 490.045 257.828C487.52 255.989 484.535 255.07 481.088 255.07C478.626 255.07 476.318 255.621 474.164 256.725C472.07 257.828 470.194 259.299 468.532 261.138C466.931 262.916 465.607 264.877 464.562 267.022V281.918C464.807 283.573 465.454 285.136 466.5 286.607C467.546 288.017 468.839 289.242 470.378 290.285C471.978 291.327 473.64 292.154 475.364 292.767C477.087 293.38 478.749 293.686 480.35 293.686ZM511.389 284.492C511.389 281.489 512.251 278.914 513.975 276.769C515.698 274.562 518.068 272.876 521.084 271.712C524.162 270.486 527.701 269.873 531.702 269.873C534.041 269.873 536.473 270.057 538.996 270.425C541.519 270.792 543.767 271.344 545.737 272.079V268.034C545.737 263.988 544.536 260.77 542.136 258.38C539.735 255.989 536.411 254.794 532.164 254.794C529.579 254.794 527.024 255.284 524.501 256.265C522.038 257.184 519.453 258.563 516.745 260.402L514.345 255.989C517.484 253.844 520.561 252.25 523.577 251.208C526.593 250.105 529.671 249.553 532.81 249.553C538.72 249.553 543.397 251.239 546.845 254.61C550.291 257.981 552.015 262.64 552.015 268.586V290.744C552.015 291.602 552.2 292.246 552.569 292.675C552.938 293.043 553.523 293.257 554.323 293.319V298.284C553.646 298.345 553.061 298.406 552.569 298.468C552.076 298.529 551.707 298.529 551.461 298.468C549.921 298.406 548.752 297.916 547.953 296.996C547.152 296.077 546.721 295.096 546.66 294.054L546.567 290.56C544.413 293.319 541.612 295.464 538.165 296.996C534.718 298.468 531.21 299.203 527.64 299.203C524.562 299.203 521.761 298.559 519.238 297.272C516.775 295.924 514.837 294.146 513.421 291.939C512.066 289.672 511.389 287.189 511.389 284.492ZM543.613 288.17C544.29 287.312 544.813 286.484 545.183 285.687C545.552 284.89 545.737 284.185 545.737 283.573V276.585C543.643 275.788 541.458 275.175 539.181 274.746C536.965 274.317 534.718 274.102 532.441 274.102C527.947 274.102 524.316 274.991 521.546 276.769C518.776 278.546 517.391 280.967 517.391 284.032C517.391 285.81 517.853 287.495 518.776 289.089C519.7 290.622 521.054 291.909 522.839 292.951C524.623 293.932 526.717 294.422 529.117 294.422C532.133 294.422 534.934 293.84 537.519 292.675C540.166 291.51 542.197 290.009 543.613 288.17ZM606.019 298.284H599.741V271.528C599.741 265.888 598.911 261.782 597.25 259.207C595.586 256.572 592.97 255.254 589.402 255.254C586.938 255.254 584.506 255.867 582.109 257.092C579.708 258.257 577.582 259.882 575.737 261.966C573.951 263.988 572.659 266.318 571.86 268.953V298.284H565.58V250.381H571.304V261.23C572.596 258.901 574.288 256.878 576.383 255.162C578.475 253.384 580.844 252.005 583.492 251.024C586.139 250.043 588.877 249.553 591.709 249.553C594.356 249.553 596.604 250.043 598.449 251.024C600.297 252.005 601.774 253.415 602.882 255.254C603.99 257.031 604.789 259.207 605.283 261.782C605.773 264.295 606.019 267.115 606.019 270.241V298.284ZM642.041 295.985C641.548 296.169 640.777 296.506 639.731 296.996C638.685 297.487 637.424 297.916 635.947 298.284C634.471 298.652 632.869 298.835 631.146 298.835C629.36 298.835 627.668 298.498 626.066 297.824C624.527 297.15 623.297 296.138 622.373 294.79C621.452 293.38 620.99 291.664 620.99 289.641V255.346H614.34V250.381H620.99V234.198H627.269V250.381H638.348V255.346H627.269V287.894C627.39 289.61 628.005 290.897 629.113 291.756C630.284 292.614 631.608 293.043 633.085 293.043C634.808 293.043 636.378 292.767 637.792 292.215C639.21 291.602 640.071 291.173 640.377 290.928L642.041 295.985ZM691.384 255.897C687.197 256.02 683.504 257.184 680.304 259.391C677.164 261.598 674.947 264.632 673.655 268.493V298.284H667.376V250.381H673.286V261.873C674.947 258.502 677.132 255.775 679.842 253.691C682.611 251.606 685.537 250.442 688.612 250.197C689.23 250.135 689.751 250.105 690.182 250.105C690.675 250.105 691.075 250.135 691.384 250.197V255.897ZM715.534 299.203C711.594 299.203 707.932 298.559 704.548 297.272C701.161 295.985 698.239 294.024 695.776 291.388L698.361 286.975C701.071 289.488 703.777 291.327 706.487 292.491C709.256 293.595 712.182 294.146 715.256 294.146C719.012 294.146 722.059 293.41 724.397 291.939C726.736 290.407 727.906 288.231 727.906 285.411C727.906 283.511 727.323 282.071 726.152 281.09C725.044 280.048 723.414 279.221 721.26 278.608C719.165 277.933 716.643 277.228 713.689 276.493C710.364 275.574 707.564 274.623 705.285 273.642C703.072 272.601 701.376 271.313 700.209 269.781C699.101 268.187 698.545 266.134 698.545 263.621C698.545 260.495 699.316 257.92 700.855 255.897C702.453 253.813 704.607 252.25 707.317 251.208C710.087 250.105 713.165 249.553 716.549 249.553C720.246 249.553 723.504 250.135 726.336 251.3C729.168 252.465 731.478 254.089 733.264 256.173L730.217 260.402C728.49 258.441 726.43 257.001 724.029 256.081C721.691 255.101 719.075 254.61 716.181 254.61C714.211 254.61 712.334 254.886 710.549 255.438C708.763 255.928 707.286 256.786 706.119 258.012C705.011 259.177 704.455 260.801 704.455 262.885C704.455 264.601 704.885 265.95 705.747 266.931C706.609 267.85 707.901 268.647 709.624 269.321C711.348 269.934 713.474 270.608 715.996 271.344C719.627 272.325 722.799 273.336 725.506 274.378C728.216 275.359 730.307 276.646 731.784 278.24C733.264 279.833 734 282.071 734 284.952C734 289.426 732.308 292.92 728.924 295.434C725.537 297.947 721.076 299.203 715.534 299.203Z" fill="#0F1932"/>
<path d="M284.789 194.671C281.325 193.742 277.963 193.595 277.064 195.422C276.075 197.431 281.208 198.872 284.789 197.779C288.37 196.686 287.97 195.524 284.789 194.671Z" fill="#FF1999" stroke="#FF1999" stroke-width="2"/>
<path d="M288.941 205.404C285.477 204.011 282.116 203.791 281.216 206.531C280.227 209.544 285.36 211.706 288.941 210.067C292.523 208.427 292.123 206.684 288.941 205.404Z" fill="#FF1999" stroke="#FF1999" stroke-width="2"/>
<path d="M309.815 265.102C298.029 243.025 257.28 231.033 239.141 241.372C221.002 251.712 219.584 271.217 239.141 288.372C258.698 305.527 304.607 294.749 309.815 291.898C315.024 289.048 321.601 287.179 309.815 265.102Z" fill="#FF1999" stroke="#FF1999" stroke-width="2"/>
<path d="M239.733 239.702C238.035 204.99 247.516 196.891 276.939 196.074" stroke="#FF1999" stroke-width="2" stroke-linecap="round"/>
<path d="M245.775 237.624C253.387 215.907 261.267 209.782 281.093 208.539" stroke="#FF1999" stroke-width="2" stroke-linecap="round"/>
<path d="M265.473 240.025C256.929 238.405 249.017 243.182 246.389 251.355C242.98 261.953 254.392 274.813 265.473 272.727C275.132 270.908 281.224 260.596 278.264 251.355C276.243 245.043 272.07 241.275 265.473 240.025Z" fill="white" stroke="#1E263F" stroke-width="1.5"/>
<path d="M266.135 250.045C261.736 253.359 261.061 253.085 258.526 248.016C241.578 256.058 247.321 269.716 258.526 270.651C262.133 270.952 263.03 271.165 266.135 269.694C274.51 265.729 275.497 258.268 266.135 250.045Z" fill="#1E263F" stroke="#1E263F" stroke-width="1.5"/>
<g filter="url(#filter1_i_1247_769)">
<path d="M265.261 291.982C263.967 290.393 263.172 288.462 262.786 286.053C263.637 287.937 264.963 289.539 266.804 290.952C270.363 293.683 275.879 295.726 283.716 297.769L279.097 298.328C272.001 296.872 267.699 294.976 265.261 291.982Z" fill="#0F1932" stroke="#0F1932"/>
</g>
<defs>
<filter id="filter0_i_1247_769" x="83.1895" y="212.402" width="19.1191" height="12.3164" filterUnits="userSpaceOnUse" color-interpolation-filters="sRGB">
<feFlood flood-opacity="0" result="BackgroundImageFix"/>
<feBlend mode="normal" in="SourceGraphic" in2="BackgroundImageFix" result="shape"/>
<feColorMatrix in="SourceAlpha" type="matrix" values="0 0 0 0 0 0 0 0 0 0 0 0 0 0 0 0 0 0 127 0" result="hardAlpha"/>
<feOffset dy="4"/>
<feGaussianBlur stdDeviation="2"/>
<feComposite in2="hardAlpha" operator="arithmetic" k2="-1" k3="1"/>
<feColorMatrix type="matrix" values="0 0 0 0 0 0 0 0 0 0 0 0 0 0 0 0 0 0 0.25 0"/>
<feBlend mode="normal" in2="shape" result="effect1_innerShadow_1247_769"/>
</filter>
<filter id="filter1_i_1247_769" x="262" y="277" width="24.4414" height="25.8359" filterUnits="userSpaceOnUse" color-interpolation-filters="sRGB">
<feFlood flood-opacity="0" result="BackgroundImageFix"/>
<feBlend mode="normal" in="SourceGraphic" in2="BackgroundImageFix" result="shape"/>
<feColorMatrix in="SourceAlpha" type="matrix" values="0 0 0 0 0 0 0 0 0 0 0 0 0 0 0 0 0 0 127 0" result="hardAlpha"/>
<feOffset dy="4"/>
<feGaussianBlur stdDeviation="2"/>
<feComposite in2="hardAlpha" operator="arithmetic" k2="-1" k3="1"/>
<feColorMatrix type="matrix" values="0 0 0 0 0 0 0 0 0 0 0 0 0 0 0 0 0 0 0.25 0"/>
<feBlend mode="normal" in2="shape" result="effect1_innerShadow_1247_769"/>
</filter>
</defs>
</svg>
