<svg width="14813" height="3090" viewBox="0 0 14813 3090" fill="none" xmlns="http://www.w3.org/2000/svg">
<path d="M1745.92 54.4477C1650.63 13.6504 1558.17 7.19714 1533.42 87.4477C1506.21 175.654 1647.42 238.95 1745.92 190.948C1844.42 142.945 1833.42 91.9093 1745.92 54.4477Z" fill="#FF1999" stroke="#FF1999" stroke-width="50"/>
<path d="M1888.92 380.448C1793.63 339.65 1701.17 333.197 1676.42 413.448C1649.21 501.654 1790.42 564.95 1888.92 516.948C1987.42 468.945 1976.42 417.909 1888.92 380.448Z" fill="#FF1999" stroke="#FF1999" stroke-width="50"/>
<path d="M2507.98 2102.84C2162.95 1454.83 970.014 1102.85 438.982 1406.34C-92.0503 1709.83 -133.548 2282.33 438.982 2785.84C1011.51 3289.35 2355.5 2973 2507.98 2889.34C2660.47 2805.68 2853.01 2750.84 2507.98 2102.84Z" fill="#FF1999" stroke="#FF1999" stroke-width="50"/>
<g filter="url(#filter0_i_1052_299)">
<path d="M1278.35 2480.34C1258.28 2797.77 1447.03 2917.37 1984 3050L1770 3076C1353.95 2990.7 1249.55 2851.35 1278.35 2480.34C1279.2 2466.92 1280.42 2453.15 1282 2439C1280.62 2453.09 1279.39 2466.87 1278.35 2480.34Z" fill="#1E263F"/>
<path d="M1376.77 2869.56C1353.39 2840.72 1335.71 2807.75 1323.16 2769.44C1345.61 2800.37 1373.5 2828.44 1407.02 2854.27C1504 2929 1649.4 2985.88 1850.2 3041.07L1771.04 3050.69C1566.29 3008.33 1444.99 2953.68 1376.77 2869.56Z" stroke="#1E263F" stroke-width="50" stroke-linejoin="round"/>
</g>
<path d="M429.605 1387C379.429 359.832 659.732 120.179 1529.61 96" stroke="#FF1999" stroke-width="50" stroke-linecap="round"/>
<path d="M624 1324.5C845.882 665.556 1075.57 479.71 1653.5 442" stroke="#FF1999" stroke-width="50" stroke-linecap="round"/>
<path d="M1176.02 1361.36C924.851 1313.06 692.293 1455.54 615.025 1699.36C514.841 2015.5 850.285 2399.09 1176.02 2336.86C1459.93 2282.62 1639.01 1975 1552.02 1699.36C1492.61 1511.07 1369.92 1398.65 1176.02 1361.36Z" fill="white" stroke="#1E263F" stroke-width="50"/>
<path d="M1222.09 1646.55C1093.26 1751.99 1073.51 1743.25 999.282 1582C503.029 1837.85 671.188 2272.33 999.282 2302.09C1104.91 2311.66 1131.15 2318.42 1222.09 2271.64C1467.32 2145.51 1496.22 1908.16 1222.09 1646.55Z" fill="#1E263F" stroke="#1E263F" stroke-width="50"/>
<path d="M12404.3 3047.31V2784.43H12562.6V3047.31H12404.3Z" fill="#FF1999"/>
<path d="M4852.62 1626.63H5032.36L4431.48 3024.18H4273.22L3980.83 2329.43L3691.13 3024.18H3532.86L2932 1626.63H3109.04L3618.7 2836.41L3876.22 2206.03L3640.16 1629.31H3803.79L3980.83 2082.64L4160.55 1629.31H4321.5L4088.13 2206.03L4345.64 2836.41L4852.62 1626.63ZM5831.45 3051C5731.3 3051 5638.31 3032.22 5552.47 2994.67C5466.64 2955.33 5392.41 2902.57 5329.83 2836.41C5267.24 2768.45 5218.05 2690.66 5182.3 2603.03C5148.31 2515.41 5131.33 2421.52 5131.33 2321.38C5131.33 2190.83 5160.84 2071.02 5219.85 1961.93C5280.65 1852.85 5363.8 1766.11 5469.32 1701.74C5574.81 1635.57 5694.64 1602.49 5828.77 1602.49C5966.45 1602.49 6086.28 1635.57 6188.21 1701.74C6291.92 1767.9 6373.3 1855.53 6432.31 1964.61C6491.33 2071.91 6520.83 2189.94 6520.83 2318.7C6520.83 2333 6520.83 2347.31 6520.83 2361.61C6520.83 2374.13 6519.93 2383.97 6518.15 2391.12H5321.79C5330.71 2491.27 5358.44 2580.68 5404.94 2659.36C5453.22 2736.26 5514.92 2797.96 5590.03 2844.45C5666.92 2889.16 5750.07 2911.51 5839.49 2911.51C5930.7 2911.51 6016.54 2888.27 6097.01 2841.77C6179.26 2795.27 6236.49 2734.47 6268.68 2659.36L6426.95 2702.28C6398.32 2768.45 6354.52 2828.36 6295.51 2882.01C6236.49 2935.66 6166.75 2977.68 6086.28 3008.08C6007.59 3036.69 5922.65 3051 5831.45 3051ZM5316.42 2259.68H6349.16C6341.99 2157.75 6314.29 2068.33 6266 1991.44C6219.5 1914.54 6157.8 1854.64 6080.91 1811.72C6005.81 1767.01 5922.65 1744.66 5831.45 1744.66C5740.24 1744.66 5657.09 1767.01 5581.98 1811.72C5506.87 1854.64 5445.18 1915.44 5396.89 1994.12C5350.39 2071.02 5323.57 2159.54 5316.42 2259.68ZM7486.28 3051C7377.18 3051 7276.15 3023.28 7183.16 2967.84C7090.16 2910.62 7017.73 2839.09 6965.89 2753.25V3024.18H6802.26V1066H6984.66V1919.01C7047.24 1824.23 7122.35 1748.23 7209.99 1691.01C7297.61 1631.99 7399.54 1602.49 7515.78 1602.49C7614.13 1602.49 7701.75 1623.05 7778.66 1664.18C7857.33 1705.31 7924.39 1760.75 7979.82 1830.49C8035.28 1898.45 8077.29 1976.24 8105.92 2063.86C8134.53 2149.7 8148.84 2238.22 8148.84 2329.43C8148.84 2427.78 8131.84 2519.88 8097.87 2605.72C8065.68 2691.55 8019.18 2768.45 7958.39 2836.41C7897.57 2902.57 7826.95 2955.33 7746.47 2994.67C7667.78 3032.22 7581.04 3051 7486.28 3051ZM7443.36 2890.05C7518.47 2890.05 7588.21 2874.85 7652.59 2844.45C7716.97 2814.05 7772.4 2772.03 7818.9 2718.38C7865.38 2664.73 7901.15 2604.82 7926.2 2538.66C7951.22 2470.7 7963.75 2400.96 7963.75 2329.43C7963.75 2231.07 7942.29 2138.97 7899.37 2053.14C7858.23 1965.51 7800.12 1895.77 7725.01 1843.91C7651.69 1790.26 7564.95 1763.43 7464.82 1763.43C7393.27 1763.43 7326.21 1779.53 7263.64 1811.72C7202.82 1843.91 7148.29 1886.82 7100.01 1940.47C7053.51 1992.33 7015.05 2049.56 6984.66 2112.15V2546.7C6991.81 2594.99 7010.59 2640.59 7040.99 2683.51C7071.38 2724.64 7108.93 2760.4 7153.66 2790.8C7200.14 2821.21 7248.42 2845.35 7298.51 2863.23C7348.57 2881.11 7396.86 2890.05 7443.36 2890.05ZM8345.14 2621.81C8345.14 2534.19 8370.18 2459.08 8420.27 2396.49C8470.33 2332.11 8539.17 2282.93 8626.81 2248.95C8716.21 2213.19 8819.05 2195.3 8935.29 2195.3C9003.23 2195.3 9073.88 2200.67 9147.21 2211.4C9220.51 2222.13 9285.79 2238.22 9343.02 2259.68V2141.66C9343.02 2023.63 9308.15 1929.74 9238.41 1860C9168.67 1790.26 9072.1 1755.39 8948.71 1755.39C8873.6 1755.39 8799.37 1769.69 8726.06 1798.3C8654.52 1825.13 8579.41 1865.36 8500.74 1919.01L8431 1790.26C8522.2 1727.67 8611.6 1681.17 8699.24 1650.77C8786.86 1618.58 8876.28 1602.49 8967.48 1602.49C9139.16 1602.49 9275.06 1651.67 9375.21 1750.02C9475.34 1848.38 9525.43 1984.29 9525.43 2157.75V2804.22C9525.43 2829.25 9530.79 2848.03 9541.52 2860.55C9552.25 2871.28 9569.23 2877.54 9592.49 2879.32V3024.18C9572.81 3025.96 9555.82 3027.75 9541.52 3029.54C9527.21 3031.33 9516.48 3031.33 9509.33 3029.54C9464.61 3027.75 9430.64 3013.45 9407.4 2986.62C9384.14 2959.8 9371.63 2931.19 9369.85 2900.78L9367.17 2798.85C9304.57 2879.32 9223.19 2941.92 9123.06 2986.62C9022.91 3029.54 8920.98 3051 8817.27 3051C8727.85 3051 8646.47 3032.22 8573.17 2994.67C8501.62 2955.33 8445.29 2903.47 8404.17 2839.09C8364.82 2772.92 8345.14 2700.5 8345.14 2621.81ZM9281.33 2729.11C9300.99 2704.07 9316.2 2679.93 9326.93 2656.68C9337.66 2633.44 9343.02 2612.87 9343.02 2594.99V2391.12C9282.21 2367.87 9218.73 2349.99 9152.57 2337.47C9088.19 2324.96 9022.91 2318.7 8956.75 2318.7C8826.19 2318.7 8720.7 2344.63 8640.23 2396.49C8559.75 2448.35 8519.52 2518.98 8519.52 2608.4C8519.52 2660.26 8532.93 2709.44 8559.75 2755.93C8586.58 2800.64 8625.91 2838.19 8677.78 2868.59C8729.63 2897.21 8790.44 2911.51 8860.19 2911.51C8947.81 2911.51 9029.18 2894.52 9104.29 2860.55C9181.18 2826.57 9240.19 2782.76 9281.33 2729.11ZM11094.4 3024.18H10912V2243.59C10912 2079.06 10887.9 1959.25 10839.6 1884.14C10791.3 1807.25 10715.3 1768.8 10611.6 1768.8C10540.1 1768.8 10469.4 1786.68 10399.7 1822.45C10329.9 1856.42 10268.3 1903.81 10214.6 1964.61C10162.7 2023.63 10125.2 2091.58 10101.9 2168.48V3024.18H9919.54V1626.63H10085.8V1943.16C10123.4 1875.2 10172.6 1816.19 10233.4 1766.11C10294.2 1714.25 10363 1674.02 10439.9 1645.41C10516.8 1616.79 10596.4 1602.49 10678.7 1602.49C10755.6 1602.49 10820.8 1616.79 10874.5 1645.41C10928.1 1674.02 10971.1 1715.15 11003.2 1768.8C11035.4 1820.66 11058.7 1884.14 11073 1959.25C11087.3 2032.57 11094.4 2114.83 11094.4 2206.03V3024.18ZM12140.9 2957.11C12126.6 2962.48 12104.3 2972.31 12073.9 2986.62C12043.5 3000.93 12006.8 3013.45 11963.9 3024.18C11921 3034.91 11874.5 3040.27 11824.4 3040.27C11772.5 3040.27 11723.3 3030.44 11676.9 3010.76C11632.1 2991.09 11596.4 2961.58 11569.6 2922.24C11542.7 2881.11 11529.3 2831.04 11529.3 2772.03V1771.48H11336.2V1626.63H11529.3V1154.52H11711.7V1626.63H12033.6V1771.48H11711.7V2721.06C11715.3 2771.13 11733.2 2808.69 11765.4 2833.72C11799.4 2858.76 11837.8 2871.28 11880.7 2871.28C11930.8 2871.28 11976.4 2863.23 12017.5 2847.14C12058.7 2829.25 12083.7 2816.73 12092.6 2809.58L12140.9 2957.11ZM13574.5 1787.57C13452.8 1791.15 13345.5 1825.13 13252.6 1889.51C13161.4 1953.89 13097 2042.41 13059.4 2155.07V3024.18H12877V1626.63H13048.7V1961.93C13097 1863.58 13160.5 1784 13239.2 1723.2C13319.6 1662.39 13404.6 1628.42 13494 1621.26C13511.9 1619.48 13527.1 1618.58 13539.6 1618.58C13553.9 1618.58 13565.5 1619.48 13574.5 1621.26V1787.57ZM14276.1 3051C14161.7 3051 14055.3 3032.22 13956.9 2994.67C13858.6 2957.11 13773.6 2899.89 13702.1 2822.99L13777.2 2694.24C13855.9 2767.56 13934.6 2821.21 14013.3 2855.18C14093.7 2887.37 14178.7 2903.47 14268.1 2903.47C14377.2 2903.47 14465.7 2882.01 14533.7 2839.09C14601.6 2794.38 14635.6 2730.9 14635.6 2648.64C14635.6 2593.2 14618.6 2551.17 14584.6 2522.56C14552.4 2492.16 14505 2468.02 14442.5 2450.14C14381.6 2430.46 14308.3 2409.9 14222.5 2388.44C14125.9 2361.61 14044.6 2333.9 13978.4 2305.28C13914 2274.88 13864.8 2237.33 13830.9 2192.62C13798.7 2146.13 13782.6 2086.22 13782.6 2012.9C13782.6 1921.7 13804.9 1846.59 13849.6 1787.57C13896.1 1726.77 13958.7 1681.17 14037.4 1650.77C14117.9 1618.58 14207.3 1602.49 14305.6 1602.49C14412.9 1602.49 14507.7 1619.48 14590 1653.45C14672.2 1687.43 14739.3 1734.82 14791.2 1795.62L14702.7 1919.01C14652.6 1861.79 14592.7 1819.76 14522.9 1792.94C14455 1764.33 14379 1750.02 14294.9 1750.02C14237.7 1750.02 14183.1 1758.07 14131.3 1774.16C14079.4 1788.47 14036.5 1813.5 14002.5 1849.27C13970.3 1883.25 13954.3 1930.64 13954.3 1991.44C13954.3 2041.51 13966.8 2080.85 13991.8 2109.47C14016.8 2136.29 14054.4 2159.54 14104.5 2179.21C14154.5 2197.09 14216.2 2216.76 14289.6 2238.22C14395 2266.83 14487.2 2296.34 14565.8 2326.74C14644.5 2355.36 14705.3 2392.91 14748.3 2439.41C14791.2 2485.9 14812.6 2551.17 14812.6 2635.22C14812.6 2765.77 14763.4 2867.7 14665.1 2941.02C14566.7 3014.34 14437.1 3051 14276.1 3051Z" fill="white"/>
<defs>
<filter id="filter0_i_1052_299" x="1273.88" y="2439" width="710.117" height="641" filterUnits="userSpaceOnUse" color-interpolation-filters="sRGB">
<feFlood flood-opacity="0" result="BackgroundImageFix"/>
<feBlend mode="normal" in="SourceGraphic" in2="BackgroundImageFix" result="shape"/>
<feColorMatrix in="SourceAlpha" type="matrix" values="0 0 0 0 0 0 0 0 0 0 0 0 0 0 0 0 0 0 127 0" result="hardAlpha"/>
<feOffset dy="4"/>
<feGaussianBlur stdDeviation="2"/>
<feComposite in2="hardAlpha" operator="arithmetic" k2="-1" k3="1"/>
<feColorMatrix type="matrix" values="0 0 0 0 0 0 0 0 0 0 0 0 0 0 0 0 0 0 0.25 0"/>
<feBlend mode="normal" in2="shape" result="effect1_innerShadow_1052_299"/>
</filter>
</defs>
</svg>
