<svg width="567" height="95" viewBox="0 0 567 95" fill="none" xmlns="http://www.w3.org/2000/svg">
<path d="M91.648 26.752H100.225L71.552 93.44H64L50.048 60.288L36.224 93.44H28.672L0 26.752H8.448L32.768 84.48L45.056 54.4L33.792 26.88H41.6L50.048 48.512L58.624 26.88H66.304L55.168 54.4L67.456 84.48L91.648 26.752ZM138.355 94.72C133.576 94.72 129.14 93.824 125.044 92.032C120.948 90.1547 117.406 87.6373 114.42 84.48C111.433 81.2373 109.086 77.5253 107.38 73.344C105.758 69.1627 104.948 64.6827 104.948 59.904C104.948 53.6747 106.356 47.9573 109.172 42.752C112.073 37.5467 116.041 33.408 121.076 30.336C126.11 27.1787 131.828 25.6 138.228 25.6C144.798 25.6 150.516 27.1787 155.38 30.336C160.329 33.4933 164.211 37.6747 167.027 42.88C169.843 48 171.251 53.632 171.251 59.776C171.251 60.4587 171.251 61.1413 171.251 61.824C171.251 62.4213 171.209 62.8907 171.124 63.232H114.035C114.461 68.0107 115.785 72.2773 118.004 76.032C120.308 79.7013 123.252 82.6453 126.836 84.864C130.505 86.9973 134.473 88.064 138.74 88.064C143.092 88.064 147.187 86.9547 151.027 84.736C154.952 82.5173 157.683 79.616 159.219 76.032L166.771 78.08C165.405 81.2373 163.315 84.096 160.499 86.656C157.683 89.216 154.356 91.2213 150.516 92.672C146.761 94.0373 142.707 94.72 138.355 94.72ZM113.78 56.96H163.06C162.718 52.096 161.396 47.8293 159.092 44.16C156.873 40.4907 153.929 37.632 150.26 35.584C146.676 33.4507 142.707 32.384 138.355 32.384C134.003 32.384 130.036 33.4507 126.451 35.584C122.867 37.632 119.923 40.5333 117.619 44.288C115.4 47.9573 114.121 52.1813 113.78 56.96ZM217.32 94.72C212.114 94.72 207.294 93.3973 202.857 90.752C198.419 88.0213 194.962 84.608 192.488 80.512V93.44H184.68V0H193.385V40.704C196.371 36.1813 199.955 32.5547 204.137 29.824C208.318 27.008 213.182 25.6 218.729 25.6C223.422 25.6 227.603 26.5813 231.273 28.544C235.027 30.5067 238.227 33.152 240.872 36.48C243.518 39.7227 245.523 43.4347 246.889 47.616C248.254 51.712 248.937 55.936 248.937 60.288C248.937 64.9813 248.126 69.376 246.505 73.472C244.969 77.568 242.749 81.2373 239.848 84.48C236.946 87.6373 233.576 90.1547 229.736 92.032C225.981 93.824 221.842 94.72 217.32 94.72ZM215.273 87.04C218.857 87.04 222.185 86.3147 225.257 84.864C228.329 83.4133 230.974 81.408 233.193 78.848C235.411 76.288 237.117 73.4293 238.312 70.272C239.507 67.0293 240.105 63.7013 240.105 60.288C240.105 55.5947 239.081 51.2 237.033 47.104C235.07 42.9227 232.297 39.5947 228.713 37.12C225.214 34.56 221.075 33.28 216.297 33.28C212.883 33.28 209.683 34.048 206.697 35.584C203.795 37.12 201.193 39.168 198.889 41.728C196.67 44.2027 194.835 46.9333 193.385 49.92V70.656C193.726 72.96 194.621 75.136 196.072 77.184C197.522 79.1467 199.315 80.8533 201.449 82.304C203.667 83.7547 205.971 84.9067 208.361 85.76C210.75 86.6133 213.054 87.04 215.273 87.04ZM258.303 74.24C258.303 70.0587 259.498 66.4747 261.888 63.488C264.277 60.416 267.562 58.0693 271.744 56.448C276.01 54.7413 280.917 53.888 286.464 53.888C289.706 53.888 293.077 54.144 296.576 54.656C300.074 55.168 303.19 55.936 305.921 56.96V51.328C305.921 45.696 304.256 41.216 300.928 37.888C297.6 34.56 292.992 32.896 287.104 32.896C283.52 32.896 279.978 33.5787 276.48 34.944C273.066 36.224 269.482 38.144 265.728 40.704L262.4 34.56C266.752 31.5733 271.019 29.3547 275.201 27.904C279.382 26.368 283.648 25.6 288 25.6C296.192 25.6 302.677 27.9467 307.456 32.64C312.234 37.3333 314.624 43.8187 314.624 52.096V82.944C314.624 84.1387 314.88 85.0347 315.392 85.632C315.904 86.144 316.714 86.4427 317.824 86.528V93.44C316.885 93.5253 316.074 93.6107 315.392 93.696C314.709 93.7813 314.197 93.7813 313.856 93.696C311.722 93.6107 310.101 92.928 308.992 91.648C307.882 90.368 307.286 89.0027 307.201 87.552L307.072 82.688C304.085 86.528 300.202 89.5147 295.424 91.648C290.645 93.696 285.781 94.72 280.832 94.72C276.565 94.72 272.682 93.824 269.184 92.032C265.77 90.1547 263.082 87.68 261.12 84.608C259.242 81.4507 258.303 77.9947 258.303 74.24ZM302.977 79.36C303.915 78.1653 304.64 77.0133 305.152 75.904C305.664 74.7947 305.921 73.8133 305.921 72.96V63.232C303.019 62.1227 299.989 61.2693 296.832 60.672C293.76 60.0747 290.645 59.776 287.488 59.776C281.258 59.776 276.224 61.0133 272.384 63.488C268.544 65.9627 266.624 69.3333 266.624 73.6C266.624 76.0747 267.264 78.4213 268.544 80.64C269.824 82.7733 271.701 84.5653 274.176 86.016C276.65 87.3813 279.552 88.064 282.88 88.064C287.061 88.064 290.944 87.2533 294.528 85.632C298.197 84.0107 301.014 81.92 302.977 79.36ZM389.494 93.44H380.79V56.192C380.79 48.3413 379.638 42.624 377.334 39.04C375.03 35.3707 371.403 33.536 366.454 33.536C363.04 33.536 359.67 34.3893 356.342 36.096C353.014 37.7173 350.07 39.9787 347.51 42.88C345.035 45.696 343.243 48.9387 342.134 52.608V93.44H333.43V26.752H341.366V41.856C343.158 38.6133 345.504 35.7973 348.406 33.408C351.307 30.9333 354.592 29.0133 358.262 27.648C361.931 26.2827 365.728 25.6 369.654 25.6C373.323 25.6 376.438 26.2827 378.998 27.648C381.558 29.0133 383.606 30.976 385.142 33.536C386.678 36.0107 387.787 39.04 388.469 42.624C389.152 46.1227 389.494 50.048 389.494 54.4V93.44ZM439.43 90.24C438.747 90.496 437.68 90.9653 436.23 91.648C434.779 92.3307 433.03 92.928 430.982 93.44C428.934 93.952 426.715 94.208 424.326 94.208C421.851 94.208 419.504 93.7387 417.286 92.8C415.152 91.8613 413.446 90.4533 412.166 88.576C410.886 86.6133 410.246 84.224 410.246 81.408V33.664H401.03V26.752H410.246V4.224H418.951V26.752H434.31V33.664H418.951V78.976C419.121 81.3653 419.974 83.1573 421.51 84.352C423.131 85.5467 424.966 86.144 427.014 86.144C429.403 86.144 431.579 85.76 433.542 84.992C435.504 84.1387 436.699 83.5413 437.126 83.2L439.43 90.24ZM507.835 34.432C502.032 34.6027 496.912 36.224 492.475 39.296C488.123 42.368 485.051 46.592 483.259 51.968V93.44H474.555V26.752H482.747V42.752C485.051 38.0587 488.08 34.2613 491.835 31.36C495.675 28.4587 499.728 26.8373 503.995 26.496C504.848 26.4107 505.573 26.368 506.171 26.368C506.853 26.368 507.408 26.4107 507.835 26.496V34.432ZM541.319 94.72C535.857 94.72 530.779 93.824 526.086 92.032C521.392 90.24 517.34 87.5093 513.927 83.84L517.51 77.696C521.264 81.1947 525.02 83.7547 528.775 85.376C532.615 86.912 536.668 87.68 540.935 87.68C546.14 87.68 550.364 86.656 553.607 84.608C556.849 82.4747 558.471 79.4453 558.471 75.52C558.471 72.8747 557.66 70.8693 556.039 69.504C554.503 68.0533 552.241 66.9013 549.255 66.048C546.353 65.1093 542.855 64.128 538.759 63.104C534.151 61.824 530.268 60.5013 527.111 59.136C524.039 57.6853 521.691 55.8933 520.07 53.76C518.534 51.5413 517.767 48.6827 517.767 45.184C517.767 40.832 518.832 37.248 520.966 34.432C523.184 31.5307 526.172 29.3547 529.927 27.904C533.767 26.368 538.033 25.6 542.726 25.6C547.847 25.6 552.368 26.4107 556.294 28.032C560.219 29.6533 563.42 31.9147 565.895 34.816L561.671 40.704C559.281 37.9733 556.423 35.968 553.095 34.688C549.852 33.3227 546.225 32.64 542.215 32.64C539.484 32.64 536.88 33.024 534.406 33.792C531.931 34.4747 529.884 35.6693 528.263 37.376C526.727 38.9973 525.958 41.2587 525.958 44.16C525.958 46.5493 526.555 48.4267 527.75 49.792C528.944 51.072 530.737 52.1813 533.127 53.12C535.516 53.9733 538.459 54.912 541.958 55.936C546.992 57.3013 551.388 58.7093 555.143 60.16C558.897 61.5253 561.798 63.3173 563.846 65.536C565.894 67.7547 566.919 70.8693 566.919 74.88C566.919 81.1093 564.572 85.9733 559.879 89.472C555.185 92.9707 548.999 94.72 541.319 94.72Z" fill="white"/>
<path d="M449.023 93.4424V80.8984H456.575V93.4424H449.023Z" fill="#FF1999"/>
</svg>
