<svg width="960" height="513" viewBox="0 0 960 513" fill="none" xmlns="http://www.w3.org/2000/svg">
<rect width="960" height="513" fill="white"/>
<path d="M275.5 0.5H435L0.5 299.5V189.5L275.5 0.5Z" fill="#0F1932" stroke="#0F1932"/>
<path d="M266.765 104.357L263.285 99.3008L265.772 97.5892L269.252 102.645L266.765 104.357Z" fill="#FF1999"/>
<path d="M129.625 158.341L132.449 156.397L141.508 189.774L139.022 191.485L125.231 181.285L129.876 197.78L127.389 199.492L99.4487 179.111L102.23 177.196L126.252 194.952L121.954 180.044L110.611 171.504L113.182 169.735L121.964 176.539L118.787 165.877L121.316 164.136L125.284 177.752L137.674 187.091L129.625 158.341ZM163.86 175.151C162.286 176.234 160.577 176.878 158.731 177.084C156.861 177.256 154.997 177.044 153.138 176.448C151.254 175.818 149.452 174.854 147.73 173.555C146.036 172.237 144.527 170.615 143.201 168.689C141.473 166.178 140.351 163.555 139.834 160.818C139.345 158.063 139.503 155.496 140.309 153.117C141.091 150.703 142.536 148.771 144.643 147.321C146.806 145.832 149.127 145.172 151.604 145.342C154.11 145.493 156.548 146.299 158.919 147.758C161.267 149.184 163.293 151.135 164.997 153.611C165.187 153.886 165.376 154.162 165.566 154.437C165.731 154.678 165.847 154.876 165.914 155.033L147.117 167.971C148.583 169.8 150.202 171.22 151.974 172.231C153.751 173.187 155.537 173.707 157.332 173.789C159.132 173.817 160.735 173.348 162.14 172.381C163.573 171.395 164.614 170.019 165.262 168.255C165.939 166.471 166.034 164.683 165.545 162.89L168.6 162.004C169.026 163.586 169.131 165.212 168.914 166.882C168.697 168.552 168.157 170.114 167.295 171.57C166.438 172.971 165.293 174.164 163.86 175.151ZM145.292 165.501L161.519 154.333C160.057 152.45 158.438 151.03 156.661 150.073C154.913 149.097 153.15 148.612 151.374 148.618C149.602 148.57 148 149.04 146.567 150.026C145.134 151.012 144.123 152.341 143.535 154.013C142.923 155.651 142.759 157.488 143.041 159.523C143.329 161.505 144.079 163.497 145.292 165.501ZM189.86 157.255C188.146 158.435 186.192 158.994 183.997 158.934C181.778 158.839 179.693 158.246 177.742 157.156L181.329 162.367L178.758 164.136L152.837 126.475L155.703 124.502L166.994 140.908C166.723 138.409 166.897 136.135 167.516 134.086C168.112 132.004 169.323 130.334 171.149 129.077C172.695 128.013 174.343 127.462 176.096 127.421C177.877 127.361 179.664 127.702 181.458 128.444C183.229 129.151 184.919 130.193 186.529 131.569C188.115 132.91 189.511 134.458 190.719 136.212C192.021 138.104 192.973 140.059 193.575 142.077C194.206 144.076 194.493 146.058 194.437 148.023C194.358 149.953 193.946 151.731 193.203 153.358C192.463 154.931 191.349 156.23 189.86 157.255ZM187.055 154.624C188.235 153.812 189.13 152.765 189.739 151.484C190.348 150.203 190.663 148.796 190.683 147.261C190.703 145.726 190.472 144.187 189.99 142.644C189.484 141.066 188.757 139.59 187.81 138.214C186.508 136.322 184.952 134.783 183.141 133.596C181.335 132.356 179.499 131.643 177.632 131.457C175.77 131.219 174.052 131.641 172.479 132.724C171.355 133.497 170.514 134.532 169.957 135.828C169.428 137.105 169.139 138.52 169.091 140.074C169.047 141.574 169.2 143.09 169.551 144.623L175.303 152.981C176.055 153.832 176.953 154.506 177.999 155.003C179.021 155.465 180.085 155.747 181.19 155.848C182.322 155.93 183.401 155.872 184.424 155.674C185.448 155.477 186.325 155.127 187.055 154.624ZM197.673 139.713C196.513 138.028 195.913 136.312 195.871 134.567C195.805 132.787 196.236 131.097 197.163 129.496C198.094 127.841 199.473 126.385 201.3 125.128C202.367 124.393 203.548 123.732 204.842 123.146C206.136 122.559 207.375 122.163 208.558 121.957L206.996 119.687C205.434 117.417 203.643 115.988 201.624 115.401C199.605 114.814 197.626 115.188 195.687 116.522C194.507 117.334 193.53 118.412 192.757 119.755C191.988 121.045 191.341 122.631 190.815 124.513L188.015 122.791C188.619 120.601 189.408 118.74 190.383 117.208C191.333 115.641 192.525 114.364 193.958 113.378C196.656 111.522 199.442 110.998 202.317 111.806C205.192 112.615 207.779 114.688 210.075 118.024L218.632 130.457C218.964 130.939 219.297 131.242 219.631 131.367C219.942 131.457 220.291 131.394 220.68 131.177L222.598 133.962C222.312 134.21 222.069 134.428 221.868 134.617C221.667 134.806 221.498 134.922 221.362 134.965C220.636 135.414 219.913 135.506 219.193 135.242C218.472 134.977 217.897 134.562 217.466 133.997L216.075 132.066C216.157 134.29 215.706 136.374 214.725 138.317C213.72 140.225 212.402 141.74 210.773 142.862C209.368 143.829 207.841 144.348 206.192 144.418C204.547 144.435 202.975 144.047 201.477 143.253C199.983 142.406 198.715 141.226 197.673 139.713ZM213.803 131.653C213.78 130.958 213.7 130.329 213.561 129.766C213.421 129.203 213.234 128.75 212.997 128.406L210.298 124.485C209.035 124.695 207.801 125.038 206.596 125.513C205.418 125.968 204.31 126.554 203.27 127.269C201.219 128.681 199.905 130.321 199.327 132.188C198.749 134.056 199.052 135.849 200.235 137.569C200.922 138.567 201.784 139.367 202.821 139.971C203.834 140.541 204.949 140.838 206.166 140.862C207.36 140.852 208.505 140.469 209.601 139.715C210.977 138.767 212.031 137.561 212.761 136.095C213.519 134.61 213.867 133.129 213.803 131.653ZM246.196 117.721L243.33 119.693L232.997 104.68C230.819 101.516 228.854 99.4725 227.102 98.5497C225.324 97.5937 223.621 97.6762 221.992 98.7972C220.868 99.5712 219.994 100.679 219.373 102.12C218.727 103.528 218.384 105.107 218.347 106.856C218.313 108.552 218.622 110.265 219.276 111.996L230.603 128.453L227.736 130.426L209.236 103.547L211.849 101.749L216.039 107.837C215.729 106.124 215.721 104.457 216.014 102.836C216.282 101.181 216.831 99.6628 217.661 98.2807C218.491 96.8986 219.551 95.7634 220.844 94.8737C222.052 94.042 223.268 93.6108 224.489 93.5815C225.711 93.5511 226.93 93.8783 228.146 94.562C229.338 95.2111 230.543 96.181 231.763 97.4706C232.957 98.7267 234.158 100.231 235.366 101.986L246.196 117.721ZM261.751 105.114C261.597 105.372 261.375 105.803 261.087 106.407C260.799 107.011 260.389 107.648 259.857 108.318C259.325 108.988 258.665 109.595 257.878 110.136C257.063 110.697 256.161 111.04 255.169 111.164C254.206 111.27 253.254 111.088 252.312 110.622C251.347 110.12 250.473 109.303 249.692 108.168L236.447 88.9242L233.412 91.0135L231.494 88.2276L234.53 86.1384L228.28 77.0583L231.146 75.0858L237.396 84.1659L242.453 80.6849L244.371 83.4707L239.313 86.9517L251.883 105.215C252.601 106.14 253.379 106.669 254.217 106.802C255.082 106.916 255.852 106.741 256.526 106.277C257.313 105.735 257.923 105.087 258.356 104.333C258.766 103.544 258.994 103.033 259.039 102.799L261.751 105.114ZM268.793 67.1176C266.93 68.5017 265.693 70.3155 265.085 72.559C264.504 74.7841 264.664 77.1829 265.565 79.7557L277.07 96.4711L274.204 98.4436L255.704 71.5649L258.402 69.7081L262.84 76.1568C262.296 73.7435 262.24 71.5263 262.673 69.5056C263.132 67.4662 264.017 65.8936 265.326 64.7899C265.585 64.5613 265.811 64.3804 266.008 64.2451C266.233 64.0901 266.427 63.9817 266.592 63.9189L268.793 67.1176ZM296.542 83.8294C294.743 85.0673 292.823 85.8565 290.781 86.1974C288.738 86.5394 286.647 86.357 284.504 85.6518L283.98 82.3634C286.187 82.9221 288.133 83.1036 289.82 82.9057C291.51 82.6548 293.058 82.0453 294.462 81.0793C296.176 79.8993 297.283 78.5291 297.782 76.9691C298.258 75.3747 297.952 73.7857 296.863 72.2037C296.129 71.1375 295.307 70.5126 294.393 70.3302C293.485 70.0937 292.422 70.1413 291.202 70.4742C289.985 70.754 288.561 71.1509 286.929 71.666C285.056 72.1948 283.411 72.5415 281.992 72.7072C280.579 72.8179 279.308 72.6283 278.183 72.1351C277.062 71.5891 276.015 70.6116 275.045 69.2016C273.837 67.4474 273.195 65.7605 273.117 64.142C273.041 62.4705 273.421 60.9167 274.256 59.4804C275.094 57.9915 276.286 56.7148 277.83 55.6516C279.518 54.4902 281.23 53.793 282.973 53.5569C284.715 53.3207 286.397 53.5062 288.017 54.1146L288.259 57.445C286.714 56.8871 285.217 56.7261 283.766 56.9643C282.32 57.1488 280.936 57.6955 279.615 58.6048C278.716 59.2237 277.966 59.9679 277.364 60.8386C276.738 61.6747 276.395 62.6201 276.336 63.6749C276.28 64.6766 276.653 65.7626 277.458 66.9321C278.121 67.8949 278.839 68.5164 279.611 68.796C280.359 69.0411 281.257 69.0821 282.304 68.9191C283.327 68.7215 284.558 68.4319 285.994 68.0521C288.03 67.4618 289.868 67.0327 291.506 66.767C293.122 66.4659 294.574 66.5311 295.863 66.9614C297.154 67.3906 298.355 68.4147 299.467 70.0312C301.195 72.5419 301.772 75.0339 301.198 77.5073C300.622 79.9817 299.071 82.0884 296.542 83.8294Z" fill="white"/>
<path d="M59.5491 160.512C57.609 161.079 56.0179 162.052 56.3129 163.36C56.6371 164.798 59.537 163.994 60.7495 162.256C61.9621 160.517 61.3307 159.991 59.5491 160.512Z" fill="#FF1999" stroke="#FF1999" stroke-width="2"/>
<path d="M65.5907 165.223C63.4712 165.53 61.8518 166.462 62.4996 168.283C63.2116 170.284 66.3899 169.884 67.3913 167.839C68.3928 165.794 67.537 164.942 65.5907 165.223Z" fill="#FF1999" stroke="#FF1999" stroke-width="2"/>
<path d="M98.1778 192.172C84.2716 183.487 61.0395 189.56 56.7525 201.061C52.4655 212.562 59.3513 223.952 74.9034 227.433C90.4557 230.914 107.25 210.443 108.526 207.207C109.803 203.971 112.084 200.857 98.1778 192.172Z" fill="#FF1999" stroke="#FF1999" stroke-width="2"/>
<path d="M56.3749 199.932C42.1946 180.988 43.3946 173.465 56.5096 163.763" stroke="#FF1999" stroke-width="2" stroke-linecap="round"/>
<path d="M58.3303 196.871C53.4177 182.293 54.649 176.381 63.2195 169.455" stroke="#FF1999" stroke-width="2" stroke-linecap="round"/>
<path d="M68.2456 192.027C63.7198 193.802 61.9531 198.968 63.9098 204.38C66.4469 211.398 76.6222 215.028 80.8749 210.376C84.5814 206.321 83.3797 198.621 78.4602 194.366C75.0999 191.459 71.7394 190.655 68.2456 192.027Z" fill="white" stroke="#1E263F" stroke-width="2"/>
<path d="M72.4183 197.436C71.6899 200.678 71.2759 200.736 68.1612 198.688C63.531 208.526 71.4269 214.385 76.903 211.389C78.6657 210.425 79.1569 210.263 80.0067 208.462C82.2984 203.606 79.8676 199.109 72.4183 197.436Z" fill="#1E263F" stroke="#1E263F" stroke-width="2"/>
<g filter="url(#filter0_i_1247_767)">
<path d="M90.4688 219.706C89.6973 219.395 88.9631 218.937 88.2405 218.316C88.957 218.634 89.7236 218.855 90.5527 218.984C93.1508 219.385 96.311 218.862 100.38 217.674L99.0218 218.941C95.2734 220.327 92.6604 220.588 90.4688 219.706Z" fill="#1E263F" stroke="black"/>
</g>
<g clip-path="url(#clip0_1247_767)">
<path d="M221.027 293.763V205.937H234.36L265.511 263.366L296.538 205.937H309.622V293.763H295.167V234.589L269.997 280.433H260.652L235.481 234.839V293.763H221.027ZM347.522 295.009C343.119 295.009 339.173 294.178 335.684 292.517C332.278 290.773 329.579 288.448 327.585 285.541C325.674 282.634 324.719 279.354 324.719 275.7C324.719 271.215 325.882 267.685 328.208 265.111C330.534 262.453 334.314 260.543 339.547 259.38C344.78 258.217 351.8 257.636 360.605 257.636H364.966V255.02C364.966 250.867 364.053 247.878 362.225 246.05C360.398 244.223 357.324 243.31 353.004 243.31C349.598 243.31 346.11 243.849 342.537 244.929C338.966 245.926 335.352 247.504 331.697 249.663L327.211 239.074C329.371 237.579 331.905 236.292 334.812 235.212C337.802 234.05 340.918 233.178 344.157 232.596C347.48 231.932 350.595 231.6 353.503 231.6C362.391 231.6 368.995 233.676 373.315 237.828C377.635 241.898 379.794 248.251 379.794 256.889V293.763H365.216V284.046C363.803 287.451 361.561 290.15 358.487 292.144C355.413 294.054 351.758 295.009 347.522 295.009ZM350.761 284.295C354.832 284.295 358.196 282.883 360.854 280.06C363.596 277.236 364.966 273.665 364.966 269.346V266.605H360.73C352.921 266.605 347.48 267.228 344.407 268.474C341.416 269.637 339.921 271.796 339.921 274.952C339.921 277.693 340.876 279.935 342.787 281.679C344.697 283.423 347.356 284.295 350.761 284.295ZM416.786 295.009C409.559 295.009 404.201 293.057 400.712 289.154C397.307 285.167 395.604 279.354 395.604 271.713V205.937H411.179V270.966C411.179 278.44 414.335 282.177 420.648 282.177C421.562 282.177 422.477 282.136 423.39 282.053C424.303 281.97 425.175 281.804 426.006 281.555L425.757 293.888C422.767 294.635 419.776 295.009 416.786 295.009ZM434.398 219.765V204.566H451.842V219.765H434.398ZM435.395 293.763V232.845H450.97V293.763H435.395ZM502.484 293.763V205.937H515.816L546.968 263.366L577.994 205.937H591.078V293.763H576.623V234.589L551.453 280.433H542.108L516.938 234.839V293.763H502.484ZM630.099 295.009C622.871 295.009 617.513 293.057 614.024 289.154C610.619 285.167 608.916 279.354 608.916 271.713V205.937H624.491V270.966C624.491 278.44 627.647 282.177 633.961 282.177C634.874 282.177 635.789 282.136 636.703 282.053C637.616 281.97 638.488 281.804 639.319 281.555L639.07 293.888C636.08 294.635 633.089 295.009 630.099 295.009ZM647.71 219.765V204.566H665.155V219.765H647.71ZM648.707 293.763V232.845H664.283V293.763H648.707ZM680.466 293.763V232.845H695.667V242.313C697.745 238.825 700.527 236.167 704.016 234.34C707.588 232.513 711.576 231.6 715.978 231.6C730.35 231.6 737.535 239.946 737.535 256.639V293.763H721.959V257.387C721.959 252.653 721.046 249.206 719.218 247.047C717.473 244.888 714.732 243.808 710.994 243.808C706.426 243.808 702.77 245.261 700.028 248.168C697.371 250.992 696.041 254.771 696.041 259.505V293.763H680.466Z" fill="#2F855A"/>
<path d="M221 306.219H739" stroke="black" stroke-width="5"/>
</g>
<defs>
<filter id="filter0_i_1247_767" x="83.1895" y="212.402" width="19.1191" height="12.3164" filterUnits="userSpaceOnUse" color-interpolation-filters="sRGB">
<feFlood flood-opacity="0" result="BackgroundImageFix"/>
<feBlend mode="normal" in="SourceGraphic" in2="BackgroundImageFix" result="shape"/>
<feColorMatrix in="SourceAlpha" type="matrix" values="0 0 0 0 0 0 0 0 0 0 0 0 0 0 0 0 0 0 127 0" result="hardAlpha"/>
<feOffset dy="4"/>
<feGaussianBlur stdDeviation="2"/>
<feComposite in2="hardAlpha" operator="arithmetic" k2="-1" k3="1"/>
<feColorMatrix type="matrix" values="0 0 0 0 0 0 0 0 0 0 0 0 0 0 0 0 0 0 0.25 0"/>
<feBlend mode="normal" in2="shape" result="effect1_innerShadow_1247_767"/>
</filter>
<clipPath id="clip0_1247_767">
<rect width="518" height="105" fill="white" transform="translate(221 203)"/>
</clipPath>
</defs>
</svg>
