<svg width="400" height="400" viewBox="0 0 400 400" fill="none" xmlns="http://www.w3.org/2000/svg">
<path d="M329.026 307.066C329.385 305.683 329.57 304.251 329.574 302.81C329.574 290.659 316.518 280.812 300.354 280.812C284.191 280.812 271.135 290.659 271.135 302.81C271.137 304.252 271.326 305.686 271.696 307.066H329.026Z" fill="#FF1999"/>
<path d="M329.026 308.546H271.696C271.404 308.559 271.117 308.462 270.881 308.269C270.644 308.076 270.471 307.799 270.39 307.482C269.989 305.966 269.783 304.393 269.776 302.811C269.776 289.861 283.472 279.336 300.302 279.336C317.131 279.336 330.827 289.861 330.827 302.811C330.827 304.393 330.621 305.968 330.214 307.482C330.138 307.777 329.983 308.038 329.77 308.229C329.557 308.42 329.297 308.531 329.026 308.546ZM272.701 305.59H328.007C328.177 304.676 328.265 303.745 328.268 302.811C328.268 291.487 315.747 282.292 300.354 282.292C284.961 282.292 272.44 291.487 272.44 302.811C272.443 303.745 272.531 304.676 272.701 305.59Z" fill="#093F68"/>
<path d="M300.354 295.419C300.008 295.419 299.676 295.264 299.431 294.986C299.186 294.709 299.049 294.333 299.049 293.941V280.814C299.049 280.422 299.186 280.046 299.431 279.769C299.676 279.492 300.008 279.336 300.354 279.336C300.701 279.336 301.033 279.492 301.278 279.769C301.523 280.046 301.66 280.422 301.66 280.814V293.941C301.66 294.333 301.523 294.709 301.278 294.986C301.033 295.264 300.701 295.419 300.354 295.419Z" fill="#093F68"/>
<path d="M347.161 307.07H53.8389C49.6783 307.07 46.3054 310.889 46.3054 315.6V316.989C46.3054 321.7 49.6783 325.519 53.8389 325.519H347.161C351.321 325.519 354.694 321.7 354.694 316.989V315.6C354.694 310.889 351.321 307.07 347.161 307.07Z" fill="#725858"/>
<path d="M347.161 326.999H53.8391C51.4959 326.995 49.2496 325.939 47.5927 324.063C45.9358 322.187 45.0035 319.644 45 316.991V315.602C45.0035 312.948 45.9358 310.405 47.5927 308.529C49.2496 306.653 51.4959 305.598 53.8391 305.594H347.161C349.504 305.598 351.75 306.653 353.407 308.529C355.064 310.405 355.997 312.948 356 315.602V316.991C355.997 319.644 355.064 322.187 353.407 324.063C351.75 325.939 349.504 326.995 347.161 326.999ZM53.8391 308.55C52.1884 308.554 50.6063 309.298 49.4391 310.62C48.2719 311.941 47.6147 313.733 47.6112 315.602V316.991C47.6147 318.86 48.2719 320.651 49.4391 321.973C50.6063 323.294 52.1884 324.038 53.8391 324.042H347.161C348.812 324.038 350.394 323.294 351.561 321.973C352.728 320.651 353.385 318.86 353.389 316.991V315.602C353.385 313.733 352.728 311.941 351.561 310.62C350.394 309.298 348.812 308.554 347.161 308.55H53.8391Z" fill="#093F68"/>
<path d="M293.591 86.3359H107.409C100.205 86.3359 94.3657 92.9477 94.3657 101.104V253.231C94.3657 261.387 100.205 267.998 107.409 267.998H293.591C300.795 267.998 306.634 261.387 306.634 253.231V101.104C306.634 92.9477 300.795 86.3359 293.591 86.3359Z" fill="#FF1999"/>
<path d="M293.591 269.47H107.409C103.6 269.47 99.947 267.756 97.2536 264.707C94.5602 261.657 93.0471 257.521 93.0471 253.209V101.097C93.0471 96.7841 94.5602 92.6481 97.2536 89.5986C99.947 86.5491 103.6 84.8359 107.409 84.8359H293.591C297.4 84.8359 301.053 86.5491 303.747 89.5986C306.44 92.6481 307.953 96.7841 307.953 101.097V253.209C307.953 257.521 306.44 261.657 303.747 264.707C301.053 267.756 297.4 269.47 293.591 269.47ZM107.409 87.8072C104.293 87.8072 101.304 89.2089 99.1001 91.704C96.8964 94.199 95.6584 97.583 95.6584 101.112V253.209C95.6584 256.737 96.8964 260.121 99.1001 262.616C101.304 265.111 104.293 266.513 107.409 266.513H293.591C296.708 266.513 299.696 265.111 301.9 262.616C304.104 260.121 305.342 256.737 305.342 253.209V101.097C305.342 97.5682 304.104 94.1842 301.9 91.6892C299.696 89.1941 296.708 87.7924 293.591 87.7924L107.409 87.8072Z" fill="#093F68"/>
<path d="M238.128 307.07H162.872L170.732 268H230.268L238.128 307.07Z" fill="#FF1999"/>
<path d="M238.128 308.551H162.872C162.676 308.55 162.482 308.499 162.306 308.401C162.13 308.304 161.975 308.163 161.853 307.989C161.733 307.816 161.648 307.615 161.605 307.4C161.562 307.185 161.562 306.962 161.605 306.747L169.439 267.677C169.505 267.343 169.672 267.046 169.91 266.836C170.148 266.626 170.443 266.516 170.745 266.524H230.281C230.583 266.516 230.878 266.626 231.116 266.836C231.354 267.046 231.52 267.343 231.587 267.677L239.421 306.747C239.463 306.962 239.464 307.185 239.421 307.4C239.378 307.615 239.293 307.816 239.172 307.989C239.048 308.167 238.889 308.31 238.708 308.408C238.527 308.505 238.328 308.554 238.128 308.551ZM164.517 305.594H236.483L229.224 269.48H171.776L164.517 305.594Z" fill="#093F68"/>
<path d="M292.155 101.469H108.832V236.3H292.155V101.469Z" fill="white"/>
<path d="M292.168 237.78H108.832C108.486 237.78 108.154 237.624 107.909 237.347C107.664 237.07 107.526 236.694 107.526 236.302V101.47C107.526 101.078 107.664 100.702 107.909 100.425C108.154 100.148 108.486 99.9922 108.832 99.9922H292.168C292.514 99.9922 292.846 100.148 293.091 100.425C293.336 100.702 293.474 101.078 293.474 101.47V236.302C293.474 236.694 293.336 237.07 293.091 237.347C292.846 237.624 292.514 237.78 292.168 237.78ZM110.138 234.824H290.862V102.949H110.138V234.824Z" fill="#093F68"/>
<path d="M162.872 101.469H108.832V236.3H162.872V101.469Z" fill="white"/>
<path d="M162.872 237.78H108.832C108.486 237.78 108.154 237.624 107.909 237.347C107.664 237.07 107.526 236.694 107.526 236.302V101.47C107.526 101.078 107.664 100.702 107.909 100.425C108.154 100.148 108.486 99.9922 108.832 99.9922H162.872C163.218 99.9922 163.55 100.148 163.795 100.425C164.04 100.702 164.177 101.078 164.177 101.47V236.302C164.177 236.694 164.04 237.07 163.795 237.347C163.55 237.624 163.218 237.78 162.872 237.78ZM110.138 234.824H161.566V102.949H110.138V234.824Z" fill="#093F68"/>
<path d="M292.155 101.469H162.872V236.3H292.155V101.469Z" fill="#093F68"/>
<path d="M292.168 237.78H162.911C162.565 237.78 162.233 237.624 161.988 237.347C161.743 237.07 161.605 236.694 161.605 236.302V101.47C161.605 101.078 161.743 100.702 161.988 100.425C162.233 100.148 162.565 99.9922 162.911 99.9922H292.168C292.514 99.9922 292.846 100.148 293.091 100.425C293.336 100.702 293.474 101.078 293.474 101.47V236.302C293.474 236.694 293.336 237.07 293.091 237.347C292.846 237.624 292.514 237.78 292.168 237.78ZM164.217 234.824H290.862V102.949H164.217V234.824Z" fill="#093F68"/>
<path d="M146.604 120.011H124.669C124.323 120.011 123.991 119.855 123.746 119.578C123.501 119.301 123.364 118.925 123.364 118.533C123.364 118.141 123.501 117.765 123.746 117.488C123.991 117.21 124.323 117.055 124.669 117.055H146.604C146.95 117.055 147.282 117.21 147.527 117.488C147.772 117.765 147.91 118.141 147.91 118.533C147.91 118.925 147.772 119.301 147.527 119.578C147.282 119.855 146.95 120.011 146.604 120.011Z" fill="#093F68"/>
<path d="M150.364 134.558H131.876C131.53 134.558 131.198 134.402 130.953 134.125C130.708 133.848 130.571 133.472 130.571 133.08C130.571 132.688 130.708 132.312 130.953 132.034C131.198 131.757 131.53 131.602 131.876 131.602H150.364C150.71 131.602 151.042 131.757 151.287 132.034C151.532 132.312 151.67 132.688 151.67 133.08C151.67 133.472 151.532 133.848 151.287 134.125C151.042 134.402 150.71 134.558 150.364 134.558Z" fill="#093F68"/>
<path d="M152.871 149.097H137.517C137.17 149.097 136.838 148.941 136.594 148.664C136.349 148.387 136.211 148.011 136.211 147.619C136.211 147.227 136.349 146.851 136.594 146.574C136.838 146.296 137.17 146.141 137.517 146.141H152.871C153.217 146.141 153.549 146.296 153.794 146.574C154.039 146.851 154.177 147.227 154.177 147.619C154.177 148.011 154.039 148.387 153.794 148.664C153.549 148.941 153.217 149.097 152.871 149.097Z" fill="#093F68"/>
<path d="M147.857 163.652H128.429C128.083 163.652 127.751 163.496 127.506 163.219C127.261 162.942 127.124 162.566 127.124 162.174C127.124 161.782 127.261 161.406 127.506 161.128C127.751 160.851 128.083 160.695 128.429 160.695H147.857C148.203 160.695 148.535 160.851 148.78 161.128C149.025 161.406 149.163 161.782 149.163 162.174C149.163 162.566 149.025 162.942 148.78 163.219C148.535 163.496 148.203 163.652 147.857 163.652Z" fill="#093F68"/>
<path d="M142.635 178.183H124.669C124.323 178.183 123.991 178.027 123.746 177.75C123.501 177.473 123.364 177.097 123.364 176.705C123.364 176.313 123.501 175.937 123.746 175.66C123.991 175.382 124.323 175.227 124.669 175.227H142.635C142.981 175.227 143.313 175.382 143.558 175.66C143.803 175.937 143.94 176.313 143.94 176.705C143.94 177.097 143.803 177.473 143.558 177.75C143.313 178.027 142.981 178.183 142.635 178.183Z" fill="#093F68"/>
<path d="M146.604 192.738H130.727C130.381 192.738 130.049 192.582 129.804 192.305C129.559 192.028 129.422 191.652 129.422 191.26C129.422 190.867 129.559 190.491 129.804 190.214C130.049 189.937 130.381 189.781 130.727 189.781H146.604C146.95 189.781 147.282 189.937 147.527 190.214C147.772 190.491 147.909 190.867 147.909 191.26C147.909 191.652 147.772 192.028 147.527 192.305C147.282 192.582 146.95 192.738 146.604 192.738Z" fill="#093F68"/>
<path d="M141.12 207.285H124.669C124.323 207.285 123.991 207.129 123.746 206.852C123.501 206.574 123.364 206.198 123.364 205.806C123.364 205.414 123.501 205.038 123.746 204.761C123.991 204.484 124.323 204.328 124.669 204.328H141.12C141.467 204.328 141.799 204.484 142.043 204.761C142.288 205.038 142.426 205.414 142.426 205.806C142.426 206.198 142.288 206.574 142.043 206.852C141.799 207.129 141.467 207.285 141.12 207.285Z" fill="#093F68"/>
<path d="M146.604 221.832H130.727C130.381 221.832 130.049 221.676 129.804 221.399C129.559 221.121 129.422 220.745 129.422 220.353C129.422 219.961 129.559 219.585 129.804 219.308C130.049 219.031 130.381 218.875 130.727 218.875H146.604C146.95 218.875 147.282 219.031 147.527 219.308C147.772 219.585 147.909 219.961 147.909 220.353C147.909 220.745 147.772 221.121 147.527 221.399C147.282 221.676 146.95 221.832 146.604 221.832Z" fill="#093F68"/>
<path d="M201.806 120.011H179.871C179.525 120.011 179.193 119.855 178.948 119.578C178.703 119.301 178.566 118.925 178.566 118.533C178.566 118.141 178.703 117.765 178.948 117.488C179.193 117.21 179.525 117.055 179.871 117.055H201.806C202.152 117.055 202.484 117.21 202.729 117.488C202.974 117.765 203.111 118.141 203.111 118.533C203.111 118.925 202.974 119.301 202.729 119.578C202.484 119.855 202.152 120.011 201.806 120.011Z" fill="white"/>
<path d="M232.044 134.558H187.026C186.68 134.558 186.348 134.402 186.103 134.125C185.858 133.848 185.72 133.472 185.72 133.08C185.72 132.688 185.858 132.312 186.103 132.034C186.348 131.757 186.68 131.602 187.026 131.602H232.044C232.39 131.602 232.722 131.757 232.967 132.034C233.212 132.312 233.35 132.688 233.35 133.08C233.35 133.472 233.212 133.848 232.967 134.125C232.722 134.402 232.39 134.558 232.044 134.558Z" fill="#FFBC0E"/>
<path d="M220.868 149.097H187.026C186.68 149.097 186.348 148.941 186.103 148.664C185.858 148.387 185.72 148.011 185.72 147.619C185.72 147.227 185.858 146.851 186.103 146.574C186.348 146.296 186.68 146.141 187.026 146.141H220.868C221.214 146.141 221.546 146.296 221.791 146.574C222.036 146.851 222.174 147.227 222.174 147.619C222.174 148.011 222.036 148.387 221.791 148.664C221.546 148.941 221.214 149.097 220.868 149.097Z" fill="#FFBC0E"/>
<path d="M203.007 163.652H183.527C183.181 163.652 182.849 163.496 182.604 163.219C182.359 162.942 182.221 162.566 182.221 162.174C182.221 161.782 182.359 161.406 182.604 161.128C182.849 160.851 183.181 160.695 183.527 160.695H202.955C203.301 160.695 203.633 160.851 203.878 161.128C204.123 161.406 204.26 161.782 204.26 162.174C204.26 162.566 204.123 162.942 203.878 163.219C203.633 163.496 203.301 163.652 202.955 163.652H203.007Z" fill="white"/>
<path d="M210.736 178.183H188.749C188.403 178.183 188.071 178.027 187.826 177.75C187.581 177.473 187.444 177.097 187.444 176.705C187.444 176.313 187.581 175.937 187.826 175.66C188.071 175.382 188.403 175.227 188.749 175.227H210.684C211.03 175.227 211.362 175.382 211.607 175.66C211.852 175.937 211.99 176.313 211.99 176.705C211.99 177.097 211.852 177.473 211.607 177.75C211.362 178.027 211.03 178.183 210.684 178.183H210.736Z" fill="#F56132"/>
<path d="M221.913 192.738H188.045C187.698 192.738 187.366 192.582 187.121 192.305C186.877 192.028 186.739 191.652 186.739 191.26C186.739 190.867 186.877 190.491 187.121 190.214C187.366 189.937 187.698 189.781 188.045 189.781H221.913C222.259 189.781 222.591 189.937 222.836 190.214C223.081 190.491 223.218 190.867 223.218 191.26C223.218 191.652 223.081 192.028 222.836 192.305C222.591 192.582 222.259 192.738 221.913 192.738Z" fill="white"/>
<path d="M196.27 207.285H179.819C179.473 207.285 179.141 207.129 178.896 206.852C178.651 206.574 178.513 206.198 178.513 205.806C178.513 205.414 178.651 205.038 178.896 204.761C179.141 204.484 179.473 204.328 179.819 204.328H196.27C196.616 204.328 196.948 204.484 197.193 204.761C197.438 205.038 197.576 205.414 197.576 205.806C197.576 206.198 197.438 206.574 197.193 206.852C196.948 207.129 196.616 207.285 196.27 207.285Z" fill="white"/>
<path d="M221.912 221.832H185.877C185.531 221.832 185.199 221.676 184.954 221.399C184.709 221.121 184.571 220.745 184.571 220.353C184.571 219.961 184.709 219.585 184.954 219.308C185.199 219.031 185.531 218.875 185.877 218.875H221.912C222.258 218.875 222.591 219.031 222.835 219.308C223.08 219.585 223.218 219.961 223.218 220.353C223.218 220.745 223.08 221.121 222.835 221.399C222.591 221.676 222.258 221.832 221.912 221.832Z" fill="#70CC40"/>
<path d="M256.433 221.832H232.775C232.429 221.832 232.097 221.676 231.852 221.399C231.607 221.121 231.469 220.745 231.469 220.353C231.469 219.961 231.607 219.585 231.852 219.308C232.097 219.031 232.429 218.875 232.775 218.875H256.433C256.779 218.875 257.111 219.031 257.356 219.308C257.601 219.585 257.739 219.961 257.739 220.353C257.739 220.745 257.601 221.121 257.356 221.399C257.111 221.676 256.779 221.832 256.433 221.832Z" fill="#FFBC0E"/>
<path d="M248.808 149.097H232.096C231.75 149.097 231.418 148.941 231.173 148.664C230.928 148.387 230.791 148.011 230.791 147.619C230.791 147.227 230.928 146.851 231.173 146.574C231.418 146.296 231.75 146.141 232.096 146.141H248.808C249.154 146.141 249.487 146.296 249.731 146.574C249.976 146.851 250.114 147.227 250.114 147.619C250.114 148.011 249.976 148.387 249.731 148.664C249.487 148.941 249.154 149.097 248.808 149.097Z" fill="white"/>
<path d="M272.584 134.558H240.4C240.054 134.558 239.721 134.402 239.477 134.125C239.232 133.848 239.094 133.472 239.094 133.08C239.094 132.688 239.232 132.312 239.477 132.034C239.721 131.757 240.054 131.602 240.4 131.602H272.584C272.93 131.602 273.262 131.757 273.507 132.034C273.752 132.312 273.889 132.688 273.889 133.08C273.889 133.472 273.752 133.848 273.507 134.125C273.262 134.402 272.93 134.558 272.584 134.558Z" fill="#FF1999"/>
<path d="M267.243 149.097H257.843C257.496 149.097 257.164 148.941 256.92 148.664C256.675 148.387 256.537 148.011 256.537 147.619C256.537 147.227 256.675 146.851 256.92 146.574C257.164 146.296 257.496 146.141 257.843 146.141H267.243C267.59 146.141 267.922 146.296 268.166 146.574C268.411 146.851 268.549 147.227 268.549 147.619C268.549 148.011 268.411 148.387 268.166 148.664C267.922 148.941 267.59 149.097 267.243 149.097Z" fill="#F56132"/>
<path d="M226.613 178.183H217.212C216.866 178.183 216.534 178.027 216.289 177.75C216.044 177.473 215.907 177.097 215.907 176.705C215.907 176.313 216.044 175.937 216.289 175.66C216.534 175.382 216.866 175.227 217.212 175.227H226.613C226.959 175.227 227.291 175.382 227.536 175.66C227.781 175.937 227.918 176.313 227.918 176.705C227.918 177.097 227.781 177.473 227.536 177.75C227.291 178.027 226.959 178.183 226.613 178.183Z" fill="#F56132"/>
<path d="M272.584 178.183H234.342C233.995 178.183 233.663 178.027 233.419 177.75C233.174 177.473 233.036 177.097 233.036 176.705C233.036 176.313 233.174 175.937 233.419 175.66C233.663 175.382 233.995 175.227 234.342 175.227H272.584C272.93 175.227 273.262 175.382 273.507 175.66C273.752 175.937 273.889 176.313 273.889 176.705C273.889 177.097 273.752 177.473 273.507 177.75C273.262 178.027 272.93 178.183 272.584 178.183Z" fill="#FFBC0E"/>
<path d="M240.4 192.738H232.044C231.698 192.738 231.366 192.582 231.121 192.305C230.876 192.028 230.738 191.652 230.738 191.26C230.738 190.867 230.876 190.491 231.121 190.214C231.366 189.937 231.698 189.781 232.044 189.781H240.4C240.746 189.781 241.078 189.937 241.323 190.214C241.568 190.491 241.706 190.867 241.706 191.26C241.706 191.652 241.568 192.028 241.323 192.305C241.078 192.582 240.746 192.738 240.4 192.738Z" fill="#FF1999"/>
<path d="M272.584 221.832H267.244C266.897 221.832 266.565 221.676 266.32 221.399C266.076 221.121 265.938 220.745 265.938 220.353C265.938 219.961 266.076 219.585 266.32 219.308C266.565 219.031 266.897 218.875 267.244 218.875H272.584C272.93 218.875 273.262 219.031 273.507 219.308C273.752 219.585 273.889 219.961 273.889 220.353C273.889 220.745 273.752 221.121 273.507 221.399C273.262 221.676 272.93 221.832 272.584 221.832Z" fill="white"/>
<path d="M342.787 74.4766H262.791C259.648 74.4766 257.099 77.3622 257.099 80.9217V149.808C257.099 153.368 259.648 156.254 262.791 156.254H342.787C345.931 156.254 348.48 153.368 348.48 149.808V80.9217C348.48 77.3622 345.931 74.4766 342.787 74.4766Z" fill="white"/>
<path d="M342.813 157.733H262.791C260.936 157.729 259.158 156.894 257.847 155.408C256.535 153.923 255.797 151.91 255.793 149.81V80.9234C255.797 78.8232 256.535 76.8101 257.847 75.325C259.158 73.84 260.936 73.0039 262.791 73H342.813C344.668 73.0039 346.446 73.84 347.758 75.325C349.069 76.8101 349.808 78.8232 349.811 80.9234V149.81C349.808 151.91 349.069 153.923 347.758 155.408C346.446 156.894 344.668 157.729 342.813 157.733ZM262.791 75.9565C261.629 75.9604 260.515 76.485 259.693 77.4156C258.871 78.3462 258.408 79.6073 258.404 80.9234V149.81C258.408 151.126 258.871 152.387 259.693 153.318C260.515 154.249 261.629 154.773 262.791 154.777H342.813C343.976 154.773 345.089 154.249 345.911 153.318C346.733 152.387 347.197 151.126 347.2 149.81V80.9234C347.197 79.6073 346.733 78.3462 345.911 77.4156C345.089 76.485 343.976 75.9604 342.813 75.9565H262.791Z" fill="#093F68"/>
<path d="M348.479 94.6362H257.086C256.739 94.6362 256.407 94.4804 256.162 94.2032C255.918 93.926 255.78 93.55 255.78 93.1579C255.78 92.7659 255.918 92.3899 256.162 92.1127C256.407 91.8354 256.739 91.6797 257.086 91.6797H348.479C348.826 91.6797 349.158 91.8354 349.403 92.1127C349.648 92.3899 349.785 92.7659 349.785 93.1579C349.785 93.55 349.648 93.926 349.403 94.2032C349.158 94.4804 348.826 94.6362 348.479 94.6362Z" fill="#093F68"/>
<path d="M265.846 86.5363C267.296 86.5363 268.471 85.206 268.471 83.565C268.471 81.924 267.296 80.5938 265.846 80.5938C264.397 80.5938 263.222 81.924 263.222 83.565C263.222 85.206 264.397 86.5363 265.846 86.5363Z" fill="#FF1999"/>
<path d="M274.098 86.5363C275.547 86.5363 276.722 85.206 276.722 83.565C276.722 81.924 275.547 80.5938 274.098 80.5938C272.649 80.5938 271.474 81.924 271.474 83.565C271.474 85.206 272.649 86.5363 274.098 86.5363Z" fill="#093F68"/>
<path d="M282.336 86.5363C283.786 86.5363 284.961 85.206 284.961 83.565C284.961 81.924 283.786 80.5938 282.336 80.5938C280.887 80.5938 279.712 81.924 279.712 83.565C279.712 85.206 280.887 86.5363 282.336 86.5363Z" fill="#093F68"/>
<path d="M291.541 136.716C291.239 136.721 290.946 136.6 290.718 136.376L278.419 124.845C278.271 124.707 278.152 124.533 278.071 124.336C277.989 124.139 277.947 123.924 277.947 123.707C277.947 123.49 277.989 123.275 278.071 123.078C278.152 122.881 278.271 122.707 278.419 122.569L290.718 111.024C290.987 110.803 291.32 110.706 291.65 110.754C291.98 110.802 292.281 110.99 292.492 111.28C292.703 111.57 292.809 111.941 292.788 112.316C292.766 112.691 292.619 113.043 292.376 113.3L281.305 123.648L292.376 133.996C292.509 134.12 292.618 134.272 292.698 134.444C292.778 134.616 292.828 134.804 292.843 134.998C292.859 135.192 292.841 135.387 292.79 135.572C292.739 135.758 292.656 135.931 292.546 136.08C292.433 136.266 292.283 136.42 292.109 136.53C291.935 136.64 291.74 136.704 291.541 136.716Z" fill="#FF1999"/>
<path d="M314.09 136.719C313.898 136.72 313.708 136.672 313.535 136.58C313.361 136.488 313.207 136.354 313.084 136.187C312.974 136.038 312.892 135.865 312.841 135.68C312.79 135.494 312.771 135.299 312.787 135.105C312.803 134.912 312.852 134.723 312.932 134.551C313.013 134.379 313.122 134.227 313.254 134.103L324.326 123.755L313.254 113.407C313.122 113.283 313.013 113.131 312.933 112.959C312.853 112.787 312.804 112.599 312.788 112.405C312.772 112.211 312.79 112.016 312.841 111.831C312.892 111.645 312.975 111.473 313.084 111.323C313.194 111.174 313.329 111.05 313.481 110.959C313.633 110.869 313.799 110.813 313.97 110.795C314.141 110.777 314.313 110.798 314.477 110.855C314.641 110.913 314.793 111.007 314.925 111.131L327.146 122.573C327.294 122.711 327.413 122.885 327.494 123.082C327.576 123.279 327.619 123.493 327.619 123.711C327.619 123.928 327.576 124.143 327.494 124.34C327.413 124.536 327.294 124.71 327.146 124.849L314.873 136.439C314.645 136.625 314.371 136.724 314.09 136.719Z" fill="#FF1999"/>
<path d="M296.189 143.586C296.01 143.583 295.833 143.543 295.667 143.468C295.51 143.389 295.368 143.277 295.25 143.136C295.132 142.995 295.039 142.83 294.977 142.649C294.915 142.467 294.885 142.274 294.89 142.08C294.894 141.886 294.932 141.694 295.001 141.517L309.363 104.693C309.432 104.516 309.532 104.355 309.656 104.221C309.78 104.087 309.927 103.982 310.087 103.912C310.247 103.842 310.418 103.808 310.589 103.813C310.761 103.818 310.93 103.861 311.087 103.939C311.243 104.018 311.385 104.131 311.504 104.271C311.622 104.412 311.715 104.578 311.777 104.759C311.839 104.94 311.868 105.133 311.864 105.327C311.86 105.522 311.822 105.713 311.752 105.891L297.391 142.714C297.287 142.976 297.118 143.197 296.904 143.352C296.691 143.507 296.443 143.588 296.189 143.586Z" fill="#FF1999"/>
<path d="M140.637 244.672H79.8475C77.0857 244.672 74.8469 247.207 74.8469 250.334V281.865C74.8469 284.992 77.0857 287.526 79.8475 287.526H140.637C143.399 287.526 145.638 284.992 145.638 281.865V250.334C145.638 247.207 143.399 244.672 140.637 244.672Z" fill="white"/>
<path d="M140.637 289.029H79.8472C78.1757 289.025 76.5737 288.272 75.3919 286.933C74.21 285.595 73.5445 283.781 73.541 281.889V250.343C73.5445 248.451 74.21 246.637 75.3919 245.299C76.5737 243.961 78.1757 243.207 79.8472 243.203H140.637C141.465 243.203 142.285 243.388 143.05 243.747C143.816 244.105 144.511 244.631 145.096 245.294C145.682 245.957 146.146 246.744 146.463 247.611C146.78 248.477 146.943 249.405 146.943 250.343V281.889C146.943 283.783 146.279 285.599 145.096 286.938C143.914 288.277 142.31 289.029 140.637 289.029ZM79.8472 246.16C78.8672 246.16 77.9274 246.6 77.2345 247.385C76.5416 248.169 76.1523 249.234 76.1523 250.343V281.889C76.1523 282.998 76.5416 284.063 77.2345 284.847C77.9274 285.632 78.8672 286.072 79.8472 286.072H140.637C141.122 286.072 141.603 285.964 142.051 285.754C142.499 285.544 142.907 285.236 143.25 284.847C143.593 284.459 143.865 283.997 144.051 283.49C144.236 282.982 144.332 282.438 144.332 281.889V250.343C144.332 249.794 144.236 249.25 144.051 248.742C143.865 248.235 143.593 247.773 143.25 247.385C142.907 246.996 142.499 246.688 142.051 246.478C141.603 246.268 141.122 246.16 140.637 246.16H79.8472Z" fill="#093F68"/>
<path d="M89.3262 259.602H91.2977V264.598H96.5202V259.602H98.4917V272.167H96.5202V266.623H91.2977V272.167H89.3262V259.602Z" fill="#FF1999"/>
<path d="M103.205 261.627H99.7971V259.602H108.571V261.627H105.189V272.167H103.218L103.205 261.627Z" fill="#FF1999"/>
<path d="M109.968 259.602H113.023L115.987 268.397L118.977 259.602H121.953V272.167H120.073V261.73L116.705 272.167H115.242L111.887 261.73V272.167H110.007L109.968 259.602Z" fill="#FF1999"/>
<path d="M124.434 259.602H126.406V270.142H131.119V272.167H124.434V259.602Z" fill="#FF1999"/>
</svg>
