<svg width="400" height="400" viewBox="0 0 400 400" fill="none" xmlns="http://www.w3.org/2000/svg">
<g clip-path="url(#clip0_1138_723)">
<path d="M360.613 198.303C360.859 195.151 360.797 191.983 360.43 188.843C358.951 177 353.249 166.088 344.373 158.109C335.238 150.08 328.813 152.516 317.587 150.517C313.05 149.721 308.378 150.309 304.179 152.202C304.768 134.866 297.957 120.737 284.265 110.089C256.2 88.3178 223.263 97.3614 201.349 122.117C191.281 103.796 175.883 90.3579 153.523 94.1743C134.299 97.4528 118.241 114.383 115.968 133.759C107.848 130.714 98.4386 132.135 90.5927 135.942C82.7467 139.748 76.1188 145.665 69.907 151.796C62.4163 159.175 55.1692 167.153 51.0077 176.805C48.186 183.352 48.1758 190.051 48.0946 197.034C48.0946 198.192 50.3682 215.731 52.3982 214.026C21.6336 239.857 51.5253 287.562 83.579 294.667C97.789 297.824 113.654 294.393 124.453 284.598C137.619 293.482 152.371 299.751 167.905 303.061C189.372 307.639 212.393 309.395 233.555 302.432C238.935 300.666 243.645 297.956 248.78 295.632C254.992 292.81 255.987 295.286 262.452 297.367C273.313 300.859 285.341 299.732 296.11 296.454C307.62 292.952 319.79 285.055 320.632 273.048C332.914 273.89 345.814 268.501 352.554 258.208C359.294 247.916 358.644 232.894 349.925 224.216C351.519 225.8 358.938 209.357 359.273 207.824C359.952 204.687 360.4 201.505 360.613 198.303Z" fill="white"/>
<path d="M202.497 307.536C190.819 307.398 179.188 306.037 167.794 303.476C152.333 300.157 137.641 293.941 124.494 285.155C113.928 294.554 98.2459 298.35 83.4675 295.082C64.1825 290.809 45.2527 271.565 40.2792 251.265C36.7166 236.811 40.6548 223.616 51.3529 214.258C49.1706 211.791 47.5771 197.632 47.5872 197.003V196.515C47.6684 189.593 47.7496 183.067 50.5409 176.571C54.7836 166.776 62.1829 158.656 69.5518 151.429C75.6621 145.461 82.3916 139.3 90.3593 135.453C98.9361 131.302 108.071 130.378 115.552 133.027C118.109 113.742 134.288 96.9236 153.442 93.6452C172.889 90.3261 189.484 99.857 201.451 121.223C212.555 108.921 226.369 100.699 240.407 98.1518C255.957 95.3301 271.182 99.319 284.569 109.682C298.292 120.329 305.062 134.367 304.707 151.419C308.813 149.739 313.309 149.253 317.679 150.018C320.504 150.508 323.353 150.847 326.215 151.033C332.843 151.531 338.07 151.916 344.708 157.783C353.671 165.849 359.435 176.869 360.948 188.832C361.319 192.006 361.38 195.208 361.131 198.393H360.623H361.131C360.896 201.605 360.435 204.797 359.75 207.944C359.487 209.142 353.721 222.408 350.91 224.54C358.928 233.218 359.882 247.885 352.94 258.491C346.444 268.418 333.98 274.305 321.059 273.595C320.247 281.572 313.335 291.743 296.211 296.94C287.594 299.558 274.704 301.852 262.26 297.853C260.796 297.373 259.359 296.814 257.956 296.178C254.85 294.808 253.287 294.148 248.953 296.097C247.36 296.818 245.776 297.599 244.254 298.35C240.848 300.115 237.324 301.641 233.708 302.918C223.617 306.111 213.08 307.67 202.497 307.536ZM124.453 284.049C124.553 284.052 124.651 284.08 124.737 284.13C137.855 292.965 152.542 299.208 168.007 302.522C193.95 308.054 215.346 307.851 233.403 301.913C236.962 300.65 240.428 299.141 243.777 297.396C245.309 296.645 246.893 295.864 248.506 295.133C253.247 292.971 255.165 293.813 258.342 295.204C259.708 295.826 261.107 296.371 262.534 296.838C274.714 300.766 287.401 298.513 295.887 295.925C312.878 290.758 319.516 280.7 320.064 272.975C320.068 272.909 320.085 272.843 320.114 272.783C320.143 272.723 320.184 272.669 320.234 272.625C320.284 272.581 320.342 272.547 320.405 272.525C320.468 272.503 320.535 272.494 320.602 272.498C333.33 273.371 345.683 267.636 352.067 257.882C358.918 247.438 357.792 232.781 349.509 224.529C349.462 224.482 349.424 224.426 349.398 224.364C349.372 224.302 349.359 224.236 349.359 224.169C349.359 224.102 349.372 224.036 349.398 223.974C349.424 223.912 349.462 223.856 349.509 223.809C349.594 223.725 349.706 223.675 349.825 223.665C349.943 223.656 350.062 223.689 350.159 223.758C351.823 223.21 358.279 209.731 358.715 207.68C359.398 204.582 359.853 201.437 360.075 198.271C360.324 195.15 360.263 192.012 359.893 188.903C358.432 177.171 352.788 166.359 343.998 158.453C337.623 152.82 332.548 152.434 326.113 151.957C323.215 151.772 320.328 151.433 317.466 150.942C313.031 150.167 308.465 150.744 304.362 152.596C304.283 152.633 304.195 152.649 304.108 152.642C304.02 152.635 303.936 152.606 303.864 152.557C303.791 152.507 303.733 152.441 303.694 152.362C303.655 152.284 303.637 152.197 303.641 152.109C304.22 135.047 297.551 121.02 283.92 110.413C270.796 100.263 255.794 96.3045 240.559 99.0754C226.572 101.694 212.768 109.936 201.735 122.431C201.679 122.489 201.611 122.535 201.536 122.565C201.461 122.595 201.38 122.608 201.299 122.603C201.217 122.593 201.138 122.564 201.069 122.518C201.001 122.472 200.944 122.411 200.903 122.339C186.043 95.3199 166.982 92.3663 153.614 94.65C134.674 97.8777 118.708 114.706 116.475 133.788C116.467 133.865 116.441 133.938 116.399 134.002C116.358 134.067 116.302 134.121 116.236 134.16C116.17 134.199 116.096 134.223 116.02 134.229C115.943 134.235 115.866 134.223 115.795 134.194C108.467 131.434 99.3624 132.266 90.8059 136.326C82.9904 140.153 76.3016 146.192 70.2623 152.16C62.9645 159.346 55.6463 167.385 51.4747 177.007C48.7646 183.31 48.6834 189.745 48.6022 196.556V197.043C48.6022 198.85 50.7134 212.654 52.104 213.608C52.207 213.534 52.3339 213.502 52.4597 213.517C52.5856 213.532 52.7013 213.593 52.784 213.689C52.8699 213.794 52.9117 213.927 52.9003 214.062C52.8889 214.197 52.8253 214.321 52.7231 214.41C41.7916 223.616 37.7316 236.608 41.2638 251.021C46.1561 270.976 64.7915 289.895 83.6908 294.087C98.2865 297.325 113.775 293.509 124.108 284.14C124.208 284.069 124.331 284.037 124.453 284.049Z" fill="#D1D3D4"/>
<path d="M153.36 247.978C142.997 247.978 142.936 246.466 141.008 240.873C137.536 230.784 130.98 223.039 124.138 215.092C98.7634 185.657 107.432 139.606 150.61 131.862C179.882 126.574 204.354 142.063 209.368 170.554C211.855 184.693 208.708 198.111 200.791 209.997C195.402 218.117 190.956 226.308 189.403 236.042C188.388 242.314 188.865 246.019 177.852 246.019C173.863 246.019 169.885 246.638 165.906 246.973C161.724 247.207 157.552 247.978 153.36 247.978Z" fill="white"/>
<path d="M153.36 248.435C143.444 248.435 142.622 247.146 140.754 241.655L140.531 240.975C137.019 230.764 130.269 222.938 123.753 215.366C110.426 199.898 106.011 179.364 112.243 161.775C118.008 145.535 131.599 134.664 150.518 131.243C165.469 128.554 179.689 131.243 190.55 138.805C200.812 145.91 207.5 156.872 209.835 170.351C212.277 184.244 209.172 198.541 201.187 210.17C196.508 217.183 191.514 225.73 189.87 236.012C189.789 236.529 189.718 237.027 189.647 237.524C188.865 242.873 188.357 246.415 177.822 246.415C175.107 246.465 172.396 246.658 169.702 246.994C168.433 247.126 167.174 247.258 165.906 247.369C164.485 247.491 163.074 247.643 161.653 247.806C158.903 248.173 156.134 248.384 153.36 248.435ZM161.714 131.253C158.02 131.26 154.334 131.6 150.701 132.268C132.157 135.618 118.84 146.225 113.146 162.14C107.056 179.395 111.38 199.532 124.473 214.727C131.051 222.37 137.861 230.267 141.434 240.67L141.667 241.35C143.342 246.273 143.748 247.44 153.31 247.44C156.059 247.387 158.804 247.18 161.531 246.821C162.952 246.659 164.383 246.497 165.814 246.375C167.073 246.273 168.332 246.141 169.59 245.999C172.315 245.663 175.056 245.469 177.801 245.421C187.454 245.421 187.84 242.741 188.621 237.392C188.692 236.905 188.763 236.377 188.855 235.869C190.519 225.405 195.584 216.727 200.324 209.622C208.394 197.513 211.246 184.368 208.82 170.544C206.496 157.349 199.959 146.661 189.921 139.658C181.602 134.03 171.755 131.097 161.714 131.253Z" fill="#231F20"/>
<path d="M148.484 260.527L185.517 257.47C187.059 257.342 188.206 255.989 188.078 254.447L187.54 247.923C187.412 246.381 186.059 245.234 184.517 245.361L147.484 248.419C145.942 248.546 144.795 249.9 144.923 251.441L145.461 257.966C145.589 259.508 146.942 260.655 148.484 260.527Z" fill="white"/>
<path d="M148.245 261.056C147.413 261.056 146.611 260.743 146 260.179C145.389 259.614 145.012 258.84 144.946 258.011L144.408 251.495C144.373 251.06 144.425 250.623 144.559 250.208C144.693 249.794 144.908 249.409 145.19 249.078C145.473 248.746 145.819 248.473 146.207 248.275C146.595 248.076 147.018 247.957 147.453 247.922L184.48 244.877C185.357 244.81 186.225 245.092 186.895 245.663C187.564 246.233 187.98 247.045 188.053 247.922L188.591 254.438C188.626 254.873 188.574 255.31 188.44 255.725C188.306 256.139 188.091 256.524 187.809 256.855C187.526 257.187 187.18 257.46 186.792 257.658C186.404 257.857 185.98 257.976 185.546 258.011L148.519 261.056H148.245ZM184.734 245.872H184.551L147.524 248.917C147.223 248.941 146.93 249.024 146.662 249.162C146.394 249.3 146.155 249.489 145.96 249.719C145.765 249.949 145.617 250.215 145.525 250.503C145.433 250.79 145.398 251.093 145.423 251.393L145.961 257.91C146.013 258.516 146.302 259.077 146.766 259.471C147.23 259.864 147.831 260.058 148.438 260.011L185.465 256.966C185.765 256.941 186.058 256.858 186.327 256.72C186.595 256.583 186.834 256.393 187.029 256.163C187.224 255.933 187.372 255.667 187.464 255.38C187.556 255.092 187.591 254.79 187.566 254.489L187.018 247.973C186.969 247.4 186.708 246.866 186.285 246.477C185.862 246.088 185.309 245.872 184.734 245.872Z" fill="#231F20"/>
<path d="M149.49 272.629L186.524 269.571C188.065 269.444 189.212 268.091 189.085 266.549L188.546 260.024C188.419 258.482 187.066 257.336 185.524 257.463L148.491 260.521C146.949 260.648 145.802 262.001 145.929 263.543L146.468 270.068C146.595 271.61 147.948 272.756 149.49 272.629Z" fill="white"/>
<path d="M149.25 273.166C148.418 273.166 147.616 272.853 147.005 272.289C146.393 271.724 146.017 270.951 145.951 270.121L145.413 263.595C145.378 263.161 145.43 262.724 145.564 262.31C145.698 261.896 145.913 261.512 146.196 261.181C146.479 260.85 146.824 260.579 147.212 260.381C147.6 260.184 148.024 260.065 148.458 260.032L185.485 256.987C185.92 256.952 186.357 257.004 186.771 257.138C187.186 257.272 187.57 257.487 187.902 257.77C188.234 258.052 188.507 258.398 188.705 258.786C188.903 259.174 189.023 259.598 189.058 260.032L189.596 266.559C189.631 266.993 189.579 267.43 189.445 267.845C189.311 268.26 189.096 268.644 188.813 268.976C188.531 269.307 188.185 269.58 187.797 269.779C187.409 269.977 186.985 270.097 186.551 270.131L149.524 273.176H149.25V273.166ZM185.739 257.982H185.546L148.519 261.027C147.913 261.078 147.353 261.368 146.961 261.833C146.569 262.297 146.377 262.898 146.428 263.503L146.966 270.03C147.017 270.635 147.307 271.196 147.772 271.588C148.236 271.98 148.837 272.171 149.442 272.121L186.47 269.076C186.77 269.051 187.062 268.968 187.33 268.83C187.598 268.692 187.836 268.503 188.031 268.273C188.225 268.042 188.372 267.776 188.463 267.489C188.554 267.202 188.587 266.899 188.561 266.599L188.023 260.073C187.97 259.503 187.706 258.973 187.284 258.586C186.862 258.2 186.311 257.984 185.739 257.982Z" fill="#231F20"/>
<path d="M151.472 272.488C151.848 277.056 159.592 280.141 168.677 279.38C177.761 278.619 184.917 274.305 184.521 269.758L151.472 272.488Z" fill="#231F20"/>
<path d="M165.885 280.009C157.664 280.009 151.33 276.964 150.965 272.528C150.956 272.394 151 272.262 151.087 272.159C151.175 272.057 151.298 271.993 151.432 271.98L184.48 269.29C184.614 269.282 184.746 269.326 184.849 269.413C184.951 269.5 185.015 269.623 185.028 269.757C185.434 274.67 178.268 279.146 168.717 279.907C167.756 279.975 166.812 280.009 165.885 280.009ZM152.051 272.904C152.447 274.71 154.172 276.294 156.984 277.42C160.712 278.763 164.695 279.248 168.636 278.841C177.111 278.141 183.81 274.355 184.023 270.265L152.051 272.904Z" fill="#231F20"/>
<path d="M155.289 241.808C155.221 241.804 155.155 241.787 155.094 241.757C155.034 241.727 154.979 241.686 154.935 241.635C154.89 241.583 154.857 241.524 154.836 241.46C154.814 241.395 154.806 241.327 154.812 241.26C155.627 230.723 155.126 220.126 153.32 209.714C150.596 209.106 147.954 208.172 145.454 206.933C141.071 204.929 137.363 201.7 134.776 197.635C132.147 193.19 131.731 187.841 133.598 183.679C133.862 182.964 134.3 182.326 134.873 181.823C135.445 181.319 136.134 180.967 136.877 180.796C140.013 180.167 143.393 183.029 144.347 183.923C150.315 189.465 152.224 198.995 153.756 206.648L153.949 207.663L154.193 208.912C159.175 209.937 164.314 209.937 169.296 208.912C169.41 206.38 169.681 203.858 170.108 201.36C171.498 193.24 173.61 187.201 176.401 183.476C177.293 182.452 178.387 181.621 179.613 181.037C180.84 180.452 182.173 180.125 183.531 180.077C184.888 180.028 186.242 180.259 187.507 180.755C188.772 181.25 189.922 182 190.885 182.958C191.991 184.375 192.721 186.049 193.007 187.823C193.293 189.598 193.125 191.416 192.519 193.108C191.3 196.408 189.214 199.319 186.48 201.533C181.842 205.588 176.256 208.409 170.24 209.734C169.874 219.508 171.529 229.354 173.143 238.946L173.346 240.143C173.367 240.276 173.335 240.412 173.257 240.522C173.179 240.632 173.062 240.707 172.93 240.732C172.798 240.753 172.663 240.721 172.555 240.643C172.447 240.565 172.373 240.447 172.351 240.316L172.148 239.118C170.534 229.557 168.89 219.732 169.215 209.957C164.309 210.943 159.257 210.961 154.345 210.008C156.111 220.374 156.595 230.918 155.786 241.402C155.761 241.516 155.698 241.618 155.608 241.691C155.518 241.765 155.405 241.806 155.289 241.808ZM137.75 181.72C137.511 181.723 137.273 181.747 137.039 181.791C136.457 181.935 135.92 182.221 135.476 182.623C135.031 183.025 134.693 183.531 134.492 184.095C133.637 186.2 133.294 188.478 133.49 190.742C133.686 193.005 134.415 195.19 135.618 197.118C138.112 201.012 141.675 204.105 145.88 206.029C148.178 207.16 150.595 208.032 153.086 208.628C153.036 208.364 152.975 208.09 152.924 207.826L152.731 206.811C151.219 199.3 149.351 189.962 143.596 184.633C142.033 183.182 139.739 181.72 137.75 181.72ZM183.892 180.989H183.516C182.305 180.992 181.11 181.262 180.015 181.78C178.921 182.297 177.953 183.05 177.182 183.984C174.493 187.587 172.442 193.453 171.092 201.431C170.696 203.803 170.435 206.196 170.311 208.597C176.045 207.275 181.365 204.559 185.8 200.69C188.395 198.59 190.379 195.831 191.545 192.702C192.089 191.181 192.243 189.548 191.993 187.953C191.743 186.357 191.097 184.849 190.114 183.567C189.318 182.722 188.352 182.055 187.279 181.61C186.207 181.166 185.052 180.954 183.892 180.989Z" fill="#D1D3D4"/>
<path d="M197.756 244.182C198.172 242.569 198.568 240.965 198.995 239.361C199.218 238.529 199.482 237.707 199.746 236.885C199.879 236.368 200.188 235.915 200.62 235.602C201.051 235.289 201.579 235.136 202.111 235.169C203.39 235.169 204.658 235.372 205.937 235.474C206.609 235.571 207.289 235.605 207.967 235.575C208.474 235.551 208.958 235.354 209.338 235.017C210.677 233.515 211.956 231.972 213.215 230.389C213.423 230.098 213.556 229.761 213.602 229.407C213.648 229.053 213.606 228.692 213.479 228.359C213.042 226.846 212.545 225.314 212.108 223.852C211.923 223.27 211.82 222.666 211.804 222.055C211.803 221.831 211.847 221.609 211.932 221.402C212.018 221.195 212.143 221.006 212.301 220.848C214.517 219.137 216.977 217.768 219.599 216.788C219.985 216.629 220.412 216.603 220.814 216.714C221.216 216.824 221.571 217.064 221.822 217.397C222.898 218.645 224.014 219.863 225.05 221.142C225.386 221.634 225.86 222.017 226.412 222.243C226.964 222.468 227.571 222.527 228.156 222.411C229.81 222.157 231.495 221.995 233.16 221.781C233.465 221.742 233.757 221.629 234.01 221.452C234.263 221.276 234.469 221.04 234.611 220.766C235.139 219.833 235.626 218.879 236.144 217.945C236.661 217.011 237.017 216.331 237.494 215.539C237.691 215.133 238.025 214.809 238.436 214.623C238.848 214.438 239.312 214.403 239.747 214.524C242.132 215.143 244.517 215.783 246.852 216.483C247.301 216.619 247.69 216.907 247.951 217.298C248.212 217.688 248.329 218.157 248.283 218.625C248.283 219.924 248.07 221.213 247.968 222.512C247.918 223.121 247.877 223.73 247.877 224.349C247.866 224.738 247.946 225.123 248.11 225.476C248.274 225.828 248.517 226.137 248.821 226.379C250.14 227.394 251.47 228.48 252.739 229.587C253.108 229.924 253.562 230.153 254.053 230.25C254.543 230.347 255.051 230.307 255.52 230.135C257.154 229.648 258.768 229.12 260.402 228.622C260.931 228.397 261.527 228.385 262.064 228.589C262.602 228.794 263.039 229.199 263.285 229.719C264.391 231.627 265.457 233.545 266.492 235.494C266.684 235.752 266.821 236.046 266.895 236.358C266.969 236.67 266.979 236.994 266.924 237.31C266.869 237.627 266.75 237.928 266.574 238.197C266.399 238.466 266.171 238.696 265.903 238.874C265.102 239.615 264.229 240.275 263.407 240.995C262.818 241.503 262.239 242.01 261.691 242.599C261.456 242.829 261.276 243.109 261.165 243.418C261.054 243.728 261.015 244.059 261.052 244.385C261.234 246.111 261.397 247.847 261.62 249.582C261.667 250.054 261.837 250.504 262.113 250.889C262.389 251.274 262.762 251.579 263.193 251.775C264.208 252.272 265.223 252.739 266.178 253.246C266.799 253.549 267.403 253.888 267.984 254.261C268.416 254.48 268.755 254.845 268.942 255.292C269.128 255.739 269.148 256.237 268.999 256.697C268.424 258.87 267.798 261.038 267.121 263.204C267.009 263.529 266.863 263.842 266.685 264.137C266.523 264.489 266.255 264.782 265.918 264.973C265.581 265.164 265.192 265.245 264.807 265.203L260.23 264.817C260.118 264.817 259.996 264.817 259.884 264.817C259.242 264.699 258.578 264.777 257.981 265.041C257.383 265.306 256.879 265.744 256.535 266.299C255.764 267.375 254.87 268.329 254.028 269.344C253.636 269.795 253.376 270.345 253.274 270.933C253.172 271.522 253.232 272.127 253.449 272.684C253.937 274.115 254.414 275.546 254.83 276.997C255.246 278.449 255.023 279.23 253.652 280.042C251.683 281.189 249.684 282.275 247.664 283.331C247.225 283.632 246.685 283.748 246.161 283.655C245.638 283.562 245.171 283.267 244.863 282.834C243.969 281.88 243.147 280.865 242.315 279.87C240.518 277.718 240.092 277.556 237.311 277.911L234.063 278.357C233.546 278.409 233.051 278.591 232.624 278.888C232.198 279.185 231.855 279.586 231.627 280.053C231.048 281.2 230.51 282.367 229.901 283.493C229.578 284.079 229.201 284.632 228.775 285.148C228.589 285.41 228.325 285.607 228.021 285.711C227.716 285.814 227.387 285.82 227.08 285.726C224.826 285.087 222.563 284.448 220.299 283.788C219.992 283.687 219.699 283.547 219.427 283.372C219.077 283.204 218.79 282.93 218.606 282.589C218.422 282.248 218.35 281.858 218.401 281.474C218.523 279.961 218.655 278.429 218.777 276.957C218.777 276.49 218.777 276.033 218.777 275.576C218.789 275.201 218.712 274.828 218.554 274.488C218.395 274.148 218.159 273.85 217.863 273.617C216.585 272.602 215.316 271.587 214.037 270.572C213.676 270.271 213.24 270.072 212.776 269.997C212.312 269.922 211.836 269.974 211.398 270.146C209.967 270.623 208.515 271.06 207.074 271.516L206.912 271.567C205.014 272.065 204.374 271.872 203.4 270.166C202.324 268.279 201.319 266.34 200.355 264.391C200.059 263.942 199.953 263.393 200.062 262.866C200.17 262.338 200.484 261.876 200.933 261.58C202.029 260.565 203.156 259.631 204.334 258.738C204.906 258.348 205.351 257.798 205.614 257.158C205.878 256.518 205.948 255.814 205.815 255.134C205.582 253.581 205.42 252.018 205.217 250.465C205.191 250.141 205.084 249.828 204.907 249.555C204.73 249.282 204.487 249.058 204.202 248.902C202.831 248.171 201.451 247.461 200.142 246.72C199.181 246.331 198.393 245.611 197.919 244.69L197.756 244.182ZM248.212 248.994C248.061 247.032 247.523 245.119 246.628 243.367C245.733 241.614 244.499 240.057 242.998 238.784C241.497 237.512 239.759 236.55 237.884 235.954C236.009 235.357 234.034 235.139 232.073 235.311C228.195 235.735 224.631 237.641 222.127 240.632C219.622 243.623 218.371 247.466 218.635 251.359C218.964 255.261 220.816 258.877 223.791 261.424C226.765 263.971 230.623 265.245 234.53 264.97C244.071 264.219 249.146 255.49 248.212 248.994Z" fill="#FF1999"/>
<path d="M211.114 130.993C211.358 129.978 211.601 129.065 211.855 128.101C211.987 127.603 212.149 127.086 212.312 126.619C212.395 126.314 212.58 126.046 212.837 125.861C213.094 125.677 213.407 125.586 213.722 125.604C214.494 125.604 215.255 125.726 216.027 125.787C216.436 125.847 216.851 125.867 217.265 125.847C217.57 125.835 217.86 125.716 218.087 125.512C218.899 124.609 219.66 123.675 220.411 122.731C220.538 122.558 220.621 122.357 220.651 122.144C220.681 121.932 220.658 121.715 220.584 121.513C220.31 120.6 220.015 119.707 219.752 118.803C219.641 118.451 219.579 118.086 219.569 117.717C219.569 117.583 219.597 117.45 219.649 117.326C219.701 117.203 219.777 117.091 219.873 116.997C221.204 115.969 222.682 115.147 224.258 114.561C224.489 114.466 224.745 114.45 224.985 114.516C225.226 114.582 225.438 114.726 225.588 114.926C226.237 115.677 226.907 116.408 227.526 117.179C227.732 117.472 228.018 117.699 228.349 117.834C228.68 117.969 229.043 118.006 229.394 117.941C230.409 117.788 231.424 117.687 232.439 117.555C232.623 117.531 232.797 117.461 232.948 117.353C233.098 117.245 233.22 117.102 233.302 116.936C233.616 116.377 233.911 115.809 234.225 115.241C234.54 114.672 234.753 114.226 235.037 113.799C235.158 113.558 235.359 113.367 235.605 113.26C235.852 113.152 236.129 113.135 236.387 113.211C237.829 113.576 239.26 113.962 240.681 114.378C240.949 114.463 241.18 114.637 241.335 114.872C241.491 115.106 241.56 115.387 241.533 115.667C241.533 116.449 241.412 117.22 241.351 118.001C241.351 118.367 241.29 118.742 241.29 119.108C241.28 119.344 241.327 119.58 241.426 119.795C241.524 120.01 241.673 120.199 241.858 120.346C242.65 120.986 243.452 121.605 244.213 122.275C244.436 122.477 244.709 122.614 245.004 122.673C245.299 122.732 245.604 122.71 245.888 122.61C246.903 122.305 247.837 121.99 248.811 121.696C249.129 121.558 249.489 121.55 249.813 121.673C250.137 121.796 250.401 122.041 250.547 122.356C251.217 123.503 251.856 124.66 252.475 125.817C252.589 125.972 252.67 126.149 252.713 126.336C252.757 126.524 252.762 126.718 252.729 126.907C252.696 127.097 252.625 127.278 252.52 127.439C252.415 127.601 252.279 127.739 252.12 127.847C251.643 128.294 251.105 128.689 250.628 129.116C250.151 129.542 249.917 129.745 249.613 130.131C249.47 130.268 249.361 130.437 249.294 130.624C249.227 130.81 249.204 131.01 249.227 131.207C249.339 132.222 249.43 133.237 249.562 134.333C249.596 134.616 249.701 134.885 249.868 135.116C250.035 135.347 250.258 135.532 250.516 135.652L252.313 136.525C252.678 136.718 253.044 136.911 253.389 137.134C253.641 137.272 253.838 137.493 253.945 137.759C254.053 138.026 254.064 138.322 253.977 138.596C253.612 139.895 253.247 141.184 252.861 142.473C252.796 142.669 252.707 142.857 252.597 143.031C252.499 143.243 252.339 143.419 252.137 143.535C251.935 143.651 251.702 143.702 251.47 143.681L248.669 143.427H248.466C248.077 143.351 247.674 143.395 247.311 143.555C246.948 143.715 246.642 143.982 246.436 144.32C245.979 144.96 245.421 145.549 244.934 146.168C244.7 146.445 244.545 146.779 244.485 147.136C244.424 147.493 244.46 147.859 244.589 148.198C244.883 149.05 245.167 149.913 245.421 150.786C245.505 150.951 245.554 151.133 245.563 151.318C245.572 151.504 245.541 151.689 245.473 151.862C245.405 152.035 245.301 152.191 245.167 152.321C245.034 152.45 244.875 152.55 244.7 152.613C243.523 153.303 242.325 153.953 241.107 154.643C240.84 154.817 240.517 154.882 240.204 154.825C239.891 154.768 239.611 154.594 239.422 154.338C238.894 153.76 238.407 153.161 237.89 152.562C236.814 151.263 236.56 151.162 234.845 151.385L232.896 151.649C232.585 151.677 232.288 151.786 232.031 151.964C231.775 152.142 231.57 152.383 231.434 152.664C231.089 153.344 230.764 154.044 230.419 154.694C230.227 155.054 229.999 155.394 229.739 155.709C229.627 155.865 229.47 155.984 229.288 156.047C229.106 156.111 228.909 156.117 228.724 156.064L224.664 154.897C224.48 154.831 224.303 154.746 224.136 154.643C223.924 154.547 223.747 154.386 223.631 154.184C223.514 153.982 223.464 153.748 223.487 153.516C223.558 152.613 223.639 151.71 223.71 150.806C223.71 150.532 223.71 150.248 223.71 149.974C223.716 149.749 223.67 149.525 223.575 149.321C223.48 149.116 223.338 148.937 223.162 148.797L220.858 146.98C220.642 146.798 220.381 146.677 220.102 146.631C219.824 146.584 219.538 146.614 219.275 146.716C218.412 147 217.539 147.264 216.676 147.538H216.575C215.438 147.842 215.052 147.721 214.463 146.706C213.875 145.691 213.215 144.402 212.626 143.234C212.534 143.102 212.47 142.951 212.437 142.793C212.405 142.635 212.405 142.472 212.437 142.313C212.469 142.155 212.533 142.005 212.625 141.872C212.717 141.739 212.835 141.626 212.971 141.539C213.631 140.951 214.311 140.372 215.001 139.834C215.344 139.599 215.611 139.27 215.769 138.886C215.928 138.502 215.971 138.08 215.895 137.672C215.752 136.738 215.661 135.794 215.539 134.861C215.521 134.664 215.453 134.474 215.344 134.309C215.234 134.145 215.085 134.01 214.91 133.917C214.088 133.48 213.256 133.054 212.433 132.607C211.863 132.382 211.392 131.961 211.104 131.42L211.114 130.993ZM241.432 133.866C241.34 132.688 241.015 131.541 240.477 130.489C239.939 129.438 239.198 128.503 238.297 127.74C237.396 126.976 236.352 126.399 235.226 126.041C234.101 125.683 232.915 125.552 231.739 125.655C229.406 125.911 227.261 127.055 225.749 128.851C224.237 130.646 223.474 132.954 223.619 135.297C223.816 137.642 224.928 139.816 226.716 141.347C228.503 142.878 230.822 143.644 233.17 143.478C234.349 143.404 235.501 143.095 236.558 142.569C237.616 142.042 238.558 141.31 239.327 140.414C240.097 139.518 240.68 138.477 241.042 137.353C241.403 136.228 241.536 135.043 241.432 133.866Z" fill="#FF1999"/>
<path d="M102.651 256.371L102.935 237.898L120.87 242.293L123.022 253.976L125.427 267.029L113.938 261.649L102.651 256.371Z" fill="white"/>
<path d="M125.428 267.538C125.354 267.536 125.281 267.518 125.214 267.487L102.438 256.83C102.35 256.787 102.277 256.72 102.225 256.638C102.173 256.556 102.145 256.46 102.144 256.363L102.428 237.89C102.433 237.814 102.453 237.739 102.488 237.671C102.523 237.603 102.572 237.543 102.631 237.494C102.691 237.449 102.76 237.418 102.834 237.402C102.908 237.387 102.984 237.387 103.057 237.403L120.962 241.808C121.056 241.83 121.142 241.879 121.209 241.95C121.275 242.02 121.32 242.108 121.337 242.204L125.895 266.939C125.914 267.031 125.907 267.126 125.875 267.214C125.843 267.302 125.786 267.379 125.712 267.437C125.628 267.495 125.53 267.53 125.428 267.538ZM103.159 256.099L124.758 266.249L120.434 242.803L103.433 238.631L103.159 256.099Z" fill="#231F20"/>
<path d="M106.441 248.7L112.515 244.011L66.0809 183.867L60.007 188.556L106.441 248.7Z" fill="white"/>
<path d="M106.437 249.217H106.366C106.299 249.212 106.235 249.192 106.177 249.158C106.119 249.125 106.069 249.079 106.031 249.025L59.5948 188.876C59.554 188.823 59.524 188.763 59.5066 188.698C59.4892 188.634 59.4846 188.566 59.4933 188.5C59.5138 188.368 59.5825 188.249 59.6861 188.165L65.7761 183.476C65.8274 183.434 65.8867 183.404 65.9502 183.386C66.0138 183.368 66.0804 183.363 66.1459 183.371C66.2114 183.38 66.2745 183.402 66.3313 183.435C66.3881 183.469 66.4375 183.514 66.4765 183.567L112.913 243.706C112.996 243.811 113.034 243.945 113.019 244.078C113.003 244.211 112.936 244.333 112.831 244.416L106.742 249.106C106.656 249.177 106.548 249.216 106.437 249.217ZM60.7011 188.652L106.528 247.979L111.796 243.919L65.9791 184.582L60.7011 188.652Z" fill="#231F20"/>
<path d="M66.0703 183.872L74.4339 182.156L120.87 242.295L112.507 244.021L66.0703 183.872Z" fill="#231F20"/>
<path d="M112.507 244.521C112.428 244.521 112.351 244.502 112.28 244.467C112.21 244.432 112.148 244.381 112.101 244.318L65.6644 184.18C65.6134 184.11 65.5804 184.029 65.5686 183.944C65.5568 183.859 65.5664 183.772 65.5967 183.691C65.6269 183.61 65.6768 183.539 65.7418 183.482C65.8068 183.426 65.8848 183.386 65.9689 183.368L74.3325 181.652C74.4257 181.632 74.5227 181.638 74.6125 181.671C74.7023 181.703 74.7811 181.76 74.84 181.835L121.276 241.984C121.328 242.052 121.361 242.133 121.373 242.217C121.385 242.302 121.375 242.389 121.345 242.469C121.314 242.549 121.264 242.62 121.199 242.675C121.134 242.731 121.056 242.769 120.972 242.786L112.608 244.511L112.507 244.521ZM66.9737 184.2L112.72 243.456L119.977 241.953L74.2716 182.708L66.9737 184.2Z" fill="#231F20"/>
<path d="M56.2146 196.223L60.0005 188.57L106.437 248.709L102.651 256.362L56.2146 196.223Z" fill="#231F20"/>
<path d="M102.691 256.874C102.613 256.871 102.537 256.852 102.466 256.817C102.396 256.782 102.335 256.732 102.285 256.671L55.8087 196.533C55.7535 196.455 55.7198 196.365 55.7109 196.27C55.702 196.176 55.7182 196.081 55.7579 195.995L59.5439 188.331C59.5805 188.253 59.6375 188.187 59.709 188.138C59.7805 188.09 59.8638 188.062 59.9499 188.057C60.0346 188.049 60.1202 188.062 60.1984 188.095C60.2766 188.129 60.3448 188.183 60.3965 188.25L106.833 248.389C106.884 248.469 106.912 248.563 106.912 248.658C106.912 248.753 106.884 248.847 106.833 248.927L103.057 256.59C103.018 256.666 102.96 256.731 102.889 256.779C102.818 256.827 102.736 256.856 102.651 256.864L102.691 256.874ZM56.8135 196.208L102.56 255.463L105.838 248.815L60.0615 189.509L56.8135 196.208Z" fill="#231F20"/>
<path d="M113.938 261.648L114.648 258.157L120.15 253.914L123.022 253.975L125.428 267.028L113.938 261.648Z" fill="#FF1999"/>
<path d="M125.427 267.535C125.354 267.533 125.281 267.515 125.214 267.484L113.714 262.105C113.613 262.055 113.531 261.974 113.482 261.873C113.432 261.772 113.418 261.657 113.44 261.547L114.161 258.055C114.183 257.937 114.248 257.832 114.344 257.761L119.835 253.518C119.931 253.451 120.043 253.413 120.16 253.406L123.042 253.477C123.157 253.478 123.267 253.519 123.355 253.593C123.442 253.668 123.5 253.77 123.519 253.883L125.925 266.936C125.944 267.028 125.938 267.123 125.905 267.211C125.873 267.299 125.816 267.376 125.742 267.434C125.649 267.497 125.54 267.533 125.427 267.535ZM114.506 261.364L124.758 266.155L122.606 254.472L120.312 254.421L115.105 258.481L114.506 261.364Z" fill="#231F20"/>
<path d="M83.0412 116.555C66.7707 119.996 55.5753 132.156 58.0316 143.717C59.4526 150.426 65.1366 155.46 72.9115 157.825C75.4896 162.23 80.7067 167.488 91.2424 171.375C88.0464 167.948 85.7149 163.807 84.4419 159.297C86.9538 159.224 89.454 158.925 91.9123 158.404C108.152 154.963 119.378 142.803 116.932 131.242C114.486 119.681 99.3015 113.114 83.0412 116.555Z" fill="white"/>
<path d="M91.2323 171.854C91.1752 171.864 91.1168 171.864 91.0597 171.854C82.2292 168.596 76.0174 164.028 72.5664 158.253C64.4464 155.705 58.9248 150.458 57.5241 143.819C54.9866 132.005 66.4257 119.551 82.9296 116.029C99.4436 112.537 114.912 119.297 117.44 131.112C119.967 142.926 108.538 155.37 92.0646 158.872C89.7887 159.355 87.4768 159.651 85.1524 159.755C86.4521 163.935 88.6718 167.771 91.6484 170.981C91.7215 171.051 91.7717 171.142 91.7927 171.241C91.8137 171.34 91.8045 171.444 91.7663 171.538C91.7281 171.631 91.6626 171.712 91.5782 171.768C91.4939 171.825 91.3946 171.854 91.2932 171.854H91.2323ZM83.1123 117.044C67.1666 120.434 56.1336 132.34 58.5188 143.606C59.8485 149.92 65.1468 154.924 73.0536 157.339C73.1732 157.38 73.2764 157.458 73.348 157.563C76.393 162.78 81.8131 167.012 89.4763 170.149C86.924 166.988 85.0418 163.341 83.9446 159.43C83.9246 159.356 83.9217 159.278 83.9361 159.203C83.9505 159.127 83.9819 159.056 84.0278 158.995C84.0737 158.933 84.133 158.883 84.2013 158.847C84.2695 158.812 84.3448 158.793 84.4216 158.791C86.8993 158.716 89.3654 158.421 91.7905 157.908C107.757 154.528 118.81 142.612 116.425 131.345C114.039 120.079 99.1087 113.674 83.1427 117.044H83.1123Z" fill="#231F20"/>
<path d="M314.796 248.547L238.072 222.746L270.928 125.062L332.142 145.657L342.323 166.698L314.796 248.547Z" fill="#231F20"/>
<path d="M314.827 249.054H314.664L237.94 223.242C237.877 223.222 237.819 223.189 237.769 223.145C237.718 223.102 237.677 223.048 237.648 222.989C237.619 222.929 237.602 222.864 237.598 222.798C237.594 222.732 237.603 222.665 237.626 222.603L270.471 124.919C270.517 124.792 270.611 124.689 270.732 124.63C270.853 124.571 270.993 124.562 271.121 124.605L332.335 145.189C332.4 145.211 332.459 145.246 332.509 145.291C332.56 145.336 332.601 145.391 332.63 145.453L342.78 166.494C342.83 166.617 342.83 166.756 342.78 166.879L315.243 248.729C315.223 248.793 315.19 248.852 315.146 248.902C315.103 248.953 315.049 248.994 314.989 249.023C314.937 249.041 314.882 249.052 314.827 249.054ZM238.702 222.43L314.471 247.907L341.765 166.707L331.777 146.062L271.242 125.762L238.702 222.43Z" fill="#231F20"/>
<path d="M307.072 253.586L230.348 227.785L263.204 130.102L324.418 150.686L334.599 171.737L307.072 253.586Z" fill="white"/>
<path d="M307.072 254.069C307.018 254.079 306.963 254.079 306.91 254.069L230.186 228.268C230.06 228.224 229.956 228.133 229.897 228.013C229.838 227.893 229.829 227.755 229.871 227.629L262.717 129.945C262.764 129.817 262.858 129.712 262.98 129.651C263.039 129.623 263.103 129.609 263.168 129.609C263.233 129.609 263.297 129.623 263.356 129.651L324.581 150.235C324.645 150.256 324.705 150.291 324.755 150.336C324.806 150.382 324.847 150.437 324.875 150.499L335.025 171.54C335.05 171.599 335.063 171.663 335.063 171.728C335.063 171.792 335.05 171.856 335.025 171.915L307.498 253.775C307.478 253.838 307.446 253.895 307.402 253.944C307.358 253.993 307.305 254.032 307.245 254.059C307.188 254.074 307.13 254.078 307.072 254.069ZM230.947 227.436L306.717 252.923L334.01 171.722L324.012 151.057L263.518 130.747L230.947 227.436Z" fill="#231F20"/>
<path d="M324.418 150.688L318.592 166.349L334.599 171.739L324.418 150.688Z" fill="white"/>
<path d="M334.599 172.239C334.545 172.249 334.49 172.249 334.436 172.239L318.43 166.849C318.366 166.829 318.307 166.797 318.256 166.753C318.206 166.709 318.164 166.656 318.135 166.596C318.085 166.468 318.085 166.327 318.135 166.2L323.961 150.538C323.997 150.444 324.059 150.362 324.14 150.303C324.221 150.243 324.318 150.209 324.418 150.203C324.518 150.201 324.615 150.228 324.7 150.28C324.785 150.332 324.852 150.408 324.895 150.498L335.045 171.539C335.09 171.629 335.106 171.731 335.091 171.83C335.077 171.93 335.033 172.023 334.964 172.097C334.866 172.19 334.734 172.241 334.599 172.239ZM319.242 166.037L333.624 170.838L324.489 151.939L319.242 166.037Z" fill="#231F20"/>
<path d="M321.018 179.23C320.964 179.24 320.909 179.24 320.856 179.23L265.599 160.625C265.473 160.581 265.37 160.489 265.311 160.37C265.252 160.25 265.242 160.112 265.284 159.985C265.304 159.921 265.336 159.862 265.379 159.811C265.422 159.759 265.475 159.717 265.535 159.687C265.595 159.656 265.66 159.638 265.727 159.634C265.794 159.629 265.861 159.639 265.924 159.661L321.181 178.245C321.315 178.267 321.436 178.341 321.516 178.451C321.596 178.562 321.628 178.699 321.607 178.834C321.585 178.969 321.511 179.089 321.401 179.169C321.29 179.249 321.153 179.282 321.018 179.26V179.23Z" fill="#D1D3D4"/>
<path d="M317.526 189.616C317.473 189.626 317.418 189.626 317.364 189.616L262.107 171.031C261.981 170.987 261.877 170.896 261.816 170.777C261.756 170.658 261.744 170.52 261.783 170.392C261.803 170.327 261.837 170.268 261.881 170.216C261.925 170.165 261.979 170.123 262.039 170.093C262.1 170.062 262.166 170.045 262.233 170.04C262.301 170.036 262.368 170.045 262.432 170.067L317.689 188.652C317.823 188.673 317.944 188.747 318.024 188.858C318.104 188.968 318.137 189.106 318.115 189.24C318.094 189.375 318.02 189.496 317.909 189.576C317.799 189.655 317.661 189.688 317.526 189.667V189.616Z" fill="#D1D3D4"/>
<path d="M314.035 199.997C313.981 200.007 313.926 200.007 313.872 199.997L258.616 181.392C258.481 181.349 258.369 181.254 258.305 181.128C258.24 181.003 258.228 180.857 258.271 180.722C258.314 180.587 258.409 180.475 258.534 180.411C258.66 180.346 258.806 180.334 258.941 180.377L314.197 198.962C314.332 198.983 314.452 199.057 314.532 199.168C314.612 199.278 314.645 199.416 314.623 199.55C314.602 199.685 314.528 199.805 314.417 199.885C314.307 199.965 314.169 199.998 314.035 199.977V199.997Z" fill="#D1D3D4"/>
<path d="M310.543 210.421C310.49 210.431 310.435 210.431 310.381 210.421L255.124 191.836C254.998 191.792 254.894 191.701 254.833 191.582C254.773 191.462 254.761 191.324 254.8 191.197C254.82 191.132 254.853 191.072 254.897 191.021C254.941 190.97 254.995 190.928 255.056 190.897C255.116 190.867 255.182 190.849 255.25 190.845C255.317 190.84 255.385 190.85 255.449 190.872L310.706 209.406C310.84 209.427 310.961 209.501 311.041 209.612C311.121 209.722 311.154 209.86 311.132 209.994C311.11 210.129 311.036 210.249 310.926 210.329C310.816 210.409 310.678 210.442 310.543 210.421Z" fill="#D1D3D4"/>
<path d="M307.052 220.766C306.998 220.776 306.943 220.776 306.889 220.766L251.633 202.181C251.498 202.138 251.386 202.043 251.321 201.918C251.257 201.792 251.244 201.646 251.288 201.511C251.331 201.376 251.425 201.265 251.551 201.2C251.677 201.135 251.823 201.123 251.957 201.166L307.214 219.751C307.349 219.772 307.469 219.846 307.549 219.957C307.629 220.067 307.662 220.205 307.64 220.339C307.619 220.474 307.545 220.594 307.434 220.674C307.324 220.754 307.186 220.787 307.052 220.766Z" fill="#D1D3D4"/>
<path d="M287.31 225.644C287.256 225.655 287.201 225.655 287.147 225.644L248.141 212.54C248.074 212.519 248.013 212.485 247.959 212.44C247.906 212.394 247.862 212.339 247.83 212.277C247.798 212.215 247.778 212.147 247.772 212.077C247.767 212.007 247.775 211.937 247.796 211.87C247.817 211.804 247.851 211.742 247.897 211.689C247.942 211.635 247.997 211.591 248.059 211.559C248.122 211.527 248.189 211.508 248.259 211.502C248.329 211.496 248.399 211.504 248.466 211.525L287.472 224.639C287.599 224.685 287.703 224.779 287.761 224.9C287.82 225.021 287.829 225.161 287.787 225.289C287.756 225.391 287.693 225.482 287.607 225.546C287.521 225.61 287.417 225.644 287.31 225.644Z" fill="#D1D3D4"/>
<path d="M225.1 181.411C224.598 181.411 224.107 181.262 223.69 180.983C223.272 180.703 222.947 180.306 222.755 179.842C222.563 179.378 222.514 178.867 222.612 178.375C222.711 177.882 222.954 177.43 223.31 177.076C223.666 176.721 224.119 176.48 224.612 176.383C225.105 176.287 225.615 176.338 226.079 176.532C226.542 176.726 226.938 177.052 227.215 177.471C227.493 177.89 227.64 178.381 227.638 178.884C227.635 179.555 227.367 180.198 226.891 180.671C226.416 181.145 225.772 181.411 225.1 181.411ZM225.1 177.351C224.799 177.351 224.505 177.44 224.255 177.607C224.004 177.775 223.809 178.013 223.694 178.291C223.579 178.569 223.548 178.875 223.607 179.17C223.666 179.466 223.811 179.737 224.024 179.95C224.237 180.163 224.508 180.308 224.803 180.367C225.099 180.425 225.405 180.395 225.683 180.28C225.961 180.165 226.199 179.97 226.366 179.719C226.534 179.469 226.623 179.175 226.623 178.873C226.62 178.471 226.459 178.087 226.173 177.803C225.888 177.52 225.503 177.361 225.1 177.361V177.351Z" fill="#D1D3D4"/>
<path d="M81.3765 262.544C80.8742 262.546 80.3826 262.399 79.964 262.121C79.5454 261.843 79.2186 261.448 79.0249 260.984C78.8313 260.521 78.7796 260.01 78.8764 259.517C78.9731 259.025 79.214 258.571 79.5685 258.216C79.923 257.86 80.3751 257.617 80.8676 257.518C81.3601 257.42 81.8708 257.469 82.3351 257.661C82.7993 257.853 83.1962 258.178 83.4755 258.595C83.7548 259.013 83.9039 259.504 83.9039 260.006C83.9039 260.677 83.6379 261.321 83.1642 261.797C82.6906 262.273 82.0477 262.541 81.3765 262.544ZM81.3765 258.484C81.075 258.482 80.7796 258.569 80.5279 258.735C80.2762 258.901 80.0795 259.139 79.9627 259.417C79.8459 259.695 79.8143 260.001 79.8719 260.297C79.9295 260.593 80.0737 260.865 80.2862 261.079C80.4987 261.293 80.77 261.439 81.0656 261.499C81.3612 261.558 81.6678 261.529 81.9466 261.414C82.2254 261.299 82.4638 261.104 82.6315 260.853C82.7993 260.603 82.8888 260.308 82.8889 260.006C82.8889 259.604 82.7299 259.218 82.4465 258.933C82.1632 258.648 81.7785 258.486 81.3765 258.484Z" fill="#D1D3D4"/>
<path d="M98.1342 182.657C97.9996 182.657 97.8705 182.604 97.7754 182.508C97.6802 182.413 97.6267 182.284 97.6267 182.149V176.851C97.6267 176.717 97.6802 176.588 97.7754 176.492C97.8705 176.397 97.9996 176.344 98.1342 176.344C98.2688 176.344 98.3979 176.397 98.4931 176.492C98.5882 176.588 98.6417 176.717 98.6417 176.851V182.149C98.6391 182.283 98.5848 182.411 98.4902 182.505C98.3956 182.6 98.268 182.654 98.1342 182.657Z" fill="#D1D3D4"/>
<path d="M100.783 179.968H95.485C95.3504 179.968 95.2214 179.915 95.1262 179.82C95.031 179.724 94.9775 179.595 94.9775 179.461C94.9775 179.326 95.031 179.197 95.1262 179.102C95.2214 179.007 95.3504 178.953 95.485 178.953H100.783C100.918 178.953 101.047 179.007 101.142 179.102C101.237 179.197 101.291 179.326 101.291 179.461C101.288 179.594 101.234 179.722 101.139 179.817C101.045 179.911 100.917 179.966 100.783 179.968Z" fill="#D1D3D4"/>
<path d="M282.072 280.454C281.938 280.454 281.809 280.4 281.714 280.305C281.618 280.21 281.565 280.081 281.565 279.946V274.648C281.565 274.514 281.618 274.384 281.714 274.289C281.809 274.194 281.938 274.141 282.072 274.141C282.207 274.141 282.336 274.194 282.431 274.289C282.526 274.384 282.58 274.514 282.58 274.648V279.946C282.577 280.08 282.523 280.208 282.428 280.302C282.334 280.397 282.206 280.451 282.072 280.454Z" fill="#D1D3D4"/>
<path d="M284.722 277.788H279.423C279.289 277.788 279.16 277.735 279.064 277.64C278.969 277.545 278.916 277.416 278.916 277.281C278.916 277.146 278.969 277.017 279.064 276.922C279.16 276.827 279.289 276.773 279.423 276.773H284.722C284.856 276.773 284.985 276.827 285.08 276.922C285.176 277.017 285.229 277.146 285.229 277.281C285.226 277.415 285.172 277.542 285.078 277.637C284.983 277.732 284.855 277.786 284.722 277.788Z" fill="#D1D3D4"/>
<path d="M184.531 121.436C184.396 121.436 184.267 121.383 184.172 121.287C184.077 121.192 184.023 121.063 184.023 120.929V115.64C184.023 115.506 184.077 115.377 184.172 115.282C184.267 115.186 184.396 115.133 184.531 115.133C184.666 115.133 184.795 115.186 184.89 115.282C184.985 115.377 185.038 115.506 185.038 115.64V120.929C185.038 121.063 184.985 121.192 184.89 121.287C184.795 121.383 184.666 121.436 184.531 121.436Z" fill="#D1D3D4"/>
<path d="M187.18 118.796H181.862C181.728 118.794 181.6 118.739 181.506 118.645C181.411 118.55 181.357 118.423 181.354 118.289C181.354 118.154 181.407 118.025 181.503 117.93C181.598 117.835 181.727 117.781 181.862 117.781H187.16C187.294 117.781 187.423 117.835 187.519 117.93C187.614 118.025 187.667 118.154 187.667 118.289C187.667 118.42 187.617 118.546 187.526 118.641C187.435 118.735 187.311 118.791 187.18 118.796Z" fill="#D1D3D4"/>
<path d="M76.9613 145.541C76.7398 145.529 76.5194 145.502 76.3016 145.459C75.3386 145.315 74.4225 144.948 73.6261 144.388C72.8297 143.828 72.1749 143.089 71.7138 142.232C71.298 142.787 70.7745 143.253 70.1746 143.602C69.5747 143.951 68.9107 144.175 68.2222 144.262C68.0876 144.278 67.9521 144.24 67.8455 144.156C67.7389 144.072 67.6699 143.95 67.6538 143.815C67.6376 143.681 67.6756 143.545 67.7594 143.438C67.8431 143.332 67.9658 143.263 68.1004 143.247C68.7405 143.165 69.354 142.94 69.8953 142.589C70.4365 142.237 70.8916 141.768 71.2266 141.217C70.8822 140.381 70.7247 139.48 70.765 138.577C70.8054 137.674 71.0426 136.791 71.46 135.99C71.5022 135.91 71.565 135.844 71.6419 135.797C71.7187 135.751 71.8067 135.726 71.8965 135.726C71.9854 135.725 72.073 135.747 72.1511 135.79C72.2291 135.833 72.2952 135.894 72.3431 135.969C72.7904 136.764 73.0305 137.658 73.0412 138.57C73.0518 139.482 72.8327 140.382 72.404 141.186V141.278L72.4953 141.481C72.8409 142.288 73.3931 142.989 74.0962 143.515C74.7994 144.04 75.6286 144.371 76.5004 144.474C77.3721 144.577 78.2556 144.448 79.0618 144.101C79.868 143.754 80.5684 143.2 81.0924 142.496C81.5657 141.953 81.9402 141.331 82.1987 140.659C81.897 140.131 81.7546 139.527 81.7888 138.92C81.823 138.313 82.0324 137.729 82.3916 137.238C82.4537 137.167 82.5333 137.114 82.6223 137.084C82.7114 137.054 82.8068 137.047 82.8991 137.065C82.9881 137.088 83.0695 137.134 83.1354 137.198C83.2013 137.262 83.2493 137.342 83.2746 137.431C83.5452 138.469 83.5206 139.562 83.2036 140.587C83.4051 140.951 83.6988 141.255 84.0552 141.469C84.4116 141.683 84.818 141.799 85.2336 141.805C85.6972 141.783 86.147 141.64 86.5386 141.391C86.9302 141.142 87.25 140.795 87.4666 140.384C87.7307 139.935 87.8903 139.432 87.9335 138.913C87.7313 138.384 87.6214 137.824 87.6087 137.258C87.6076 137.144 87.6451 137.033 87.7151 136.943C87.7851 136.852 87.8835 136.788 87.9944 136.761C88.1065 136.732 88.2249 136.743 88.3301 136.791C88.4353 136.839 88.521 136.922 88.5729 137.025C88.8307 137.556 88.9594 138.14 88.9485 138.73C89.2038 139.317 89.5809 139.843 90.0548 140.273C90.4619 140.682 90.9516 141.001 91.4914 141.206C92.0311 141.411 92.6084 141.499 93.1848 141.464C93.7612 141.428 94.3234 141.27 94.8339 141C95.3443 140.73 95.7912 140.354 96.1448 139.897C96.3978 139.586 96.6125 139.245 96.7843 138.882C96.5311 138.591 96.3036 138.279 96.1042 137.948C95.8939 137.566 95.8036 137.129 95.8453 136.694C95.8869 136.26 96.0585 135.848 96.3377 135.512C96.5059 135.353 96.7234 135.257 96.9542 135.238C97.1849 135.22 97.4151 135.281 97.6064 135.411C97.7835 135.551 97.9279 135.728 98.0296 135.93C98.1313 136.131 98.1878 136.353 98.1951 136.578C98.2613 137.263 98.1853 137.954 97.9718 138.608C98.3697 138.99 98.8756 139.239 99.4205 139.323C99.9655 139.407 100.523 139.32 101.017 139.075C103.534 137.979 105.452 134.091 104.742 131.513C104.723 131.449 104.718 131.381 104.726 131.314C104.734 131.248 104.755 131.183 104.788 131.124C104.821 131.066 104.865 131.014 104.918 130.973C104.972 130.932 105.032 130.902 105.097 130.884C105.226 130.85 105.364 130.868 105.48 130.934C105.596 131.001 105.681 131.111 105.716 131.239C106.569 134.284 104.397 138.72 101.413 140.009C100.795 140.304 100.107 140.419 99.4267 140.342C98.7466 140.265 98.1018 139.998 97.5658 139.572C97.3807 139.896 97.1667 140.201 96.9264 140.486C96.4849 141.047 95.9298 141.509 95.2976 141.841C94.6653 142.174 93.9701 142.368 93.2573 142.414C92.5445 142.459 91.8303 142.353 91.1612 142.103C90.4922 141.853 89.8834 141.464 89.3748 140.963C89.1148 140.724 88.8801 140.459 88.6744 140.171C88.586 140.399 88.4809 140.619 88.3598 140.831C88.0682 141.372 87.6463 141.832 87.1324 142.168C86.6184 142.505 86.0286 142.708 85.4163 142.76C84.9305 142.774 84.4475 142.68 84.0031 142.483C83.5587 142.286 83.164 141.992 82.8483 141.623C82.572 142.166 82.2312 142.674 81.8333 143.135C81.2435 143.865 80.5025 144.457 79.6614 144.873C78.8203 145.288 77.8991 145.516 76.9613 145.541ZM71.8863 137.593C71.7386 138.303 71.7386 139.035 71.8863 139.745C72.0667 139.04 72.0702 138.3 71.8965 137.593H71.8863ZM97.0076 136.324C96.9248 136.415 96.8717 136.528 96.8553 136.649C96.7806 136.927 96.8095 137.223 96.9365 137.482C96.9949 137.583 97.0593 137.682 97.1294 137.776C97.1751 137.439 97.1751 137.098 97.1294 136.761C97.1294 136.436 97.0177 136.345 96.9873 136.324H97.0076Z" fill="#D1D3D4"/>
<path d="M214.991 207.802C216.224 207.802 217.224 206.802 217.224 205.569C217.224 204.336 216.224 203.336 214.991 203.336C213.758 203.336 212.758 204.336 212.758 205.569C212.758 206.802 213.758 207.802 214.991 207.802Z" fill="#D1D3D4"/>
<path d="M117.257 220.857C118.49 220.857 119.49 219.857 119.49 218.624C119.49 217.39 118.49 216.391 117.257 216.391C116.024 216.391 115.024 217.39 115.024 218.624C115.024 219.857 116.024 220.857 117.257 220.857Z" fill="#D1D3D4"/>
</g>
<defs>
<clipPath id="clip0_1138_723">
<rect width="323" height="215" fill="white" transform="translate(39 93)"/>
</clipPath>
</defs>
</svg>
