<svg width="400" height="400" viewBox="0 0 400 400" fill="none" xmlns="http://www.w3.org/2000/svg">
<g clip-path="url(#clip0_1138_715)">
<path d="M392.569 309.923H6.58946C6.43313 309.923 6.28319 309.86 6.17265 309.749C6.0621 309.64 6 309.489 6 309.333C6 309.176 6.0621 309.026 6.17265 308.916C6.28319 308.805 6.43313 308.742 6.58946 308.742H392.569C392.725 308.742 392.875 308.805 392.986 308.916C393.096 309.026 393.159 309.176 393.159 309.333C393.159 309.489 393.096 309.64 392.986 309.749C392.875 309.86 392.725 309.923 392.569 309.923Z" fill="#D1D3D4"/>
<path d="M59.8059 125.001H59.7234C59.5709 124.977 59.4336 124.895 59.341 124.771C59.2485 124.648 59.208 124.493 59.2283 124.34L60.2657 117.152C60.2905 117.013 60.3631 116.888 60.4708 116.797C60.5785 116.707 60.7145 116.657 60.8552 116.656H80.8025C80.9589 116.656 81.1088 116.719 81.2194 116.829C81.3299 116.94 81.392 117.09 81.392 117.246C81.392 117.403 81.3299 117.553 81.2194 117.664C81.1088 117.774 80.9589 117.837 80.8025 117.837H61.3621L60.3954 124.505C60.3706 124.644 60.298 124.769 60.1903 124.86C60.0825 124.95 59.9466 125 59.8059 125.001Z" fill="#231F20"/>
<path d="M48.3233 126.696C48.2217 126.695 48.122 126.669 48.0334 126.619C47.9447 126.57 47.87 126.499 47.8163 126.412C46.6491 124.407 45.3821 122.461 44.0201 120.582C43.1595 120.464 38.2552 120.523 33.8932 120.582C33.7386 120.579 33.5907 120.518 33.4792 120.411C33.3678 120.304 33.3008 120.158 33.292 120.004C33.2888 119.926 33.3014 119.848 33.329 119.775C33.3566 119.702 33.3987 119.636 33.4526 119.579C33.5066 119.523 33.5713 119.479 33.643 119.448C33.7146 119.417 33.7918 119.402 33.8697 119.402C40.5188 119.225 44.1145 119.237 44.5507 119.402C44.7157 119.484 45.2226 119.732 48.8183 125.681C48.8604 125.746 48.8886 125.819 48.9013 125.895C48.9139 125.972 48.9109 126.05 48.892 126.125C48.8732 126.201 48.8392 126.271 48.7921 126.333C48.745 126.394 48.6857 126.446 48.618 126.483C48.5451 126.584 48.4417 126.658 48.3233 126.696Z" fill="#231F20"/>
<path d="M67.9053 150.727H57.3657V179.442H67.9053V150.727Z" fill="#231F20"/>
<path d="M67.905 179.953H57.3654C57.2278 179.953 57.0958 179.898 56.9986 179.801C56.9014 179.703 56.8467 179.571 56.8467 179.433V150.73C56.8467 150.592 56.9014 150.46 56.9986 150.363C57.0958 150.266 57.2278 150.211 57.3654 150.211H67.905C68.0426 150.211 68.1744 150.266 68.2718 150.363C68.369 150.46 68.4237 150.592 68.4237 150.73V179.433C68.4237 179.571 68.369 179.703 68.2718 179.801C68.1744 179.898 68.0426 179.953 67.905 179.953ZM57.8842 178.915H67.3862V151.249H57.8842V178.915Z" fill="#231F20"/>
<path d="M29.4605 319.875H29.2365C29.0837 319.846 28.9383 319.787 28.8086 319.7C28.6789 319.614 28.5676 319.503 28.481 319.373C28.3944 319.244 28.3343 319.098 28.3041 318.946C28.274 318.793 28.2743 318.636 28.3052 318.484L56.2692 179.214C56.2994 179.06 56.3598 178.912 56.4469 178.78C56.534 178.648 56.6462 178.536 56.777 178.448C56.9079 178.359 57.0548 178.298 57.2093 178.267C57.364 178.235 57.5232 178.234 57.678 178.265C57.8328 178.295 57.9802 178.355 58.1116 178.442C58.2432 178.53 58.3562 178.642 58.4443 178.773C58.5324 178.904 58.5939 179.051 58.6253 179.205C58.6567 179.361 58.6573 179.52 58.627 179.675L30.663 318.943C30.6048 319.216 30.4521 319.459 30.232 319.63C30.0119 319.8 29.7386 319.888 29.4605 319.875Z" fill="#231F20"/>
<path d="M95.8575 319.883C95.58 319.889 95.3097 319.796 95.094 319.621C94.8785 319.446 94.7314 319.2 94.6786 318.927L66.7146 179.659C66.6536 179.346 66.7193 179.022 66.8973 178.758C67.0753 178.493 67.351 178.309 67.6636 178.249C67.9763 178.188 68.3004 178.253 68.5646 178.432C68.8288 178.61 69.0115 178.886 69.0724 179.199L97.0364 318.467C97.0674 318.62 97.0676 318.778 97.0375 318.93C97.0073 319.083 96.9472 319.229 96.8606 319.358C96.774 319.487 96.6627 319.598 96.533 319.685C96.4033 319.771 96.2579 319.83 96.1052 319.86L95.8575 319.883Z" fill="#231F20"/>
<path d="M62.6355 319.879C62.3228 319.879 62.0229 319.755 61.8018 319.533C61.5807 319.311 61.4565 319.011 61.4565 318.698V179.43C61.4565 179.117 61.5807 178.817 61.8018 178.595C62.0229 178.374 62.3228 178.25 62.6355 178.25C62.9481 178.25 63.248 178.374 63.469 178.595C63.6902 178.817 63.8144 179.117 63.8144 179.43V318.698C63.8144 319.011 63.6902 319.311 63.469 319.533C63.248 319.755 62.9481 319.879 62.6355 319.879Z" fill="#231F20"/>
<path d="M73.4225 148.477H51.8364V161.542H73.4225V148.477Z" fill="#231F20"/>
<path d="M73.4344 162.064H51.8601C51.7225 162.064 51.5906 162.01 51.4932 161.912C51.396 161.815 51.3413 161.683 51.3413 161.545V148.48C51.3532 148.351 51.4129 148.23 51.509 148.143C51.605 148.055 51.7303 148.007 51.8601 148.008H73.4344C73.572 148.008 73.7039 148.063 73.8012 148.16C73.8985 148.257 73.9531 148.389 73.9531 148.527V161.592C73.9413 161.722 73.8815 161.842 73.7854 161.929C73.6894 162.017 73.5642 162.065 73.4344 162.064ZM52.3552 160.99H72.9038V148.999H52.3552V160.99Z" fill="#231F20"/>
<path d="M84.6579 124.062H37.053V150.228H84.6579V124.062Z" fill="#FF1999"/>
<path d="M84.646 150.823H37.0529C36.8965 150.823 36.7466 150.761 36.636 150.65C36.5255 150.539 36.4634 150.389 36.4634 150.233V124.067C36.4634 123.91 36.5255 123.76 36.636 123.649C36.7466 123.539 36.8965 123.477 37.0529 123.477H84.646C84.8023 123.477 84.9522 123.539 85.0628 123.649C85.1734 123.76 85.2355 123.91 85.2355 124.067V150.233C85.2355 150.389 85.1734 150.539 85.0628 150.65C84.9522 150.761 84.8023 150.823 84.646 150.823ZM37.6423 149.642H84.0565V124.657H37.6423V149.642Z" fill="#231F20"/>
<path d="M84.6577 145.636H96.7417V128.664H84.6577V145.636Z" fill="#231F20"/>
<path d="M96.7299 146.163H84.6459C84.5084 146.163 84.3764 146.108 84.2791 146.011C84.1819 145.913 84.1272 145.781 84.1272 145.644V128.672C84.1272 128.533 84.1814 128.4 84.2784 128.3C84.3753 128.201 84.5073 128.144 84.6459 128.141H96.7299C96.7996 128.141 96.8685 128.154 96.9329 128.181C96.9972 128.208 97.0558 128.247 97.105 128.296C97.1543 128.346 97.1934 128.404 97.22 128.469C97.2467 128.533 97.2604 128.602 97.2604 128.672V145.644C97.2573 145.782 97.2001 145.915 97.1009 146.012C97.0018 146.109 96.8686 146.163 96.7299 146.163ZM85.1764 145.124H96.2111V129.191H85.1764V145.124Z" fill="#231F20"/>
<path d="M109.415 150.411L96.73 145.642V128.659L109.415 123.891V150.411Z" fill="#FF1999"/>
<path d="M109.415 151.005C109.349 151.016 109.281 151.016 109.215 151.005L96.5294 146.225C96.4165 146.186 96.3184 146.112 96.2487 146.015C96.179 145.918 96.1412 145.801 96.1404 145.682V128.675C96.1405 128.553 96.1778 128.435 96.2474 128.336C96.317 128.236 96.4155 128.161 96.5294 128.12L109.215 123.34C109.303 123.308 109.4 123.297 109.493 123.31C109.586 123.322 109.676 123.357 109.754 123.412C109.831 123.466 109.894 123.538 109.938 123.622C109.982 123.706 110.004 123.8 110.004 123.895V150.367C110.006 150.462 109.984 150.556 109.941 150.64C109.898 150.725 109.835 150.797 109.757 150.851C109.661 150.937 109.542 150.99 109.415 151.005ZM97.3193 145.233L108.826 149.565V124.78L97.3193 129.123V145.233Z" fill="#231F20"/>
<path d="M37.0529 126.992H30.8047V145.64H37.0529V126.992Z" fill="#231F20"/>
<path d="M37.0526 146.163H30.8044C30.6668 146.163 30.5349 146.108 30.4376 146.011C30.3403 145.913 30.2856 145.781 30.2856 145.644V126.996C30.2856 126.858 30.3403 126.726 30.4376 126.629C30.5349 126.531 30.6668 126.477 30.8044 126.477H37.0526C37.1902 126.477 37.3222 126.531 37.4195 126.629C37.5168 126.726 37.5714 126.858 37.5714 126.996V145.644C37.5714 145.781 37.5168 145.913 37.4195 146.011C37.3222 146.108 37.1902 146.163 37.0526 146.163ZM31.3231 145.124H36.534V127.515H31.3231V145.124Z" fill="#231F20"/>
<path d="M85.9546 114.914H67.7284C66.6085 114.914 65.7007 115.823 65.7007 116.944C65.7007 118.065 66.6085 118.974 67.7284 118.974H85.9546C87.0745 118.974 87.9823 118.065 87.9823 116.944C87.9823 115.823 87.0745 114.914 85.9546 114.914Z" fill="#231F20"/>
<path d="M85.9543 119.505H67.7281C67.0528 119.505 66.405 119.236 65.9275 118.758C65.45 118.28 65.1816 117.632 65.1816 116.956C65.1816 116.28 65.45 115.631 65.9275 115.153C66.405 114.675 67.0528 114.406 67.7281 114.406H85.9543C86.6297 114.406 87.2773 114.675 87.755 115.153C88.2325 115.631 88.5007 116.28 88.5007 116.956C88.5007 117.632 88.2325 118.28 87.755 118.758C87.2773 119.236 86.6297 119.505 85.9543 119.505ZM67.7281 115.445C67.328 115.445 66.9441 115.604 66.661 115.887C66.3781 116.171 66.2191 116.555 66.2191 116.956C66.2191 117.356 66.3781 117.741 66.661 118.024C66.9441 118.307 67.328 118.466 67.7281 118.466H85.9543C86.3545 118.466 86.7384 118.307 87.0213 118.024C87.3043 117.741 87.4633 117.356 87.4633 116.956C87.4633 116.555 87.3043 116.171 87.0213 115.887C86.7384 115.604 86.3545 115.445 85.9543 115.445H67.7281Z" fill="#231F20"/>
<path d="M50.3981 134.731H77.1243V153.485H50.3981C49.3608 153.485 48.3336 153.28 47.3754 152.883C46.417 152.485 45.5463 151.903 44.8127 151.169C44.0793 150.434 43.4975 149.563 43.1005 148.603C42.7036 147.644 42.4993 146.615 42.4993 145.577V142.626C42.4993 141.588 42.7036 140.56 43.1005 139.6C43.4975 138.641 44.0793 137.769 44.8127 137.035C45.5463 136.301 46.417 135.718 47.3754 135.321C48.3336 134.923 49.3608 134.719 50.3981 134.719V134.731Z" fill="#FF1999"/>
<path d="M77.1244 154.083H50.3982C48.1479 154.08 45.9907 153.183 44.3996 151.59C42.8084 149.997 41.9131 147.838 41.9099 145.585V142.634C41.9162 140.384 42.8129 138.227 44.4037 136.637C45.9945 135.046 48.15 134.152 50.3982 134.148H77.1244C77.2807 134.148 77.4307 134.211 77.5412 134.321C77.6517 134.432 77.7138 134.582 77.7138 134.739V153.493C77.7109 153.648 77.6478 153.797 77.5378 153.907C77.428 154.016 77.2798 154.08 77.1244 154.083ZM50.3982 135.329C48.4617 135.329 46.6043 136.098 45.2339 137.468C43.8635 138.837 43.092 140.696 43.0888 142.634V145.644C43.092 147.584 43.8631 149.443 45.2331 150.815C46.6033 152.186 48.4606 152.958 50.3982 152.961H76.5349V135.329H50.3982Z" fill="#231F20"/>
<path d="M63.3193 129.258H45.2936C45.1373 129.258 44.9873 129.196 44.8768 129.086C44.7662 128.975 44.7041 128.825 44.7041 128.668C44.7041 128.512 44.7662 128.362 44.8768 128.251C44.9873 128.14 45.1373 128.078 45.2936 128.078H63.3193C63.4757 128.078 63.6256 128.14 63.7361 128.251C63.8467 128.362 63.9088 128.512 63.9088 128.668C63.9088 128.825 63.8467 128.975 63.7361 129.086C63.6256 129.196 63.4757 129.258 63.3193 129.258Z" fill="#231F20"/>
<path d="M348.301 318.902H231.917C230.904 318.913 229.901 318.716 228.968 318.321C228.035 317.926 227.195 317.342 226.499 316.606C225.801 315.87 225.265 314.998 224.921 314.045C224.578 313.091 224.435 312.077 224.502 311.065L236.185 88.8137C236.316 86.705 237.24 84.7243 238.771 83.2702C240.302 81.8161 242.327 80.9967 244.437 80.9769H360.821C361.833 80.9666 362.835 81.1656 363.766 81.5614C364.697 81.9572 365.536 82.5413 366.231 83.277C366.927 84.0128 367.463 84.8843 367.806 85.8371C368.148 86.7899 368.291 87.8032 368.224 88.8137L356.541 311.065C356.413 313.173 355.492 315.153 353.962 316.608C352.433 318.062 350.409 318.882 348.301 318.902Z" fill="#231F20"/>
<path d="M348.301 319.428H231.917C230.835 319.438 229.762 319.225 228.766 318.802C227.77 318.379 226.871 317.754 226.127 316.968C225.383 316.182 224.808 315.25 224.439 314.232C224.07 313.213 223.915 312.13 223.983 311.049L235.666 88.7854C235.826 86.5596 236.815 84.4751 238.437 82.9449C240.059 81.4147 242.197 80.5505 244.426 80.5237H360.809C361.89 80.5151 362.961 80.7294 363.957 81.1534C364.951 81.5773 365.848 82.2018 366.592 82.9879C367.335 83.7741 367.908 84.705 368.277 85.7227C368.644 86.7404 368.799 87.8231 368.731 88.9034L357.049 311.166C356.892 313.391 355.905 315.476 354.284 317.006C352.664 318.537 350.529 319.401 348.301 319.428ZM244.426 81.5033C242.451 81.5261 240.558 82.2954 239.125 83.6568C237.694 85.0182 236.828 86.8712 236.704 88.8444L225.021 311.107C224.965 312.047 225.102 312.988 225.422 313.873C225.742 314.758 226.24 315.567 226.884 316.253C227.53 316.938 228.311 317.48 229.177 317.848C230.044 318.216 230.977 318.4 231.917 318.389H348.301C350.273 318.363 352.163 317.593 353.593 316.232C355.023 314.871 355.886 313.02 356.011 311.049L367.694 88.7854C367.754 87.8464 367.62 86.9051 367.3 86.0203C366.981 85.1355 366.482 84.3261 365.836 83.6428C365.19 82.9594 364.41 82.4167 363.545 82.0486C362.68 81.6805 361.749 81.4949 360.809 81.5033H244.426Z" fill="#231F20"/>
<path d="M339.694 318.499H223.311C222.3 318.511 221.298 318.314 220.367 317.919C219.436 317.524 218.596 316.941 217.9 316.207C217.205 315.472 216.67 314.601 216.326 313.649C215.983 312.696 215.841 311.684 215.907 310.674L227.59 88.4109C227.718 86.3023 228.643 84.3213 230.174 82.8686C231.706 81.4159 233.733 80.6 235.843 80.5859H352.226C353.231 80.5855 354.225 80.7913 355.146 81.1907C356.068 81.5901 356.898 82.1746 357.586 82.908C358.273 83.6414 358.803 84.5082 359.143 85.4547C359.481 86.4012 359.624 87.4074 359.559 88.4109L347.876 310.674C347.748 312.771 346.834 314.742 345.318 316.192C343.801 317.643 341.792 318.467 339.694 318.499Z" fill="white"/>
<path d="M339.694 319.141H223.311C222.22 319.155 221.138 318.943 220.133 318.518C219.128 318.093 218.222 317.464 217.471 316.671C216.721 315.879 216.142 314.94 215.771 313.912C215.401 312.885 215.246 311.792 215.318 310.702L227.001 88.4391C227.128 86.1837 228.104 84.0602 229.731 82.4949C231.358 80.9296 233.516 80.0385 235.772 80.0004H352.156C353.246 79.99 354.328 80.205 355.332 80.6319C356.336 81.0589 357.241 81.6885 357.991 82.4816C358.742 83.2747 359.321 84.2141 359.691 85.2412C360.063 86.2682 360.218 87.3609 360.149 88.4509L348.465 310.714C348.337 312.968 347.362 315.09 345.735 316.653C344.107 318.217 341.949 319.106 339.694 319.141ZM235.772 81.1806C233.817 81.2008 231.941 81.9621 230.524 83.3111C229.106 84.6601 228.252 86.4966 228.132 88.4509L216.449 310.714C216.387 311.643 216.518 312.575 216.834 313.453C217.15 314.329 217.643 315.13 218.283 315.806C218.923 316.483 219.696 317.019 220.553 317.381C221.41 317.745 222.333 317.925 223.264 317.913H339.647C341.6 317.89 343.472 317.13 344.889 315.784C346.305 314.439 347.162 312.606 347.286 310.654L358.969 88.3919C359.033 87.4614 358.904 86.5278 358.589 85.65C358.274 84.7722 357.781 83.9692 357.141 83.2916C356.501 82.6141 355.727 82.0767 354.869 81.7134C354.011 81.35 353.087 81.1686 352.156 81.1806H235.772Z" fill="#231F20"/>
<path d="M296.156 89.5396H274.288C274.132 89.5366 273.984 89.4734 273.874 89.3634C273.764 89.2534 273.701 89.1051 273.698 88.9495C273.698 88.793 273.76 88.6429 273.871 88.5322C273.981 88.4215 274.131 88.3594 274.288 88.3594H296.156C296.312 88.3594 296.463 88.4215 296.573 88.5322C296.684 88.6429 296.746 88.793 296.746 88.9495C296.746 89.106 296.684 89.2561 296.573 89.3668C296.463 89.4774 296.312 89.5396 296.156 89.5396Z" fill="#D1D3D4"/>
<path d="M303.23 89.5396H299.434C299.279 89.5366 299.131 89.4734 299.021 89.3634C298.91 89.2534 298.848 89.1051 298.845 88.9495C298.845 88.793 298.906 88.6429 299.017 88.5322C299.128 88.4215 299.278 88.3594 299.434 88.3594H303.266C303.422 88.3594 303.572 88.4215 303.683 88.5322C303.792 88.6429 303.855 88.793 303.855 88.9495C303.853 89.0296 303.836 89.1085 303.804 89.1818C303.771 89.255 303.724 89.321 303.666 89.376C303.609 89.431 303.539 89.4737 303.465 89.5018C303.39 89.5299 303.31 89.5428 303.23 89.5396Z" fill="#D1D3D4"/>
<path d="M361.917 134.116C361.759 134.107 361.612 134.036 361.506 133.919C361.4 133.802 361.344 133.648 361.351 133.49L362.53 110.511C362.53 110.433 362.546 110.356 362.577 110.284C362.609 110.213 362.655 110.149 362.713 110.096C362.77 110.044 362.839 110.004 362.913 109.98C362.987 109.956 363.066 109.948 363.143 109.956C363.301 109.965 363.448 110.036 363.554 110.153C363.66 110.27 363.716 110.424 363.709 110.582L362.53 133.549C362.527 133.627 362.508 133.703 362.477 133.773C362.444 133.844 362.398 133.907 362.341 133.96C362.284 134.012 362.217 134.053 362.144 134.08C362.071 134.107 361.994 134.119 361.917 134.116Z" fill="#D1D3D4"/>
<path d="M340.461 291.966H223.299L235.053 96.0469H352.203L340.461 291.966Z" fill="white"/>
<path d="M340.461 292.554H223.299C223.22 292.555 223.141 292.539 223.068 292.509C222.996 292.478 222.93 292.433 222.875 292.376C222.763 292.255 222.703 292.094 222.71 291.928L234.499 96.008C234.505 95.8566 234.57 95.7138 234.68 95.6101C234.791 95.5064 234.937 95.45 235.088 95.4533H352.25C352.409 95.4536 352.562 95.5173 352.675 95.6303C352.782 95.7539 352.837 95.9149 352.828 96.0788L341.038 291.998C341.032 292.148 340.968 292.29 340.861 292.393C340.753 292.496 340.61 292.554 340.461 292.554ZM223.924 291.373H339.906L351.578 96.6335H235.607L223.924 291.373Z" fill="#231F20"/>
<path d="M348.018 165.917H230.856L235.053 96.0469H352.203L348.018 165.917Z" fill="#FF1999"/>
<path d="M348.018 166.504H230.856C230.776 166.503 230.697 166.485 230.624 166.453C230.552 166.42 230.486 166.374 230.431 166.315C230.327 166.194 230.268 166.039 230.267 165.878L234.464 96.008C234.469 95.8566 234.535 95.7138 234.646 95.6101C234.755 95.5064 234.902 95.45 235.053 95.4533H352.214C352.374 95.4536 352.526 95.5173 352.639 95.6303C352.747 95.7539 352.802 95.9149 352.792 96.0788L348.607 165.949C348.598 166.099 348.532 166.241 348.422 166.344C348.312 166.447 348.168 166.504 348.018 166.504ZM231.481 165.324H347.463L351.578 96.6335H235.607L231.481 165.324Z" fill="#231F20"/>
<path d="M280.277 145.956L282.01 116.945L304.185 131.45L280.277 145.956Z" fill="white"/>
<path d="M249.028 192.261C252.111 189.265 252.329 184.482 249.513 181.577C246.697 178.672 241.914 178.746 238.83 181.741C235.746 184.738 235.529 189.522 238.344 192.427C241.161 195.331 245.944 195.258 249.028 192.261Z" fill="#E6E7E8"/>
<path d="M243.78 279.769C246.863 276.773 247.081 271.989 244.265 269.084C241.45 266.179 236.667 266.254 233.583 269.249C230.499 272.246 230.281 277.029 233.098 279.935C235.913 282.839 240.696 282.765 243.78 279.769Z" fill="#E6E7E8"/>
<path d="M322.046 183.954H261.343C261.186 183.954 261.036 183.892 260.926 183.781C260.816 183.67 260.753 183.52 260.753 183.363C260.753 183.207 260.816 183.057 260.926 182.946C261.036 182.835 261.186 182.773 261.343 182.773H322.046C322.202 182.773 322.352 182.835 322.463 182.946C322.573 183.057 322.635 183.207 322.635 183.363C322.635 183.52 322.573 183.67 322.463 183.781C322.352 183.892 322.202 183.954 322.046 183.954Z" fill="#D1D3D4"/>
<path d="M309.702 191.227H260.906C260.75 191.227 260.6 191.165 260.489 191.054C260.38 190.943 260.317 190.794 260.317 190.637C260.317 190.481 260.38 190.33 260.489 190.219C260.6 190.109 260.75 190.047 260.906 190.047H309.702C309.859 190.047 310.009 190.109 310.119 190.219C310.23 190.33 310.292 190.481 310.292 190.637C310.292 190.794 310.23 190.943 310.119 191.054C310.009 191.165 309.859 191.227 309.702 191.227Z" fill="#D1D3D4"/>
<path d="M340.544 183.705H337.903L338.056 181.062H340.697L340.544 183.705Z" fill="#E6E7E8"/>
<path d="M340.284 188.058H337.643L337.796 185.414H340.437L340.284 188.058Z" fill="#E6E7E8"/>
<path d="M340.025 192.409H337.384L337.537 189.766H340.178L340.025 192.409Z" fill="#E6E7E8"/>
<path d="M347.782 169.927H230.62L230.856 165.914H348.018L347.782 169.927Z" fill="white"/>
<path d="M347.77 170.513H230.62C230.54 170.514 230.461 170.497 230.388 170.465C230.315 170.432 230.25 170.384 230.196 170.325C230.138 170.268 230.094 170.2 230.065 170.125C230.037 170.049 230.025 169.968 230.031 169.888L230.267 165.875C230.276 165.725 230.342 165.584 230.451 165.481C230.561 165.377 230.706 165.32 230.856 165.32H348.018C348.099 165.319 348.178 165.334 348.254 165.364C348.329 165.395 348.396 165.44 348.454 165.497C348.508 165.558 348.549 165.629 348.575 165.706C348.601 165.783 348.613 165.865 348.607 165.946L348.371 169.959C348.359 170.11 348.29 170.251 348.179 170.354C348.068 170.457 347.921 170.514 347.77 170.513ZM231.233 169.333H347.216L347.38 166.501H231.41L231.233 169.333Z" fill="#231F20"/>
<path d="M274.428 169.927H230.62L230.856 165.914H274.664L274.428 169.927Z" fill="#231F20"/>
<path d="M274.429 170.426H230.62C230.549 170.427 230.479 170.412 230.414 170.384C230.349 170.355 230.291 170.314 230.243 170.261C230.195 170.209 230.157 170.148 230.133 170.081C230.108 170.014 230.098 169.943 230.101 169.872L230.337 165.859C230.349 165.728 230.408 165.607 230.504 165.517C230.6 165.428 230.725 165.377 230.856 165.375H274.677C274.747 165.375 274.818 165.389 274.883 165.418C274.948 165.446 275.006 165.488 275.054 165.54C275.104 165.589 275.141 165.648 275.166 165.714C275.19 165.779 275.2 165.849 275.195 165.918L274.959 169.931C274.95 170.065 274.891 170.192 274.793 170.284C274.693 170.376 274.563 170.427 274.429 170.426ZM231.174 169.388H273.934L274.111 166.414H231.351L231.174 169.388Z" fill="#231F20"/>
<path d="M345.849 202.767H228.699C228.543 202.767 228.392 202.704 228.282 202.594C228.172 202.483 228.109 202.333 228.109 202.177C228.109 202.02 228.172 201.87 228.282 201.759C228.392 201.649 228.543 201.586 228.699 201.586H345.86C346.017 201.586 346.166 201.649 346.277 201.759C346.388 201.87 346.449 202.02 346.449 202.177C346.446 202.334 346.382 202.484 346.269 202.594C346.157 202.705 346.006 202.767 345.849 202.767Z" fill="#231F20"/>
<path d="M246.889 227.925C249.973 224.929 250.191 220.146 247.374 217.241C244.559 214.336 239.776 214.41 236.692 217.405C233.609 220.402 233.391 225.186 236.207 228.091C239.023 230.995 243.805 230.922 246.889 227.925Z" fill="#E6E7E8"/>
<path d="M337.16 219.571H256.734C256.577 219.571 256.428 219.509 256.317 219.398C256.206 219.287 256.144 219.138 256.144 218.981C256.144 218.824 256.206 218.674 256.317 218.563C256.428 218.453 256.577 218.391 256.734 218.391H337.16C337.315 218.394 337.463 218.457 337.573 218.567C337.683 218.677 337.746 218.825 337.749 218.981C337.749 219.138 337.687 219.287 337.576 219.398C337.466 219.509 337.315 219.571 337.16 219.571Z" fill="#D1D3D4"/>
<path d="M327.516 226.946H256.285C256.13 226.943 255.982 226.88 255.872 226.77C255.762 226.66 255.699 226.512 255.696 226.356C255.696 226.199 255.758 226.05 255.868 225.939C255.979 225.828 256.129 225.766 256.285 225.766H327.516C327.672 225.766 327.822 225.828 327.933 225.939C328.043 226.05 328.105 226.199 328.105 226.356C328.105 226.513 328.043 226.663 327.933 226.774C327.822 226.884 327.672 226.946 327.516 226.946Z" fill="#D1D3D4"/>
<path d="M245.473 251.73C248.557 248.734 248.774 243.95 245.958 241.045C243.142 238.141 238.36 238.214 235.276 241.211C232.191 244.206 231.975 248.99 234.79 251.895C237.606 254.8 242.389 254.726 245.473 251.73Z" fill="#E6E7E8"/>
<path d="M326.549 243.368H255.307C255.151 243.368 255.001 243.306 254.89 243.196C254.779 243.085 254.718 242.934 254.718 242.778C254.718 242.621 254.779 242.472 254.89 242.361C255.001 242.25 255.151 242.188 255.307 242.188H326.549C326.705 242.191 326.853 242.254 326.963 242.364C327.072 242.474 327.136 242.622 327.139 242.778C327.139 242.934 327.076 243.085 326.965 243.196C326.856 243.306 326.705 243.368 326.549 243.368Z" fill="#D1D3D4"/>
<path d="M308.205 250.75H254.859C254.702 250.75 254.553 250.688 254.442 250.578C254.332 250.467 254.269 250.316 254.269 250.16C254.269 250.004 254.332 249.854 254.442 249.743C254.553 249.632 254.702 249.57 254.859 249.57H308.205C308.362 249.57 308.511 249.632 308.622 249.743C308.733 249.854 308.795 250.004 308.795 250.16C308.795 250.316 308.733 250.467 308.622 250.578C308.511 250.688 308.362 250.75 308.205 250.75Z" fill="#D1D3D4"/>
<path d="M323.012 282.061H260.53C259.559 282.063 258.6 281.865 257.709 281.479C256.818 281.095 256.016 280.53 255.353 279.822C254.69 279.114 254.179 278.277 253.853 277.362C253.527 276.447 253.392 275.476 253.456 274.507C253.601 272.472 254.504 270.566 255.987 269.167C257.469 267.768 259.424 266.977 261.461 266.953H323.944C324.914 266.951 325.874 267.149 326.764 267.533C327.655 267.919 328.457 268.483 329.12 269.191C329.784 269.9 330.294 270.737 330.62 271.652C330.947 272.566 331.082 273.538 331.018 274.507C330.875 276.543 329.973 278.45 328.49 279.85C327.006 281.249 325.051 282.038 323.012 282.061Z" fill="#E6E7E8"/>
<path d="M279.31 313.028C278.199 313.041 277.098 312.823 276.074 312.387C275.052 311.953 274.13 311.31 273.368 310.5C272.606 309.691 272.02 308.731 271.646 307.684C271.273 306.636 271.121 305.522 271.199 304.412C271.358 302.112 272.378 299.955 274.053 298.372C275.728 296.788 277.938 295.895 280.241 295.868C281.352 295.853 282.454 296.07 283.478 296.505C284.5 296.94 285.422 297.582 286.183 298.392C286.945 299.203 287.53 300.162 287.902 301.211C288.273 302.259 288.423 303.373 288.341 304.483C288.181 306.783 287.163 308.937 285.491 310.52C283.818 312.103 281.612 312.998 279.31 313.028ZM280.241 297.048C278.236 297.07 276.314 297.848 274.857 299.226C273.4 300.603 272.514 302.481 272.378 304.483C272.308 305.432 272.435 306.386 272.753 307.283C273.07 308.18 273.572 309.001 274.224 309.694C274.875 310.387 275.665 310.936 276.54 311.307C277.416 311.678 278.36 311.862 279.31 311.848C281.313 311.821 283.232 311.041 284.689 309.664C286.145 308.287 287.031 306.412 287.173 304.412C287.242 303.464 287.113 302.511 286.795 301.614C286.476 300.718 285.975 299.898 285.324 299.206C284.672 298.513 283.883 297.963 283.009 297.592C282.134 297.221 281.191 297.035 280.241 297.048Z" fill="#D1D3D4"/>
<path d="M178.264 101.873C178.143 102.815 178.236 103.773 178.537 104.674C178.836 105.575 179.336 106.397 179.997 107.078C179.91 106.279 180.012 105.472 180.297 104.721C180.582 103.97 181.041 103.297 181.636 102.758C182.784 101.791 184.198 101.194 185.691 101.047C185.41 101.923 185.278 102.841 185.302 103.761C185.306 104.207 185.422 104.645 185.637 105.035C185.854 105.424 186.164 105.753 186.54 105.992C187.141 106.216 187.799 106.241 188.415 106.063C191.079 105.532 193.708 104.564 196.42 104.67C197.829 104.665 199.206 105.098 200.359 105.91C201.513 106.722 202.385 107.872 202.857 109.202C203.479 109.485 204.037 109.893 204.495 110.401C204.954 110.908 205.302 111.505 205.521 112.153C206.483 114.459 206.706 117.008 206.158 119.447C205.7 121.267 204.952 123 203.942 124.581C202.48 127.286 200.379 129.592 197.822 131.297C196.751 131.999 195.496 132.372 194.215 132.371C189.665 132.146 185.055 126.564 181.742 123.412C178.302 120.051 176.117 115.61 175.553 110.831C175.258 107.621 175.977 104.033 178.264 101.873Z" fill="white"/>
<path d="M194.51 132.97H194.263C190.289 132.781 186.387 128.851 183.263 125.688C182.615 125.027 181.99 124.401 181.413 123.858C177.866 120.388 175.615 115.806 175.034 110.876C174.669 107.016 175.753 103.476 177.923 101.434C178.013 101.353 178.125 101.302 178.244 101.285C178.365 101.268 178.486 101.287 178.595 101.339C178.701 101.398 178.786 101.486 178.843 101.593C178.9 101.7 178.924 101.821 178.913 101.941C178.766 103.131 178.984 104.337 179.538 105.399C179.793 104.217 180.412 103.144 181.306 102.331C182.533 101.274 184.057 100.622 185.668 100.466C185.763 100.454 185.861 100.464 185.95 100.497C186.041 100.53 186.122 100.584 186.187 100.655C186.25 100.728 186.295 100.816 186.317 100.911C186.339 101.005 186.339 101.103 186.317 101.198C186.062 102.011 185.939 102.859 185.951 103.712C185.946 104.055 186.026 104.395 186.185 104.699C186.344 105.004 186.575 105.265 186.859 105.458C187.35 105.613 187.877 105.613 188.368 105.458C189.134 105.305 189.901 105.116 190.667 104.927C192.561 104.358 194.526 104.063 196.502 104.054C197.992 104.059 199.446 104.512 200.675 105.354C201.905 106.195 202.854 107.387 203.4 108.775C204.665 109.46 205.631 110.591 206.111 111.95C207.13 114.365 207.37 117.039 206.794 119.598C206.332 121.477 205.564 123.268 204.519 124.897C203.016 127.693 200.845 130.073 198.201 131.825C197.094 132.529 195.82 132.924 194.51 132.97ZM177.734 103.464C176.423 105.655 175.887 108.224 176.214 110.758C176.762 115.395 178.885 119.702 182.226 122.961C182.804 123.516 183.405 124.142 184.101 124.826C187.083 127.836 190.797 131.589 194.322 131.754C195.487 131.746 196.625 131.402 197.599 130.763C200.067 129.108 202.092 126.87 203.494 124.248C204.467 122.721 205.188 121.047 205.628 119.291C206.13 116.973 205.916 114.556 205.014 112.363C204.617 111.224 203.792 110.284 202.715 109.743C202.623 109.712 202.539 109.66 202.472 109.59C202.404 109.52 202.354 109.435 202.326 109.341C201.56 106.627 198.79 105.328 196.432 105.234C194.566 105.245 192.711 105.527 190.926 106.072C190.148 106.261 189.358 106.461 188.568 106.615C187.82 106.821 187.025 106.776 186.305 106.485C185.839 106.2 185.452 105.802 185.18 105.327C184.908 104.853 184.759 104.317 184.749 103.771C184.716 103.096 184.78 102.42 184.937 101.764C183.867 101.969 182.867 102.449 182.038 103.157C181.51 103.628 181.103 104.219 180.85 104.88C180.598 105.542 180.508 106.254 180.588 106.957C180.604 107.08 180.582 107.205 180.525 107.314C180.468 107.424 180.379 107.514 180.269 107.571C180.157 107.624 180.032 107.643 179.911 107.624C179.788 107.605 179.675 107.549 179.585 107.465C178.52 106.392 177.847 104.99 177.675 103.487L177.734 103.464Z" fill="#231F20"/>
<path d="M207.03 200.726C207.03 200.726 207.03 216.73 207.549 229.3C208.067 241.869 204.189 309.887 204.189 309.887L191.998 310.181L182.897 229.122L167.053 311.125L151.514 309.887C151.514 309.887 159.673 207.889 160.003 196.984L207.03 200.726Z" fill="#231F20"/>
<path d="M167.053 311.643L151.479 310.404C151.337 310.39 151.206 310.322 151.114 310.215C151.028 310.108 150.986 309.973 150.995 309.837C151.078 308.822 159.154 207.734 159.484 196.971C159.485 196.899 159.502 196.829 159.531 196.764C159.56 196.699 159.604 196.641 159.657 196.594C159.71 196.546 159.772 196.51 159.84 196.487C159.907 196.465 159.979 196.457 160.049 196.463L207.065 200.204C207.196 200.216 207.317 200.276 207.407 200.371C207.495 200.468 207.546 200.593 207.549 200.724C207.549 200.889 207.549 216.87 208.067 229.273C208.586 241.678 204.743 309.235 204.707 309.908C204.699 310.039 204.643 310.161 204.549 310.253C204.455 310.344 204.332 310.398 204.201 310.404L192.011 310.699C191.886 310.69 191.766 310.641 191.673 310.557C191.579 310.474 191.515 310.362 191.492 310.238L182.721 232.567L167.512 311.218C167.493 311.329 167.437 311.431 167.354 311.508C167.27 311.585 167.165 311.632 167.053 311.643ZM152.069 309.401L166.628 310.58L182.391 229.038C182.415 228.916 182.482 228.807 182.578 228.729C182.676 228.652 182.797 228.61 182.921 228.613C183.045 228.615 183.165 228.663 183.256 228.748C183.348 228.833 183.405 228.949 183.416 229.073L192.47 309.696L203.693 309.424C204.048 303.31 207.561 241.206 207.03 229.368C206.534 218.144 206.511 204.017 206.5 201.255L160.521 197.596C159.979 210.308 152.694 301.635 152.069 309.401Z" fill="#231F20"/>
<path d="M204.189 309.891C204.189 309.891 215.978 317.893 213.998 318.719C212.017 319.545 191.256 318.719 191.256 318.719L191.998 310.186" fill="white"/>
<path d="M206.971 319.674C200.723 319.674 192.6 319.367 191.233 319.309C191.075 319.296 190.927 319.225 190.82 319.107C190.766 319.049 190.726 318.98 190.701 318.905C190.676 318.83 190.669 318.75 190.678 318.67L191.422 310.137C191.436 309.982 191.511 309.839 191.63 309.737C191.749 309.636 191.902 309.585 192.058 309.595C192.135 309.601 192.21 309.622 192.278 309.657C192.348 309.693 192.408 309.741 192.458 309.801C192.508 309.861 192.544 309.929 192.566 310.003C192.589 310.078 192.596 310.155 192.589 310.232L191.905 318.152C199.615 318.447 211.463 318.706 213.55 318.246C212.913 317.066 208.174 313.324 203.859 310.374C203.73 310.287 203.64 310.153 203.608 310.001C203.578 309.848 203.608 309.689 203.694 309.559C203.783 309.429 203.918 309.339 204.073 309.309C204.228 309.278 204.387 309.309 204.519 309.394C208.433 312.061 214.964 316.794 214.799 318.506C214.784 318.671 214.724 318.83 214.624 318.963C214.524 319.097 214.389 319.201 214.234 319.261C211.833 319.654 209.4 319.792 206.971 319.674Z" fill="#231F20"/>
<path d="M167.053 311.13C167.053 311.13 166.569 318.212 165.567 318.329C164.565 318.447 139.761 319.603 140.81 318.07C141.859 316.535 151.526 309.891 151.526 309.891" fill="white"/>
<path d="M149.263 319.461C144.63 319.461 140.703 319.249 140.28 318.529C140.203 318.411 140.161 318.274 140.161 318.134C140.161 317.993 140.203 317.855 140.28 317.738C141.352 316.157 150.159 310.09 151.161 309.405C151.224 309.361 151.294 309.329 151.369 309.312C151.444 309.294 151.521 309.292 151.597 309.305C151.673 309.318 151.746 309.346 151.81 309.388C151.875 309.43 151.93 309.484 151.975 309.547C152.019 309.611 152.051 309.684 152.067 309.76C152.083 309.837 152.084 309.916 152.07 309.992C152.057 310.069 152.027 310.143 151.984 310.208C151.941 310.274 151.886 310.33 151.821 310.374C148.301 312.725 144.904 315.258 141.647 317.962C145.054 318.647 162.985 317.962 165.355 317.75C165.78 317.125 166.251 313.867 166.439 311.081C166.451 310.925 166.523 310.78 166.642 310.677C166.76 310.573 166.914 310.522 167.07 310.533C167.227 310.543 167.372 310.617 167.475 310.735C167.578 310.853 167.629 311.008 167.619 311.164C167.1 318.741 166.015 318.871 165.614 318.918C165.497 318.93 156.513 319.461 149.263 319.461Z" fill="#231F20"/>
<path d="M167.63 140.371C167.63 140.371 175.493 133.608 189.77 135.65C197.139 136.724 201.301 136.382 208.209 141.964L207.03 200.669C207.03 200.669 172.912 205.626 158.046 198.203L167.63 140.371Z" fill="#FF1999"/>
<path d="M183.475 135.881L182.036 143.907C182.036 143.907 182.414 147.754 188.002 147.447C193.591 147.141 195.075 143.624 195.075 143.624L197.221 128.564C197.221 128.564 195.017 124.126 197.799 115.734C197.799 115.734 188.368 118.248 180.586 115.734C179.637 120.354 178.944 125.023 178.512 129.72C178.37 134.016 183.475 135.881 183.475 135.881Z" fill="white"/>
<path d="M187.437 148.074C181.919 148.074 181.447 144.003 181.447 143.967C181.442 143.912 181.442 143.857 181.447 143.802L182.803 136.248C181.471 135.646 177.781 133.616 177.911 129.733C178.343 125.001 179.04 120.296 179.997 115.641C180.016 115.56 180.049 115.484 180.098 115.417C180.147 115.35 180.209 115.294 180.28 115.252C180.357 115.22 180.439 115.203 180.522 115.203C180.605 115.203 180.687 115.22 180.764 115.252C188.262 117.683 197.552 115.252 197.646 115.252C197.748 115.222 197.856 115.222 197.958 115.251C198.061 115.281 198.153 115.338 198.224 115.417C198.296 115.495 198.347 115.59 198.369 115.694C198.392 115.798 198.386 115.906 198.354 116.007C195.689 124.021 197.716 128.341 197.74 128.388C197.789 128.495 197.809 128.613 197.799 128.73L195.689 143.731C195.696 143.782 195.696 143.834 195.689 143.884C195.63 144.038 194.003 147.756 188.109 148.063L187.437 148.074ZM182.638 143.92C182.721 144.404 183.381 147.107 187.979 146.882C192.576 146.658 194.274 143.944 194.51 143.483L196.62 128.671C196.243 127.786 194.816 123.667 196.927 116.574C194.333 117.128 187.307 118.309 181.047 116.515C180.142 120.891 179.492 125.317 179.101 129.769C178.972 133.557 183.629 135.304 183.675 135.328C183.806 135.376 183.916 135.468 183.985 135.589C184.054 135.71 184.078 135.852 184.053 135.989L182.638 143.92Z" fill="#231F20"/>
<path d="M194.769 127.693C195.094 126.991 195.635 126.412 196.314 126.041C196.96 125.731 197.653 125.532 198.365 125.451C198.752 125.36 199.156 125.36 199.544 125.451C199.805 125.546 200.044 125.69 200.251 125.876C200.771 126.268 201.134 126.833 201.277 127.469C201.331 127.994 201.257 128.524 201.065 129.015C200.892 129.559 200.651 130.079 200.346 130.561C200.031 131.039 199.624 131.449 199.149 131.767C198.674 132.085 198.141 132.306 197.581 132.416C197.019 132.526 196.443 132.523 195.883 132.407C195.324 132.291 194.792 132.065 194.322 131.741" fill="white"/>
<path d="M196.762 133.079C195.769 133.082 194.798 132.782 193.98 132.218C193.915 132.174 193.86 132.119 193.817 132.054C193.775 131.989 193.745 131.917 193.73 131.841C193.715 131.764 193.716 131.686 193.731 131.61C193.747 131.534 193.777 131.462 193.82 131.397C193.863 131.333 193.919 131.278 193.984 131.235C194.048 131.192 194.121 131.163 194.197 131.148C194.273 131.133 194.351 131.133 194.427 131.149C194.503 131.164 194.576 131.195 194.639 131.238C195.461 131.795 196.468 132.011 197.446 131.84C198.408 131.636 199.254 131.065 199.804 130.247C200.081 129.809 200.299 129.337 200.451 128.842C200.614 128.442 200.683 128.01 200.652 127.579C200.513 127.106 200.223 126.692 199.827 126.399C199.678 126.267 199.506 126.163 199.32 126.092C199.022 126.021 198.711 126.021 198.412 126.092C197.767 126.161 197.138 126.337 196.549 126.612C196.008 126.916 195.575 127.382 195.311 127.945C195.281 128.017 195.236 128.081 195.18 128.135C195.124 128.189 195.058 128.231 194.985 128.258C194.913 128.286 194.836 128.298 194.758 128.295C194.68 128.292 194.604 128.273 194.533 128.24C194.462 128.21 194.398 128.165 194.344 128.109C194.29 128.053 194.248 127.986 194.22 127.913C194.193 127.841 194.181 127.763 194.184 127.686C194.187 127.608 194.206 127.532 194.239 127.461C194.618 126.658 195.247 126 196.03 125.585C196.736 125.246 197.493 125.026 198.271 124.936C198.744 124.824 199.236 124.824 199.709 124.936C200.043 125.058 200.35 125.242 200.617 125.479C201.229 125.966 201.647 126.657 201.796 127.426C201.86 128.047 201.775 128.674 201.548 129.255C201.36 129.85 201.095 130.418 200.759 130.943C200.398 131.483 199.934 131.945 199.393 132.304C198.853 132.662 198.248 132.91 197.61 133.032C197.329 133.074 197.045 133.089 196.762 133.079Z" fill="#231F20"/>
<path d="M183.44 122.875C183.44 122.875 179.726 126.416 180.222 127.265C180.716 128.115 182.674 128.08 182.674 128.08" fill="white"/>
<path d="M182.544 128.675C181.954 128.675 180.292 128.58 179.714 127.566C179.137 126.55 180.351 125.004 183.039 122.443C183.153 122.335 183.305 122.277 183.462 122.281C183.619 122.286 183.768 122.353 183.875 122.467C183.983 122.581 184.042 122.734 184.037 122.891C184.033 123.048 183.966 123.197 183.852 123.305C182.214 124.851 180.775 126.621 180.764 127.082C180.94 127.353 181.942 127.518 182.661 127.495C182.818 127.495 182.968 127.557 183.078 127.668C183.189 127.778 183.251 127.928 183.251 128.085C183.251 128.241 183.189 128.391 183.078 128.502C182.968 128.613 182.818 128.675 182.661 128.675H182.544Z" fill="#231F20"/>
<path d="M189.653 121.326C189.535 121.034 189.344 120.778 189.1 120.58C188.855 120.381 188.565 120.249 188.255 120.193C187.946 120.138 187.627 120.162 187.329 120.263C187.031 120.364 186.764 120.539 186.552 120.771" fill="white"/>
<path d="M189.653 121.919C189.543 121.919 189.436 121.889 189.343 121.833C189.25 121.777 189.174 121.696 189.123 121.6C189.019 121.395 188.876 121.212 188.702 121.062C188.529 120.912 188.326 120.798 188.109 120.726C187.887 120.706 187.665 120.74 187.46 120.824C187.255 120.908 187.073 121.041 186.929 121.21C186.875 121.266 186.809 121.31 186.738 121.34C186.666 121.37 186.589 121.385 186.511 121.385C186.433 121.385 186.356 121.37 186.284 121.34C186.212 121.31 186.148 121.266 186.093 121.21C186.038 121.157 185.994 121.092 185.964 121.021C185.934 120.95 185.919 120.874 185.919 120.797C185.919 120.72 185.934 120.644 185.964 120.573C185.994 120.502 186.038 120.438 186.093 120.384C186.367 120.093 186.707 119.871 187.084 119.737C187.462 119.604 187.865 119.563 188.262 119.617C188.656 119.72 189.023 119.906 189.341 120.163C189.658 120.419 189.917 120.74 190.101 121.104C190.147 121.194 190.17 121.294 190.166 121.395C190.163 121.496 190.134 121.594 190.082 121.68C190.031 121.767 189.956 121.838 189.87 121.888C189.782 121.938 189.683 121.965 189.582 121.966L189.653 121.919Z" fill="#231F20"/>
<path d="M183.899 120.371C183.899 120.371 183.428 118.907 181.259 120.264L183.899 120.371Z" fill="white"/>
<path d="M183.899 120.957C183.776 120.958 183.657 120.919 183.557 120.847C183.458 120.775 183.383 120.673 183.346 120.556C183.319 120.496 183.28 120.443 183.231 120.401C183.182 120.358 183.124 120.326 183.063 120.308C182.874 120.237 182.438 120.213 181.577 120.756C181.445 120.841 181.287 120.869 181.133 120.836C180.981 120.803 180.848 120.71 180.764 120.579C180.721 120.514 180.692 120.441 180.678 120.364C180.665 120.287 180.666 120.208 180.684 120.132C180.702 120.056 180.735 119.984 180.781 119.921C180.827 119.858 180.885 119.805 180.952 119.765C181.304 119.484 181.715 119.287 182.154 119.188C182.594 119.09 183.049 119.094 183.487 119.198C183.709 119.282 183.91 119.413 184.078 119.582C184.244 119.752 184.372 119.955 184.454 120.178C184.479 120.252 184.49 120.329 184.485 120.407C184.479 120.485 184.459 120.561 184.423 120.63C184.388 120.7 184.339 120.761 184.28 120.811C184.22 120.861 184.151 120.899 184.077 120.921C184.021 120.945 183.96 120.957 183.899 120.957Z" fill="#231F20"/>
<path d="M183.475 135.888C183.475 135.888 187.649 136.537 189.771 135.711C189.771 135.711 187.413 140.231 182.697 140.727L183.475 135.888Z" fill="#231F20"/>
<path d="M182.72 141.308C182.635 141.307 182.552 141.288 182.475 141.252C182.398 141.216 182.329 141.164 182.274 141.099C182.219 141.034 182.179 140.957 182.157 140.875C182.134 140.793 182.129 140.707 182.142 140.623L182.933 135.784C182.944 135.708 182.97 135.635 183.011 135.569C183.051 135.503 183.104 135.446 183.167 135.4C183.229 135.355 183.301 135.323 183.376 135.306C183.451 135.289 183.529 135.287 183.605 135.3C183.605 135.3 187.649 135.914 189.593 135.147C189.705 135.106 189.825 135.098 189.941 135.126C190.057 135.153 190.161 135.214 190.242 135.3C190.323 135.39 190.375 135.503 190.39 135.624C190.404 135.744 190.382 135.866 190.325 135.973C190.231 136.162 187.766 140.777 182.78 141.296L182.72 141.308ZM183.994 136.587L183.428 140.057C185.458 139.542 187.249 138.342 188.498 136.658C186.984 136.788 185.462 136.749 183.958 136.54L183.994 136.587Z" fill="#231F20"/>
<path d="M155.016 139.467L154.414 149.015L146.516 149.688L147.612 134.215C147.612 134.215 155.947 131.299 156.902 131.618C157.857 131.937 155.016 139.467 155.016 139.467Z" fill="white"/>
<path d="M146.516 150.277C146.435 150.276 146.355 150.258 146.281 150.225C146.207 150.192 146.14 150.144 146.085 150.084C146.03 150.025 145.988 149.955 145.961 149.878C145.933 149.802 145.922 149.721 145.926 149.64L147.035 134.167C147.039 134.053 147.079 133.942 147.149 133.851C147.218 133.761 147.315 133.694 147.423 133.659C150.606 132.55 156.088 130.733 157.079 131.063C157.185 131.095 157.283 131.15 157.367 131.223C157.45 131.296 157.516 131.387 157.563 131.488C158.081 132.585 156.572 137 155.594 139.584L155.004 149.026C154.996 149.169 154.937 149.303 154.837 149.405C154.737 149.507 154.604 149.57 154.461 149.581L146.563 150.242L146.516 150.277ZM148.178 134.639L147.153 149.038L153.861 148.472L154.427 139.431C154.415 139.372 154.415 139.312 154.427 139.254C155.37 136.977 156.059 134.602 156.477 132.172C153.658 132.804 150.886 133.628 148.178 134.639Z" fill="#231F20"/>
<path d="M164.188 131.117C164.188 131.117 163.139 133.477 161.629 133.831C160.121 134.185 156.855 132.651 156.478 132.804C156.1 132.958 147.447 139.496 146.646 139.685C145.844 139.874 144.288 137.832 143.592 135.413C143.592 135.413 151.998 129.677 152.54 129.063C153.083 128.449 153.719 124.814 154.567 123.492L164.188 131.117Z" fill="white"/>
<path d="M146.54 140.29C145.243 140.29 143.651 137.929 143.002 135.569C142.968 135.451 142.972 135.326 143.014 135.211C143.057 135.096 143.135 134.998 143.238 134.931C146.434 132.748 151.656 129.113 152.08 128.664C152.396 127.974 152.645 127.255 152.823 126.516C153.088 125.366 153.484 124.249 154.002 123.188C154.045 123.117 154.104 123.056 154.174 123.009C154.243 122.962 154.321 122.931 154.403 122.917C154.485 122.901 154.57 122.903 154.652 122.924C154.733 122.944 154.809 122.982 154.874 123.035L164.495 130.659C164.598 130.738 164.671 130.851 164.701 130.978C164.73 131.105 164.716 131.238 164.659 131.355C164.542 131.627 163.481 133.952 161.724 134.412C160.331 134.517 158.935 134.278 157.657 133.716C157.268 133.586 156.819 133.433 156.596 133.385L154.697 134.766C149.181 138.803 147.235 140.136 146.716 140.266L146.54 140.29ZM144.276 135.663C144.936 137.729 146.151 139.086 146.527 139.11C147.117 138.885 151.809 135.463 154.061 133.822C155.641 132.642 156.053 132.358 156.194 132.288C156.56 132.087 157.008 132.229 158.081 132.595C159.158 133.052 160.318 133.282 161.488 133.267C162.301 133.055 163.056 131.981 163.445 131.285L154.769 124.404C154.497 125.076 154.226 125.997 153.978 126.764C153.802 127.688 153.467 128.575 152.988 129.384C152.458 130.045 146.257 134.306 144.276 135.663Z" fill="#231F20"/>
<path d="M154.992 125.681C155.062 126.295 154.948 126.915 154.662 127.463C153.928 128.28 153.049 128.952 152.069 129.446L150.618 126.507L153.495 124.406L154.992 125.681Z" fill="#231F20"/>
<path d="M152.068 130.034H151.892C151.815 130.009 151.745 129.969 151.684 129.916C151.623 129.863 151.573 129.799 151.538 129.727L150.112 126.764C150.048 126.64 150.031 126.496 150.064 126.36C150.096 126.224 150.175 126.104 150.288 126.021L153.153 123.955C153.257 123.878 153.383 123.836 153.512 123.836C153.642 123.836 153.768 123.878 153.872 123.955L155.369 125.136C155.44 125.188 155.497 125.256 155.538 125.333C155.578 125.411 155.601 125.497 155.605 125.584C155.681 126.331 155.543 127.085 155.205 127.756C154.433 128.679 153.477 129.431 152.398 129.963C152.298 130.018 152.183 130.043 152.068 130.034ZM151.361 126.694L152.316 128.617C153 128.252 153.611 127.764 154.12 127.177C154.309 126.813 154.407 126.408 154.403 125.997L153.448 125.206L151.361 126.694Z" fill="#231F20"/>
<path d="M145.844 133.838C145.844 133.838 145.077 131.478 146.445 131.254C146.44 131.034 146.495 130.818 146.605 130.629C146.716 130.439 146.877 130.284 147.07 130.181C147.264 130.078 147.482 130.031 147.701 130.046C147.919 130.06 148.129 130.135 148.308 130.262C148.308 130.262 148.744 128.456 150.159 128.822C151.573 129.188 152.694 132.576 152.517 133.425C152.339 134.275 151.22 133.756 150.666 132.953C150.666 132.953 151.384 134.287 150.901 134.641C150.206 135.16 149.475 134.24 148.873 133.579C148.873 133.579 149.758 135.137 148.461 135.278C147.459 135.396 146.528 133.366 146.528 133.366L145.844 133.838Z" fill="white"/>
<path d="M148.367 135.904C147.448 135.904 146.716 134.948 146.304 134.264L146.174 134.346C146.099 134.398 146.013 134.431 145.923 134.444C145.833 134.456 145.741 134.447 145.655 134.417C145.567 134.387 145.488 134.338 145.423 134.272C145.357 134.207 145.307 134.127 145.277 134.039C144.945 133.165 144.945 132.199 145.277 131.325C145.431 131.091 145.647 130.906 145.902 130.794C146.04 130.338 146.343 129.951 146.751 129.708C147.11 129.506 147.532 129.451 147.931 129.554C148.124 129.11 148.444 128.733 148.85 128.469C149.062 128.341 149.299 128.259 149.544 128.227C149.789 128.194 150.038 128.212 150.276 128.28C152.069 128.74 153.295 132.493 153.059 133.579C153.024 133.794 152.924 133.993 152.772 134.15C152.621 134.306 152.424 134.412 152.21 134.452C152.016 134.493 151.815 134.493 151.62 134.452C151.607 134.592 151.564 134.727 151.495 134.849C151.426 134.971 151.332 135.077 151.22 135.16C150.989 135.339 150.705 135.437 150.412 135.437C150.12 135.437 149.836 135.339 149.604 135.16C149.61 135.184 149.61 135.208 149.604 135.231C149.497 135.431 149.34 135.6 149.148 135.72C148.955 135.84 148.735 135.908 148.509 135.916L148.367 135.904ZM146.516 132.8H146.669C146.754 132.823 146.833 132.865 146.901 132.922C146.967 132.979 147.021 133.05 147.058 133.131C147.4 133.874 148.06 134.747 148.379 134.688C148.52 134.688 148.556 134.688 148.556 134.688C148.562 134.417 148.488 134.15 148.343 133.921C148.25 133.795 148.213 133.636 148.237 133.481C148.261 133.326 148.346 133.187 148.473 133.095C148.599 133.003 148.758 132.965 148.912 132.989C149.067 133.013 149.206 133.098 149.298 133.225L149.428 133.367C149.746 133.732 150.242 134.216 150.465 134.24C150.41 133.905 150.299 133.581 150.135 133.284C150.069 133.152 150.055 132.999 150.095 132.857C150.136 132.715 150.228 132.593 150.354 132.516C150.48 132.439 150.63 132.412 150.776 132.44C150.92 132.469 151.049 132.551 151.137 132.67C151.456 133.119 151.903 133.378 152.009 133.319C152.009 132.753 151.055 129.72 150.006 129.448C149.923 129.414 149.835 129.396 149.746 129.396C149.657 129.396 149.569 129.414 149.487 129.448C149.183 129.689 148.971 130.026 148.885 130.404C148.862 130.486 148.821 130.563 148.767 130.628C148.712 130.693 148.643 130.746 148.566 130.783C148.489 130.819 148.406 130.84 148.321 130.841C148.235 130.843 148.15 130.827 148.072 130.794C147.967 130.734 147.852 130.696 147.732 130.684C147.612 130.672 147.491 130.685 147.376 130.723C147.186 130.876 147.06 131.095 147.023 131.336C147.006 131.464 146.946 131.582 146.854 131.671C146.762 131.761 146.644 131.818 146.516 131.832C146.442 131.843 146.375 131.881 146.327 131.938C146.209 132.226 146.181 132.543 146.245 132.847C146.331 132.814 146.423 132.798 146.516 132.8Z" fill="#231F20"/>
<path d="M152.069 126.619C152.069 126.619 152.87 125.238 153.708 126.454C154.544 127.669 155.558 129.994 154.167 130.207C152.776 130.419 151.715 127.835 152.069 126.619Z" fill="white"/>
<path d="M153.991 130.812C153.699 130.799 153.413 130.725 153.152 130.592C152.892 130.46 152.663 130.273 152.481 130.045C152.073 129.56 151.776 128.992 151.611 128.38C151.446 127.769 151.417 127.128 151.526 126.504C151.521 126.461 151.521 126.417 151.526 126.374C151.666 126.119 151.862 125.9 152.099 125.732C152.336 125.564 152.607 125.453 152.894 125.406C153.151 125.414 153.402 125.487 153.623 125.62C153.843 125.752 154.027 125.938 154.155 126.162C154.333 126.421 155.853 128.675 155.335 130.033C155.242 130.247 155.096 130.434 154.91 130.575C154.723 130.715 154.505 130.805 154.273 130.835L153.991 130.812ZM152.634 126.858C152.566 127.71 152.827 128.555 153.366 129.218C153.542 129.407 153.79 129.632 154.073 129.573C154.356 129.513 154.226 129.573 154.25 129.478C154.229 128.486 153.876 127.53 153.247 126.764C153.106 126.563 153.012 126.516 153 126.516C152.847 126.59 152.719 126.71 152.634 126.858Z" fill="#231F20"/>
<path d="M155.016 139.476C155.849 137.786 156.581 136.048 157.208 134.271C157.35 132.926 157.044 130.837 155.864 130.518C154.686 130.199 152.009 129.869 152.446 131.049C152.882 132.229 155.205 132.335 155.205 132.335C154.771 132.76 154.426 133.267 154.189 133.826C153.952 134.385 153.828 134.986 153.825 135.593" fill="white"/>
<path d="M155.016 140.067C154.93 140.083 154.842 140.083 154.756 140.067C154.687 140.033 154.624 139.986 154.573 139.928C154.521 139.869 154.482 139.802 154.457 139.728C154.432 139.655 154.421 139.577 154.426 139.499C154.431 139.422 154.451 139.346 154.486 139.276C155.305 137.653 156.017 135.977 156.619 134.26C156.761 132.95 156.407 131.333 155.711 131.144C154.842 130.878 153.923 130.809 153.023 130.944C153.644 131.481 154.432 131.786 155.252 131.805C155.364 131.814 155.47 131.854 155.56 131.92C155.65 131.987 155.719 132.078 155.758 132.183C155.798 132.289 155.807 132.404 155.783 132.515C155.76 132.625 155.707 132.727 155.629 132.809C154.886 133.537 154.462 134.53 154.45 135.57C154.47 135.725 154.431 135.881 154.338 136.007C154.246 136.132 154.108 136.217 153.955 136.243C153.878 136.255 153.8 136.251 153.725 136.233C153.65 136.214 153.579 136.181 153.516 136.135C153.453 136.089 153.401 136.031 153.361 135.964C153.321 135.898 153.295 135.824 153.283 135.747C153.197 134.693 153.508 133.645 154.155 132.809C153.694 132.75 153.253 132.585 152.867 132.327C152.48 132.069 152.159 131.725 151.927 131.322C151.838 131.128 151.809 130.913 151.843 130.703C151.875 130.493 151.971 130.297 152.116 130.141C153.036 129.138 156.03 129.952 156.053 129.952C157.644 130.401 157.987 132.879 157.822 134.343C157.226 136.2 156.485 138.008 155.605 139.748C155.551 139.855 155.466 139.943 155.361 140C155.255 140.057 155.134 140.08 155.016 140.067Z" fill="#231F20"/>
<path d="M138.959 122.733C138.959 122.733 148.685 121.765 152.658 124.079C153.656 124.674 154.61 125.34 155.511 126.073C157.668 127.761 159.696 129.614 161.276 130.723C164.4 132.813 167.43 133.261 169.528 129.921C171.297 127.065 170.26 125.707 167.889 123.17C166.711 121.907 164.247 119.842 162.113 117.54C160.856 116.259 159.795 114.8 158.965 113.209C157.174 109.42 157.68 103.602 157.68 103.602L138.959 122.733Z" fill="white"/>
<path d="M165.65 132.962C163.941 132.861 162.3 132.258 160.934 131.227C159.811 130.424 158.729 129.566 157.692 128.654C156.878 127.958 156.017 127.226 155.145 126.542C154.259 125.83 153.325 125.179 152.351 124.594C148.591 122.411 139.1 123.319 139.006 123.331C138.885 123.339 138.764 123.311 138.659 123.25C138.555 123.189 138.47 123.098 138.417 122.989C138.367 122.881 138.35 122.76 138.37 122.642C138.388 122.525 138.442 122.415 138.523 122.328L157.208 103.161C157.29 103.071 157.398 103.011 157.517 102.987C157.636 102.964 157.759 102.979 157.869 103.031C157.981 103.081 158.075 103.164 158.136 103.27C158.197 103.376 158.223 103.499 158.211 103.621C158.211 103.621 157.75 109.334 159.39 112.933C160.195 114.47 161.223 115.878 162.443 117.111C163.716 118.504 165.037 119.684 166.215 120.758C167.064 121.549 167.795 122.222 168.302 122.765C170.731 125.373 172.004 127.002 170.011 130.236C169.666 130.881 169.189 131.448 168.613 131.899C168.037 132.35 167.372 132.676 166.664 132.856C166.331 132.929 165.991 132.965 165.65 132.962ZM143.533 121.95C146.68 121.95 150.665 122.246 152.964 123.579C153.981 124.179 154.954 124.849 155.877 125.586C156.772 126.294 157.644 127.025 158.47 127.722C159.464 128.638 160.508 129.501 161.594 130.307C163.468 131.558 165.131 132.041 166.392 131.758C166.946 131.613 167.463 131.353 167.91 130.995C168.356 130.637 168.723 130.19 168.986 129.681C170.472 127.321 169.823 126.223 167.418 123.638C166.934 123.119 166.239 122.458 165.39 121.679C164.212 120.593 162.891 119.318 161.641 118.008C160.336 116.691 159.239 115.183 158.388 113.535C157.336 110.88 156.854 108.033 156.972 105.179L140.468 122.045C141.281 122.045 142.342 121.95 143.533 121.95Z" fill="#231F20"/>
<path d="M154.992 125.679C157.15 127.367 159.708 129.597 161.276 130.73C164.742 133.327 166.934 133.598 169.198 130.4C171.461 127.201 170.213 125.679 167.842 123.177C166.664 121.914 164.2 119.848 162.065 117.547C161.766 119.522 160.893 121.365 159.555 122.846C158.392 124.273 156.786 125.27 154.992 125.679Z" fill="#231F20"/>
<path d="M165.65 133.331C164.329 133.331 162.879 132.67 160.934 131.206C160.097 130.592 158.954 129.648 157.751 128.657C156.549 127.665 155.629 126.922 154.639 126.143C154.557 126.078 154.493 125.993 154.456 125.895C154.418 125.797 154.409 125.691 154.427 125.588C154.453 125.475 154.511 125.373 154.594 125.293C154.679 125.213 154.784 125.16 154.898 125.14C156.57 124.748 158.063 123.809 159.143 122.472C160.387 121.08 161.205 119.36 161.5 117.515C161.511 117.4 161.554 117.289 161.626 117.198C161.696 117.106 161.792 117.036 161.901 116.996C162.009 116.957 162.125 116.95 162.237 116.978C162.348 117.005 162.449 117.065 162.526 117.149C163.717 118.507 165.037 119.687 166.216 120.761C167.064 121.552 167.795 122.225 168.303 122.767C170.719 125.364 172.299 127.063 169.705 130.734C169.335 131.38 168.833 131.941 168.231 132.38C167.631 132.82 166.943 133.127 166.216 133.283C166.028 133.315 165.84 133.33 165.65 133.331ZM156.219 125.919C156.949 126.509 157.716 127.099 158.447 127.748C159.626 128.728 160.804 129.66 161.594 130.262C163.54 131.725 164.907 132.304 166.039 132.127C166.595 131.976 167.114 131.715 167.567 131.36C168.02 131.006 168.399 130.564 168.68 130.061C170.719 127.17 169.752 126.119 167.406 123.605C166.9 123.062 166.228 122.425 165.355 121.623C164.483 120.82 163.398 119.805 162.396 118.778C161.918 120.406 161.116 121.919 160.038 123.228C159.035 124.442 157.729 125.37 156.254 125.919H156.219Z" fill="#231F20"/>
<path d="M136.259 121.912C138.44 123.871 143.238 122.242 147.966 118.265C149.17 117.24 150.304 116.136 151.361 114.96C152.394 113.807 153.347 112.584 154.214 111.301C157.751 106.144 158.812 101.163 156.572 99.1923C153.861 96.7491 147.141 99.8649 141.482 106.132C135.823 112.399 133.548 119.469 136.259 121.912Z" fill="white"/>
<path d="M138.747 123.347C137.698 123.393 136.669 123.039 135.87 122.355C134.373 121.01 134.137 118.496 135.21 115.274C136.52 111.734 138.525 108.491 141.105 105.738C146.999 99.1165 154.073 96.0479 157.032 98.7387C159.39 100.875 158.482 106.056 154.674 111.627C152.887 114.269 150.745 116.652 148.308 118.708C144.771 121.73 141.329 123.347 138.747 123.347ZM154.144 98.9394C151.043 98.9394 146.127 101.89 141.966 106.54C139.505 109.175 137.59 112.272 136.33 115.652C135.423 118.354 135.54 120.479 136.661 121.482C138.534 123.158 143.027 121.659 147.589 117.823C148.761 116.817 149.863 115.733 150.89 114.578C151.912 113.466 152.854 112.283 153.708 111.037C157.068 106.056 158.093 101.394 156.207 99.6948C155.638 99.1924 154.902 98.9228 154.144 98.9394Z" fill="#231F20"/>
<path d="M144.088 113.398L147.966 118.261C149.17 117.236 150.304 116.132 151.361 114.956C152.394 113.803 153.348 112.58 154.214 111.298L148.603 107.875L144.088 113.398Z" fill="#231F20"/>
<path d="M147.966 118.86H147.907C147.75 118.837 147.607 118.757 147.506 118.636L143.627 113.785C143.543 113.68 143.495 113.549 143.495 113.414C143.495 113.278 143.543 113.147 143.627 113.042L148.143 107.495C148.231 107.382 148.359 107.306 148.501 107.282C148.642 107.258 148.788 107.287 148.909 107.365L154.533 110.811C154.665 110.899 154.757 111.034 154.792 111.189C154.812 111.267 154.815 111.349 154.8 111.428C154.786 111.507 154.755 111.583 154.709 111.649C152.922 114.291 150.78 116.674 148.343 118.731C148.238 118.819 148.103 118.866 147.966 118.86ZM144.841 113.408L148.048 117.421C149.053 116.532 150.002 115.582 150.889 114.576C151.772 113.596 152.595 112.563 153.353 111.484L148.709 108.628L144.841 113.408Z" fill="#231F20"/>
<path d="M147.628 111.672C148.88 110.146 149.32 108.435 148.611 107.852C147.901 107.269 146.311 108.033 145.059 109.559C143.806 111.085 143.366 112.795 144.076 113.379C144.786 113.962 146.376 113.198 147.628 111.672Z" fill="#231F20"/>
<path d="M144.688 114.182C144.333 114.193 143.987 114.075 143.71 113.852C142.72 113.037 143.109 111.031 144.618 109.201C145.21 108.453 145.954 107.838 146.799 107.396C147.112 107.143 147.501 107.006 147.902 107.008C148.304 107.009 148.693 107.15 149.003 107.405C149.314 107.66 149.526 108.014 149.605 108.408C149.685 108.802 149.627 109.212 149.44 109.567C148.873 111.41 147.602 112.954 145.903 113.863C145.527 114.059 145.112 114.168 144.688 114.182ZM148.013 108.281C147.766 108.297 147.525 108.365 147.306 108.482C146.616 108.848 146.009 109.355 145.526 109.969C144.347 111.409 144.17 112.719 144.465 112.966C144.583 113.061 144.924 113.061 145.408 112.825C146.098 112.458 146.704 111.952 147.188 111.338C147.692 110.744 148.07 110.053 148.296 109.308C148.437 108.777 148.367 108.446 148.296 108.352C148.259 108.315 148.215 108.287 148.166 108.271C148.117 108.254 148.065 108.25 148.013 108.257V108.281Z" fill="#231F20"/>
<path d="M148.862 134.198C148.759 134.198 148.658 134.17 148.569 134.119C148.48 134.067 148.407 133.993 148.355 133.903C148.042 133.401 147.665 132.941 147.235 132.534C147.175 132.485 147.126 132.425 147.09 132.356C147.054 132.288 147.032 132.213 147.025 132.136C147.018 132.059 147.028 131.982 147.051 131.908C147.075 131.835 147.114 131.767 147.165 131.708C147.267 131.589 147.412 131.515 147.568 131.502C147.725 131.489 147.88 131.537 148.001 131.637C148.534 132.124 148.994 132.685 149.368 133.301C149.446 133.438 149.469 133.6 149.428 133.752C149.389 133.904 149.291 134.035 149.157 134.116C149.068 134.171 148.966 134.199 148.862 134.198Z" fill="#231F20"/>
<path d="M150.654 133.573C150.518 133.573 150.386 133.526 150.281 133.44C150.176 133.354 150.103 133.234 150.076 133.101C149.901 132.483 149.528 131.94 149.015 131.554C148.89 131.46 148.807 131.321 148.785 131.166C148.764 131.011 148.803 130.853 148.898 130.728C148.991 130.603 149.131 130.52 149.286 130.498C149.441 130.476 149.597 130.516 149.723 130.61C150.463 131.171 150.994 131.965 151.231 132.865C151.249 132.941 151.251 133.019 151.236 133.096C151.223 133.173 151.193 133.246 151.15 133.311C151.107 133.376 151.051 133.432 150.987 133.475C150.921 133.517 150.848 133.547 150.772 133.561L150.654 133.573Z" fill="#231F20"/>
<path d="M146.516 133.981C146.421 133.98 146.329 133.958 146.244 133.915C146.16 133.872 146.088 133.809 146.032 133.733L145.632 133.178C145.543 133.049 145.509 132.891 145.535 132.736C145.562 132.582 145.646 132.444 145.773 132.352C145.836 132.307 145.908 132.274 145.984 132.257C146.059 132.24 146.138 132.238 146.215 132.251C146.291 132.264 146.365 132.292 146.431 132.334C146.496 132.375 146.553 132.43 146.598 132.494L146.999 133.06C147.044 133.123 147.076 133.193 147.093 133.268C147.111 133.344 147.113 133.421 147.099 133.497C147.087 133.573 147.058 133.645 147.016 133.71C146.975 133.775 146.921 133.831 146.857 133.875C146.756 133.943 146.638 133.98 146.516 133.981Z" fill="#231F20"/>
<path d="M183.287 133.904C183.619 133.904 183.888 132.974 183.888 131.827C183.888 130.68 183.619 129.75 183.287 129.75C182.955 129.75 182.685 130.68 182.685 131.827C182.685 132.974 182.955 133.904 183.287 133.904Z" fill="#231F20"/>
<path d="M167.63 140.367L157.751 160.514V141.854L144.087 143.141C144.087 143.141 131.708 190.728 141.481 192.982C155.711 196.275 172.805 162.756 172.805 162.756L167.63 140.367Z" fill="#FF1999"/>
<path d="M156.147 172.24C156.07 172.236 155.995 172.216 155.926 172.182C155.857 172.148 155.795 172.1 155.745 172.042C155.694 171.984 155.655 171.916 155.632 171.843C155.608 171.769 155.599 171.692 155.605 171.615L157.208 141.814C157.211 141.737 157.231 141.661 157.262 141.591C157.295 141.521 157.341 141.459 157.399 141.407C157.456 141.355 157.522 141.316 157.595 141.29C157.668 141.265 157.745 141.254 157.822 141.259C157.901 141.262 157.978 141.281 158.049 141.314C158.12 141.347 158.184 141.394 158.237 141.453C158.289 141.511 158.329 141.579 158.355 141.653C158.381 141.727 158.393 141.806 158.388 141.884L156.785 171.686C156.78 171.764 156.76 171.841 156.725 171.912C156.69 171.982 156.642 172.046 156.583 172.097C156.524 172.149 156.455 172.188 156.379 172.213C156.305 172.237 156.226 172.247 156.147 172.24Z" fill="#231F20"/>
<path d="M158.918 193.577H158.824C158.67 193.548 158.534 193.46 158.443 193.333C158.353 193.205 158.316 193.047 158.34 192.893C158.494 191.925 165.591 149.094 165.591 149.094L166.77 149.283C166.77 149.283 159.696 192.126 159.531 193.093C159.505 193.235 159.429 193.362 159.316 193.451C159.203 193.54 159.062 193.585 158.918 193.577Z" fill="#231F20"/>
<path d="M229.055 203.073L196.116 198.227L192.948 219.805L225.887 224.652L229.055 203.073Z" fill="white"/>
<path d="M225.905 225.237H225.822L192.883 220.399C192.805 220.388 192.73 220.362 192.664 220.322C192.596 220.28 192.539 220.226 192.493 220.163C192.446 220.101 192.412 220.031 192.391 219.955C192.371 219.881 192.366 219.803 192.376 219.726L195.547 198.151C195.559 198.074 195.585 198.001 195.625 197.934C195.666 197.868 195.718 197.81 195.78 197.764C195.843 197.717 195.914 197.685 195.989 197.665C196.064 197.647 196.142 197.643 196.219 197.656L229.158 202.494C229.236 202.506 229.31 202.533 229.376 202.573C229.443 202.614 229.502 202.667 229.548 202.73C229.594 202.792 229.628 202.862 229.645 202.938C229.663 203.013 229.666 203.091 229.654 203.167L226.482 224.718C226.465 224.861 226.397 224.991 226.291 225.086C226.185 225.182 226.047 225.235 225.905 225.237ZM193.637 219.337L225.469 224.058L228.463 203.651L196.691 198.93L193.637 219.337Z" fill="#231F20"/>
<path d="M211.014 203.992C210.588 206.097 210.045 208.178 209.388 210.224C208.786 211.557 204.672 216.762 204.931 218.108C205.19 219.453 207.289 219.736 207.289 219.736C207.289 219.736 204.931 223.608 206.759 224.351C208.586 225.095 213.149 226.44 214.34 224.351C215.53 222.262 218.937 206.648 218.937 206.648L211.014 203.992Z" fill="white"/>
<path d="M211.663 226.06C209.884 225.963 208.134 225.564 206.487 224.88C206.267 224.793 206.068 224.658 205.907 224.485C205.746 224.311 205.626 224.103 205.556 223.876C205.179 222.696 205.887 221.055 206.358 220.112C205.892 219.991 205.464 219.755 205.113 219.425C204.763 219.095 204.502 218.681 204.354 218.222C204.118 217.16 205.403 215.178 207.384 212.322C207.915 211.588 208.404 210.823 208.845 210.032C209.491 208.021 210.026 205.976 210.449 203.906C210.465 203.824 210.498 203.747 210.547 203.68C210.595 203.612 210.659 203.557 210.732 203.517C210.808 203.485 210.89 203.469 210.974 203.469C211.057 203.469 211.138 203.485 211.215 203.517L219.078 206.184C219.218 206.228 219.336 206.323 219.408 206.45C219.48 206.577 219.501 206.727 219.467 206.869C219.326 207.506 216.026 222.601 214.752 224.738C214.399 225.211 213.928 225.582 213.385 225.815C212.843 226.047 212.249 226.131 211.663 226.06ZM211.451 204.815C211.065 206.746 210.557 208.649 209.93 210.515C209.461 211.377 208.934 212.206 208.35 212.995C207.395 214.41 205.392 217.361 205.509 218.034C205.709 218.942 207.313 219.214 207.325 219.214C207.421 219.226 207.514 219.262 207.593 219.32C207.671 219.378 207.733 219.455 207.773 219.545C207.816 219.631 207.839 219.726 207.839 219.822C207.839 219.919 207.816 220.013 207.773 220.099C207.219 221.02 206.44 222.79 206.7 223.64C206.719 223.704 206.753 223.762 206.797 223.811C206.843 223.86 206.897 223.899 206.959 223.924C208.798 224.691 212.854 225.765 213.797 224.171C214.74 222.578 217.181 211.732 218.206 207.011L211.451 204.815Z" fill="#231F20"/>
<path d="M208.209 142.016C208.209 142.016 222.91 160.014 226.471 171.085C230.031 182.156 219.633 209.478 219.633 209.478L208.209 207.991L211.097 178.013C208.739 171.71 201.301 160.51 201.301 160.51L208.209 142.016Z" fill="#FF1999"/>
<path d="M187.543 147.484L184.183 149.184L185.916 151.863L177.745 183.01L182.685 189.053L187.448 182.809L187.896 152.359L189.429 150.624L187.543 147.484Z" fill="#231F20"/>
<path d="M182.721 189.648C182.635 189.648 182.551 189.63 182.473 189.593C182.396 189.557 182.327 189.503 182.272 189.436L177.321 183.381C177.262 183.31 177.221 183.226 177.201 183.136C177.18 183.046 177.181 182.952 177.203 182.863L185.314 151.975L183.722 149.509C183.677 149.44 183.647 149.362 183.636 149.281C183.623 149.199 183.629 149.116 183.652 149.037C183.672 148.957 183.709 148.882 183.759 148.816C183.81 148.751 183.874 148.698 183.947 148.659L187.318 146.971C187.45 146.903 187.604 146.888 187.747 146.93C187.889 146.971 188.011 147.066 188.085 147.195L189.971 150.335C190.036 150.441 190.064 150.565 190.052 150.689C190.038 150.813 189.985 150.929 189.901 151.019L188.509 152.601L188.073 182.816C188.065 182.944 188.02 183.066 187.943 183.169L183.227 189.412C183.174 189.485 183.104 189.543 183.025 189.584C182.945 189.624 182.858 189.647 182.768 189.648H182.721ZM178.417 182.874L182.721 188.138L186.906 182.638L187.354 152.389C187.357 152.247 187.407 152.11 187.495 151.999L188.745 150.595L187.366 148.234L185.079 149.414L186.446 151.551C186.49 151.62 186.521 151.697 186.536 151.778C186.549 151.859 186.547 151.942 186.529 152.023L178.417 182.874Z" fill="#231F20"/>
<path d="M211.097 178.608C210.985 178.607 210.876 178.574 210.782 178.514C210.689 178.454 210.614 178.367 210.566 178.266C209.175 175.315 199.885 158.768 199.791 158.603C199.749 158.535 199.72 158.459 199.706 158.38C199.694 158.301 199.697 158.22 199.717 158.142C199.736 158.064 199.771 157.991 199.82 157.928C199.868 157.864 199.93 157.811 199.999 157.771C200.069 157.732 200.146 157.707 200.225 157.699C200.305 157.69 200.386 157.698 200.462 157.722C200.539 157.745 200.61 157.784 200.671 157.836C200.732 157.889 200.782 157.953 200.817 158.024C201.206 158.709 210.249 174.772 211.64 177.77C211.704 177.911 211.71 178.072 211.657 178.217C211.604 178.363 211.496 178.482 211.357 178.549C211.277 178.591 211.187 178.613 211.097 178.608Z" fill="#231F20"/>
</g>
<defs>
<clipPath id="clip0_1138_715">
<rect width="388" height="240" fill="white" transform="translate(6 80)"/>
</clipPath>
</defs>
</svg>
