<svg width="400" height="400" viewBox="0 0 400 400" fill="none" xmlns="http://www.w3.org/2000/svg">
<path d="M297.268 103.442C276.456 96.5797 222.581 78.8229 222.581 79.0013C222.581 88.4643 218.844 97.5397 212.19 104.231C205.538 110.922 196.514 114.681 187.106 114.681C177.698 114.681 168.674 110.922 162.021 104.231C155.368 97.5397 151.631 88.4643 151.631 79.0013C151.631 78.8229 97.756 96.5797 76.9321 103.442C74.5727 104.22 72.5196 105.731 71.0682 107.757C69.617 109.783 68.8421 112.22 68.8555 114.717V158.913C68.8561 160.719 69.2658 162.502 70.0535 164.126C70.8413 165.749 71.9864 167.171 73.4021 168.283C74.8177 169.395 76.4665 170.168 78.2236 170.543C79.9805 170.919 81.7995 170.887 83.5423 170.449L116.156 162.255V304.975C116.156 308.129 117.402 311.154 119.619 313.385C121.837 315.615 124.845 316.868 127.981 316.868H246.231C249.367 316.868 252.375 315.615 254.592 313.385C256.811 311.154 258.056 308.129 258.056 304.975V162.255L290.67 170.449C292.412 170.887 294.232 170.919 295.988 170.543C297.745 170.168 299.395 169.395 300.81 168.283C302.226 167.171 303.37 165.749 304.159 164.126C304.947 162.502 305.357 160.719 305.357 158.913V114.717C305.369 112.218 304.593 109.78 303.139 107.754C301.685 105.728 299.63 104.218 297.268 103.442Z" fill="#FF1999"/>
<path d="M288.644 222.049C288.565 220.31 290.952 218.798 293.976 218.673C297.001 218.545 299.518 219.854 299.597 221.593C299.677 223.332 297.29 224.844 294.266 224.969C291.241 225.096 288.724 223.788 288.644 222.049Z" fill="white"/>
<path d="M299.483 221.047C299.483 221.047 329.475 222.484 347.736 275.675C321.409 275.675 288.768 277.528 288.768 277.528C288.768 277.528 261.369 290.835 257.54 292.462C253.715 294.089 245.908 297.932 245.908 297.932C245.908 297.932 242.082 279.45 244.837 265.553C247.59 251.655 260.755 221.639 299.483 221.047Z" fill="white"/>
<path d="M357.219 289.336C363.68 299.46 368.555 308.71 366.328 312.182C366.328 312.182 367.043 309.649 363.595 306.747C360.451 304.1 353.708 301.68 340.821 301.68C321.314 301.68 294.977 316.651 284.003 320.193C275.631 322.896 273.869 320.819 269.242 316.033C264.307 310.927 256.143 293.054 256.143 293.054C256.143 293.054 282.474 279.385 297.987 273.996C313.5 268.607 316.873 269.247 321.787 269.333C332.558 269.523 340.518 271.567 347.783 276.026C347.783 276.026 353.049 282.803 357.219 289.336Z" fill="white"/>
<path d="M261.421 242.846C263.565 231.417 275.519 225.997 275.519 225.997C282.181 223.066 290.135 221.19 299.647 221.047C299.647 221.047 342.503 220.698 347.736 275.47C347.736 275.47 338.805 271.768 319.897 272.837C294.241 274.291 269.231 286.503 263.705 288.811C260.788 279.586 258.9 256.287 261.421 242.846Z" fill="#FF1999"/>
<path d="M280.382 234.029C281.792 233.469 283.16 233.381 283.526 234.482C283.928 235.693 281.839 236.562 280.382 235.904C278.925 235.245 279.087 234.543 280.382 234.029Z" fill="#1E263F" stroke="#1E263F"/>
<path d="M278.249 238.504C279.659 237.935 281.027 237.846 281.394 238.963C281.796 240.192 279.707 241.074 278.249 240.406C276.792 239.737 276.955 239.026 278.249 238.504Z" fill="#1E263F" stroke="#1E263F"/>
<path d="M269.079 262.377C274.205 253.397 291.929 248.519 299.82 252.724C307.709 256.93 308.326 264.863 299.82 271.841C291.313 278.818 271.344 274.434 269.079 273.275C266.814 272.116 263.953 271.356 269.079 262.377Z" fill="#1E263F" stroke="#1E263F" stroke-width="3"/>
<path d="M299.984 252.503C300.732 238.205 296.551 234.869 283.577 234.531" stroke="#1E263F" stroke-linecap="round"/>
<path d="M297.097 251.634C293.789 242.498 290.364 239.922 281.749 239.398" stroke="#1E263F" stroke-linecap="round"/>
<path d="M288.834 252.13C292.583 251.461 296.055 253.432 297.209 256.806C298.705 261.182 293.697 266.491 288.834 265.629C284.595 264.879 281.923 260.622 283.221 256.806C284.108 254.201 285.939 252.645 288.834 252.13Z" fill="white" stroke="#FF1999"/>
<path d="M287.693 256.557C289.608 258.015 289.902 257.894 291.007 255.664C298.385 259.202 295.885 265.213 291.007 265.624C289.436 265.757 289.045 265.85 287.693 265.203C284.047 263.458 283.618 260.175 287.693 256.557Z" fill="#FF1999" stroke="#FF1999"/>
<g filter="url(#filter0_i_1147_266)">
<mask id="mask0_1147_266" style="mask-type:alpha" maskUnits="userSpaceOnUse" x="272" y="267" width="12" height="10">
<path d="M283.029 268.526C283.327 272.922 280.523 274.579 272.547 276.417L275.726 276.778C281.906 275.595 283.457 273.665 283.029 268.526C283.016 268.34 282.999 268.149 282.974 267.953C282.994 268.149 283.014 268.339 283.029 268.526Z" fill="white"/>
</mask>
<g mask="url(#mask0_1147_266)">
<path d="M283.029 268.526C283.327 272.922 280.523 274.579 272.547 276.417L275.726 276.778C281.906 275.595 283.457 273.665 283.029 268.526C283.016 268.34 282.999 268.149 282.974 267.953C282.994 268.149 283.014 268.339 283.029 268.526Z" fill="#FF1999"/>
<path d="M272.547 276.412L272.087 280.488L271.627 272.417L272.547 276.412ZM275.726 276.773L276.497 280.801L275.884 280.918L275.265 280.849L275.726 276.773ZM282.974 267.949L278.896 268.377L287.046 267.461L282.974 267.949ZM287.12 268.244C287.225 269.785 287.081 271.406 286.405 272.973C285.716 274.574 284.609 275.805 283.284 276.757C280.87 278.493 277.4 279.503 273.469 280.41L271.627 272.417C275.671 271.484 277.59 270.749 278.497 270.097C278.834 269.855 278.87 269.733 278.871 269.729C278.888 269.691 278.982 269.457 278.937 268.799L287.12 268.244ZM273.009 272.337L276.188 272.698L275.265 280.849L272.087 280.488L273.009 272.337ZM274.956 272.745C277.947 272.173 278.635 271.585 278.761 271.44C278.77 271.43 278.847 271.358 278.914 271.019C278.992 270.62 279.033 269.957 278.941 268.861L287.116 268.181C287.353 271.032 287.187 274.25 284.951 276.823C282.863 279.223 279.685 280.191 276.497 280.801L274.956 272.745ZM278.937 268.799C278.929 268.689 278.918 268.568 278.903 268.436L287.046 267.461C287.078 267.722 287.102 267.982 287.12 268.243L278.937 268.799ZM287.053 267.52C287.076 267.74 287.097 267.961 287.116 268.183L278.941 268.859C278.929 268.709 278.914 268.548 278.896 268.377L287.053 267.52Z" fill="#FF1999"/>
</g>
</g>
<path d="M34.1757 230.742L215.689 231.159L215.512 307.702L34 307.285L34.1757 230.742Z" fill="white" stroke="#FF1999" stroke-width="3"/>
<mask id="mask1_1147_266" style="mask-type:alpha" maskUnits="userSpaceOnUse" x="64" y="312" width="11" height="10">
<path d="M64.8206 313.325C64.527 317.617 67.1925 319.241 74.782 321.051L71.7549 321.397C65.8739 320.23 64.4019 318.342 64.8206 313.325C64.8331 313.143 64.8508 312.957 64.8735 312.766C64.8536 312.956 64.8358 313.143 64.8206 313.325Z" fill="white"/>
</mask>
<g mask="url(#mask1_1147_266)">
</g>
<path d="M90.0394 241.539C88.0543 240.792 86.127 240.675 85.611 242.142C85.0449 243.755 87.9869 244.914 90.0394 244.036C92.0919 243.158 91.8628 242.224 90.0394 241.539Z" fill="#1E263F" stroke="#1E263F"/>
<path d="M93.0432 247.5C91.0581 246.742 89.1308 246.624 88.6148 248.112C88.0487 249.749 90.9907 250.924 93.0432 250.033C95.0957 249.143 94.8666 248.195 93.0432 247.5Z" fill="#1E263F" stroke="#1E263F"/>
<path d="M105.959 279.312C98.7389 267.347 73.7759 260.848 62.6624 266.451C51.5508 272.055 50.6824 282.625 62.6624 291.922C74.6442 301.219 102.769 295.378 105.959 293.833C109.15 292.288 113.179 291.276 105.959 279.312Z" fill="#1E263F" stroke="#1E263F" stroke-width="3"/>
<path d="M62.4315 266.156C61.3783 247.105 67.2663 242.661 85.5404 242.211" stroke="#1E263F" stroke-linecap="round"/>
<path d="M66.4978 264.997C71.1573 252.825 75.9804 249.393 88.1144 248.695" stroke="#1E263F" stroke-linecap="round"/>
<path d="M78.135 265.657C72.8555 264.766 67.9649 267.393 66.3399 271.888C64.2335 277.719 71.2863 284.792 78.135 283.644C84.1057 282.644 87.8699 276.972 86.0407 271.888C84.7911 268.417 82.213 266.344 78.135 265.657Z" fill="white" stroke="#FF1999"/>
<path d="M79.7424 271.557C77.0449 273.5 76.6309 273.338 75.0752 270.367C64.6837 275.081 68.2053 283.09 75.0752 283.638C77.2875 283.815 77.8382 283.939 79.7424 283.077C84.8775 280.751 85.4821 276.378 79.7424 271.557Z" fill="#FF1999" stroke="#FF1999"/>
<path d="M82.1059 286.763C81.6861 292.621 85.6352 294.829 96.868 297.277L92.0053 297.992C83.3005 296.416 81.5032 293.61 82.1059 286.763C82.1232 286.515 82.1482 286.26 82.1829 286C82.154 286.26 82.127 286.514 82.1059 286.763Z" fill="#FF1999"/>
<line x1="129" y1="252.5" x2="200" y2="252.5" stroke="#1E263F"/>
<path d="M134 260.5L193 260.5" stroke="#FF1999"/>
<path d="M135 279L194 279" stroke="#FF1999"/>
<line x1="129" y1="288.5" x2="200" y2="288.5" stroke="#1E263F"/>
<line x1="129" y1="269.5" x2="200" y2="269.5" stroke="#1E263F"/>
<defs>
<filter id="filter0_i_1147_266" x="272.547" y="267.953" width="10.5476" height="12.8281" filterUnits="userSpaceOnUse" color-interpolation-filters="sRGB">
<feFlood flood-opacity="0" result="BackgroundImageFix"/>
<feBlend mode="normal" in="SourceGraphic" in2="BackgroundImageFix" result="shape"/>
<feColorMatrix in="SourceAlpha" type="matrix" values="0 0 0 0 0 0 0 0 0 0 0 0 0 0 0 0 0 0 127 0" result="hardAlpha"/>
<feOffset dy="4"/>
<feGaussianBlur stdDeviation="2"/>
<feComposite in2="hardAlpha" operator="arithmetic" k2="-1" k3="1"/>
<feColorMatrix type="matrix" values="0 0 0 0 0 0 0 0 0 0 0 0 0 0 0 0 0 0 0.25 0"/>
<feBlend mode="normal" in2="shape" result="effect1_innerShadow_1147_266"/>
</filter>
</defs>
</svg>
