<svg width="400" height="400" viewBox="0 0 400 400" fill="none" xmlns="http://www.w3.org/2000/svg">
<g clip-path="url(#clip0_1138_717)">
<path d="M272.684 276.295C278.433 283.485 262.701 298.261 255.281 290.128C246.548 280.566 267.138 269.36 272.684 276.295Z" fill="#FFC9B0"/>
<path d="M260.61 293.789C259.422 293.804 258.245 293.561 257.16 293.077C256.075 292.593 255.107 291.879 254.325 290.984C253.221 289.92 252.445 288.562 252.088 287.071C251.731 285.58 251.808 284.018 252.311 282.57C254.032 277.547 260.164 273.926 265.06 273.084C268.884 272.422 271.906 273.288 273.678 275.507C277.133 279.829 274.277 286.063 269.675 289.99C267.183 292.265 263.98 293.607 260.61 293.789ZM267.418 275.379C266.769 275.385 266.12 275.445 265.481 275.558C260.661 276.399 255.944 279.816 254.733 283.36C254.392 284.377 254.35 285.47 254.612 286.509C254.874 287.549 255.43 288.492 256.212 289.225C259.348 292.667 264.384 291.099 268.005 288.014C271.626 284.928 274.086 280.084 271.676 277.049C271.137 276.47 270.474 276.019 269.737 275.73C269 275.441 268.208 275.321 267.418 275.379Z" fill="#093F68"/>
<path d="M190.3 89.8334C190.3 89.8334 184.219 78.5633 179.323 79.6343C174.427 80.7052 176.352 84.0199 177.398 84.7338C178.443 85.4478 186.144 86.0087 187.597 92.1155L190.3 89.8334Z" fill="#FF1999"/>
<path d="M187.635 93.3323C187.5 93.3507 187.362 93.3507 187.227 93.3323C187.022 93.2651 186.837 93.1468 186.689 92.9885C186.542 92.8301 186.438 92.637 186.386 92.4271C185.404 88.3602 180.916 87.1235 178.507 86.4606C177.869 86.3339 177.254 86.1103 176.684 85.7977C176.028 85.3291 175.517 84.6873 175.206 83.9441C174.895 83.201 174.798 82.386 174.924 81.5905C175.141 80.4431 176.033 78.9642 179.055 78.3267C184.728 77.1283 190.746 87.965 191.421 89.2016C191.56 89.4601 191.605 89.7585 191.55 90.0465C191.494 90.3345 191.341 90.5944 191.115 90.7825L188.451 93.0646C188.218 93.2455 187.93 93.3401 187.635 93.3323ZM179.986 80.8001H179.603C178.328 81.0678 177.538 81.5267 177.436 82.075C177.426 82.3638 177.483 82.651 177.602 82.9142C177.722 83.1774 177.9 83.4094 178.124 83.5921C178.226 83.5921 178.762 83.7961 179.195 83.9108C181.567 84.5737 186.207 85.8486 188.221 89.8901L188.68 89.5076C186.347 85.5427 182.535 80.8001 179.973 80.8001H179.986Z" fill="#093F68"/>
<path d="M188.476 227.273H216.588C220.856 227.273 225.081 228.114 229.024 229.747C232.967 231.38 236.549 233.774 239.567 236.792C242.585 239.809 244.978 243.392 246.611 247.334C248.244 251.277 249.085 255.503 249.085 259.771V317.868H155.979V259.758C155.983 251.141 159.408 242.879 165.502 236.787C171.596 230.695 179.86 227.273 188.476 227.273Z" fill="#FF1999"/>
<path d="M249.137 319.144H155.98C155.642 319.144 155.317 319.01 155.078 318.771C154.839 318.532 154.705 318.207 154.705 317.869V259.759C154.71 255.321 155.589 250.927 157.292 246.828C158.995 242.73 161.489 239.007 164.631 235.872C167.773 232.737 171.502 230.252 175.604 228.558C179.706 226.864 184.102 225.995 188.541 226H216.588C225.541 226.007 234.125 229.565 240.457 235.895C246.789 242.224 250.35 250.807 250.36 259.759V317.869C250.361 318.199 250.233 318.515 250.005 318.753C249.777 318.991 249.466 319.131 249.137 319.144ZM157.255 316.594H247.862V259.759C247.852 251.474 244.551 243.532 238.687 237.68C232.822 231.827 224.874 228.543 216.588 228.55H188.541C180.264 228.557 172.329 231.846 166.475 237.698C160.622 243.549 157.329 251.483 157.318 259.759L157.255 316.594Z" fill="#093F68"/>
<path d="M232.167 292.705C231.829 292.705 231.505 292.57 231.266 292.331C231.027 292.092 230.893 291.768 230.893 291.43V246.056C230.893 245.718 231.027 245.394 231.266 245.155C231.505 244.916 231.829 244.781 232.167 244.781C232.506 244.781 232.83 244.916 233.069 245.155C233.308 245.394 233.442 245.718 233.442 246.056V291.392C233.447 291.562 233.418 291.732 233.357 291.891C233.295 292.05 233.202 292.195 233.083 292.318C232.964 292.44 232.822 292.538 232.664 292.604C232.507 292.671 232.338 292.705 232.167 292.705Z" fill="#093F68"/>
<path d="M175.639 319.146C175.3 319.146 174.976 319.012 174.737 318.773C174.498 318.534 174.364 318.209 174.364 317.871V246.056C174.364 245.718 174.498 245.394 174.737 245.155C174.976 244.916 175.3 244.781 175.639 244.781C175.977 244.781 176.301 244.916 176.54 245.155C176.779 245.394 176.914 245.718 176.914 246.056V317.833C176.919 318.004 176.889 318.173 176.828 318.333C176.766 318.492 176.673 318.637 176.554 318.759C176.435 318.882 176.293 318.979 176.135 319.045C175.978 319.112 175.809 319.146 175.639 319.146Z" fill="#093F68"/>
<path d="M220.706 261.758H184.409L175.638 270.236V317.866H229.477V270.236L220.706 261.758Z" fill="#093F68"/>
<path d="M229.478 319.143H175.639C175.301 319.143 174.976 319.009 174.737 318.77C174.498 318.531 174.364 318.206 174.364 317.868V270.276C174.363 270.106 174.396 269.936 174.462 269.779C174.527 269.621 174.624 269.478 174.746 269.358L183.53 260.88C183.767 260.653 184.082 260.525 184.41 260.523H220.706C221.035 260.525 221.35 260.653 221.586 260.88L230.37 269.358C230.492 269.478 230.589 269.621 230.654 269.779C230.72 269.936 230.754 270.106 230.753 270.276V317.907C230.743 318.238 230.604 318.553 230.366 318.783C230.128 319.014 229.809 319.143 229.478 319.143ZM176.914 316.593H228.203V270.786L220.184 263.035H184.933L176.914 270.786V316.593Z" fill="#093F68"/>
<path d="M184.41 265.28C184.071 265.28 183.747 265.145 183.508 264.906C183.269 264.667 183.135 264.343 183.135 264.005V227.275C183.135 226.937 183.269 226.612 183.508 226.373C183.747 226.134 184.071 226 184.41 226C184.748 226 185.072 226.134 185.311 226.373C185.55 226.612 185.685 226.937 185.685 227.275V264.005C185.685 264.343 185.55 264.667 185.311 264.906C185.072 265.145 184.748 265.28 184.41 265.28Z" fill="#093F68"/>
<path d="M220.91 265.28C220.572 265.28 220.248 265.145 220.008 264.906C219.769 264.667 219.635 264.343 219.635 264.005V227.275C219.635 226.937 219.769 226.612 220.008 226.373C220.248 226.134 220.572 226 220.91 226C221.248 226 221.572 226.134 221.811 226.373C222.05 226.612 222.185 226.937 222.185 227.275V264.005C222.185 264.343 222.05 264.667 221.811 264.906C221.572 265.145 221.248 265.28 220.91 265.28Z" fill="#093F68"/>
<path d="M149.018 216.889C150.395 219.936 153.34 220.943 158.465 220.714C169.48 220.204 180.623 220.714 191.613 220.714H252.438C256.059 220.714 257.92 218.941 258.124 215.282C259.029 199.512 258.124 183.971 257.091 168.252C256.224 154.1 254.299 139.592 247.173 127.06C233.417 102.836 196.572 91.7958 180.623 112.513C180.623 112.513 169.238 108.688 158.44 122.024C149.592 132.924 148.751 147.407 148.598 160.806L148.024 210.616C147.916 212.754 148.255 214.89 149.018 216.889Z" fill="#725858"/>
<path d="M156.936 222.02C153.239 222.02 149.542 221.242 147.808 217.405C146.964 215.226 146.599 212.891 146.737 210.559L147.311 160.736C147.464 146.839 148.381 132.331 157.433 121.214C167.033 109.37 177.118 110.415 180.126 111.015C186.361 103.365 195.91 99.6298 207.116 100.395C223.537 101.542 240.072 111.971 248.27 126.377C255.69 139.419 257.538 154.795 258.354 168.117C259.31 183.544 260.292 199.467 259.387 215.289C259.132 219.623 256.735 221.905 252.426 221.918H191.601C188.018 221.918 184.436 221.918 180.84 221.816C173.484 221.714 165.886 221.612 158.466 221.956C157.943 221.995 157.459 222.02 156.936 222.02ZM176.62 113.22C172.656 113.22 165.988 114.674 159.409 122.782C150.868 133.3 150.013 147.324 149.86 160.774L149.287 210.584C149.163 212.548 149.454 214.516 150.141 216.36C150.931 218.119 152.474 219.7 158.351 219.432C165.848 219.088 173.484 219.19 180.879 219.292C184.461 219.292 188.031 219.394 191.601 219.394H252.426C255.384 219.394 256.671 218.119 256.837 215.161C257.742 199.48 256.837 184.347 255.817 168.309C254.963 154.603 253.191 140.261 246.051 127.652C238.262 113.96 222.542 104.041 206.938 102.957C196.292 102.231 187.304 105.877 181.631 113.246C181.469 113.456 181.246 113.611 180.993 113.689C180.739 113.766 180.467 113.763 180.216 113.679C179.046 113.352 177.835 113.197 176.62 113.22Z" fill="#093F68"/>
<path d="M194.838 227.273H209.818V235.853C209.818 237.543 209.147 239.165 207.951 240.36C206.756 241.556 205.134 242.227 203.444 242.227H201.187C199.497 242.227 197.875 241.556 196.68 240.36C195.484 239.165 194.813 237.543 194.813 235.853V227.234L194.838 227.273Z" fill="#FFC9B0"/>
<path d="M203.457 243.504H201.2C199.171 243.504 197.226 242.698 195.791 241.263C194.357 239.829 193.551 237.883 193.551 235.854V227.236C193.551 226.898 193.685 226.573 193.924 226.334C194.163 226.095 194.488 225.961 194.826 225.961H209.806C210.144 225.961 210.468 226.095 210.707 226.334C210.946 226.573 211.081 226.898 211.081 227.236V235.854C211.081 237.878 210.278 239.82 208.849 241.254C207.42 242.688 205.481 243.497 203.457 243.504ZM196.113 228.523V235.854C196.113 237.207 196.651 238.504 197.607 239.46C198.563 240.416 199.86 240.954 201.213 240.954H203.469C204.822 240.954 206.119 240.416 207.075 239.46C208.032 238.504 208.569 237.207 208.569 235.854V228.511L196.113 228.523Z" fill="#093F68"/>
<path d="M159.51 200.895C167.551 200.895 174.07 195.278 174.07 188.35C174.07 181.421 167.551 175.805 159.51 175.805C151.47 175.805 144.951 181.421 144.951 188.35C144.951 195.278 151.47 200.895 159.51 200.895Z" fill="#FFC9B0"/>
<path d="M159.511 202.171C150.778 202.171 143.677 195.975 143.677 188.351C143.677 180.727 150.778 174.531 159.511 174.531C168.244 174.531 175.346 180.727 175.346 188.351C175.346 195.975 168.232 202.171 159.511 202.171ZM159.511 177.081C152.181 177.081 146.227 182.181 146.227 188.351C146.227 194.522 152.181 199.621 159.511 199.621C166.842 199.621 172.796 194.522 172.796 188.351C172.796 182.181 166.867 177.081 159.511 177.081Z" fill="#093F68"/>
<path d="M244.368 200.895C252.409 200.895 258.928 195.278 258.928 188.35C258.928 181.421 252.409 175.805 244.368 175.805C236.327 175.805 229.809 181.421 229.809 188.35C229.809 195.278 236.327 200.895 244.368 200.895Z" fill="#FFC9B0"/>
<path d="M244.368 202.171C235.648 202.171 228.546 195.975 228.546 188.351C228.546 180.727 235.711 174.531 244.368 174.531C253.024 174.531 260.202 180.727 260.202 188.351C260.202 195.975 253.101 202.171 244.368 202.171ZM244.368 177.081C237.05 177.081 231.096 182.181 231.096 188.351C231.096 194.522 237.05 199.621 244.368 199.621C251.686 199.621 257.652 194.522 257.652 188.351C257.652 182.181 251.699 177.081 244.368 177.081Z" fill="#093F68"/>
<path d="M229.031 151.139L214.829 132.883C214.829 132.883 211.629 144.127 209.666 151.088L187.266 151.025L181.988 134.719L175.792 150.986H158.427V185.409C158.426 191.174 159.56 196.883 161.765 202.21C163.97 207.537 167.203 212.378 171.279 216.455C175.356 220.532 180.195 223.767 185.521 225.974C190.848 228.18 196.557 229.316 202.322 229.316C213.967 229.316 225.135 224.69 233.37 216.456C241.604 208.222 246.23 197.054 246.23 185.409V151.19L229.031 151.139Z" fill="#FFC9B0"/>
<path d="M203.734 229.94C191.756 229.926 180.273 225.161 171.805 216.69C163.336 208.219 158.575 196.735 158.564 184.757V150.335C158.564 149.997 158.699 149.672 158.938 149.433C159.177 149.194 159.501 149.06 159.839 149.06H176.324L182.227 133.608C182.324 133.354 182.5 133.137 182.73 132.991C182.959 132.844 183.23 132.774 183.501 132.792C183.764 132.8 184.017 132.889 184.227 133.047C184.437 133.204 184.593 133.422 184.674 133.672L189.672 149.098L210.16 149.162C212.085 142.214 215.004 132.015 215.004 132.015C215.067 131.785 215.193 131.578 215.368 131.417C215.542 131.256 215.758 131.146 215.991 131.101C216.225 131.056 216.466 131.077 216.688 131.162C216.91 131.247 217.104 131.392 217.248 131.581L231.068 149.353H247.642C247.98 149.353 248.304 149.487 248.543 149.727C248.782 149.966 248.916 150.29 248.916 150.628V184.77C248.9 196.747 244.134 208.228 235.663 216.696C227.193 225.163 215.711 229.926 203.734 229.94ZM161.114 151.635V184.783C161.016 190.442 162.047 196.065 164.145 201.322C166.243 206.58 169.367 211.367 173.335 215.404C177.303 219.441 182.035 222.648 187.255 224.836C192.476 227.025 198.08 228.152 203.74 228.152C209.401 228.152 215.005 227.025 220.225 224.836C225.446 222.648 230.178 219.441 234.146 215.404C238.114 211.367 241.238 206.58 243.336 201.322C245.434 196.065 246.465 190.442 246.367 184.783V151.89H230.43C230.239 151.889 230.05 151.845 229.878 151.761C229.706 151.678 229.555 151.556 229.436 151.406L216.725 135.074C215.68 138.772 213.653 145.898 212.25 150.858C212.173 151.133 212.006 151.375 211.774 151.544C211.543 151.713 211.262 151.799 210.975 151.788L188.677 151.724C188.411 151.722 188.152 151.635 187.937 151.477C187.722 151.32 187.562 151.098 187.479 150.845L183.31 137.981L178.389 150.87C178.297 151.11 178.134 151.316 177.922 151.462C177.711 151.607 177.46 151.685 177.203 151.686L161.114 151.635Z" fill="#093F68"/>
<path d="M182.332 197.784C179.24 197.786 176.217 196.872 173.644 195.156C171.072 193.44 169.067 191 167.882 188.144C166.697 185.288 166.386 182.145 166.987 179.112C167.589 176.079 169.077 173.293 171.262 171.106C173.448 168.919 176.233 167.429 179.265 166.825C182.297 166.221 185.441 166.529 188.297 167.712C191.154 168.895 193.596 170.898 195.314 173.469C197.032 176.039 197.949 179.062 197.949 182.154C197.946 186.296 196.3 190.268 193.372 193.198C190.444 196.128 186.474 197.777 182.332 197.784ZM182.332 169.086C179.744 169.083 177.213 169.849 175.06 171.285C172.907 172.721 171.228 174.764 170.237 177.155C169.245 179.546 168.985 182.177 169.489 184.715C169.993 187.254 171.24 189.586 173.07 191.416C174.9 193.246 177.232 194.492 179.77 194.996C182.309 195.5 184.94 195.24 187.33 194.249C189.721 193.257 191.764 191.579 193.2 189.426C194.637 187.273 195.402 184.742 195.399 182.154C195.393 178.69 194.014 175.37 191.564 172.921C189.115 170.472 185.795 169.093 182.332 169.086Z" fill="#093F68"/>
<path d="M222.325 197.784C219.233 197.786 216.21 196.872 213.638 195.156C211.066 193.44 209.06 191 207.876 188.144C206.691 185.288 206.379 182.145 206.981 179.112C207.583 176.079 209.07 173.293 211.256 171.106C213.441 168.919 216.226 167.429 219.258 166.825C222.291 166.221 225.434 166.529 228.291 167.712C231.148 168.895 233.59 170.898 235.308 173.469C237.026 176.039 237.943 179.062 237.943 182.154C237.939 186.296 236.293 190.268 233.365 193.198C230.438 196.128 226.467 197.777 222.325 197.784ZM222.325 169.086C219.737 169.083 217.206 169.849 215.053 171.285C212.9 172.721 211.222 174.764 210.23 177.155C209.238 179.546 208.978 182.177 209.483 184.715C209.987 187.254 211.233 189.586 213.063 191.416C214.893 193.246 217.225 194.492 219.764 194.996C222.302 195.5 224.933 195.24 227.324 194.249C229.715 193.257 231.757 191.579 233.194 189.426C234.63 187.273 235.395 184.742 235.393 182.154C235.389 178.689 234.012 175.367 231.562 172.917C229.112 170.467 225.79 169.089 222.325 169.086Z" fill="#093F68"/>
<path d="M183.683 187.079C185.929 187.079 187.75 185.258 187.75 183.012C187.75 180.766 185.929 178.945 183.683 178.945C181.437 178.945 179.616 180.766 179.616 183.012C179.616 185.258 181.437 187.079 183.683 187.079Z" fill="#093F68"/>
<path d="M219.865 186.228C222.111 186.228 223.931 184.407 223.931 182.161C223.931 179.915 222.111 178.094 219.865 178.094C217.618 178.094 215.798 179.915 215.798 182.161C215.798 184.407 217.618 186.228 219.865 186.228Z" fill="#093F68"/>
<path d="M201.595 196.908C200.267 196.898 198.942 196.787 197.63 196.576C197.463 196.547 197.303 196.485 197.159 196.394C197.016 196.303 196.892 196.184 196.794 196.045C196.696 195.906 196.627 195.749 196.59 195.583C196.553 195.417 196.549 195.246 196.578 195.078C196.608 194.911 196.67 194.751 196.761 194.607C196.852 194.464 196.97 194.34 197.11 194.242C197.249 194.144 197.406 194.075 197.572 194.038C197.737 194.001 197.909 193.997 198.076 194.026C200.066 194.365 202.097 194.387 204.094 194.09C204.336 192.917 202.819 188.57 200.664 184.49C200.507 184.189 200.476 183.838 200.578 183.514C200.679 183.19 200.905 182.92 201.206 182.763C201.507 182.605 201.858 182.574 202.182 182.676C202.506 182.777 202.777 183.004 202.934 183.305C204.349 186.033 207.536 192.662 206.376 195.263C206.245 195.575 206.043 195.853 205.786 196.074C205.53 196.295 205.225 196.454 204.897 196.538C203.816 196.795 202.707 196.919 201.595 196.908Z" fill="#093F68"/>
<path d="M170.998 167.758C170.321 167.801 169.656 167.573 169.148 167.124C168.64 166.676 168.331 166.044 168.288 165.368C168.246 164.692 168.474 164.026 168.923 163.518C169.371 163.01 170.003 162.701 170.679 162.659L189.917 160.262C190.593 160.178 191.276 160.365 191.813 160.784C192.351 161.202 192.701 161.817 192.786 162.493C192.87 163.169 192.683 163.852 192.264 164.389C191.846 164.927 191.231 165.277 190.555 165.362L171.316 167.758H170.998Z" fill="#093F68"/>
<path d="M231.224 168.287C231.071 168.3 230.918 168.3 230.765 168.287L211.642 164.807C210.975 164.685 210.385 164.304 210 163.747C209.615 163.19 209.467 162.502 209.589 161.836C209.711 161.17 210.092 160.58 210.649 160.195C211.206 159.81 211.893 159.662 212.56 159.784L231.683 163.277C232.359 163.336 232.984 163.662 233.421 164.182C233.857 164.702 234.069 165.374 234.01 166.05C233.95 166.726 233.625 167.351 233.105 167.787C232.585 168.224 231.913 168.436 231.237 168.377L231.224 168.287Z" fill="#093F68"/>
<path d="M204.757 212.909C201.023 212.884 197.332 212.119 193.896 210.657C190.46 209.195 187.348 207.066 184.741 204.393C184.537 204.138 184.438 203.815 184.465 203.49C184.492 203.164 184.643 202.862 184.887 202.644C185.13 202.427 185.448 202.311 185.774 202.321C186.101 202.331 186.411 202.466 186.641 202.698C187.125 203.233 198.701 215.842 216.614 207.619C216.766 207.548 216.931 207.509 217.098 207.502C217.266 207.495 217.433 207.522 217.591 207.58C217.748 207.638 217.893 207.726 218.016 207.84C218.139 207.954 218.239 208.091 218.309 208.243C218.38 208.396 218.419 208.56 218.426 208.728C218.433 208.896 218.406 209.063 218.348 209.221C218.29 209.378 218.202 209.522 218.088 209.646C217.974 209.769 217.837 209.869 217.685 209.939C213.643 211.857 209.231 212.871 204.757 212.909Z" fill="#093F68"/>
<path d="M207.97 181.519C207.71 181.518 207.456 181.438 207.243 181.29C205.807 180.236 204.072 179.668 202.29 179.668C200.509 179.668 198.774 180.236 197.337 181.29C197.205 181.393 197.053 181.47 196.89 181.514C196.728 181.559 196.558 181.571 196.391 181.55C196.223 181.528 196.062 181.474 195.916 181.39C195.77 181.306 195.642 181.194 195.54 181.06C195.333 180.794 195.239 180.457 195.28 180.123C195.32 179.789 195.492 179.484 195.756 179.275C197.637 177.903 199.905 177.164 202.233 177.164C204.561 177.164 206.829 177.903 208.709 179.275C208.986 179.468 209.175 179.763 209.235 180.095C209.295 180.428 209.22 180.77 209.028 181.047C208.902 181.204 208.74 181.328 208.556 181.41C208.372 181.492 208.171 181.53 207.97 181.519Z" fill="#093F68"/>
<path d="M167.887 179.371C167.773 179.383 167.657 179.383 167.543 179.371L159.167 177.076C158.992 177.045 158.826 176.977 158.68 176.878C158.533 176.779 158.408 176.65 158.314 176.5C158.22 176.351 158.158 176.183 158.132 176.007C158.106 175.832 158.117 175.653 158.164 175.483C158.211 175.312 158.294 175.153 158.406 175.016C158.518 174.878 158.657 174.766 158.815 174.686C158.973 174.605 159.146 174.559 159.323 174.549C159.5 174.539 159.677 174.566 159.842 174.629L168.218 176.911C168.556 176.955 168.863 177.131 169.071 177.401C169.279 177.671 169.372 178.013 169.328 178.351C169.284 178.689 169.107 178.996 168.837 179.204C168.567 179.412 168.225 179.504 167.887 179.46V179.371Z" fill="#093F68"/>
<path d="M237.305 179.378C237.138 179.4 236.968 179.389 236.805 179.345C236.642 179.301 236.489 179.225 236.355 179.122C236.085 178.914 235.908 178.607 235.864 178.269C235.821 177.931 235.913 177.589 236.121 177.319C236.329 177.049 236.636 176.873 236.974 176.829L245.35 174.547C245.516 174.482 245.695 174.454 245.873 174.463C246.051 174.472 246.226 174.518 246.385 174.599C246.545 174.679 246.685 174.793 246.798 174.931C246.911 175.07 246.993 175.23 247.04 175.403C247.086 175.575 247.096 175.755 247.069 175.932C247.041 176.108 246.977 176.277 246.88 176.427C246.784 176.577 246.656 176.705 246.507 176.803C246.357 176.901 246.189 176.966 246.013 176.994L237.637 179.289C237.53 179.333 237.419 179.363 237.305 179.378Z" fill="#093F68"/>
<path d="M163.042 126.773C169.863 124.989 184.716 115.797 195.68 114.598C206.644 113.4 232.473 116.383 240.186 112.227C247.899 108.071 250.271 93.2437 239.001 82.56C227.731 71.8764 195.654 83.1592 174.912 95.309C154.169 107.459 146.43 109.843 146.724 118.155C147.017 126.468 156.183 128.546 163.042 126.773Z" fill="#FF1999"/>
<path d="M158.389 128.636C155.182 128.723 152.029 127.8 149.376 125.997C148.157 125.095 147.164 123.921 146.476 122.569C145.788 121.218 145.423 119.724 145.411 118.208C145.143 110.698 150.613 107.613 163.846 100.168C166.88 98.4466 170.31 96.5087 174.224 94.2267C193.819 82.7526 227.463 69.9144 239.83 81.6434C245.847 87.3295 248.754 94.7621 247.773 102.042C247.097 107.141 244.471 111.387 240.748 113.388C235.546 116.193 223.511 115.938 211.884 115.734C206.517 115.503 201.142 115.563 195.782 115.913C189.102 116.639 180.675 120.541 173.905 123.677C170.494 125.399 166.957 126.857 163.323 128.037C161.711 128.449 160.053 128.65 158.389 128.636ZM225.283 79.5526C220.388 79.6536 215.521 80.3384 210.788 81.5924C198.419 84.924 186.554 89.9024 175.511 96.394C171.585 98.7016 168.13 100.639 165.095 102.361C152.474 109.5 147.744 112.19 147.961 118.118C147.96 119.254 148.226 120.374 148.738 121.389C149.249 122.403 149.992 123.283 150.906 123.957C153.71 126.048 158.338 126.673 162.686 125.538C166.186 124.387 169.595 122.976 172.885 121.318C179.833 118.105 188.464 114.102 195.553 113.337C201.023 112.97 206.509 112.906 211.986 113.146C222.759 113.35 234.934 113.592 239.588 111.106C242.596 109.487 244.687 106.007 245.299 101.672C246.153 95.2976 243.54 88.6171 238.134 83.492C235.011 80.5853 230.332 79.5526 225.283 79.5526Z" fill="#093F68"/>
<path d="M173.548 317.951C169.06 322.056 159.065 325.065 154.093 316.676C149.121 308.287 139.189 272.284 139.189 272.284L150.829 261.805L174.058 299.937C177.258 305.342 178.035 313.859 173.548 317.951Z" fill="#FFC9B0"/>
<path d="M163.285 323.296C162.645 323.294 162.006 323.247 161.372 323.156C159.617 322.884 157.948 322.212 156.494 321.193C155.04 320.175 153.839 318.835 152.983 317.279C147.986 308.788 138.373 274.047 137.965 272.581C137.904 272.355 137.906 272.117 137.971 271.892C138.036 271.667 138.162 271.464 138.335 271.306L149.975 260.826C150.114 260.702 150.278 260.609 150.457 260.555C150.636 260.501 150.824 260.486 151.009 260.513C151.194 260.54 151.371 260.607 151.527 260.71C151.683 260.812 151.815 260.948 151.912 261.107L175.154 299.239C178.647 305.206 179.348 314.398 174.414 318.911C171.34 321.643 167.396 323.197 163.285 323.296ZM140.63 272.658C142.096 277.885 150.752 308.444 155.189 316.004C155.847 317.237 156.785 318.297 157.927 319.101C159.07 319.905 160.385 320.429 161.767 320.632C163.741 320.815 165.731 320.59 167.613 319.969C169.495 319.348 171.229 318.345 172.706 317.024C176.531 313.48 175.97 305.639 172.974 300.54L150.548 263.733L140.63 272.658Z" fill="#093F68"/>
<path d="M140.064 238.789L130.074 242.469L134.626 254.827L144.615 251.148L140.064 238.789Z" fill="#FF1999"/>
<path d="M134.638 256.092C134.377 256.092 134.123 256.013 133.908 255.865C133.694 255.717 133.53 255.507 133.439 255.263L128.888 242.896C128.773 242.578 128.789 242.228 128.933 241.922C129.076 241.616 129.335 241.38 129.653 241.264L139.635 237.58C139.946 237.452 140.294 237.452 140.604 237.58C140.911 237.721 141.149 237.978 141.267 238.294L145.819 250.66C145.934 250.977 145.92 251.326 145.779 251.631C145.638 251.937 145.382 252.175 145.066 252.292L135.084 255.977C134.943 256.042 134.792 256.081 134.638 256.092ZM131.731 243.215L135.39 253.185L143.039 250.38L139.368 240.41L131.731 243.215Z" fill="#093F68"/>
<path d="M139.419 239.02C140.125 236.228 139.723 233.272 138.297 230.771C134.472 223.976 130.839 232.671 126.963 219.297C126.963 219.297 121.659 227.214 123.84 233.678C126.211 240.779 131.208 242.092 131.208 242.092L139.419 239.02Z" fill="#FFBC0E"/>
<path d="M131.17 243.312C131.064 243.326 130.957 243.326 130.851 243.312C130.609 243.312 125.152 241.731 122.59 234.069C120.244 227.083 125.637 218.911 125.866 218.566C126.003 218.362 126.196 218.201 126.423 218.104C126.649 218.006 126.898 217.977 127.141 218.018C127.379 218.057 127.602 218.163 127.782 218.323C127.963 218.483 128.094 218.691 128.161 218.923C130.214 225.999 131.986 226.19 133.784 226.394C134.984 226.43 136.15 226.81 137.142 227.487C138.134 228.165 138.911 229.113 139.38 230.219C141.002 233.018 141.46 236.342 140.655 239.475C140.598 239.66 140.5 239.83 140.367 239.971C140.234 240.113 140.071 240.222 139.89 240.291L131.68 243.312C131.511 243.344 131.338 243.344 131.17 243.312ZM126.631 222.404C125.356 225.094 123.75 229.492 124.999 233.228C126.784 238.544 130.099 240.252 131.157 240.686L138.297 238.047C138.697 235.759 138.291 233.402 137.149 231.379C136.883 230.625 136.386 229.973 135.73 229.516C135.073 229.058 134.29 228.818 133.49 228.829C130.928 228.6 128.722 227.886 126.67 222.404H126.631Z" fill="#093F68"/>
<path d="M135.645 254.447C137.443 260.732 139.839 268.05 142.695 275.789C148.369 291.215 154.335 304.194 158.287 310.211L162.584 308.63C161.666 301.465 157.79 287.722 152.104 272.296C149.248 264.557 146.329 257.43 143.626 251.477L135.645 254.447Z" fill="#AD7972"/>
<path d="M158.287 311.506C158.075 311.507 157.866 311.455 157.679 311.355C157.492 311.255 157.333 311.109 157.216 310.932C153.06 304.558 147.017 291.273 141.496 276.229C138.73 268.733 136.282 261.313 134.421 254.798C134.329 254.489 134.359 254.156 134.503 253.867C134.648 253.579 134.896 253.356 135.198 253.243L143.179 250.298C143.483 250.186 143.818 250.193 144.116 250.318C144.414 250.444 144.654 250.678 144.786 250.974C147.603 257.157 150.548 264.386 153.302 271.882C158.848 286.926 162.889 300.95 163.845 308.484C163.873 308.761 163.809 309.039 163.664 309.276C163.519 309.513 163.301 309.696 163.042 309.797L158.733 311.391C158.593 311.456 158.441 311.495 158.287 311.506ZM137.2 255.232C138.998 261.415 141.305 268.338 143.893 275.35C149.133 289.578 154.781 302.123 158.81 308.676L161.181 307.809C160.033 300.236 156.158 286.99 150.905 272.762C148.355 265.75 145.589 258.993 142.95 253.103L137.2 255.232Z" fill="#093F68"/>
<path d="M143.523 258.558L134.539 261.868C133.396 262.289 132.81 263.556 133.231 264.699L133.43 265.238C133.851 266.381 135.119 266.966 136.262 266.545L145.246 263.236C146.389 262.815 146.975 261.547 146.554 260.404L146.355 259.866C145.934 258.723 144.666 258.137 143.523 258.558Z" fill="#FFC9B0"/>
<path d="M135.517 267.936C135.011 267.937 134.511 267.829 134.051 267.617C133.637 267.428 133.265 267.158 132.956 266.823C132.647 266.488 132.409 266.095 132.253 265.667L132.049 265.119C131.733 264.253 131.772 263.297 132.159 262.461C132.547 261.624 133.25 260.975 134.115 260.657L143.039 257.342C143.907 257.028 144.863 257.069 145.701 257.456C146.538 257.842 147.19 258.543 147.514 259.407L147.705 259.943C147.869 260.371 147.945 260.827 147.927 261.285C147.91 261.743 147.799 262.193 147.603 262.607C147.219 263.445 146.517 264.096 145.653 264.417L136.716 267.719C136.333 267.866 135.927 267.94 135.517 267.936ZM144.301 259.675C144.188 259.678 144.076 259.699 143.97 259.739L135.045 263.041C134.931 263.083 134.825 263.148 134.736 263.231C134.646 263.315 134.574 263.415 134.523 263.526C134.472 263.637 134.443 263.758 134.439 263.88C134.435 264.002 134.454 264.124 134.497 264.239L134.689 264.787C134.782 265.014 134.954 265.2 135.173 265.31C135.286 265.357 135.407 265.381 135.53 265.381C135.652 265.381 135.774 265.357 135.887 265.31L144.811 261.995C144.928 261.957 145.035 261.894 145.126 261.81C145.216 261.726 145.287 261.624 145.334 261.511C145.381 261.4 145.406 261.281 145.406 261.16C145.406 261.04 145.381 260.92 145.334 260.81L145.13 260.261C145.087 260.147 145.023 260.041 144.94 259.952C144.857 259.862 144.757 259.79 144.645 259.739C144.535 259.698 144.419 259.677 144.301 259.675Z" fill="#093F68"/>
<path d="M154.324 268.063L150.728 258.301C150.285 257.099 148.954 256.482 147.755 256.924C146.556 257.365 145.943 258.698 146.386 259.901L149.981 269.663C150.424 270.865 151.755 271.482 152.955 271.04C154.154 270.599 154.767 269.266 154.324 268.063Z" fill="#FFC9B0"/>
<path d="M152.154 272.476C151.422 272.472 150.708 272.245 150.107 271.826C149.506 271.407 149.047 270.816 148.789 270.13L145.194 260.352C145.029 259.909 144.953 259.438 144.971 258.966C144.989 258.494 145.1 258.03 145.298 257.601C145.496 257.173 145.777 256.787 146.124 256.467C146.472 256.147 146.879 255.899 147.323 255.737C148.216 255.417 149.2 255.458 150.064 255.852C150.495 256.048 150.883 256.329 151.205 256.677C151.526 257.025 151.776 257.433 151.938 257.879L155.533 267.644C155.862 268.539 155.823 269.527 155.424 270.393C155.025 271.258 154.298 271.93 153.404 272.26C153.002 272.401 152.58 272.474 152.154 272.476ZM148.559 258.07C148.441 258.052 148.321 258.052 148.202 258.07C147.943 258.17 147.733 258.366 147.616 258.618C147.563 258.743 147.535 258.878 147.535 259.013C147.535 259.149 147.563 259.284 147.616 259.409L151.211 269.174C151.256 269.303 151.327 269.422 151.419 269.523C151.511 269.623 151.622 269.704 151.747 269.761C151.931 269.848 152.136 269.878 152.337 269.848C152.539 269.819 152.727 269.73 152.878 269.594C153.029 269.458 153.137 269.28 153.187 269.083C153.238 268.886 153.229 268.678 153.162 268.486L149.541 258.797C149.493 258.667 149.42 258.549 149.326 258.448C149.232 258.347 149.119 258.266 148.993 258.21C148.861 258.13 148.713 258.082 148.559 258.07Z" fill="#093F68"/>
<path d="M145.252 263.246L136.267 266.555C135.124 266.976 134.539 268.244 134.96 269.387L135.158 269.925C135.579 271.068 136.847 271.654 137.99 271.233L146.974 267.923C148.117 267.502 148.703 266.235 148.282 265.092L148.084 264.553C147.662 263.41 146.395 262.825 145.252 263.246Z" fill="#FFC9B0"/>
<path d="M137.238 272.616C136.528 272.616 135.834 272.399 135.251 271.993C134.667 271.587 134.222 271.013 133.975 270.347L133.771 269.798C133.457 268.933 133.498 267.978 133.885 267.142C134.272 266.307 134.973 265.658 135.836 265.336L144.76 262.021C145.628 261.708 146.584 261.749 147.422 262.135C148.259 262.522 148.911 263.223 149.235 264.087L149.439 264.622C149.756 265.49 149.717 266.447 149.33 267.286C148.943 268.125 148.24 268.776 147.374 269.097L138.386 272.399C138.02 272.541 137.631 272.614 137.238 272.616ZM146.022 264.355C145.917 264.335 145.809 264.335 145.704 264.355L136.716 267.72C136.486 267.81 136.299 267.983 136.193 268.205C136.146 268.318 136.122 268.439 136.122 268.562C136.122 268.684 136.146 268.806 136.193 268.919L136.397 269.454C136.435 269.571 136.497 269.678 136.578 269.77C136.659 269.862 136.758 269.936 136.869 269.989C136.98 270.041 137.101 270.071 137.223 270.075C137.346 270.08 137.468 270.059 137.582 270.015L146.571 266.7C146.799 266.614 146.985 266.442 147.088 266.22C147.19 265.998 147.201 265.745 147.119 265.515L146.915 264.967C146.874 264.851 146.81 264.745 146.727 264.655C146.644 264.565 146.543 264.493 146.43 264.444C146.302 264.386 146.163 264.355 146.022 264.355Z" fill="#093F68"/>
<path d="M146.966 267.926L137.982 271.235C136.839 271.656 136.254 272.924 136.675 274.067L136.873 274.605C137.294 275.748 138.562 276.333 139.705 275.912L148.689 272.603C149.832 272.182 150.418 270.914 149.997 269.771L149.798 269.233C149.377 268.09 148.109 267.505 146.966 267.926Z" fill="#FFC9B0"/>
<path d="M138.959 277.303C138.457 277.306 137.961 277.197 137.506 276.984C137.09 276.795 136.715 276.526 136.404 276.191C136.094 275.856 135.853 275.463 135.695 275.034L135.491 274.485C135.178 273.62 135.219 272.665 135.606 271.829C135.993 270.994 136.694 270.345 137.557 270.023L146.545 266.708C147.411 266.395 148.365 266.436 149.201 266.823C150.036 267.21 150.686 267.911 151.007 268.774L151.211 269.322C151.524 270.188 151.483 271.142 151.096 271.978C150.71 272.814 150.008 273.463 149.146 273.784L140.221 277.086C139.819 277.239 139.39 277.313 138.959 277.303ZM147.743 269.003C147.634 269.006 147.526 269.028 147.424 269.067L138.436 272.369C138.21 272.462 138.024 272.634 137.914 272.853C137.867 272.967 137.842 273.088 137.842 273.21C137.842 273.333 137.867 273.454 137.914 273.567L138.118 274.116C138.207 274.345 138.38 274.532 138.602 274.638C138.713 274.686 138.832 274.71 138.953 274.71C139.073 274.71 139.192 274.686 139.303 274.638L148.228 271.324C148.342 271.282 148.447 271.219 148.537 271.137C148.626 271.055 148.699 270.956 148.75 270.845C148.801 270.735 148.829 270.616 148.834 270.494C148.838 270.373 148.818 270.252 148.776 270.138L148.572 269.59C148.507 269.421 148.393 269.276 148.246 269.172C148.099 269.067 147.924 269.009 147.743 269.003Z" fill="#093F68"/>
<path d="M148.706 272.597L139.722 275.907C138.579 276.328 137.994 277.595 138.415 278.739L138.613 279.277C139.034 280.42 140.302 281.005 141.445 280.584L150.429 277.275C151.572 276.854 152.158 275.586 151.737 274.443L151.538 273.905C151.117 272.762 149.849 272.176 148.706 272.597Z" fill="#FFC9B0"/>
<path d="M140.681 281.986C139.97 281.986 139.276 281.769 138.693 281.363C138.109 280.958 137.664 280.383 137.417 279.717L137.226 279.169C136.908 278.305 136.946 277.35 137.331 276.514C137.715 275.677 138.415 275.028 139.278 274.706L148.202 271.392C149.068 271.075 150.024 271.114 150.861 271.502C151.697 271.889 152.346 272.592 152.665 273.457L152.869 274.005C153.027 274.434 153.1 274.889 153.082 275.346C153.063 275.803 152.955 276.251 152.763 276.666C152.572 277.08 152.3 277.453 151.963 277.762C151.627 278.071 151.233 278.311 150.803 278.467L141.879 281.769C141.496 281.915 141.09 281.988 140.681 281.986ZM149.465 273.738C149.359 273.719 149.251 273.719 149.146 273.738L140.222 277.04C140.106 277.081 139.999 277.145 139.908 277.227C139.817 277.31 139.743 277.41 139.691 277.522C139.639 277.633 139.609 277.754 139.604 277.877C139.599 278 139.618 278.122 139.661 278.238L139.865 278.786C139.954 279.016 140.127 279.202 140.349 279.309C140.462 279.357 140.583 279.381 140.706 279.381C140.829 279.381 140.95 279.357 141.063 279.309L149.987 275.994C150.102 275.953 150.207 275.889 150.296 275.807C150.386 275.725 150.458 275.626 150.509 275.516C150.56 275.406 150.589 275.286 150.593 275.165C150.598 275.043 150.578 274.922 150.536 274.808L150.344 274.26C150.263 274.098 150.137 273.962 149.981 273.869C149.825 273.777 149.646 273.731 149.465 273.738Z" fill="#093F68"/>
<path d="M265.034 257.073C255.268 253.389 235.558 250.979 218.564 268.293C201.57 285.606 207.345 306.54 225.296 314.801C243.246 323.062 258.596 319.085 262.153 307.865C265.71 296.646 253.802 295.779 258.66 289.864C263.517 283.948 269.585 290.591 274.723 281.207C279.861 271.824 274.825 260.758 265.034 257.073Z" fill="white"/>
<path d="M243.488 320.479C236.998 320.33 230.615 318.786 224.773 315.953C215.492 311.669 209.219 304.058 207.575 295.096C205.841 285.623 209.436 275.781 217.672 267.392C233.277 251.481 252.617 251.01 265.506 255.918C268.097 256.874 270.453 258.375 272.415 260.319C274.376 262.263 275.898 264.606 276.878 267.188C277.773 269.567 278.139 272.112 277.949 274.646C277.76 277.18 277.02 279.643 275.782 281.862C272.582 287.727 268.719 288.007 265.582 288.237C263.211 288.402 261.337 288.543 259.578 290.71C258.073 292.558 258.596 293.349 260.47 295.605C262.586 298.155 265.468 301.636 263.364 308.354C262.625 310.641 261.396 312.738 259.762 314.5C258.128 316.262 256.129 317.645 253.904 318.554C250.604 319.912 247.056 320.568 243.488 320.479ZM250.36 255.714C240.378 255.714 229.184 259.296 219.495 269.177C211.846 276.966 208.505 286.005 210.086 294.675C211.578 302.821 217.328 309.744 225.844 313.684C236.043 318.362 245.86 319.268 252.91 316.157C254.799 315.388 256.497 314.216 257.886 312.723C259.276 311.23 260.323 309.452 260.955 307.513C262.65 302.171 260.559 299.66 258.532 297.225C256.747 295.083 254.708 292.648 257.627 289.091C260.088 286.069 262.918 285.865 265.429 285.674C268.425 285.457 271.013 285.279 273.551 280.574C274.607 278.674 275.239 276.567 275.402 274.399C275.565 272.231 275.255 270.053 274.494 268.017C273.639 265.775 272.313 263.742 270.607 262.056C268.9 260.369 266.852 259.067 264.601 258.238C260.043 256.552 255.22 255.697 250.36 255.714Z" fill="#093F68"/>
<path d="M236.515 264.168C236.617 264.665 236.872 265.124 236.974 265.621C236.993 266.296 236.834 266.964 236.511 267.558C236.189 268.151 235.715 268.649 235.138 269C233.967 269.683 232.938 270.583 232.104 271.651C231.651 272.57 231.542 273.62 231.797 274.611C232.052 275.603 232.654 276.471 233.493 277.057C234.355 277.61 235.341 277.941 236.363 278.018C237.384 278.096 238.409 277.919 239.345 277.503C241.334 276.687 243.45 275.043 245.363 275.999C246.034 276.447 246.651 276.973 247.198 277.567C248.435 278.54 249.997 279.003 251.564 278.861C253.131 278.719 254.585 277.982 255.625 276.802C256.602 275.563 257.132 274.032 257.132 272.455C257.132 270.877 256.602 269.346 255.625 268.107C252.923 264.767 255.192 259.183 249.34 258.647C246.332 258.354 235.712 259.718 236.515 264.168Z" fill="#FFBC0E"/>
<path d="M250.896 280.171C249.232 280.2 247.616 279.614 246.357 278.527C246.141 278.345 245.936 278.149 245.745 277.94C245.471 277.632 245.153 277.365 244.802 277.15C243.96 276.729 242.877 277.15 241.334 277.979C240.824 278.234 240.327 278.476 239.83 278.68C238.696 279.183 237.455 279.394 236.219 279.294C234.983 279.194 233.791 278.785 232.754 278.106C231.649 277.337 230.862 276.192 230.54 274.885C230.219 273.578 230.385 272.198 231.007 271.005C231.683 269.996 232.576 269.151 233.621 268.532L234.373 267.996C235.112 267.435 235.852 266.581 235.712 265.854C235.676 265.679 235.62 265.508 235.546 265.344C235.427 265.042 235.334 264.731 235.265 264.414C235.147 263.803 235.179 263.173 235.359 262.577C235.539 261.982 235.861 261.44 236.298 260.997C239.192 257.835 247.262 257.172 249.43 257.389C254.032 257.848 254.682 261.035 255.205 263.585C255.363 264.921 255.835 266.201 256.582 267.32C257.743 268.789 258.375 270.606 258.375 272.477C258.375 274.349 257.743 276.166 256.582 277.634C255.285 279.124 253.452 280.04 251.482 280.184L250.896 280.171ZM244.126 274.434C244.755 274.432 245.376 274.581 245.936 274.868C246.543 275.2 247.09 275.631 247.555 276.143C247.707 276.31 247.869 276.467 248.04 276.614C248.489 276.988 249.007 277.268 249.566 277.438C250.124 277.609 250.71 277.667 251.291 277.609C251.931 277.574 252.558 277.414 253.136 277.136C253.713 276.858 254.23 276.468 254.657 275.99C255.432 274.97 255.847 273.722 255.835 272.441C255.824 271.16 255.387 269.919 254.593 268.914C253.577 267.488 252.929 265.832 252.706 264.095C252.171 261.469 251.801 260.181 249.175 259.926C246.956 259.697 240.148 260.564 238.185 262.718C238.003 262.87 237.868 263.07 237.793 263.296C237.719 263.521 237.709 263.762 237.764 263.993C237.808 264.171 237.863 264.345 237.93 264.516C238.053 264.818 238.151 265.129 238.223 265.446C238.316 266.359 238.148 267.279 237.74 268.1C237.332 268.921 236.699 269.61 235.916 270.087L235.074 270.686C234.343 271.11 233.708 271.684 233.213 272.369C232.917 273.01 232.857 273.735 233.043 274.417C233.23 275.098 233.651 275.691 234.233 276.092C234.922 276.514 235.704 276.761 236.51 276.813C237.317 276.864 238.124 276.717 238.861 276.385C239.307 276.206 239.74 275.99 240.136 275.76C241.346 275.018 242.712 274.564 244.126 274.434Z" fill="#093F68"/>
<path d="M262.484 272.378C261.484 273.42 260.861 274.766 260.712 276.202C260.658 276.689 260.718 277.182 260.886 277.642C261.054 278.102 261.326 278.517 261.681 278.854C262.308 279.302 263.066 279.526 263.836 279.492C265.821 279.418 267.73 278.708 269.28 277.464C271.319 275.896 274.723 271.46 271.562 269.331C268.68 267.482 264.307 270.338 262.484 272.378Z" fill="#093F68"/>
<path d="M263.823 280.807C262.765 280.846 261.726 280.522 260.878 279.889C260.361 279.427 259.96 278.848 259.71 278.201C259.459 277.554 259.366 276.856 259.437 276.166C259.597 274.427 260.338 272.792 261.541 271.525C263.823 268.976 268.744 265.954 272.263 268.313C272.818 268.658 273.278 269.136 273.603 269.704C273.928 270.271 274.107 270.91 274.124 271.564C274.201 274.305 271.664 277.275 270.045 278.512C268.277 279.936 266.092 280.742 263.823 280.807ZM263.377 273.247C262.557 274.08 262.049 275.169 261.936 276.332C261.904 276.622 261.936 276.915 262.031 277.19C262.125 277.466 262.28 277.717 262.484 277.925C262.889 278.176 263.361 278.296 263.836 278.27C265.546 278.217 267.188 277.593 268.502 276.498C269.777 275.516 271.625 273.234 271.574 271.653C271.57 271.407 271.501 271.166 271.373 270.955C271.246 270.745 271.064 270.572 270.848 270.455C268.91 269.18 265.225 271.283 263.428 273.259L263.377 273.247Z" fill="#093F68"/>
<path d="M270.759 267.055C270.249 265.869 269.267 264.505 268.005 264.798C266.743 265.091 266.309 266.455 266.105 267.73C265.519 271.045 265.417 274.424 264.83 277.738C264.782 277.887 264.768 278.045 264.79 278.199C264.812 278.354 264.87 278.502 264.958 278.631C265.121 278.769 265.33 278.841 265.544 278.835C266.821 278.868 268.083 278.544 269.186 277.9C270.29 277.256 271.192 276.317 271.791 275.189C272.913 272.83 271.727 269.324 270.759 267.055Z" fill="#FFC9B0"/>
<path d="M265.914 280.085H265.404C264.89 280.068 264.401 279.864 264.027 279.511C263.789 279.237 263.621 278.91 263.539 278.556C263.456 278.203 263.462 277.835 263.555 277.484C263.861 275.826 264.04 274.105 264.218 272.448C264.397 270.791 264.562 269.146 264.856 267.476C265.264 265.168 266.233 263.855 267.762 263.562C269.292 263.269 270.988 264.378 271.931 266.583C273.64 270.599 273.971 273.595 272.913 275.725C272.228 276.999 271.222 278.072 269.994 278.837C268.766 279.602 267.36 280.032 265.914 280.085ZM268.285 266.061C268.03 266.061 267.635 266.622 267.418 267.909C267.138 269.477 266.972 271.109 266.806 272.69C266.641 274.271 266.462 275.916 266.182 277.535C267.114 277.446 268.011 277.131 268.796 276.618C269.58 276.105 270.227 275.409 270.682 274.59C271.154 273.621 271.358 271.619 269.637 267.565C269.216 266.685 268.655 266.035 268.285 266.035V266.061Z" fill="#093F68"/>
<path d="M220.54 277.995C218.195 278.836 215.887 280.672 215.951 283.018C216.106 284.146 216.323 285.266 216.601 286.371C216.958 289.086 215.453 292.146 216.971 294.415C217.526 295.077 218.221 295.609 219.006 295.973C219.79 296.336 220.645 296.523 221.509 296.519C224.059 296.736 227.068 296.073 228.33 293.816C228.515 293.326 228.817 292.888 229.21 292.541C229.629 292.328 230.091 292.215 230.561 292.21C231.368 292.082 232.129 291.749 232.77 291.242C233.411 290.735 233.91 290.072 234.22 289.316C235.227 286.766 233.455 284.038 231.67 282.24C229.554 280.047 226.265 277.459 223.065 277.485C222.202 277.522 221.35 277.694 220.54 277.995Z" fill="#F56132"/>
<path d="M222.478 297.826H221.407C220.348 297.826 219.303 297.586 218.351 297.122C217.399 296.658 216.565 295.983 215.912 295.149C214.714 293.351 214.969 291.324 215.198 289.45C215.362 288.499 215.409 287.531 215.339 286.569C215.275 286.174 215.173 285.753 215.058 285.294C214.842 284.568 214.714 283.819 214.676 283.063C214.599 279.914 217.557 277.734 220.12 276.816C221.076 276.463 222.084 276.269 223.103 276.242C227.03 276.242 230.752 279.455 232.588 281.342C235.367 284.236 236.349 287.219 235.355 289.782C234.964 290.746 234.329 291.592 233.514 292.237C232.698 292.883 231.729 293.307 230.701 293.466H230.383C230.205 293.474 230.03 293.504 229.86 293.555C229.746 293.706 229.648 293.869 229.567 294.04C229.567 294.155 229.452 294.269 229.388 294.384C228.228 296.602 225.665 297.826 222.478 297.826ZM223.154 278.703C222.422 278.731 221.7 278.873 221.012 279.123C219.112 279.812 217.187 281.24 217.264 282.948C217.299 283.51 217.397 284.066 217.557 284.606C217.709 285.119 217.824 285.643 217.901 286.174C218.007 287.347 217.964 288.529 217.774 289.692C217.57 291.286 217.404 292.663 218.08 293.67C218.532 294.165 219.084 294.558 219.699 294.824C220.314 295.09 220.979 295.222 221.649 295.213C223.702 295.391 226.265 294.932 227.259 293.16L227.387 292.905C227.635 292.325 228.036 291.823 228.547 291.452C229.043 291.157 229.603 290.987 230.179 290.955H230.421C231.006 290.861 231.557 290.618 232.022 290.25C232.486 289.881 232.848 289.4 233.073 288.851C233.927 286.658 231.798 284.121 230.841 283.127C229.541 281.814 226.252 278.767 223.154 278.767V278.703Z" fill="#093F68"/>
<path d="M232.231 304.164C232.307 304.975 232.555 305.76 232.957 306.468C233.359 307.175 233.907 307.789 234.564 308.27C235.884 309.22 237.393 309.877 238.988 310.195C243.144 311.184 247.491 311.016 251.559 309.71C252.31 309.513 253.004 309.142 253.586 308.627C254.112 307.977 254.399 307.167 254.399 306.332C254.399 305.496 254.112 304.686 253.586 304.037C252.498 302.763 251.083 301.811 249.493 301.283C246.599 300.085 246.268 295.393 242.277 295.266C240.556 295.266 239.587 296.375 238.453 297.471C236.617 299.256 236.54 299.001 234.067 299.014C231.887 299.027 232.155 302.749 232.231 304.164Z" fill="#70CC40"/>
<path d="M244.406 312.091C242.484 312.093 240.568 311.874 238.695 311.441C236.919 311.088 235.244 310.348 233.786 309.274C232.976 308.676 232.304 307.913 231.816 307.033C231.328 306.153 231.034 305.177 230.956 304.174V303.995C230.88 302.58 230.727 299.929 232.04 298.539C232.294 298.264 232.604 298.045 232.949 297.898C233.294 297.751 233.666 297.679 234.041 297.686H234.857C236.311 297.686 236.311 297.685 237.56 296.499L237.917 296.143C238.443 295.478 239.108 294.935 239.866 294.554C240.623 294.173 241.455 293.963 242.303 293.938C245.26 294.027 246.65 296.078 247.772 297.761C248.275 298.719 249.034 299.519 249.965 300.07C251.772 300.685 253.377 301.782 254.605 303.243C255.307 304.138 255.68 305.247 255.662 306.385C255.643 307.522 255.234 308.619 254.503 309.49C253.786 310.165 252.908 310.648 251.954 310.893C249.517 311.689 246.97 312.093 244.406 312.091ZM234.041 300.285C234.015 300.274 233.987 300.268 233.958 300.268C233.93 300.268 233.902 300.274 233.876 300.285C233.519 300.681 233.378 301.879 233.493 303.855V304.046C233.559 304.673 233.757 305.28 234.073 305.824C234.39 306.369 234.818 306.84 235.329 307.208C236.504 308.051 237.848 308.63 239.268 308.904C243.197 309.832 247.305 309.673 251.15 308.445C251.707 308.307 252.226 308.045 252.668 307.68C252.965 307.24 253.113 306.715 253.087 306.184C253.062 305.653 252.866 305.145 252.527 304.735C251.561 303.66 250.33 302.856 248.958 302.402C247.553 301.675 246.395 300.548 245.63 299.164C244.534 297.532 243.769 296.537 242.188 296.486C241.283 296.486 240.658 296.996 239.638 297.965L239.256 298.335C237.42 300.107 236.859 300.247 234.755 300.235L234.041 300.285Z" fill="#093F68"/>
</g>
<defs>
<clipPath id="clip0_1138_717">
<rect width="156" height="247" fill="white" transform="translate(122 77)"/>
</clipPath>
</defs>
</svg>
