<svg width="400" height="400" viewBox="0 0 400 400" fill="none" xmlns="http://www.w3.org/2000/svg">
<g clip-path="url(#clip0_1138_721)">
<path d="M317.49 192.203H82.5097C79.1155 192.203 75.8601 193.55 73.4585 195.949C71.0569 198.347 69.7054 201.601 69.7009 204.995V314.984C69.7054 318.378 71.0569 321.631 73.4585 324.03C75.8601 326.428 79.1155 327.775 82.5097 327.775H263.806L292.621 349.991C292.94 350.215 293.314 350.349 293.703 350.378C294.092 350.407 294.481 350.33 294.83 350.156C295.179 349.982 295.474 349.716 295.684 349.387C295.894 349.059 296.011 348.68 296.023 348.29V327.775H317.422C320.816 327.775 324.072 326.428 326.473 324.03C328.875 321.631 330.226 318.378 330.231 314.984V204.995C330.226 201.612 328.884 198.369 326.497 195.973C324.11 193.576 320.872 192.221 317.49 192.203Z" fill="#FF1999"/>
<path d="M293.931 352.149C293.075 352.14 292.245 351.854 291.566 351.332L263.227 329.474H82.5098C78.6659 329.47 74.9804 327.942 72.2608 325.225C69.5411 322.509 68.009 318.825 68 314.981V204.993C68.009 201.149 69.5411 197.465 72.2608 194.749C74.9804 192.032 78.6659 190.504 82.5098 190.5H317.49C321.334 190.504 325.02 192.032 327.739 194.749C330.459 197.465 331.991 201.149 332 204.993V314.981C331.991 318.825 330.459 322.509 327.739 325.225C325.02 327.942 321.334 329.47 317.49 329.474H297.792V348.271C297.782 348.982 297.575 349.677 297.194 350.277C296.812 350.878 296.272 351.361 295.632 351.673C295.11 351.963 294.528 352.126 293.931 352.149ZM82.5098 193.953C79.5668 193.953 76.7441 195.121 74.6614 197.2C72.5788 199.28 71.4066 202.101 71.4021 205.044V315.032C71.4111 317.974 72.5848 320.792 74.6664 322.871C76.748 324.949 79.5681 326.119 82.5098 326.123H263.806C264.181 326.124 264.546 326.25 264.843 326.48L293.659 348.696C293.731 348.739 293.813 348.762 293.897 348.762C293.981 348.762 294.063 348.739 294.135 348.696C294.214 348.657 294.28 348.596 294.325 348.521C294.37 348.445 294.393 348.358 294.39 348.271V327.773C294.39 327.322 294.569 326.889 294.888 326.57C295.207 326.251 295.64 326.072 296.091 326.072H317.49C320.432 326.068 323.252 324.898 325.334 322.82C327.415 320.741 328.589 317.923 328.598 314.981V204.993C328.593 202.05 327.421 199.229 325.339 197.149C323.256 195.07 320.433 193.902 317.49 193.902L82.5098 193.953Z" fill="#093F68"/>
<path d="M137.708 288.609C136.45 287.452 135.225 286.278 133.966 285.207L123.454 275.834C121.072 273.815 118.8 271.668 116.65 269.404C114.717 267.393 113.156 265.054 112.04 262.498C111.331 260.748 110.857 258.912 110.628 257.038C110.396 255.347 110.311 253.64 110.373 251.935C110.439 249.128 111.365 246.409 113.026 244.146C114.687 241.883 117.003 240.184 119.66 239.279C122.291 238.332 125.141 238.173 127.861 238.823C130.581 239.472 133.051 240.902 134.97 242.936C135.971 243.923 136.846 245.032 137.572 246.236L137.742 246.491L137.947 246.168C139.527 243.567 141.785 241.444 144.478 240.027C146.846 238.804 149.511 238.274 152.167 238.497C155.297 238.691 158.267 239.944 160.592 242.048C162.916 244.153 164.456 246.985 164.959 250.081C165.204 251.771 165.244 253.484 165.078 255.184C164.985 257.005 164.677 258.81 164.159 260.559C163.344 263.217 162.009 265.686 160.23 267.822C158.381 270.019 156.356 272.062 154.174 273.929C150.942 276.787 147.676 279.576 144.461 282.434C142.267 284.39 140.107 286.415 137.929 288.405L137.708 288.609Z" fill="white"/>
<path d="M137.708 290.321C137.281 290.324 136.868 290.167 136.552 289.879L135.361 288.756C134.51 287.974 133.66 287.191 132.826 286.443L123.828 278.516L122.263 277.121C119.829 275.063 117.507 272.877 115.306 270.572C113.241 268.41 111.577 265.899 110.39 263.156C109.619 261.271 109.104 259.292 108.859 257.27C108.61 255.501 108.519 253.714 108.587 251.929C108.652 248.772 109.693 245.712 111.566 243.169C113.439 240.626 116.052 238.725 119.048 237.725C121.97 236.674 125.135 236.496 128.156 237.215C131.177 237.934 133.923 239.518 136.058 241.774C136.62 242.338 137.148 242.934 137.64 243.56C139.238 241.478 141.277 239.776 143.611 238.576C146.258 237.215 149.235 236.626 152.201 236.875C155.527 237.091 158.694 238.373 161.234 240.532C164.066 242.905 165.945 246.221 166.524 249.871C166.793 251.69 166.845 253.534 166.677 255.365C166.566 257.307 166.235 259.23 165.69 261.098C164.822 263.979 163.375 266.653 161.438 268.956C159.535 271.229 157.447 273.34 155.195 275.267C153.749 276.56 152.269 277.836 150.806 279.111L145.567 283.755C144.053 285.099 142.573 286.477 141.076 287.855L138.865 289.896C138.546 290.177 138.133 290.329 137.708 290.321ZM124.627 240.175C123.088 240.198 121.561 240.462 120.103 240.957C117.775 241.755 115.749 243.248 114.298 245.234C112.847 247.221 112.041 249.605 111.989 252.065C111.936 253.657 112.015 255.25 112.227 256.828C112.427 258.581 112.867 260.298 113.537 261.931C114.564 264.311 116.017 266.485 117.823 268.344C119.933 270.558 122.159 272.659 124.491 274.638L126.073 276.016L135.089 283.959C135.973 284.742 136.79 285.541 137.691 286.341L138.729 285.388C140.226 283.993 141.74 282.616 143.271 281.255C144.972 279.673 146.826 278.125 148.612 276.56L152.983 272.733C155.088 270.924 157.045 268.951 158.835 266.83C160.478 264.866 161.71 262.593 162.458 260.145C162.939 258.523 163.23 256.85 163.326 255.161C163.464 253.602 163.425 252.033 163.207 250.483C162.771 247.757 161.42 245.261 159.377 243.406C157.333 241.551 154.718 240.447 151.963 240.277C149.613 240.06 147.25 240.527 145.159 241.621C142.723 242.891 140.686 244.811 139.273 247.166L139.103 247.421C138.952 247.67 138.74 247.875 138.487 248.018C138.234 248.161 137.948 248.237 137.657 248.238C137.373 248.244 137.092 248.179 136.839 248.048C136.586 247.917 136.371 247.725 136.211 247.489L136.024 247.217C135.373 246.132 134.591 245.133 133.694 244.24C132.526 242.998 131.123 242 129.567 241.302C128.011 240.604 126.332 240.221 124.627 240.175Z" fill="#093F68"/>
<path d="M197.227 251.722L188.212 259.665L182.803 253.44L197.483 241.039H206.379V286.048H197.227V251.722Z" fill="white"/>
<path d="M206.379 287.744H197.227C196.776 287.744 196.343 287.564 196.024 287.245C195.705 286.926 195.526 286.494 195.526 286.043V255.424L189.334 260.884C189.166 261.034 188.97 261.149 188.758 261.223C188.545 261.296 188.319 261.327 188.095 261.312C187.87 261.298 187.65 261.239 187.449 261.14C187.247 261.04 187.067 260.901 186.919 260.731L181.51 254.505C181.361 254.334 181.248 254.134 181.178 253.917C181.108 253.701 181.082 253.473 181.101 253.247C181.139 252.797 181.353 252.381 181.697 252.09L196.394 239.69C196.697 239.43 197.083 239.285 197.482 239.281H206.379C206.83 239.281 207.263 239.46 207.582 239.779C207.901 240.098 208.08 240.531 208.08 240.982V285.992C208.087 286.219 208.048 286.446 207.965 286.658C207.883 286.87 207.759 287.064 207.6 287.227C207.441 287.391 207.252 287.521 207.042 287.609C206.832 287.698 206.607 287.744 206.379 287.744ZM198.928 284.342H204.678V242.734H198.112L185.218 253.621L188.365 257.261L196.105 250.457C196.351 250.238 196.657 250.096 196.983 250.048C197.309 250 197.642 250.047 197.942 250.185C198.237 250.322 198.487 250.54 198.662 250.814C198.837 251.089 198.929 251.407 198.928 251.733V284.342Z" fill="#093F68"/>
<path d="M218.711 263.543C218.714 260.816 218.958 258.095 219.443 255.412C219.875 252.781 220.756 250.244 222.045 247.911C223.264 245.684 225.018 243.796 227.148 242.416C229.677 241.021 232.518 240.289 235.407 240.289C238.295 240.289 241.136 241.021 243.665 242.416C245.795 243.796 247.549 245.684 248.768 247.911C250.056 250.247 250.941 252.782 251.388 255.412C252.363 260.795 252.363 266.308 251.388 271.691C250.941 274.321 250.056 276.856 248.768 279.192C247.549 281.419 245.795 283.307 243.665 284.687C241.136 286.082 238.295 286.814 235.407 286.814C232.518 286.814 229.677 286.082 227.148 284.687C225.018 283.307 223.264 281.419 222.045 279.192C220.756 276.859 219.875 274.322 219.443 271.691C218.958 269.002 218.714 266.275 218.711 263.543ZM228.237 263.543C228.237 264.734 228.237 266.163 228.407 267.813C228.506 269.428 228.792 271.026 229.258 272.575C229.674 274.008 230.4 275.332 231.384 276.454C232.476 277.471 233.914 278.037 235.407 278.037C236.9 278.037 238.337 277.471 239.43 276.454C240.437 275.343 241.176 274.016 241.59 272.575C242.062 271.027 242.353 269.428 242.458 267.813C242.56 266.112 242.611 264.734 242.611 263.543C242.611 262.352 242.611 260.94 242.458 259.29C242.354 257.674 242.063 256.076 241.59 254.528C241.176 253.087 240.437 251.76 239.43 250.649C238.341 249.624 236.902 249.053 235.407 249.053C233.911 249.053 232.473 249.624 231.384 250.649C230.4 251.771 229.674 253.095 229.258 254.528C228.79 256.077 228.505 257.675 228.407 259.29C228.237 260.94 228.186 262.369 228.186 263.543H228.237Z" fill="white"/>
<path d="M235.381 288.512C232.145 288.634 228.944 287.8 226.179 286.114C223.82 284.572 221.875 282.475 220.514 280.007C219.139 277.505 218.191 274.792 217.708 271.978C216.71 266.404 216.71 260.696 217.708 255.121C218.188 252.301 219.136 249.582 220.514 247.075C221.881 244.616 223.825 242.526 226.179 240.986C228.988 239.412 232.153 238.586 235.373 238.586C238.592 238.586 241.758 239.412 244.567 240.986C246.926 242.526 248.875 244.615 250.248 247.075C251.613 249.58 252.555 252.293 253.038 255.104C254.059 260.683 254.059 266.4 253.038 271.978C252.561 274.791 251.618 277.505 250.248 280.007C248.881 282.476 246.93 284.572 244.567 286.114C241.808 287.8 238.613 288.634 235.381 288.512ZM235.381 241.989C232.811 241.876 230.263 242.514 228.05 243.826C226.151 245.072 224.581 246.759 223.474 248.742C222.294 250.914 221.478 253.264 221.059 255.699C220.129 260.886 220.129 266.196 221.059 271.383C221.478 273.824 222.294 276.18 223.474 278.357C224.581 280.336 226.151 282.017 228.05 283.256C230.297 284.48 232.814 285.121 235.373 285.121C237.931 285.121 240.449 284.48 242.696 283.256C244.598 282.022 246.169 280.339 247.272 278.357C248.464 276.185 249.281 273.827 249.687 271.383C250.64 266.199 250.64 260.884 249.687 255.699C249.281 253.261 248.464 250.908 247.272 248.742C246.177 246.756 244.611 245.068 242.713 243.826C240.5 242.514 237.952 241.876 235.381 241.989ZM235.381 279.735C234.394 279.785 233.408 279.619 232.491 279.249C231.575 278.878 230.75 278.313 230.074 277.592C228.919 276.285 228.066 274.74 227.574 273.067C227.078 271.406 226.77 269.694 226.655 267.964C226.553 266.263 226.485 264.834 226.485 263.592C226.485 262.35 226.485 260.888 226.655 259.238C226.772 257.508 227.08 255.796 227.574 254.134C228.068 252.467 228.922 250.929 230.074 249.627C230.748 248.902 231.573 248.334 232.489 247.961C233.406 247.588 234.393 247.419 235.381 247.466C236.36 247.424 237.336 247.594 238.244 247.964C239.151 248.334 239.967 248.895 240.638 249.61C241.807 250.911 242.673 252.457 243.172 254.134C243.671 255.795 243.979 257.507 244.091 259.238C244.21 260.939 244.261 262.384 244.261 263.592C244.261 264.8 244.261 266.246 244.091 267.964C243.982 269.695 243.673 271.407 243.172 273.067C242.677 274.751 241.811 276.303 240.638 277.609C239.966 278.32 239.149 278.879 238.242 279.245C237.334 279.612 236.359 279.779 235.381 279.735ZM235.381 250.817C234.871 250.77 234.356 250.839 233.876 251.019C233.396 251.199 232.963 251.484 232.609 251.855C231.814 252.797 231.234 253.899 230.908 255.087C230.471 256.507 230.208 257.975 230.125 259.459C230.006 261.058 229.955 262.453 229.955 263.609C229.955 264.766 229.955 266.178 230.125 267.76C230.208 269.249 230.471 270.722 230.908 272.148C231.234 273.336 231.814 274.439 232.609 275.38C232.964 275.748 233.398 276.031 233.878 276.207C234.359 276.384 234.872 276.45 235.381 276.401C235.888 276.436 236.397 276.362 236.872 276.182C237.348 276.003 237.779 275.724 238.137 275.363C238.96 274.435 239.569 273.337 239.923 272.148C240.35 270.72 240.613 269.248 240.706 267.76C240.808 266.144 240.859 264.749 240.859 263.609C240.859 262.47 240.859 261.092 240.706 259.459C240.611 257.977 240.348 256.51 239.923 255.087C239.572 253.892 238.962 252.789 238.137 251.855C237.785 251.482 237.357 251.19 236.881 250.999C236.405 250.808 235.893 250.723 235.381 250.749V250.817Z" fill="#093F68"/>
<path d="M256.287 263.543C256.29 260.816 256.534 258.095 257.019 255.412C257.467 252.785 258.346 250.25 259.621 247.91C260.848 245.69 262.6 243.804 264.724 242.416C267.256 241.021 270.1 240.289 272.991 240.289C275.882 240.289 278.726 241.021 281.258 242.416C283.382 243.804 285.134 245.69 286.361 247.91C287.636 250.25 288.516 252.785 288.964 255.412C289.939 260.794 289.939 266.308 288.964 271.691C288.516 274.318 287.636 276.852 286.361 279.192C285.134 281.413 283.382 283.299 281.258 284.687C278.726 286.082 275.882 286.814 272.991 286.814C270.1 286.814 267.256 286.082 264.724 284.687C262.6 283.299 260.848 281.413 259.621 279.192C258.346 276.852 257.467 274.318 257.019 271.691C256.534 269.002 256.29 266.275 256.287 263.543ZM265.83 263.543C265.83 264.734 265.83 266.162 265.983 267.812C266.079 269.429 266.371 271.028 266.851 272.575C267.26 274.011 267.987 275.336 268.977 276.454C269.492 276.997 270.12 277.42 270.816 277.693C271.513 277.967 272.261 278.084 273.008 278.036C273.751 278.073 274.494 277.951 275.186 277.679C275.879 277.406 276.505 276.988 277.023 276.454C278.023 275.338 278.761 274.013 279.183 272.575C279.649 271.026 279.934 269.428 280.034 267.812C280.136 266.111 280.187 264.734 280.187 263.543C280.187 262.352 280.187 260.94 280.034 259.29C279.936 257.675 279.65 256.077 279.183 254.527C278.761 253.09 278.023 251.764 277.023 250.649C276.511 250.105 275.887 249.68 275.193 249.404C274.499 249.127 273.754 249.007 273.008 249.05C272.26 249.004 271.511 249.124 270.814 249.4C270.117 249.676 269.49 250.103 268.977 250.649C267.987 251.766 267.26 253.092 266.851 254.527C266.369 256.074 266.078 257.673 265.983 259.29C265.881 260.94 265.83 262.369 265.83 263.543Z" fill="white"/>
<path d="M273.008 288.512C269.772 288.634 266.571 287.8 263.806 286.114C261.447 284.571 259.502 282.475 258.141 280.007C256.764 277.508 255.821 274.793 255.352 271.978C254.331 266.405 254.331 260.694 255.352 255.121C255.821 252.301 256.764 249.58 258.141 247.075C259.508 244.616 261.452 242.526 263.806 240.985C266.618 239.412 269.786 238.586 273.008 238.586C276.23 238.586 279.399 239.412 282.211 240.985C284.565 242.526 286.509 244.616 287.875 247.075C289.249 249.582 290.192 252.302 290.665 255.121C291.685 260.694 291.685 266.405 290.665 271.978C290.196 274.793 289.252 277.508 287.875 280.007C286.514 282.475 284.569 284.571 282.211 286.114C279.446 287.8 276.245 288.634 273.008 288.512ZM273.008 241.989C270.438 241.876 267.89 242.514 265.677 243.826C263.778 245.068 262.213 246.755 261.118 248.742C259.923 250.907 259.106 253.26 258.703 255.699C257.75 260.884 257.75 266.198 258.703 271.383C259.107 273.828 259.923 276.186 261.118 278.357C262.214 280.339 263.779 282.021 265.677 283.256C267.929 284.472 270.449 285.109 273.008 285.109C275.568 285.109 278.087 284.472 280.34 283.256C282.237 282.021 283.803 280.339 284.898 278.357C286.089 276.182 286.911 273.826 287.331 271.383C288.261 266.196 288.261 260.886 287.331 255.699C286.911 253.262 286.089 250.911 284.898 248.742C283.803 246.755 282.238 245.068 280.34 243.826C278.126 242.514 275.579 241.876 273.008 241.989ZM273.008 279.735C272.021 279.784 271.035 279.618 270.118 279.248C269.202 278.878 268.377 278.313 267.701 277.592C266.556 276.28 265.709 274.737 265.217 273.067C264.708 271.408 264.394 269.695 264.282 267.964C264.18 266.263 264.129 264.834 264.129 263.592C264.129 262.35 264.129 260.887 264.282 259.237C264.397 257.506 264.711 255.794 265.217 254.134C265.712 252.471 266.559 250.934 267.701 249.627C269.112 248.246 271.008 247.473 272.983 247.473C274.957 247.473 276.853 248.246 278.264 249.627C279.419 250.894 280.284 252.397 280.799 254.032C281.306 255.692 281.62 257.404 281.735 259.135C281.837 260.836 281.888 262.282 281.888 263.49C281.888 264.698 281.888 266.178 281.735 267.862C281.62 269.593 281.306 271.305 280.799 272.965C280.304 274.649 279.438 276.201 278.264 277.506C277.602 278.236 276.789 278.814 275.881 279.199C274.974 279.583 273.993 279.766 273.008 279.735ZM273.008 250.817C272.498 250.777 271.986 250.85 271.507 251.029C271.028 251.208 270.594 251.49 270.236 251.855C269.441 252.796 268.861 253.899 268.534 255.087C268.108 256.509 267.845 257.976 267.752 259.459C267.65 261.057 267.599 262.452 267.599 263.609C267.599 264.766 267.599 266.178 267.752 267.76C267.845 269.247 268.108 270.72 268.534 272.148C268.861 273.336 269.441 274.439 270.236 275.38C270.595 275.742 271.03 276.021 271.509 276.197C271.988 276.373 272.5 276.443 273.008 276.401C273.515 276.436 274.024 276.361 274.499 276.182C274.975 276.003 275.406 275.724 275.764 275.363C276.598 274.443 277.209 273.343 277.55 272.148C277.985 270.722 278.247 269.248 278.332 267.76C278.435 266.161 278.486 264.766 278.486 263.609C278.486 262.452 278.486 261.075 278.332 259.459C278.246 257.975 277.983 256.508 277.55 255.087C277.205 253.889 276.595 252.784 275.764 251.855C275.412 251.482 274.983 251.19 274.508 250.999C274.032 250.808 273.52 250.723 273.008 250.749V250.817Z" fill="#093F68"/>
<path d="M245.707 173.516C245.707 173.516 248.938 186.171 245.707 190.526C242.475 194.881 223.185 198.674 201.48 193.928V173.516H245.707Z" fill="#093F68"/>
<path d="M221.45 197.777C214.632 197.763 207.835 197.022 201.174 195.565C200.787 195.482 200.441 195.267 200.196 194.957C199.951 194.646 199.821 194.26 199.83 193.864V173.452C199.83 173.001 200.009 172.568 200.328 172.249C200.647 171.93 201.08 171.751 201.531 171.751H245.758C246.144 171.739 246.523 171.858 246.832 172.09C247.141 172.322 247.362 172.652 247.459 173.027C247.799 174.404 250.861 186.635 247.17 191.432C244.533 194.834 234.599 197.777 221.45 197.777ZM203.232 192.52C223.832 196.671 241.726 192.912 244.346 189.442C246.166 187.026 245.401 179.933 244.346 175.221H203.232V192.52Z" fill="#093F68"/>
<path d="M229.938 55.2999C229.938 55.2999 236.742 53.0205 243.291 61.0153C254.059 74.2834 248.853 93.2158 252.987 108.763C254.688 115.21 257.784 121.368 258.09 128.019C258.736 139.926 250.163 150.915 239.294 155.627C228.424 160.339 215.836 159.59 204.474 156.239C197.891 154.3 191.359 151.374 186.749 146.305C181.884 140.947 179.639 133.632 179.128 126.42C178.888 119.184 179.459 111.943 180.829 104.834C182.888 91.3447 183.704 76.3927 189.879 64.0092C198.197 49.5164 220.412 42.8483 229.938 55.2999Z" fill="#725858"/>
<path d="M222.318 160.663C216.127 160.595 209.977 159.655 204.049 157.873C195.748 155.424 189.692 152.005 185.558 147.446C179.656 140.948 177.921 132.494 177.496 126.54C177.246 119.18 177.817 111.814 179.197 104.58C179.605 101.875 179.979 99.1025 180.336 96.3128C181.816 85.052 183.347 73.3999 188.399 63.2958C191.07 58.7737 194.775 54.9495 199.21 52.1374C203.646 49.3253 208.685 47.6054 213.915 47.119C216.994 46.7781 220.111 47.1723 223.009 48.2693C225.907 49.3663 228.503 51.1349 230.585 53.4298C233.085 53.0556 239.005 53.0726 244.601 59.9448C251.746 68.7561 252.188 79.8298 252.63 90.5633C252.662 96.5479 253.329 102.512 254.62 108.356C255.182 110.465 255.913 112.609 256.627 114.684C258.298 118.939 259.374 123.403 259.825 127.952C260.489 139.859 252.341 151.868 240.025 157.21C234.421 159.558 228.394 160.733 222.318 160.663ZM215.701 50.47H214.17C209.519 50.9107 205.039 52.4478 201.098 54.9553C197.156 57.4627 193.865 60.8691 191.495 64.8948C186.732 74.4205 185.235 85.7664 183.789 96.7551C183.432 99.5788 183.058 102.369 182.65 105.107C181.303 112.088 180.733 119.196 180.949 126.302C181.34 131.711 182.905 139.383 188.144 145.166C191.852 149.249 197.398 152.328 205.154 154.607C213.966 157.193 226.944 159.217 238.818 154.063C249.857 149.283 257.172 138.617 256.593 128.122C256.149 123.887 255.13 119.733 253.566 115.773C252.834 113.629 252.069 111.435 251.49 109.207C250.097 103.146 249.373 96.9516 249.33 90.7334C248.888 80.102 248.48 70.0659 242.033 62.1391C236.436 55.2329 230.772 56.8999 230.534 57.036C230.2 57.1442 229.841 57.1467 229.507 57.0431C229.172 56.9396 228.877 56.7351 228.663 56.4577C227.128 54.5072 225.154 52.9478 222.901 51.9071C220.648 50.8664 218.18 50.3739 215.701 50.47Z" fill="#093F68"/>
<path d="M246.013 173.516H191.58V142.217C191.58 138.229 193.164 134.404 195.984 131.584C198.804 128.764 202.629 127.18 206.617 127.18H230.976C234.964 127.18 238.789 128.764 241.609 131.584C244.429 134.404 246.013 138.229 246.013 142.217V173.516Z" fill="#FF1999"/>
<path d="M246.013 175.229H191.58C191.129 175.229 190.696 175.05 190.377 174.731C190.058 174.412 189.879 173.979 189.879 173.528V142.229C189.883 137.793 191.649 133.54 194.787 130.404C197.926 127.269 202.181 125.508 206.617 125.508H230.959C235.395 125.508 239.65 127.269 242.788 130.404C245.927 133.54 247.692 137.793 247.697 142.229V173.528C247.697 173.976 247.52 174.406 247.205 174.725C246.889 175.043 246.461 175.224 246.013 175.229ZM193.281 171.827H244.312V142.229C244.307 138.695 242.9 135.307 240.4 132.81C237.899 130.313 234.51 128.91 230.976 128.91H206.634C203.1 128.91 199.711 130.313 197.21 132.81C194.71 135.307 193.302 138.695 193.298 142.229L193.281 171.827Z" fill="#093F68"/>
<path d="M231.214 158.572C234.404 159.303 237.55 160.211 240.638 161.294C245.349 162.995 248.445 168.608 243.512 172.147C242.448 172.834 241.258 173.303 240.012 173.528C238.765 173.753 237.486 173.728 236.249 173.456C230.329 172.419 224.342 168.574 218.932 166.057C215.888 164.662 213.948 164.883 210.699 165.274C210.179 165.394 209.638 165.394 209.117 165.274C208.863 165.203 208.64 165.049 208.483 164.836C208.326 164.624 208.244 164.365 208.25 164.101C208.352 163.131 209.951 162.842 209.951 161.872C207.511 162.652 205.022 163.272 202.5 163.727C199.932 164.135 198.758 161.685 200.527 159.678C201.448 158.771 202.574 158.1 203.81 157.722C207.927 155.651 212.664 155.173 217.112 156.378C220.838 157.195 224.699 157.348 228.458 158.079L231.214 158.572Z" fill="#FFC9B0"/>
<path d="M238.392 175.362C237.577 175.353 236.763 175.279 235.96 175.141C231.344 174.048 226.913 172.283 222.811 169.902C221.212 169.068 219.715 168.286 218.218 167.605C215.581 166.397 214.017 166.584 210.904 166.959C210.121 167.094 209.318 167.047 208.556 166.823C208.071 166.657 207.636 166.371 207.294 165.989C206.951 165.608 206.712 165.145 206.6 164.645C205.562 164.866 204.321 165.105 202.807 165.343C201.98 165.519 201.118 165.431 200.343 165.093C199.568 164.754 198.919 164.181 198.486 163.455C198.092 162.645 197.957 161.734 198.1 160.845C198.243 159.956 198.657 159.132 199.286 158.488C200.385 157.374 201.74 156.545 203.232 156.072C207.66 153.864 212.746 153.361 217.521 154.66C219.443 155.069 221.365 155.307 223.406 155.545C225.447 155.783 227.029 155.987 228.832 156.327L231.588 156.906C234.842 157.654 238.05 158.585 241.199 159.695C242.814 160.213 244.262 161.15 245.394 162.412C246.527 163.673 247.304 165.213 247.646 166.874C247.814 168.167 247.607 169.482 247.049 170.661C246.491 171.84 245.606 172.834 244.499 173.525C242.708 174.765 240.571 175.408 238.392 175.362ZM214.221 163.284C216.1 163.281 217.956 163.705 219.647 164.526C221.195 165.241 222.811 166.074 224.376 166.874C228.18 169.085 232.282 170.74 236.555 171.79C238.602 172.246 240.746 171.879 242.526 170.769C243.105 170.424 243.574 169.921 243.875 169.317C244.177 168.714 244.299 168.037 244.227 167.367C243.965 166.324 243.44 165.367 242.701 164.586C241.962 163.806 241.035 163.228 240.008 162.91C236.985 161.832 233.901 160.935 230.772 160.223L228.135 159.678C226.434 159.338 224.733 159.134 223.032 158.93C221.008 158.675 218.898 158.42 216.84 157.977C212.74 156.855 208.368 157.297 204.576 159.219C203.577 159.515 202.659 160.033 201.888 160.733C201.463 161.192 201.395 161.617 201.514 161.805C201.633 161.992 201.905 162.043 202.313 161.975C203.249 161.839 208.08 160.75 209.118 160.376C209.463 160.163 209.871 160.073 210.274 160.121C210.497 160.15 210.712 160.223 210.906 160.336C211.1 160.448 211.27 160.598 211.406 160.777C211.542 160.956 211.641 161.159 211.698 161.377C211.755 161.594 211.768 161.82 211.737 162.043C211.737 162.043 211.737 162.23 211.737 162.349C211.625 162.785 211.409 163.188 211.108 163.523C212.14 163.384 213.179 163.304 214.221 163.284Z" fill="#093F68"/>
<path d="M221.399 129.539L217.112 155.684L212.383 129.539H221.399Z" fill="white"/>
<path d="M217.112 157.381C216.71 157.388 216.318 157.251 216.006 156.996C215.695 156.741 215.484 156.383 215.411 155.987L210.699 129.859C210.656 129.613 210.667 129.361 210.731 129.12C210.796 128.879 210.913 128.655 211.074 128.464C211.234 128.272 211.434 128.117 211.66 128.012C211.887 127.906 212.134 127.851 212.383 127.852H221.399C221.645 127.851 221.887 127.905 222.111 128.007C222.334 128.11 222.532 128.26 222.692 128.447C222.85 128.636 222.966 128.857 223.03 129.095C223.095 129.333 223.107 129.582 223.066 129.825L218.796 155.97C218.731 156.372 218.524 156.738 218.211 157C217.899 157.262 217.503 157.404 217.095 157.398L217.112 157.381ZM214.425 131.237L217.027 145.661L219.392 131.237H214.425Z" fill="#093F68"/>
<path d="M217.555 133.36H216.194C215.179 133.36 214.205 132.957 213.487 132.239C212.77 131.521 212.366 130.548 212.366 129.533V124.43H221.382V129.533C221.382 130.548 220.979 131.521 220.261 132.239C219.543 132.957 218.57 133.36 217.555 133.36Z" fill="#FFC9B0"/>
<path d="M217.572 135.059H216.211C214.746 135.054 213.342 134.471 212.307 133.435C211.271 132.399 210.687 130.995 210.682 129.531V124.428C210.682 123.976 210.862 123.544 211.181 123.225C211.5 122.906 211.932 122.727 212.383 122.727H221.399C221.85 122.727 222.283 122.906 222.602 123.225C222.921 123.544 223.1 123.976 223.1 124.428V129.531C223.095 130.995 222.512 132.399 221.476 133.435C220.44 134.471 219.036 135.054 217.572 135.059ZM214.084 126.044V129.446C214.084 130.01 214.308 130.55 214.707 130.949C215.106 131.348 215.647 131.572 216.211 131.572H217.572C218.135 131.572 218.676 131.348 219.075 130.949C219.474 130.55 219.698 130.01 219.698 129.446V126.044H214.084Z" fill="#093F68"/>
<path d="M242.645 108.496C247.483 108.496 251.405 105.114 251.405 100.943C251.405 96.772 247.483 93.3906 242.645 93.3906C237.807 93.3906 233.885 96.772 233.885 100.943C233.885 105.114 237.807 108.496 242.645 108.496Z" fill="#FFC9B0"/>
<path d="M242.645 110.195C236.878 110.195 232.183 106.044 232.183 100.941C232.183 95.838 236.878 91.6875 242.645 91.6875C248.411 91.6875 253.089 95.838 253.089 100.941C253.089 106.044 248.411 110.195 242.645 110.195ZM242.645 95.0896C238.749 95.0896 235.585 97.7262 235.585 100.941C235.585 104.156 238.749 106.793 242.645 106.793C246.54 106.793 249.687 104.156 249.687 100.941C249.687 97.7262 246.523 95.0896 242.645 95.0896Z" fill="#093F68"/>
<path d="M191.597 108.496C196.435 108.496 200.357 105.114 200.357 100.943C200.357 96.772 196.435 93.3906 191.597 93.3906C186.759 93.3906 182.837 96.772 182.837 100.943C182.837 105.114 186.759 108.496 191.597 108.496Z" fill="#FFC9B0"/>
<path d="M191.597 110.195C185.83 110.195 181.135 106.044 181.135 100.941C181.135 95.838 185.83 91.6875 191.597 91.6875C197.363 91.6875 202.058 95.838 202.058 100.941C202.058 106.044 197.363 110.195 191.597 110.195ZM191.597 95.0896C187.701 95.0896 184.538 97.7262 184.538 100.941C184.538 104.156 187.701 106.793 191.597 106.793C195.492 106.793 198.656 104.156 198.656 100.941C198.656 97.7262 195.492 95.0896 191.597 95.0896Z" fill="#093F68"/>
<path d="M200.834 78.5746L209.339 67.5859C209.339 67.5859 211.261 74.3901 212.435 78.5236H225.907L229.105 68.6236L232.847 78.4045H243.291V99.1231C243.294 102.591 242.612 106.026 241.287 109.231C239.961 112.436 238.017 115.348 235.565 117.802C233.113 120.255 230.202 122.201 226.998 123.529C223.794 124.857 220.36 125.54 216.891 125.54C209.885 125.54 203.166 122.757 198.212 117.803C193.258 112.849 190.474 106.129 190.474 99.1231V78.5916L200.834 78.5746Z" fill="#FFC9B0"/>
<path d="M216.891 127.235C209.437 127.226 202.29 124.261 197.019 118.989C191.748 113.718 188.782 106.571 188.773 99.1168V78.5854C188.773 78.1342 188.952 77.7015 189.271 77.3825C189.59 77.0635 190.023 76.8843 190.474 76.8843H200L208.029 66.5421C208.226 66.2904 208.49 66.0995 208.791 65.9912C209.092 65.8829 209.417 65.8615 209.73 65.9297C210.039 65.9902 210.324 66.1352 210.556 66.3484C210.787 66.5616 210.954 66.8347 211.04 67.1374C211.04 67.1374 212.622 72.6828 213.795 76.8333H224.733L227.523 68.2091C227.632 67.8735 227.843 67.5802 228.126 67.3699C228.41 67.1596 228.752 67.0427 229.105 67.0354C229.467 67.0113 229.828 67.104 230.134 67.2999C230.44 67.4958 230.676 67.7846 230.806 68.124L234.021 76.7653H243.291C243.742 76.7653 244.175 76.9445 244.494 77.2635C244.813 77.5825 244.992 78.0151 244.992 78.4663V99.1168C244.983 106.569 242.02 113.713 236.753 118.983C231.485 124.254 224.343 127.221 216.891 127.235ZM192.175 80.2864V99.1168C191.958 102.489 192.435 105.87 193.576 109.051C194.718 112.232 196.499 115.145 198.811 117.611C201.123 120.076 203.915 122.041 207.016 123.384C210.117 124.727 213.461 125.42 216.84 125.42C220.22 125.42 223.563 124.727 226.664 123.384C229.765 122.041 232.558 120.076 234.87 117.611C237.181 115.145 238.963 112.232 240.104 109.051C241.245 105.87 241.722 102.489 241.505 99.1168V80.1333H232.762C232.419 80.1323 232.085 80.0278 231.803 79.8335C231.52 79.6393 231.303 79.3643 231.18 79.0446L229.156 73.7714L227.455 78.9766C227.343 79.3176 227.127 79.6148 226.837 79.8256C226.547 80.0364 226.197 80.15 225.839 80.1503H212.367C211.985 80.1644 211.609 80.0496 211.301 79.8243C210.992 79.5991 210.768 79.2765 210.665 78.9086C210.019 76.5952 209.135 73.4993 208.488 71.1859L202.007 79.5209C201.849 79.7268 201.645 79.8936 201.412 80.0086C201.179 80.1236 200.923 80.1837 200.663 80.1843L192.175 80.2864Z" fill="#093F68"/>
<path d="M230.976 98.9146C232.329 98.9146 233.425 97.8179 233.425 96.4651C233.425 95.1123 232.329 94.0156 230.976 94.0156C229.623 94.0156 228.526 95.1123 228.526 96.4651C228.526 97.8179 229.623 98.9146 230.976 98.9146Z" fill="#093F68"/>
<path d="M205.052 98.9926C206.405 98.9926 207.502 97.896 207.502 96.5432C207.502 95.1904 206.405 94.0938 205.052 94.0938C203.699 94.0938 202.603 95.1904 202.603 96.5432C202.603 97.896 203.699 98.9926 205.052 98.9926Z" fill="#093F68"/>
<path d="M217.01 105.209C216.261 105.214 215.513 105.134 214.782 104.97C214.448 104.889 214.138 104.731 213.876 104.51C213.613 104.289 213.405 104.01 213.268 103.695C212.622 102.266 213.268 99.5782 215.36 95.6829C215.57 95.2837 215.93 94.9842 216.361 94.8502C216.791 94.7163 217.258 94.7588 217.657 94.9684C218.051 95.1783 218.348 95.5351 218.481 95.9616C218.615 96.3882 218.576 96.8502 218.371 97.2478C217.602 98.6953 216.98 100.217 216.517 101.79C217.331 101.817 218.146 101.766 218.95 101.636C219.401 101.557 219.865 101.661 220.24 101.924C220.614 102.187 220.869 102.589 220.948 103.04C221.027 103.491 220.924 103.955 220.661 104.33C220.397 104.705 219.996 104.96 219.545 105.038C218.706 105.165 217.858 105.222 217.01 105.209Z" fill="#093F68"/>
<path d="M224.12 91.6599C223.669 91.6599 223.237 91.4807 222.918 91.1617C222.599 90.8426 222.419 90.41 222.419 89.9588C222.419 89.5077 222.599 89.075 222.918 88.756C223.237 88.437 223.669 88.2578 224.12 88.2578H235.722C236.173 88.2578 236.605 88.437 236.924 88.756C237.243 89.075 237.423 89.5077 237.423 89.9588C237.423 90.41 237.243 90.8426 236.924 91.1617C236.605 91.4807 236.173 91.6599 235.722 91.6599H224.12Z" fill="#093F68"/>
<path d="M207.502 91.9449H207.399L195.764 91.3495C195.328 91.3277 194.917 91.1389 194.616 90.8222C194.315 90.5055 194.148 90.0853 194.148 89.6485C194.148 89.4177 194.195 89.1894 194.286 88.9773C194.376 88.7651 194.509 88.5737 194.676 88.4146C194.843 88.2554 195.041 88.132 195.257 88.0517C195.474 87.9714 195.704 87.9359 195.935 87.9474L207.587 88.5428C208.038 88.5541 208.466 88.7441 208.777 89.0711C209.088 89.3981 209.256 89.8352 209.245 90.2864C209.234 90.7375 209.044 91.1657 208.717 91.4767C208.39 91.7877 207.953 91.9561 207.502 91.9449Z" fill="#093F68"/>
<path d="M217.01 114.886C212.398 114.685 208 112.88 204.576 109.783C204.253 109.468 204.069 109.037 204.065 108.585C204.06 108.134 204.234 107.699 204.55 107.376C204.866 107.054 205.297 106.87 205.748 106.865C206.2 106.86 206.635 107.035 206.957 107.351C207.365 107.742 216.738 116.656 226.383 107.198C226.702 106.881 227.133 106.703 227.582 106.703C228.032 106.703 228.463 106.881 228.781 107.198C228.941 107.356 229.067 107.544 229.154 107.751C229.24 107.959 229.285 108.181 229.285 108.406C229.285 108.63 229.24 108.852 229.154 109.06C229.067 109.267 228.941 109.455 228.781 109.613C227.272 111.235 225.453 112.538 223.431 113.444C221.409 114.35 219.225 114.84 217.01 114.886Z" fill="#093F68"/>
<path d="M201.701 175.226C201.25 175.226 200.817 175.047 200.498 174.728C200.179 174.409 200 173.976 200 173.525V144.607C200 144.156 200.179 143.724 200.498 143.405C200.817 143.086 201.25 142.906 201.701 142.906C202.152 142.906 202.585 143.086 202.904 143.405C203.223 143.724 203.402 144.156 203.402 144.607V173.525C203.402 173.976 203.223 174.409 202.904 174.728C202.585 175.047 202.152 175.226 201.701 175.226Z" fill="#093F68"/>
<path d="M157.202 173.503H203.504V168.961H157.202V173.503Z" fill="white"/>
<path d="M203.504 175.208H157.202C156.751 175.208 156.318 175.029 155.999 174.71C155.68 174.391 155.501 173.958 155.501 173.507V168.982C155.501 168.531 155.68 168.098 155.999 167.779C156.318 167.46 156.751 167.281 157.202 167.281H203.504C203.955 167.281 204.388 167.46 204.707 167.779C205.026 168.098 205.205 168.531 205.205 168.982V173.524C205.201 173.972 205.02 174.401 204.701 174.716C204.383 175.031 203.953 175.208 203.504 175.208ZM158.903 171.806H201.803V170.683H158.903V171.806Z" fill="#093F68"/>
<path d="M224.342 168.961H203.504V173.503H224.342V168.961Z" fill="white"/>
<path d="M224.342 175.208H203.504C203.053 175.208 202.62 175.029 202.301 174.71C201.982 174.391 201.803 173.958 201.803 173.507V168.982C201.803 168.531 201.982 168.098 202.301 167.779C202.62 167.46 203.053 167.281 203.504 167.281H224.342C224.793 167.281 225.225 167.46 225.544 167.779C225.863 168.098 226.043 168.531 226.043 168.982V173.524C226.038 173.972 225.857 174.401 225.538 174.716C225.22 175.031 224.79 175.208 224.342 175.208ZM205.205 171.806H222.641V170.683H205.205V171.806Z" fill="#093F68"/>
<path d="M157.202 168.967H203.504L193.995 137.039H147.693L157.202 168.967Z" fill="white"/>
<path d="M203.504 170.684H157.202C156.824 170.7 156.452 170.59 156.144 170.371C155.836 170.152 155.61 169.837 155.501 169.476L145.992 137.53C145.918 137.277 145.904 137.01 145.951 136.75C145.999 136.49 146.106 136.245 146.264 136.034C146.423 135.822 146.628 135.651 146.864 135.533C147.101 135.415 147.361 135.353 147.625 135.353H193.927C194.305 135.337 194.677 135.447 194.985 135.666C195.293 135.884 195.519 136.199 195.628 136.561L205.103 168.489C205.177 168.743 205.191 169.01 205.144 169.27C205.096 169.53 204.989 169.775 204.831 169.986C204.678 170.196 204.478 170.368 204.248 170.489C204.018 170.61 203.764 170.676 203.504 170.684ZM158.478 167.281H201.225L192.719 138.755H149.972L158.478 167.281Z" fill="#093F68"/>
<path d="M174.213 213.203L189.709 212.811L195.527 183.384C195.907 181.455 195.506 179.454 194.412 177.821C193.318 176.188 191.62 175.056 189.692 174.674L186.29 174.011C185.336 173.82 184.354 173.819 183.4 174.009C182.445 174.198 181.538 174.573 180.729 175.114C179.92 175.654 179.226 176.349 178.685 177.158C178.145 177.967 177.77 178.874 177.581 179.828L174.213 213.203Z" fill="#FFC9B0"/>
<path d="M174.212 214.911C173.974 214.912 173.738 214.864 173.519 214.768C173.301 214.672 173.105 214.531 172.945 214.355C172.785 214.178 172.663 213.97 172.588 213.743C172.514 213.517 172.487 213.277 172.511 213.04L175.913 179.666C176.134 178.478 176.587 177.346 177.246 176.334C177.906 175.322 178.759 174.451 179.756 173.769C180.754 173.088 181.876 172.611 183.058 172.364C184.241 172.118 185.46 172.108 186.647 172.334L190.049 173.015C192.419 173.484 194.506 174.873 195.852 176.88C197.197 178.886 197.692 181.344 197.227 183.714L191.376 213.21C191.296 213.6 191.082 213.95 190.772 214.199C190.461 214.447 190.073 214.579 189.675 214.571L174.195 214.962L174.212 214.911ZM184.878 175.566C183.556 175.569 182.275 176.03 181.255 176.87C180.235 177.711 179.537 178.879 179.281 180.176L176.185 211.509L188.382 211.186L193.944 183.085C194.234 181.601 193.925 180.063 193.083 178.806C192.241 177.55 190.936 176.679 189.453 176.383L186.051 175.72C185.669 175.61 185.275 175.547 184.878 175.532V175.566Z" fill="#093F68"/>
<path d="M189.794 212.781L189.011 221.286C189.011 221.286 165.622 232.819 165.197 227.053C164.772 221.286 175.658 213.087 175.658 213.087L189.794 212.781Z" fill="white"/>
<path d="M167.68 230.37C166.764 230.413 165.852 230.226 165.027 229.826C164.548 229.574 164.14 229.205 163.843 228.753C163.545 228.3 163.367 227.78 163.326 227.24C162.764 220.708 173.277 212.68 174.468 211.778C174.752 211.576 175.088 211.458 175.437 211.438L189.624 211.081C189.864 211.067 190.104 211.109 190.325 211.204C190.547 211.298 190.743 211.442 190.9 211.625C191.064 211.799 191.19 212.005 191.269 212.231C191.348 212.457 191.379 212.696 191.359 212.935L190.576 221.44C190.549 221.727 190.449 222.003 190.285 222.241C190.121 222.479 189.9 222.672 189.641 222.801C185.728 224.808 173.906 230.37 167.68 230.37ZM176.186 214.84C172.239 217.868 166.524 223.566 166.813 226.951C168.276 227.955 177.785 224.876 187.378 220.147L187.906 214.466L176.186 214.84Z" fill="#093F68"/>
<path d="M195.526 214.335L210.631 210.933V180.893C210.631 178.929 209.852 177.045 208.465 175.655C207.078 174.264 205.196 173.481 203.232 173.477H199.83C198.856 173.477 197.891 173.668 196.992 174.041C196.092 174.414 195.274 174.96 194.586 175.649C193.897 176.337 193.351 177.155 192.978 178.055C192.605 178.955 192.413 179.919 192.413 180.893L195.526 214.335Z" fill="#FFC9B0"/>
<path d="M195.527 216.038C195.166 216.039 194.815 215.926 194.523 215.715C194.328 215.574 194.165 215.394 194.045 215.186C193.925 214.977 193.85 214.746 193.825 214.507L190.696 181.099C190.678 179.891 190.899 178.691 191.348 177.569C191.797 176.447 192.464 175.426 193.31 174.564C194.157 173.701 195.166 173.016 196.279 172.546C197.393 172.077 198.588 171.832 199.796 171.828H203.198C205.613 171.833 207.928 172.795 209.634 174.505C211.34 176.214 212.299 178.53 212.299 180.946V210.952C212.308 211.345 212.181 211.729 211.939 212.04C211.698 212.35 211.356 212.566 210.972 212.653L195.867 216.055L195.527 216.038ZM199.796 175.213C198.282 175.218 196.831 175.821 195.76 176.892C194.689 177.963 194.085 179.414 194.081 180.929L197.04 212.245L208.948 209.574V180.895C208.948 179.382 208.348 177.931 207.28 176.859C206.211 175.788 204.762 175.184 203.249 175.179L199.796 175.213Z" fill="#093F68"/>
<path d="M210.631 210.953L211.533 219.458C211.533 219.458 190.831 235.312 189.232 229.75C187.633 224.187 196.802 214.015 196.802 214.015L210.631 210.953Z" fill="white"/>
<path d="M190.968 232.629C190.546 232.633 190.127 232.57 189.726 232.442C189.213 232.284 188.749 231.998 188.377 231.611C188.005 231.225 187.737 230.749 187.6 230.231C185.796 223.937 194.523 214.02 195.526 212.897C195.766 212.638 196.082 212.459 196.428 212.387L210.274 209.274C210.509 209.222 210.752 209.221 210.988 209.27C211.223 209.32 211.445 209.418 211.64 209.56C211.834 209.701 211.997 209.882 212.116 210.091C212.235 210.3 212.309 210.532 212.332 210.771L213.217 219.276C213.249 219.565 213.207 219.858 213.094 220.126C212.98 220.394 212.8 220.628 212.571 220.807C208.777 223.733 196.7 232.629 190.968 232.629ZM197.772 215.619C194.489 219.361 189.998 226.063 190.968 229.329C192.567 230.01 201.327 225.145 209.849 218.732L209.254 213.05L197.772 215.619Z" fill="#093F68"/>
<path d="M231.214 160.264C230.763 160.264 230.33 160.084 230.011 159.765C229.692 159.446 229.513 159.014 229.513 158.563L230.414 140.021C230.414 139.57 230.594 139.138 230.913 138.819C231.232 138.5 231.664 138.32 232.116 138.32C232.567 138.32 232.999 138.5 233.318 138.819C233.637 139.138 233.817 139.57 233.817 140.021L232.932 158.563C232.932 158.787 232.887 159.01 232.801 159.217C232.714 159.425 232.588 159.613 232.428 159.771C232.268 159.93 232.078 160.055 231.87 160.139C231.662 160.224 231.439 160.266 231.214 160.264Z" fill="#093F68"/>
<path d="M158.189 155.377C159.256 156.68 159.855 158.303 159.89 159.987C159.902 160.827 159.711 161.657 159.331 162.407C158.952 163.157 158.396 163.803 157.712 164.29C157.016 164.762 156.189 165.002 155.348 164.974C154.508 164.947 153.698 164.654 153.034 164.137C151.333 162.657 149.785 157.673 150.704 155.428C152.15 151.975 156.351 153.098 158.189 155.377Z" fill="#FFC9B0"/>
<path d="M155.501 166.656C154.222 166.674 152.979 166.233 151.997 165.414C149.769 163.526 147.948 157.811 149.19 154.783C149.497 153.949 150.024 153.214 150.716 152.656C151.408 152.099 152.239 151.74 153.12 151.619C154.325 151.504 155.54 151.689 156.656 152.158C157.772 152.627 158.754 153.365 159.515 154.307C160.854 155.895 161.611 157.894 161.659 159.971C161.673 161.094 161.412 162.203 160.899 163.203C160.386 164.202 159.637 165.06 158.716 165.704C157.762 166.333 156.643 166.664 155.501 166.656ZM153.936 154.953H153.613C153.324 155.009 153.055 155.138 152.832 155.329C152.608 155.52 152.438 155.765 152.337 156.042C152.175 157.243 152.258 158.465 152.579 159.634C152.901 160.804 153.455 161.896 154.208 162.846C154.598 163.108 155.057 163.247 155.527 163.247C155.996 163.247 156.455 163.108 156.845 162.846C157.294 162.512 157.657 162.075 157.902 161.572C158.148 161.068 158.27 160.514 158.257 159.954C158.208 158.65 157.716 157.402 156.862 156.416C156.499 155.986 156.053 155.634 155.55 155.383C155.047 155.131 154.498 154.985 153.936 154.953Z" fill="#093F68"/>
<path d="M126.141 126.314C125.274 126.144 124.44 125.957 123.59 125.804L116.564 124.596C115 124.358 113.45 124.035 111.92 123.627C110.554 123.29 109.258 122.714 108.093 121.926C107.326 121.357 106.635 120.694 106.035 119.952C105.499 119.282 105.016 118.571 104.589 117.826C103.875 116.6 103.555 115.184 103.67 113.77C103.786 112.355 104.332 111.011 105.235 109.916C106.119 108.801 107.31 107.969 108.662 107.524C110.013 107.08 111.466 107.042 112.839 107.416C113.531 107.573 114.2 107.819 114.829 108.147H114.965C114.973 108.085 114.973 108.022 114.965 107.96C114.957 106.416 115.368 104.899 116.156 103.572C116.867 102.438 117.88 101.525 119.082 100.935C120.485 100.226 122.086 100.008 123.628 100.316C125.17 100.625 126.564 101.441 127.587 102.636C128.137 103.297 128.606 104.023 128.982 104.796C129.421 105.604 129.763 106.46 130.002 107.348C130.362 108.713 130.443 110.136 130.241 111.532C130.031 112.969 129.701 114.386 129.254 115.768C128.608 117.86 127.944 119.935 127.315 122.011C126.89 123.44 126.498 124.885 126.09 126.314H126.141Z" fill="white"/>
<path d="M126.09 128.017H125.801L124.967 127.847L123.266 127.523L117.415 126.52L116.241 126.316C114.621 126.063 113.014 125.728 111.427 125.312C109.867 124.901 108.393 124.215 107.073 123.288C106.182 122.637 105.381 121.87 104.691 121.008C104.052 120.275 103.483 119.483 102.99 118.644C102.105 117.114 101.711 115.35 101.86 113.589C102.009 111.828 102.694 110.154 103.824 108.795C104.915 107.408 106.392 106.376 108.069 105.828C109.746 105.28 111.548 105.241 113.247 105.716H113.554C113.786 104.631 114.194 103.591 114.761 102.637C115.678 101.133 117.016 99.9293 118.609 99.1766C120.202 98.4238 121.981 98.1544 123.726 98.4017C125.773 98.6997 127.642 99.7338 128.982 101.311C129.652 102.063 130.223 102.898 130.683 103.794C131.193 104.712 131.587 105.689 131.857 106.703C132.275 108.284 132.367 109.933 132.129 111.551C131.909 113.081 131.556 114.589 131.074 116.058L130.207 118.899C129.849 120.022 129.492 121.162 129.152 122.301C128.812 123.441 128.557 124.308 128.284 125.312L127.927 126.588C127.822 126.996 127.585 127.357 127.252 127.615C126.92 127.874 126.511 128.015 126.09 128.017ZM124.508 125.839L126.209 126.316L124.508 125.839ZM110.9 108.829C110.071 108.828 109.254 109.017 108.51 109.383C107.767 109.749 107.118 110.281 106.613 110.938C105.93 111.768 105.519 112.788 105.437 113.86C105.355 114.931 105.605 116.002 106.154 116.926C106.522 117.592 106.949 118.224 107.43 118.814C107.926 119.448 108.497 120.019 109.131 120.515C110.123 121.213 111.236 121.721 112.414 122.012C113.875 122.403 115.357 122.71 116.854 122.931L118.061 123.135L123.93 124.155L124.967 124.343C125.24 123.373 125.512 122.386 125.801 121.4L126.873 117.998L127.74 115.191C128.163 113.898 128.476 112.573 128.676 111.228C128.848 110.053 128.784 108.856 128.489 107.706C128.272 106.946 127.976 106.21 127.604 105.512C127.283 104.857 126.89 104.241 126.43 103.675C125.592 102.739 124.445 102.135 123.198 101.974C122.118 101.823 121.016 101.992 120.03 102.461C119.045 102.929 118.218 103.677 117.653 104.611C117.027 105.677 116.703 106.895 116.717 108.132C116.709 108.428 116.632 108.719 116.494 108.982C116.355 109.244 116.158 109.471 115.918 109.646C115.676 109.824 115.392 109.936 115.093 109.969C114.794 110.002 114.492 109.955 114.217 109.833C114.156 109.815 114.098 109.786 114.047 109.748C113.538 109.494 113.001 109.3 112.448 109.169C111.921 109.007 111.38 108.899 110.832 108.846L110.9 108.829Z" fill="#093F68"/>
<path d="M152.899 86.4713L151.198 85.2635L146.231 82.0486C145.115 81.3567 144.036 80.6073 142.999 79.8032C142.076 79.0847 141.287 78.2095 140.668 77.2177C140.269 76.5349 139.96 75.803 139.75 75.0403C139.549 74.3619 139.407 73.6676 139.324 72.9651C139.178 71.7966 139.395 70.6113 139.946 69.5704C140.497 68.5295 141.355 67.6836 142.403 67.1476C143.438 66.5857 144.614 66.3395 145.787 66.4392C146.96 66.539 148.078 66.9804 149.003 67.7089C149.476 68.0576 149.905 68.4632 150.279 68.9166L150.364 69.0187V68.8656C150.861 67.6923 151.666 66.6755 152.694 65.9228C153.602 65.2674 154.674 64.8785 155.79 64.8001C157.038 64.6994 158.285 65.0036 159.346 65.6677C160.523 66.3897 161.399 67.5136 161.812 68.8316C162.012 69.5134 162.137 70.215 162.186 70.9239C162.263 71.6817 162.263 72.4454 162.186 73.2032C162.008 74.3597 161.604 75.4696 160.996 76.4692C160.366 77.4986 159.649 78.4717 158.852 79.378L155.348 83.5115C154.566 84.4471 153.8 85.4166 153.018 86.3862L152.899 86.4713Z" fill="#FF1999"/>
<path d="M152.831 88.1342C152.509 88.1361 152.195 88.0412 151.929 87.8621L151.385 87.4878C150.993 87.2157 150.602 86.9435 150.194 86.6884L146.35 84.1879L145.244 83.4734C144.068 82.7538 142.932 81.9702 141.842 81.126C140.756 80.2873 139.829 79.2621 139.103 78.0982C138.628 77.2881 138.262 76.4187 138.015 75.5126C137.787 74.734 137.628 73.9372 137.538 73.1312C137.352 71.6191 137.635 70.0862 138.35 68.741C139.066 67.3958 140.178 66.3035 141.536 65.6126C142.845 64.9141 144.327 64.6083 145.806 64.732C147.285 64.8557 148.696 65.4037 149.871 66.31C150.385 65.658 150.993 65.0849 151.674 64.609C152.837 63.7774 154.21 63.2883 155.637 63.1971C157.242 63.0652 158.846 63.4528 160.213 64.3028C161.732 65.2263 162.863 66.6716 163.394 68.3683C163.641 69.1811 163.789 70.0206 163.836 70.8688C163.939 71.7503 163.939 72.6408 163.836 73.5224C163.637 74.9037 163.156 76.2295 162.424 77.4177C161.735 78.5137 160.962 79.5545 160.111 80.5306L158.512 82.4188L156.607 84.6641C156.062 85.3105 155.535 85.9569 155.025 86.6203L154.293 87.5219C154.106 87.7204 153.879 87.8775 153.627 87.9829C153.375 88.0884 153.104 88.14 152.831 88.1342ZM145.21 68.1131C144.474 68.1267 143.751 68.3131 143.101 68.6574C142.363 69.0391 141.761 69.6395 141.377 70.3763C140.994 71.1132 140.847 71.9506 140.957 72.7739C141.015 73.3855 141.135 73.9895 141.315 74.577C141.486 75.1751 141.738 75.7473 142.063 76.2781C142.574 77.0992 143.231 77.8198 144.002 78.4043C144.989 79.1743 146.016 79.8898 147.081 80.5476L148.204 81.2621L152.048 83.7626L152.558 84.1028C153.035 83.5074 153.511 82.9291 154.004 82.4018C154.498 81.8744 155.28 80.8708 155.926 80.1224L157.508 78.2683C158.238 77.4277 158.898 76.5288 159.482 75.5806C159.971 74.7784 160.3 73.8888 160.451 72.9611C160.511 72.3274 160.511 71.6895 160.451 71.0559C160.421 70.4795 160.324 69.9087 160.162 69.3549C159.88 68.4604 159.301 67.6886 158.522 67.1662C157.743 66.6438 156.81 66.4019 155.875 66.4801C155.078 66.5335 154.311 66.8106 153.664 67.2796C152.873 67.8558 152.255 68.6384 151.878 69.542V69.6951C151.76 69.9566 151.579 70.1841 151.35 70.3566C151.121 70.5291 150.852 70.6409 150.568 70.6817C150.288 70.7188 150.002 70.6854 149.738 70.5844C149.474 70.4834 149.239 70.318 149.054 70.1033L148.918 69.9502C148.645 69.6218 148.331 69.3301 147.983 69.0827C147.188 68.4669 146.215 68.1266 145.21 68.1131Z" fill="#093F68"/>
<path d="M278.979 131.164C278.843 130.296 278.724 129.463 278.588 128.595C278.179 126.265 277.771 123.917 277.346 121.57C277.074 120.022 276.802 118.457 276.682 116.875C276.558 115.469 276.685 114.052 277.057 112.69C277.329 111.777 277.718 110.902 278.213 110.088C278.659 109.35 279.166 108.65 279.727 107.996C280.642 106.909 281.868 106.129 283.24 105.76C284.611 105.392 286.063 105.454 287.399 105.937C288.744 106.396 289.925 107.238 290.799 108.359C291.672 109.48 292.199 110.832 292.315 112.248C292.4 112.954 292.4 113.668 292.315 114.374C292.322 114.425 292.322 114.477 292.315 114.528H292.502C293.95 114.001 295.514 113.877 297.027 114.17C298.352 114.433 299.574 115.071 300.548 116.007C301.722 117.075 302.499 118.511 302.749 120.078C303 121.645 302.709 123.251 301.926 124.632C301.499 125.375 300.978 126.061 300.378 126.673C299.758 127.356 299.068 127.971 298.32 128.51C297.163 129.337 295.849 129.916 294.458 130.211C293.034 130.499 291.589 130.67 290.138 130.721C287.96 130.823 285.783 130.891 283.606 131.011C282.109 131.011 280.629 131.198 279.132 131.3L278.979 131.164Z" fill="#FF1999"/>
<path d="M279.098 132.853C278.676 132.861 278.264 132.721 277.934 132.457C277.605 132.193 277.379 131.821 277.295 131.407L277.176 130.659C277.091 130.063 277.006 129.485 276.904 128.958C276.581 127.087 276.257 125.215 275.917 123.344L275.679 121.932C275.355 120.32 275.128 118.69 274.999 117.05C274.851 115.445 274.995 113.825 275.424 112.271C275.732 111.21 276.184 110.197 276.768 109.26C277.259 108.436 277.829 107.661 278.469 106.946C279.588 105.575 281.108 104.587 282.815 104.121C284.523 103.654 286.333 103.732 287.994 104.344C289.628 104.907 291.065 105.932 292.13 107.293C293.195 108.654 293.844 110.294 293.999 112.015C293.999 112.117 293.999 112.219 293.999 112.339C295.095 112.171 296.213 112.2 297.299 112.424C298.925 112.756 300.427 113.533 301.637 114.669C303.008 115.934 303.943 117.602 304.307 119.432C304.723 121.461 304.384 123.572 303.355 125.368C302.881 126.225 302.31 127.024 301.654 127.75C300.947 128.523 300.16 129.219 299.306 129.825C297.955 130.746 296.434 131.387 294.833 131.713C293.318 132.014 291.783 132.196 290.24 132.258L287.229 132.394C286.095 132.394 284.921 132.445 283.708 132.547L280.68 132.734L279.268 132.836L279.098 132.853ZM285.052 107.218C284.28 107.229 283.519 107.404 282.821 107.733C282.123 108.061 281.503 108.536 281.003 109.124C280.509 109.702 280.065 110.323 279.676 110.978C279.254 111.663 278.922 112.401 278.69 113.172C278.376 114.341 278.272 115.556 278.384 116.761C278.512 118.281 278.728 119.791 279.03 121.286L279.268 122.698C279.608 124.569 279.932 126.44 280.255 128.311C280.255 128.668 280.374 129.009 280.425 129.366C281.445 129.275 282.466 129.207 283.487 129.162L287.042 129.009L290.019 128.873C291.379 128.835 292.733 128.681 294.067 128.413C295.23 128.181 296.335 127.719 297.316 127.052C297.935 126.583 298.504 126.053 299.017 125.471C299.52 124.954 299.965 124.383 300.344 123.769C300.973 122.667 301.184 121.375 300.939 120.129C300.718 119.059 300.187 118.078 299.413 117.307C298.639 116.536 297.655 116.009 296.585 115.792C295.366 115.56 294.107 115.666 292.944 116.098C292.662 116.195 292.361 116.225 292.065 116.183C291.77 116.142 291.488 116.031 291.243 115.86C291.009 115.693 290.821 115.471 290.696 115.212C290.571 114.953 290.513 114.667 290.529 114.38C290.529 114.38 290.529 114.21 290.529 114.193C290.588 113.627 290.588 113.057 290.529 112.492C290.458 111.381 290.055 110.317 289.373 109.438C288.69 108.558 287.76 107.904 286.702 107.559C286.176 107.349 285.617 107.234 285.052 107.218Z" fill="#093F68"/>
</g>
<defs>
<clipPath id="clip0_1138_721">
<rect width="264" height="306" fill="white" transform="translate(68 47)"/>
</clipPath>
</defs>
</svg>
