<svg width="13611" height="3090" viewBox="0 0 13611 3090" fill="none" xmlns="http://www.w3.org/2000/svg">
<path d="M1745.92 54.4477C1650.63 13.6504 1558.17 7.19714 1533.42 87.4477C1506.21 175.654 1647.42 238.95 1745.92 190.948C1844.42 142.945 1833.42 91.9093 1745.92 54.4477Z" fill="#FF1999" stroke="#FF1999" stroke-width="50"/>
<path d="M1888.92 380.448C1793.63 339.65 1701.17 333.197 1676.42 413.448C1649.21 501.654 1790.42 564.95 1888.92 516.948C1987.42 468.945 1976.42 417.909 1888.92 380.448Z" fill="#FF1999" stroke="#FF1999" stroke-width="50"/>
<path d="M2507.98 2102.84C2162.95 1454.83 970.014 1102.85 438.982 1406.34C-92.0503 1709.83 -133.548 2282.33 438.982 2785.84C1011.51 3289.35 2355.5 2973 2507.98 2889.34C2660.47 2805.68 2853.01 2750.84 2507.98 2102.84Z" fill="#FF1999" stroke="#FF1999" stroke-width="50"/>
<g filter="url(#filter0_i_1050_274)">
<path d="M1278.35 2480.34C1258.28 2797.77 1447.03 2917.37 1984 3050L1770 3076C1353.95 2990.7 1249.55 2851.35 1278.35 2480.34C1279.2 2466.92 1280.42 2453.15 1282 2439C1280.62 2453.09 1279.39 2466.87 1278.35 2480.34Z" fill="#1E263F"/>
<path d="M1376.77 2869.56C1353.39 2840.72 1335.71 2807.75 1323.16 2769.44C1345.61 2800.37 1373.5 2828.44 1407.02 2854.27C1504 2929 1649.4 2985.88 1850.2 3041.07L1771.04 3050.69C1566.29 3008.33 1444.99 2953.68 1376.77 2869.56Z" stroke="#1E263F" stroke-width="50" stroke-linejoin="round"/>
</g>
<path d="M429.605 1387C379.429 359.832 659.732 120.179 1529.61 96" stroke="#FF1999" stroke-width="50" stroke-linecap="round"/>
<path d="M624 1324.5C845.882 665.556 1075.57 479.71 1653.5 442" stroke="#FF1999" stroke-width="50" stroke-linecap="round"/>
<path d="M1176.02 1361.36C924.851 1313.06 692.293 1455.54 615.025 1699.36C514.841 2015.5 850.285 2399.09 1176.02 2336.86C1459.93 2282.62 1639.01 1975 1552.02 1699.36C1492.61 1511.07 1369.92 1398.65 1176.02 1361.36Z" fill="white" stroke="#1E263F" stroke-width="50"/>
<path d="M1222.09 1646.55C1093.26 1751.99 1073.51 1743.25 999.282 1582C503.029 1837.85 671.188 2272.33 999.282 2302.09C1104.91 2311.66 1131.15 2318.42 1222.09 2271.64C1467.32 2145.51 1496.22 1908.16 1222.09 1646.55Z" fill="#1E263F" stroke="#1E263F" stroke-width="50"/>
<path d="M3680.51 3076.08C3589.89 3076.08 3510.2 3050.41 3441.46 2999.06C3374.27 2946.01 3321.93 2871.55 3284.43 2775.71C3248.5 2679.86 3230.53 2569.47 3230.53 2444.52C3230.53 2353.81 3239.9 2263.96 3258.65 2174.96C3277.4 2085.96 3307.09 2012.36 3347.71 1954.17C3389.9 1894.26 3442.24 1864.31 3504.74 1864.31C3562.55 1864.31 3607.08 1884.85 3638.32 1925.93C3669.57 1967 3685.2 2022.63 3685.2 2092.8C3685.2 2130.46 3676.6 2185.22 3659.42 2257.11C3657.86 2267.38 3653.17 2293.05 3645.36 2334.13C3637.54 2373.49 3633.64 2408.58 3633.64 2439.39C3633.64 2499.29 3639.11 2542.08 3650.04 2567.75C3660.98 2591.72 3683.64 2603.7 3718.01 2603.7C3753.94 2603.7 3778.16 2582.3 3790.66 2539.51C3803.16 2495.01 3809.41 2430.83 3809.41 2346.97L3807.07 2154.42C3807.07 2094.51 3821.13 2044.02 3849.25 2002.95C3878.94 1961.87 3923.47 1941.33 3982.84 1941.33C4042.21 1941.33 4087.53 1962.72 4118.77 2005.51C4150.02 2046.59 4165.65 2096.22 4165.65 2154.42L4163.3 2275.08C4161.74 2300.75 4160.96 2337.55 4160.96 2385.48C4160.96 2457.36 4167.21 2512.13 4179.71 2549.78C4193.77 2585.73 4219.55 2603.7 4257.05 2603.7C4330.48 2603.7 4367.2 2548.93 4367.2 2439.39C4367.2 2405.16 4354.7 2345.25 4329.7 2259.68C4328.14 2251.12 4321.89 2227.16 4310.95 2187.79C4300.02 2148.43 4294.55 2115.05 4294.55 2087.67C4294.55 2014.07 4307.83 1959.3 4334.39 1923.36C4362.51 1885.7 4405.48 1866.88 4463.29 1866.88C4525.79 1866.88 4577.35 1896.83 4617.97 1956.73C4660.16 2014.93 4690.63 2088.52 4709.38 2177.52C4728.13 2264.81 4737.5 2352.96 4737.5 2441.96C4737.5 2631.94 4696.88 2784.26 4615.63 2898.94C4534.38 3011.9 4425.01 3068.38 4287.52 3068.38C4225.02 3068.38 4167.21 3055.54 4114.09 3029.87C4060.96 3004.2 4017.22 2969.11 3982.84 2924.61C3946.91 2970.82 3902.38 3007.62 3849.25 3035.01C3797.69 3062.39 3741.44 3076.08 3680.51 3076.08ZM5398.01 3073.52C5282.39 3073.52 5180.05 3048.7 5090.99 2999.06C5001.93 2949.43 4932.41 2880.11 4882.41 2791.11C4833.97 2700.4 4809.75 2598.56 4809.75 2485.6C4809.75 2374.35 4833.97 2271.66 4882.41 2177.52C4932.41 2083.39 5001.15 2008.08 5088.65 1951.6C5176.15 1895.12 5275.36 1866.88 5386.29 1866.88C5486.29 1866.88 5574.57 1889.13 5651.13 1933.63C5727.69 1978.13 5786.28 2037.18 5826.9 2110.77C5867.53 2182.66 5887.84 2257.97 5887.84 2336.7C5887.84 2465.06 5843.31 2559.2 5754.25 2619.1C5666.75 2677.29 5562.07 2706.39 5440.2 2706.39C5358.95 2706.39 5290.2 2695.26 5233.96 2673.01C5280.83 2756.88 5358.17 2798.81 5465.98 2798.81C5509.73 2798.81 5556.6 2792.82 5606.6 2780.84C5625.35 2775.71 5643.32 2773.14 5660.5 2773.14C5694.88 2773.14 5722.22 2782.55 5742.53 2801.38C5764.41 2820.21 5775.34 2845.88 5775.34 2878.4C5775.34 2931.46 5745.66 2977.67 5686.28 3017.03C5626.91 3054.69 5530.82 3073.52 5398.01 3073.52ZM5240.99 2359.8C5255.05 2383.76 5273.8 2401.74 5297.24 2413.72C5322.23 2423.99 5349.58 2429.12 5379.26 2429.12C5413.64 2429.12 5443.32 2420.56 5468.32 2403.45C5494.88 2386.33 5508.16 2364.08 5508.16 2336.7C5508.16 2305.89 5496.45 2279.36 5473.01 2257.11C5451.14 2234.86 5419.11 2223.73 5376.92 2223.73C5334.73 2223.73 5301.14 2238.28 5276.14 2267.38C5252.71 2294.76 5240.99 2325.57 5240.99 2359.8ZM6631.33 3073.52C6346.96 3073.52 6163.37 2978.53 6080.57 2788.54C5999.32 2596.85 5958.69 2402.59 5958.69 2205.76C5958.69 2060.28 5970.41 1916.51 5993.85 1774.45C6018.85 1632.4 6058.69 1513.44 6113.38 1417.6C6168.06 1321.75 6239.15 1273.83 6326.65 1273.83C6381.34 1273.83 6428.21 1292.66 6467.27 1330.31C6506.33 1367.96 6525.86 1422.73 6525.86 1494.62C6525.86 1530.56 6522.74 1566.5 6516.49 1602.44C6510.24 1638.39 6500.86 1682.89 6488.36 1735.94C6485.24 1746.21 6478.99 1771.89 6469.61 1812.96C6461.8 1854.04 6456.33 1892.55 6453.21 1928.49C6521.95 1887.42 6600.08 1866.88 6687.57 1866.88C6775.07 1866.88 6856.32 1888.27 6931.31 1931.06C7007.87 1973.85 7069.59 2039.74 7116.46 2128.74C7164.9 2216.03 7189.12 2323 7189.12 2449.66C7189.12 2557.49 7166.46 2659.32 7121.15 2755.17C7075.84 2849.3 7010.22 2926.32 6924.28 2986.23C6839.91 3044.42 6742.26 3073.52 6631.33 3073.52ZM6617.26 2667.88C6659.45 2667.88 6696.17 2650.76 6727.42 2616.53C6760.23 2580.59 6776.63 2538.66 6776.63 2490.74C6776.63 2442.81 6760.23 2400.88 6727.42 2364.94C6696.17 2328.99 6659.45 2311.02 6617.26 2311.02C6575.08 2311.02 6538.36 2328.99 6507.11 2364.94C6475.86 2400.88 6460.24 2442.81 6460.24 2490.74C6460.24 2538.66 6475.86 2580.59 6507.11 2616.53C6538.36 2650.76 6575.08 2667.88 6617.26 2667.88ZM7682.84 3073.52C7560.97 3073.52 7460.98 3043.56 7382.86 2983.66C7304.73 2922.04 7265.67 2833.9 7265.67 2719.23C7265.67 2619.96 7305.51 2541.23 7385.2 2483.03C7464.88 2424.84 7564.1 2395.74 7682.84 2395.74C7726.59 2395.74 7767.22 2400.02 7804.71 2408.58C7843.78 2415.43 7870.34 2423.99 7884.4 2434.25C7884.4 2391.47 7867.99 2356.38 7835.18 2328.99C7802.37 2299.9 7752.37 2285.35 7685.19 2285.35C7655.5 2285.35 7631.28 2287.92 7612.53 2293.05C7593.78 2298.19 7573.47 2305.89 7551.6 2316.16C7529.72 2326.43 7509.41 2334.13 7490.66 2339.26C7473.48 2344.4 7450.04 2346.97 7420.35 2346.97C7370.36 2346.97 7331.29 2333.27 7303.17 2305.89C7275.05 2276.79 7260.98 2233.15 7260.98 2174.96C7260.98 2108.21 7282.86 2051.72 7326.61 2005.51C7371.92 1959.3 7428.17 1925.07 7495.35 1902.82C7562.54 1878.86 7629.72 1866.88 7696.91 1866.88C7829.71 1866.88 7940.65 1894.26 8029.71 1949.03C8120.35 2002.09 8186.76 2073.12 8228.94 2162.12C8272.69 2251.12 8294.56 2349.53 8294.56 2457.36C8294.56 2515.55 8289.88 2569.47 8280.5 2619.1C8272.69 2668.74 8261.75 2707.25 8247.69 2734.63C8269.57 2755.17 8285.97 2779.13 8296.91 2806.51C8309.41 2833.9 8315.66 2862.14 8315.66 2891.24C8315.66 2940.87 8300.03 2983.66 8268.78 3019.6C8239.1 3055.54 8199.26 3073.52 8149.26 3073.52C8111.76 3073.52 8081.27 3067.53 8057.83 3055.54C8034.39 3043.56 8009.39 3024.74 7982.83 2999.06C7943.77 3024.74 7900.8 3043.56 7853.93 3055.54C7808.62 3067.53 7751.59 3073.52 7682.84 3073.52ZM7729.72 2814.22C7762.53 2814.22 7788.31 2806.51 7807.06 2791.11C7827.37 2775.71 7837.53 2756.88 7837.53 2734.63C7837.53 2712.38 7827.37 2693.55 7807.06 2678.15C7788.31 2662.75 7762.53 2655.04 7729.72 2655.04C7696.91 2655.04 7670.34 2662.75 7650.03 2678.15C7631.28 2693.55 7621.91 2712.38 7621.91 2734.63C7621.91 2756.88 7631.28 2775.71 7650.03 2791.11C7670.34 2806.51 7696.91 2814.22 7729.72 2814.22ZM9335.69 3073.52C9279.44 3073.52 9237.25 3056.4 9209.13 3022.17C9182.57 2987.94 9166.16 2946.01 9159.91 2896.37C9153.66 2846.74 9150.54 2782.55 9150.54 2703.82C9150.54 2602.84 9138.04 2524.97 9113.04 2470.2C9088.04 2415.43 9047.42 2388.04 8991.17 2388.04C8939.61 2388.04 8900.55 2415.43 8873.99 2470.2C8848.99 2523.25 8836.49 2596.85 8836.49 2690.99C8836.49 2781.7 8834.14 2850.16 8829.46 2896.37C8824.77 2942.58 8809.14 2983.66 8782.58 3019.6C8756.02 3053.83 8712.27 3070.95 8651.34 3070.95C8562.28 3070.95 8499.78 3008.48 8463.84 2883.53C8427.91 2756.88 8409.94 2608.83 8409.94 2439.39C8409.94 2028.62 8488.84 1823.23 8646.65 1823.23C8690.4 1823.23 8726.33 1835.21 8754.46 1859.18C8782.58 1881.43 8802.11 1913.95 8813.05 1956.73C8833.36 1932.77 8864.61 1911.38 8906.8 1892.55C8950.55 1873.72 8996.64 1864.31 9045.07 1864.31C9216.94 1864.31 9345.06 1932.77 9429.43 2069.7C9515.37 2206.62 9558.33 2392.32 9558.33 2626.8C9558.33 2765.44 9541.93 2874.98 9509.12 2955.42C9476.31 3034.15 9418.5 3073.52 9335.69 3073.52ZM10725.5 1961.87C10725.5 2050.87 10687.2 2111.63 10610.6 2144.15C10534.1 2174.96 10429.4 2191.22 10296.6 2192.93C10295 2235.72 10294.2 2305.03 10294.2 2400.88C10294.2 2498.44 10300.5 2567.75 10313 2608.83C10320.8 2637.93 10332.5 2656.75 10348.2 2665.31C10365.3 2673.87 10390.3 2679.86 10423.1 2683.28C10434.1 2685 10445.8 2687.56 10458.3 2690.99C10472.4 2692.7 10488 2695.26 10505.2 2698.69C10541.1 2707.25 10569.2 2728.64 10589.5 2762.87C10609.9 2795.39 10620 2837.32 10620 2888.67C10620 2946.86 10592.7 2992.22 10538 3024.74C10483.3 3057.26 10408.3 3073.52 10313 3073.52C10225.5 3073.52 10141.9 3046.13 10062.2 2991.36C9982.54 2934.88 9927.85 2859.57 9898.17 2765.44C9866.92 2664.46 9851.29 2473.62 9851.29 2192.93C9741.92 2189.5 9653.64 2174.1 9586.46 2146.72C9520.84 2117.62 9488.02 2066.27 9488.02 1992.68C9488.02 1900.25 9519.27 1838.64 9581.77 1807.83C9644.27 1775.31 9734.11 1758.19 9851.29 1756.48C9855.98 1619.56 9875.51 1505.74 9909.88 1415.03C9944.26 1322.61 10006 1276.4 10095 1276.4C10185.7 1276.4 10244.3 1319.18 10270.8 1404.76C10298.9 1490.34 10311.4 1607.58 10308.3 1756.48C10450.5 1754.77 10555.2 1766.75 10622.4 1792.43C10691.1 1818.1 10725.5 1874.58 10725.5 1961.87ZM11768.8 3073.52C11668.8 3073.52 11601.6 3009.33 11567.2 2880.97C11534.4 2752.6 11518 2575.46 11518 2349.53C11518 2246.84 11521.9 2161.26 11529.7 2092.8C11539.1 2022.63 11560.2 1963.58 11593 1915.66C11627.4 1866.02 11679.7 1841.2 11750 1841.2C11793.8 1841.2 11832.1 1852.33 11864.9 1874.58C11899.3 1896.83 11921.1 1928.49 11930.5 1969.57C11964.9 1935.34 12009.4 1909.67 12064.1 1892.55C12118.8 1875.44 12177.4 1866.88 12239.9 1866.88C12289.9 1866.88 12340.7 1880.57 12392.2 1907.95C12445.3 1935.34 12489.1 1972.99 12523.5 2020.92C12559.4 2067.13 12577.4 2117.62 12577.4 2172.39C12577.4 2227.16 12559.4 2275.94 12523.5 2318.73C12489.1 2359.8 12443 2380.34 12385.2 2380.34C12366.4 2380.34 12348.5 2377.77 12331.3 2372.64C12315.7 2367.5 12301.6 2362.37 12289.1 2357.23C12257.8 2343.54 12232.8 2336.7 12214.1 2336.7C12153.2 2336.7 12099.3 2363.23 12052.4 2416.28C12007.1 2467.63 11984.4 2534.38 11984.4 2616.53C11984.4 2707.25 11981.3 2782.55 11975 2842.46C11968.8 2902.36 11950 2956.27 11918.8 3004.2C11887.5 3050.41 11837.5 3073.52 11768.8 3073.52ZM13062 3073.52C12924.5 3073.52 12815.1 3048.7 12733.9 2999.06C12652.7 2949.43 12612 2885.25 12612 2806.51C12612 2755.17 12627.7 2715.8 12658.9 2688.42C12691.7 2659.32 12733.1 2644.77 12783.1 2644.77C12811.2 2644.77 12833.9 2649.05 12851.1 2657.61C12868.3 2666.17 12885.5 2678.15 12902.6 2693.55C12915.1 2705.53 12925.3 2714.09 12933.1 2719.23C12942.5 2724.36 12953.4 2726.93 12965.9 2726.93C12998.7 2726.93 13015.1 2714.09 13015.1 2688.42C13015.1 2664.46 13006.5 2646.49 12989.4 2634.5C12972.2 2620.81 12942.5 2604.55 12900.3 2585.73C12861.2 2568.61 12835.5 2556.63 12823 2549.78C12751.1 2512.13 12698 2467.63 12663.6 2416.28C12629.2 2364.94 12612 2310.17 12612 2251.98C12612 2186.94 12633.1 2125.32 12675.3 2067.13C12719.1 2007.22 12780 1959.3 12858.1 1923.36C12937.8 1885.7 13029.2 1866.88 13132.3 1866.88C13221.4 1866.88 13301.8 1880.57 13373.7 1907.95C13447.2 1935.34 13505 1972.99 13547.1 2020.92C13589.3 2067.13 13610.4 2118.47 13610.4 2174.96C13610.4 2228.01 13594.8 2268.23 13563.6 2295.62C13533.9 2323 13493.2 2336.7 13441.7 2336.7C13421.4 2336.7 13405 2334.98 13392.5 2331.56C13381.5 2326.43 13366.7 2318.73 13347.9 2308.46C13337 2301.61 13325.3 2295.62 13312.8 2290.48C13301.8 2285.35 13289.3 2282.78 13275.3 2282.78C13262.8 2282.78 13251.8 2287.92 13242.5 2298.19C13233.1 2306.74 13228.4 2317.87 13228.4 2331.56C13228.4 2357.23 13245.6 2376.06 13280 2388.04C13370.6 2420.56 13443.2 2461.64 13497.9 2511.27C13554.2 2560.91 13582.3 2629.37 13582.3 2716.66C13582.3 2827.91 13534.7 2915.2 13439.3 2978.53C13345.6 3041.85 13219.8 3073.52 13062 3073.52Z" fill="white"/>
<path d="M11121.8 3060.68C11187.4 3060.68 11244.4 3034.15 11292.8 2981.09C11341.3 2928.03 11365.5 2865.56 11365.5 2793.68C11365.5 2721.79 11341.3 2659.32 11292.8 2606.26C11244.4 2553.2 11187.4 2526.68 11121.8 2526.68C11056.1 2526.68 10999.1 2553.2 10950.7 2606.26C10902.2 2659.32 10878 2721.79 10878 2793.68C10878 2865.56 10902.2 2928.03 10950.7 2981.09C10999.1 3034.15 11056.1 3060.68 11121.8 3060.68Z" fill="#FF1999"/>
<defs>
<filter id="filter0_i_1050_274" x="1273.88" y="2439" width="710.117" height="641" filterUnits="userSpaceOnUse" color-interpolation-filters="sRGB">
<feFlood flood-opacity="0" result="BackgroundImageFix"/>
<feBlend mode="normal" in="SourceGraphic" in2="BackgroundImageFix" result="shape"/>
<feColorMatrix in="SourceAlpha" type="matrix" values="0 0 0 0 0 0 0 0 0 0 0 0 0 0 0 0 0 0 127 0" result="hardAlpha"/>
<feOffset dy="4"/>
<feGaussianBlur stdDeviation="2"/>
<feComposite in2="hardAlpha" operator="arithmetic" k2="-1" k3="1"/>
<feColorMatrix type="matrix" values="0 0 0 0 0 0 0 0 0 0 0 0 0 0 0 0 0 0 0.25 0"/>
<feBlend mode="normal" in2="shape" result="effect1_innerShadow_1050_274"/>
</filter>
</defs>
</svg>
